<svg id="图层_1" xmlns="http://www.w3.org/2000/svg" viewBox="0 0 100 100"><style>.st0{fill:#f5d020}</style><g id="XMLID_2_"><path id="XMLID_8_" class="st0" d="M84.6.5H15.4c-.5 0-1 .5-1 1v97c0 .5.5 1 1 1h69.1c.5 0 1-.5 1-1v-97c.1-.5-.4-1-.9-1zm-2.2 94.7c0 .5-.5 1-1 1H17.9c-.5 0-1-.5-1-1l.7-90c0-.5.5-1 1-1h62.8c.5 0 1 .5 1 1v90z"/><path id="XMLID_7_" class="st0" d="M56.1 10.5H44c-1 0-1.8-.8-1.8-1.7 0-1 .8-1.8 1.8-1.8h12.1c1 0 1.8.8 1.8 1.7 0 1-.8 1.8-1.8 1.8z"/><circle id="XMLID_6_" class="st0" cx="50" cy="88.3" r="4.5"/><path id="XMLID_3_" class="st0" d="M74.8 13.6H25.2c-.4 0-.7.3-.7.7v64c0 .4.3.7.7.7h49.6c.4 0 .7-.3.7-.7v-64c0-.4-.3-.7-.7-.7zm-.9 62.9c0 .4-.3.7-.7.7H26.8c-.4 0-.7-.3-.7-.7V16c0-.4.3-.7.7-.7h46.4c.4 0 .7.3.7.7v60.5z"/></g></svg>