<?xml version="1.0" encoding="utf-8"?>
<!-- Generator: Adobe Illustrator 19.0.0, SVG Export Plug-In . SVG Version: 6.00 Build 0)  -->
<svg version="1.1" id="图层_1" xmlns="http://www.w3.org/2000/svg" xmlns:xlink="http://www.w3.org/1999/xlink" x="0px" y="0px"
	 viewBox="0 0 100 100" style="enable-background:new 0 0 100 100;" xml:space="preserve">
<style type="text/css">
	.st0{fill:#F5D020;}
</style>
<path id="XMLID_16_" class="st0" d="M86.3,1H13.8c-0.5,0-1,0.5-1,1v94.7l-8.2,0v3.3h90.7v-3.2l-8.1,0V2C87.3,1.5,86.8,1,86.3,1z
	 M84.1,96.7H15.3l0.7-91c0-0.5,0.5-1,1-1h66.1c0.5,0,1,0.5,1,1V96.7z"/>
<circle id="XMLID_15_" class="st0" cx="64.7" cy="44.1" r="5.6"/>
<path id="XMLID_12_" class="st0" d="M79.9,96.8v-87c0-0.4-0.3-0.7-0.7-0.7H21.6c-0.4,0-0.7,0.3-0.7,0.7v87 M22.5,97V11.5
	c0-0.4,0.3-0.7,0.7-0.7h54.4c0.4,0,0.7,0.3,0.7,0.7V97"/>
</svg>
