<svg id="图层_1" xmlns="http://www.w3.org/2000/svg" viewBox="0 0 100 100"><style>.st0,.st1{fill:none;stroke:#f5d020;stroke-width:3;stroke-miterlimit:10}.st1{stroke-width:2}.st2{fill:#f5d020}</style><path id="XMLID_12_" class="st0" d="M28.6 21.2c-.1 5.4 0 12.4 4 21C39.8 57.4 51 56 51 56c4.5 0 11.5-5.4 15.9-13.9s3.8-15.4 3.6-20.8c-.9-25.7-41.3-25.8-41.9-.1z"/><path id="XMLID_4_" class="st1" d="M50.4 60.6l-9.3 8.6 9.3 20.9 9.4-21z"/><path id="XMLID_3_" class="st0" d="M32.2 61.4S30.1 63.2 26 64c0 0-9.3 1.2-12.7 3.7-3.1 2.2-5.8 5.2-5.8 11.1C7.4 85 7 97.9 7 97.9h40.8L32.2 61.4z"/><path id="XMLID_2_" class="st0" d="M68.5 61.4s2.1 1.8 6.2 2.6c0 0 9.3 1.2 12.7 3.7 3.1 2.2 5.8 5.2 5.8 11.1 0 6.3.4 19.1.4 19.1H52.8l15.7-36.5z"/><path id="XMLID_1_" class="st2" d="M69.8 78.2h10.4v3H69.8z"/></svg>