<?xml version="1.0" encoding="utf-8"?>
<!-- Generator: Adobe Illustrator 19.0.0, SVG Export Plug-In . SVG Version: 6.00 Build 0)  -->
<svg version="1.1" id="图层_1" xmlns="http://www.w3.org/2000/svg" xmlns:xlink="http://www.w3.org/1999/xlink" x="0px" y="0px"
	 viewBox="0 0 100 100" style="enable-background:new 0 0 100 100;" xml:space="preserve">
<style type="text/css">
	.st0{fill:none;stroke:#F5D020;stroke-width:3;stroke-miterlimit:10;}
	.st1{fill:none;stroke:#F5D020;stroke-width:2;stroke-miterlimit:10;}
	.st2{fill:#F5D020;}
</style>
<path id="XMLID_12_" class="st0" d="M28.6,21.2c-0.1,5.4,0,12.4,4,21C39.8,57.4,51,56,51,56c4.5,0,11.5-5.4,15.9-13.9
	s3.8-15.4,3.6-20.8C69.6-4.4,29.2-4.5,28.6,21.2z"/>
<polygon id="XMLID_4_" class="st1" points="50.4,60.6 41.1,69.2 50.4,90.1 59.8,69.1 "/>
<path id="XMLID_3_" class="st0" d="M32.2,61.4c0,0-2.1,1.8-6.2,2.6c0,0-9.3,1.2-12.7,3.7c-3.1,2.2-5.8,5.2-5.8,11.1
	C7.4,85,7,97.9,7,97.9h40.8L32.2,61.4z"/>
<path id="XMLID_2_" class="st0" d="M68.5,61.4c0,0,2.1,1.8,6.2,2.6c0,0,9.3,1.2,12.7,3.7c3.1,2.2,5.8,5.2,5.8,11.1
	c0,6.3,0.4,19.1,0.4,19.1H52.8L68.5,61.4z"/>
<rect id="XMLID_1_" x="69.8" y="78.2" class="st2" width="10.4" height="3"/>
</svg>
