<svg xmlns="http://www.w3.org/2000/svg" preserveAspectRatio="xMidYMid" width="120" height="30" viewBox="0 0 120 30"><defs><style>.cls-1{fill:#0d0d0d;fill-rule:evenodd}</style></defs><path d="M115.289 27.695c-1.719.312-3.79.352-6.211.118-1.954-.158-2.774-1.681-2.461-4.571l.821-11.836V9.531l-1.407.117c-.157 8.127-3.907 14.883-11.25 20.274-.157.077-.274.077-.351 0-.079-.158-.079-.275 0-.352 6.17-4.998 9.217-11.601 9.14-19.804h-.468c-1.172 0-2.15.117-2.93.351l-.938-.937 4.336-.117V7.539c.077-.78.118-1.366.118-1.758 0-1.796-.079-3.319-.235-4.57l3.164 1.055c.311.078.311.274 0 .586l-.351.82c0 1.875-.079 3.633-.235 5.273l6.446-.234 1.64-1.523 1.758 1.757c.156.079.117.196-.117.352l-7.5.234 2.344 1.172c.155 0 .155.079 0 .235l-.469.82-1.758 11.601c-.157 1.095.117 1.681.82 1.758 1.328.235 2.89.196 4.688-.117.703-.234 1.249-.859 1.64-1.875.077-.077.156-.117.235-.117.155.079.194.157.117.234-.157 1.095.077 1.798.703 2.11.78.937.352 1.717-1.289 2.343zm-5.977-21.093c-.157-1.407-.547-2.5-1.171-3.282-.079-.234 0-.311.234-.234 2.265.703 3.398 1.485 3.398 2.344-.078.703-.509 1.25-1.289 1.64-.626.313-1.016.158-1.172-.468zm-10.664 5.156c-.313.234-.547.196-.703-.117-.468-.938-.82-2.031-1.054-3.282v-.351c.077 0 .194.04.351.117 1.562.782 2.382 1.485 2.461 2.109 0 .548-.351 1.055-1.055 1.524zm-2.226-8.555l-.352 16.406.118 5.391c-.314 1.406-.978 2.578-1.993 3.516-.234.155-.43.234-.586.234-.157-.079-.196-.234-.117-.469l.352-9.023.351-14.063-.117-3.867c0-.156.039-.234.117-.234.077 0 .156.04.235.117l2.226 1.055c.156 0 .156.117 0 .351l-.234.586zm-6.68 12.422c-.703-.546-.82-1.132-.351-1.758 1.64-1.014 2.499-3.085 2.578-6.211.155-.234.273-.273.351-.117.703 2.344.78 4.376.235 6.094-.548 1.329-1.485 1.992-2.813 1.992zM78.891 27.93c-2.892-.079-4.181-2.148-3.868-6.211l.235-5.156v-3.282l-.703.117c0 7.5-5.001 12.891-15 16.172-.158.077-.275.039-.352-.117 0-.157.077-.275.234-.351 8.281-3.124 12.422-8.359 12.422-15.704l-6.211.235c-1.406 0-2.46.079-3.164.234l-1.054-.937 10.547-.235c.076-2.109.117-4.53.117-7.265l-3.985.117c-1.406 0-2.461.117-3.164.351l-.937-.937 16.172-.469 1.758-1.758 2.226 1.993.117.234c-.078.079-.157.117-.234.117l-9.258.352c.077 2.735 0 5.156-.234 7.265l8.203-.234 1.64-1.758 2.227 1.992c.077.079.117.158.117.235 0 .078-.079.117-.234.117l-10.664.234 2.695 1.055c.077 0 .156.04.234.117l-.234.234-.586.704-.82 8.086c-.158 1.171.39 1.719 1.64 1.64 2.187.079 3.868 0 5.04-.234 1.014 0 1.796-1.015 2.343-3.047 0-.156.077-.234.235-.234.155.078.234.195.234.351-.157 1.406 0 2.305.469 2.695 1.172 1.017 1.014 1.914-.469 2.696-2.109.78-4.687.976-7.734.586zM55.852 15.625c-4.688-3.437-8.048-7.577-10.079-12.422v.117c-3.515 5.47-8.712 10.43-15.586 14.883-.157.079-.274.079-.351 0 0-.156.038-.273.117-.351 6.015-4.688 10.585-10.39 13.711-17.11l2.93 1.289c.234.079.234.235 0 .469l-.352.352c2.655 4.297 6.991 7.695 13.008 10.195.156.313.156.469 0 .469-1.095.078-2.227.781-3.398 2.109zM28.008 8.359c-1.485-.155-2.891.158-4.219.938-.157.079-.275 0-.352-.234l.938-3.047L7.5 6.602c-.703 2.501-1.992 4.259-3.867 5.273-.235.157-.43.117-.586-.117-.235-1.015-.196-1.679.117-1.992 1.562-1.484 2.382-3.007 2.461-4.571 0-.234.038-.351.117-.351.077 0 .235.04.469.117.311.079.703.43 1.172 1.055l6.679-.235-.117-4.804c0-.156.077-.235.235-.235l3.164 1.055c.234 0 .273.117.117.351-.234.235-.352.704-.352 1.407l-.117 2.109 7.266-.234 1.406-1.055 2.93 3.047c.234.547.038.86-.586.937zM3.633 15.156c.077-.077-.04-.077-.352 0l-1.054-1.054 8.671-.235.235-.469a46.831 46.831 0 0 0 2.344-5.507l3.281 1.523c.234 0 .273.117.117.352l-.82.703-2.344 3.398 10.43-.234 1.992-2.11 2.344 2.227c.076.079.117.157.117.234 0 .079-.079.118-.235.118l-7.851.234 2.226 1.758c.156.157.235.274.235.351 0 .079-.117.158-.352.235-2.032 2.188-3.984 3.984-5.859 5.39 4.609 1.251 7.304 2.306 8.086 3.164.703.782.897 1.718.586 2.813-.158.78-.548.937-1.172.469C21.68 26.718 18.593 25 15 23.359c-2.891 2.033-7.462 4.219-13.711 6.563-.157 0-.275-.04-.352-.117 0-.158.039-.275.118-.352 5.546-2.344 9.569-4.609 12.07-6.797-2.109-.937-3.984-1.64-5.625-2.109l2.93-5.86-3.282.118a67.768 67.768 0 0 0-3.515.351zm5.742 5.039c.469.079 1.172.275 2.109.586 1.249.313 2.227.548 2.93.703 2.186-2.343 4.023-4.687 5.508-7.031l-6.68.117-3.867 5.625zm33.703 1.172h-2.812c-1.095.079-2.15.196-3.164.352l-1.055-.938 7.031-.117v-1.406l-.117-4.805-1.992.117c-1.095 0-2.15.079-3.164.235l-.938-.938 11.719-.351 1.641-1.641 2.109 1.992c.234.158.194.235-.117.235l-7.852.351 1.875.469c.235.079.273.234.117.469-.234.078-.43.468-.586 1.172l-.117 3.984h3.399l1.757-1.641 2.227 1.875c.156.079.117.196-.117.352l-7.266.117-.117 6.094 7.852-.117 1.757-1.641 2.344 1.875c.156.156.156.273 0 .352l-21.68.351a37.863 37.863 0 0 0-3.164.352l-.937-.938 11.367-.234v-5.977z" class="cls-1"/></svg>