<svg xmlns="http://www.w3.org/2000/svg" preserveAspectRatio="xMidYMid" width="198" height="46" viewBox="0 0 198 46"><defs><style>.cls-1{fill:#1c1c1c;fill-rule:evenodd}</style></defs><path d="M193.185 35.154c-2.861-7.346-5.982-13.815-9.362-19.406l1.707-.585a131.695 131.695 0 0 1 9.166 19.309l-1.511.682zm-10.776 6.68c-.846 1.202-2.211 1.804-4.096 1.804h-10.97c-2.731 0-4.096-1.268-4.096-3.803V11.214h1.706v28.28c0 1.625.959 2.438 2.877 2.438h10.191c1.494 0 2.551-.456 3.169-1.366.78-1.299 1.317-5.038 1.609-11.214l1.56.536c-.292 6.241-.943 10.223-1.95 11.946zM166.172 2.535l1.414-.878c4.876 4.551 8.565 8.452 11.069 11.702l-1.414.975c-2.699-3.575-6.388-7.509-11.069-11.799zm-15.846 34.179c2.698-5.72 4.697-12.303 5.997-19.747l1.609.342c-1.462 7.834-3.51 14.611-6.143 20.332l-1.463-.927zm-8.582-8.191h-16.041v17.065h-1.755V28.523h-15.993v3.511h-1.707V10.141h17.7V.828h1.755v9.313h17.748v21.893h-1.707v-3.511zm-17.796-16.724h-15.993v15.066h15.993V11.799zm17.796 0h-16.041v15.066h16.041V11.799zm-53 32.912l-3.267-.098-.39-1.511c1.82.065 3.006.097 3.56.097 3.64 0 5.753-1.772 6.338-5.314.357-2.86.585-11.344.683-25.452h-9.557c-.195 14.953-3.722 25.907-10.58 32.863l-1.317-1.17c6.696-6.631 10.109-17.195 10.239-31.693h-6.631v-1.609h6.631V1.267h1.658v9.557h11.215c0 14.562-.228 23.664-.683 27.304-.52 4.389-3.153 6.583-7.899 6.583zm-10.776-9.459c-6.468 2.243-13.798 4.258-21.99 6.046l-.438-1.609 3.461-.732V4.095H74.36v30.718l3.608-1.17v1.609zM72.654 5.704H60.659v9.167h11.995V5.704zm0 10.727H60.659v9.313h11.995v-9.313zm0 10.873H60.659v11.263a177.638 177.638 0 0 0 11.995-3.218v-8.045zm-27.11-4.047c-1.3.325-2.877.488-4.729.488l-.586-1.609c.65.065 1.073.097 1.268.097 4.063 0 6.095-1.089 6.095-3.267 0-1.365-1.528-3.494-4.583-6.387a42.012 42.012 0 0 0 4.388-7.46H36.524v20.625h-1.658V3.559h14.335v1.17c-1.333 2.991-2.779 5.607-4.339 7.85 2.925 2.373 4.388 4.503 4.388 6.387-.033 2.276-1.268 3.706-3.706 4.291zM21.896 11.116h7.997v1.512h-7.997c-.097 1.918-.341 3.608-.731 5.071h9.995v1.511H20.677a14.702 14.702 0 0 1-1.56 3.023c-1.788 2.438-4.714 4.34-8.776 5.705l-.927-1.414c3.868-1.268 6.712-3.072 8.533-5.412.26-.422.585-1.056.975-1.902H8.536v-1.511h10.922c.422-1.495.683-3.186.781-5.071h-9.362v-1.512h9.362V6.094H9.95v-1.56h10.289V1.121h1.657v3.413h9.362v1.56h-9.362v5.022zm7.46 13.653h1.658v5.119h15.652v9.362c0 2.21-1.155 3.315-3.462 3.315h-4.145l-.439-1.609 4.047.049c1.561 0 2.341-.698 2.341-2.096v-7.461H31.014v14.14h-1.658v-14.14H15.558v11.166H13.9V29.888h15.456v-5.119z" class="cls-1"/></svg>