<svg xmlns="http://www.w3.org/2000/svg" preserveAspectRatio="xMidYMid" width="120" height="30" viewBox="0 0 120 30"><defs><style>.cls-1{fill:#0d0d0d;fill-rule:evenodd}</style></defs><path d="M114.703 19.492c-.782.548-1.289.392-1.523-.469-.938-3.358-2.227-5.78-3.867-7.265-.158-.235-.118-.311.117-.235 4.14 1.641 6.405 3.282 6.797 4.922-.079 1.251-.586 2.267-1.524 3.047zm-5.273 3.633l-.117-3.281c0-.156.076-.273.234-.352.077 0 .156.079.234.235l.821 2.343c.468 1.095 1.131 1.992 1.992 2.696 1.249.937 1.093 1.796-.469 2.578-2.736.859-6.368.976-10.898.351-2.579-.468-3.829-2.303-3.75-5.507l.234-9.024c0-2.344-.04-3.75-.117-4.219 0-.155.077-.194.234-.117l3.164 1.406c.156 0 .156.118 0 .352l-.351.703-.938 11.367c-.157 1.564.586 2.344 2.227 2.344 2.499.313 4.804.117 6.914-.586.469-.156.663-.586.586-1.289zm-5.157-15.586c-1.016-2.655-2.343-4.453-3.984-5.391-.157-.155-.079-.234.234-.234 3.985 1.095 6.094 2.15 6.329 3.164 0 1.251-.392 2.188-1.172 2.813-.782.468-1.251.351-1.407-.352zM90.914 21.484c-.861-.155-.937-.858-.234-2.109 1.327-1.718 2.03-4.374 2.109-7.969 0-.155.117-.234.352-.234.077 0 .155.079.234.234 1.014 3.439 1.132 6.251.352 8.438-.704 1.016-1.641 1.563-2.813 1.64zm-6.75-12.422c-1.641-2.265-3.243-3.867-4.805-4.804-.157-.077-.157-.156 0-.235.077 0 .235.041.469.118 2.968.626 4.999 1.367 6.094 2.226.624.782.624 1.72 0 2.813-.703.703-1.289.664-1.758-.118zm-8.32-5.742l-.117 4.219c-.158 1.095-.899 2.15-2.227 3.164-.313.158-.509.079-.586-.234l.117-3.75v-2.11l-.117-3.75 3.047 1.289c.234.079.273.235.117.469l-.234.703zm-13.477 8.438c-.392.234-.703.43-.937.586-.158 0-.235-.039-.235-.117 0-.077.039-.156.118-.235 2.655-2.186 4.804-4.96 6.445-8.32.155-.311.273-.39.351-.234l2.344 1.757c0 .079-.04.196-.117.352-1.954 1.875-4.611 3.946-7.969 6.211zm19.688-2.813c.155.158.117.235-.117.235l-.469.117c-2.97 1.798-7.149 3.556-12.539 5.273l.937.469 9.024-.234 1.289-1.641 2.929 1.758c.156.079.156.234 0 .469l-.703.937v8.438c0 1.406-.82 2.812-2.461 4.218-.468.312-.743.235-.82-.234-.313-1.172-.626-1.992-.937-2.461l-8.321.117c-.157.938-.664 1.835-1.523 2.696-.548.311-.861.272-.938-.118l.117-13.945a184.56 184.56 0 0 1-7.5 2.109c-.157 0-.234-.038-.234-.117-.079-.077-.04-.155.117-.234 8.828-2.734 15.507-6.054 20.039-9.961l2.11 2.109zm-4.571 9.961l-7.617.117v2.93l7.852-.234c.234 0 .351.078.351.234 0 .235-.117.352-.351.352l-7.852.234v3.398l8.789-.117c.235-.234.352-.545.352-.937l.117-9.492-9.141.234-.117 2.812 7.617-.234c.235 0 .352.117.352.352 0 .234-.117.351-.352.351zm-22.218 9.961c-3.516-.079-5.977-.313-7.383-.703-1.875-.703-3.36-2.303-4.453-4.805-.548 2.344-2.736 4.571-6.563 6.68-.234.077-.274 0-.117-.234 2.344-1.641 3.827-3.126 4.453-4.453.625-1.172.938-3.555.938-7.149l1.992.82c.234 0 .273.158.117.469l-.234.586c0 .158-.041.43-.118.82-.078.704-.157 1.213-.234 1.524.78 1.406 1.835 2.305 3.164 2.695V16.68l-1.523.117c-1.095 0-2.071.04-2.93.117l-.82-.82 5.273-.117V12.93l-2.695.117c-.235 0-.548.04-.938.117-1.016 0-1.681.079-1.992.234l-.82-.82a18.412 18.412 0 0 0-2.344 1.758v3.867l.117 5.625c.077 2.109-1.054 3.867-3.398 5.274-.313.155-.469.038-.469-.352.156-1.016-.157-1.758-.937-2.227-.079-.078-.118-.157-.118-.234.077-.079.194-.117.352-.117 1.483 0 2.148-.39 1.992-1.172l.117-8.789c-1.25 1.016-2.149 1.836-2.695 2.461-.234.234-.392.234-.469 0l-1.172-3.164c-.078-.077-.078-.117 0-.117-.078 0-.04-.039.118-.118.624-.155 1.834-.585 3.632-1.289.235-.077.429-.155.586-.234V8.477h-.468c-1.33.078-2.344.234-3.047.468l-.938-.937 4.453-.235v-.82c0-1.014-.04-2.344-.117-3.984V.977c.077-.077.194-.077.352 0l2.578.937c.234 0 .273.158.117.469l-.469.82v4.453h.703l1.407-1.406 1.64 1.406c.077.235.039.392-.117.469l-3.633.234-.117 4.336c1.172-.468 2.382-.976 3.633-1.523.234 0 .273.079.117.234-.469.313-.937.665-1.406 1.055l6.445-.117V9.297h-1.523c-1.172-.077-2.15 0-2.93.234l-.938-.82 5.391-.117v-2.93h-2.695c-1.251.079-2.267.196-3.047.352l-.82-.938 6.562-.117v-.352l-.117-3.75 3.164.938c.156.079.156.196 0 .351l-.586.938v1.875l3.867-.117 1.524-1.641 1.992 1.875c.156.079.156.196 0 .352l-7.383.117v2.93h2.578l1.406-1.407 2.11 1.524c.234.234.234.392 0 .468l-.586.704v2.343h.234l1.407-1.523 1.757 1.758c.156.157.118.234-.117.234l-3.398.117v2.93l.351.703c0 .234-.078.352-.234.352-.782-.156-2.305-.156-4.57 0h-.938l-.117 3.867h2.695l1.641-1.758 1.875 1.875c.155.158.155.275 0 .352l-6.211.117v4.336c1.172.157 3.592.117 7.266-.117.703-.077 1.248-.118 1.64-.118.156-.077.235-.038.235.118.076.078.038.195-.118.351-1.095.079-2.071 1.132-2.929 3.164zm-5.977-12.89l2.813-.118v-3.046l-2.813.117v3.047zm0-3.75h2.813l.117-3.047h-2.93v3.047zm-19.758 15c-1.25.076-2.657.858-4.219 2.343-3.673-1.406-6.562-3.204-8.671-5.39-1.954 2.186-5.86 4.101-11.719 5.742-.158 0-.275-.079-.352-.235 0-.078.077-.157.235-.234 5.467-1.641 9.1-3.788 10.898-6.445-1.016-1.328-1.836-2.93-2.461-4.805l.352-.117c.469 1.406 1.366 2.657 2.695 3.75.938-1.641 1.483-3.633 1.641-5.977l-3.282.118c-.313.781-.781 1.367-1.406 1.757a1.034 1.034 0 0 1-.469.118c-.078-.077-.117-.195-.117-.352V9.531c0-1.249-.04-2.069-.117-2.461 0-.155.117-.194.352-.117l1.64.82 3.633-.117c0-1.562-.079-2.734-.234-3.515h-1.641c-.234 0-.626.04-1.172.117-1.095 0-1.798.079-2.109.234l-.938-.82 12.539-.469 1.407-1.289 1.992 1.524.117.234c-.079.079-.157.117-.234.117l-9.141.352 1.523.937-.117 2.461 3.282-.117.937-1.289 2.813 1.406.117.117c.077 0 .077.079 0 .235l-.703 1.054v5.508c0 1.016-.548 2.071-1.641 3.164-.392.392-.743.392-1.055 0-.313-.78-.626-1.406-.937-1.875l-3.047.117c-.234 2.736-.938 5.039-2.11 6.914 2.813 1.564 6.757 2.892 11.836 3.985.156.077.195.155.118.234 0 .156-.079.235-.235.235zm-9.492-11.954l3.399-.117.117-7.148-3.399.117v3.047l2.11-.117c.234 0 .351.078.351.234 0 .234-.117.352-.351.352l-2.11.117-.117 1.992v1.523zm-1.875-6.328v-.703l-3.633.117v2.93h3.633V8.945zm0 3.985v-1.172l-3.633.117.117 3.516 3.399-.118c0-.703.038-1.483.117-2.343zM12.656 2.852l-.469.468c-1.094 2.033-2.226 3.867-3.398 5.508l.234 15.586c0 .861-.547 1.875-1.64 3.047-.158.156-.313.234-.469.234-.079 0-.117-.117-.117-.351l.117-7.852.117-8.203a59.269 59.269 0 0 1-6.328 6.914c-.079.079-.157.079-.234 0-.079-.156-.079-.273 0-.351 3.75-3.985 6.952-9.648 9.609-16.993l2.578 1.524c.156.079.156.196 0 .351.077 0 .077.041 0 .118z" class="cls-1"/></svg>