<?xml version="1.0" encoding="utf-8"?>
<!-- Generator: Adobe Illustrator 19.0.0, SVG Export Plug-In . SVG Version: 6.00 Build 0)  -->
<svg version="1.1" id="图层_1" xmlns="http://www.w3.org/2000/svg" xmlns:xlink="http://www.w3.org/1999/xlink" x="0px" y="0px"
	 viewBox="0 0 586 66" style="enable-background:new 0 0 586 66;" xml:space="preserve">
<style type="text/css">
	.st0{fill:#FFFFFF;}
</style>
<g id="XMLID_2_">
	<path id="XMLID_3_" class="st0" d="M16.5,18.1c-2.2,2.9-4.6,5.6-7.2,7.9l-0.8-1c5.7-5,9.9-11,12.8-18l1.2,0.3
		c-1.3,3.1-2.9,6.1-4.8,9v21.2h-1.2V18.1z M17.1,41.3c-1.8,5.4-4.2,10.1-7.3,14l-1-0.7c3.1-3.8,5.5-8.3,7.1-13.6L17.1,41.3z
		 M35.1,7.3c-0.9,2.1-1.9,4-3,5.9h23.5v0.8c-0.8,2.9-1.8,5.7-3.1,8.2l-1.2-0.3c1.3-2.4,2.3-4.9,3-7.5h-23c-2.1,3.1-4.6,6-7.4,8.5
		l-0.8-1c4.8-4.2,8.5-9.2,10.9-15L35.1,7.3z M26.9,56.9c-2.4,0-3.6-1.1-3.6-3.4V40h1.2v13.3c0,1.6,0.9,2.5,2.8,2.5h14.1
		c1.7,0,2.8-0.4,3.4-1.1c0.9-1,1.5-3.8,1.8-8.4l1.2,0.3c-0.3,4.7-1,7.7-2.1,9c-0.8,0.9-2.1,1.3-4.1,1.3H26.9z M33.7,24.7
		c-2.3,4.1-5.1,7.8-8.3,10.9l-1-0.7c3.2-3.1,6-6.7,8.1-10.6L33.7,24.7z M32.6,40c3,3,5.4,5.7,7.1,8l-1,0.7c-1.7-2.5-4-5.2-7-8.2
		L32.6,40z M33.6,37.6l-0.2-1.2c1.9,0.1,3.3,0.1,4.1,0.1c1.5,0,2.2-0.8,2.2-2.4v-15h1.2v15.3c0,2.2-1,3.2-3,3.2H33.6z M48.2,24.2
		c2.9,3.2,5.5,6.9,7.7,10.9l-1,0.5c-2.4-4.2-5.1-7.9-7.9-11L48.2,24.2z M49.6,40c3.9,5,6.9,9.3,8.8,12.9l-1,0.7
		c-2.1-4-5.1-8.3-8.8-13L49.6,40z"/>
	<path id="XMLID_13_" class="st0" d="M85,39.2h7.5V12.7h11c1-2,1.7-4,2.1-5.9l1.2,0.2c-0.5,2-1.2,3.9-2.1,5.8h17.5v26.5
		c3.8-3.8,6.7-8.1,8.7-12.7l1.1,0.6c-2.7,5.3-5.9,9.9-9.7,13.7v13.4c0,2.4-1.2,3.5-3.7,3.5h-5.7l-0.4-1.2l5.6,0.1
		c1.9,0,2.9-0.9,2.9-2.6V42c-1.9,1.8-3.8,3.2-5.4,4.3c-7.2,4.4-17,7.7-29.4,10l-0.5-1.1c14.7-2.7,25.4-6.6,32-11.8
		c1.4-1.1,2.5-2.1,3.4-2.9H85V39.2z M121,21.5v-7.6H93.7v7.6H121z M93.7,22.7V30H121v-7.3H93.7z M93.7,31.2v8H121v-8H93.7z"/>
	<path id="XMLID_18_" class="st0" d="M195.8,56.7c-2,0-5.5,0-10.4-0.1c-4-0.1-7-0.5-9-1.1c-2.2-0.7-4.3-2.1-6.3-4.4
		c-0.7-1-1.5-1.5-2.4-1.5c-1.8,0-4.5,2.7-8.2,8l-1-0.8c3.5-5.2,6.4-8,8.7-8.4V28.7h-9v-1.2h10.2v20.9c0.9,0.2,1.8,0.9,2.7,1.9
		c1.6,1.9,3.4,3.2,5.4,3.9c1.9,0.6,4.6,1,8.2,1.1c3.5,0.1,7.2,0.1,11,0.1h6.9l5.3-0.1l-0.3,1.3H195.8z M160.7,8.8
		c3.9,2.9,7.1,5.8,9.7,8.6l-0.8,0.9c-2.4-2.7-5.7-5.6-9.7-8.6L160.7,8.8z M186.9,7.3h1.2v9.9h16.3c-0.1,14.6-0.9,23.3-2.4,26.2
		c-1.6,2.9-4.3,4.3-8.1,4.3h-3.2l-0.3-1.3l3.2,0.1c4.1-0.1,6.7-1.7,7.7-4.6c1-2.9,1.6-10.8,1.8-23.5h-15.1
		c-0.6,13.5-5.1,23.4-13.3,29.7l-0.9-0.8c8.1-6.1,12.5-15.8,12.9-28.9h-11.8v-1.2h11.9V7.3z"/>
	<path id="XMLID_22_" class="st0" d="M250.9,17.8v36.6h-1.2v-3.8h-13.2v5.4h-1.2V17.8h4.8c1.3-3.2,2.2-6.8,2.8-10.5l1.2,0.2
		c-0.7,3.7-1.6,7.2-2.9,10.4H250.9z M236.4,33.3h13.2V19h-13.2V33.3z M236.4,49.4h13.2v-15h-13.2V49.4z M280,17.9
		c0,16.9-0.3,27.5-0.8,31.8c-0.5,4.9-3,7.3-7.6,7.3h-5.2l-0.3-1.2l5.5,0.1c3.6,0,5.7-2,6.3-6c0.4-3.8,0.7-14.1,0.8-30.7h-18.4
		c-1.6,3.8-3.5,7.3-5.8,10.3l-0.7-0.9c4.3-5.8,7.2-12.9,8.7-21.3l1.2,0.1c-0.7,3.9-1.7,7.4-2.9,10.6H280z M260,29.8
		c4.7,4.9,8.3,9,10.6,12.5l-0.9,0.7c-2.6-3.9-6.2-8.1-10.7-12.7L260,29.8z"/>
	<path id="XMLID_28_" class="st0" d="M308.3,14.2h16.4c0.9-2.4,1.7-4.7,2.4-6.9l1.2,0.1c-0.6,2.2-1.4,4.5-2.3,6.8h30.1v1.2h-30.6
		c-1.9,4.6-4.5,9.1-7.6,13.4V58h-1.2V30.3c-2.6,3.4-5.7,6.6-9.2,9.6l-0.7-1c7.8-6.8,13.6-14.6,17.4-23.6h-15.8V14.2z M323.5,39.6
		h17.2V33c3.7-2.1,7.2-4.5,10.4-7.4h-23.2v-1.2h25v1.2c-3.2,2.8-6.9,5.5-11,8.1v5.9h15v1.2h-15v13.7c0,2.1-1.1,3.2-3.4,3.2h-7.1
		l-0.3-1.2l6.9,0.1c1.8,0,2.6-0.8,2.6-2.5V40.8h-17.2V39.6z"/>
	<path id="XMLID_31_" class="st0" d="M387.6,21.9c-1.8,3.6-3.7,6.9-5.9,9.8l-0.3-1.2c4.9-7.1,8.3-14.9,10.3-23.3l1.1,0.5
		c-1.2,4.1-2.5,8-3.9,11.5v38.5h-1.2V21.9z M392.3,25.3h8.7v26.6c1.9-1.9,4-4.1,6.3-6.8l0.3,1.3c-2.6,3.2-5.3,6-8.1,8.5l-0.6-1.1
		c0.6-0.7,0.9-1.3,0.9-1.7V26.5h-7.5V25.3z M396.4,10.2c3.3,2.7,6.2,5.4,8.5,8.1l-0.9,0.9c-2.2-2.7-5-5.4-8.4-8.2L396.4,10.2z
		 M409.1,14.6h7.6V7.3h1.2v7.3h7.2v1.2h-7.2v9.6h3.1c3.2-4.3,6-9.3,8.2-14.9l1.1,0.6c-2.3,5.6-4.9,10.3-7.8,14.3h9v1.2h-10
		c-2.2,2.8-4.6,5.2-7.1,7.2H428v23.9h-1.2v-2.8h-13.4v2.8h-1.2V35.6c-2,1.4-4.1,2.6-6.3,3.6l-0.6-1.1c5.7-2.6,10.6-6.4,14.8-11.5
		h-12.9v-1.2h9.6v-9.6h-7.6V14.6z M426.8,43.7v-8.7h-13.4v8.7H426.8z M413.3,45v8.7h13.4V45H413.3z"/>
	<path id="XMLID_38_" class="st0" d="M456.6,25.4h16.5c1.1-3.8,1.9-7,2.6-9.7h-15.3v-1.2H476c0.4-1.6,0.9-4.1,1.6-7.5l1.2,0.1
		c-0.6,2.6-1.1,5-1.5,7.4h25.6v1.2H477c-0.9,3.6-1.7,6.8-2.5,9.7h31.7v1.2H474c-1,3.4-2.2,6.7-3.5,9.9H499v1.1
		c-2.9,5-7.6,9.9-14.2,14.7c3.8,1.5,7.7,3.3,11.6,5.3l-0.7,1.1c-8.7-4.5-17.6-8.1-26.8-10.8l0.7-1c4.9,1.5,9.5,3.1,13.9,4.9
		c6.1-4.3,10.9-8.9,14.2-14.1H469c1.4-3.6,2.7-7.3,3.9-11.1h-16.2V25.4z"/>
	<path id="XMLID_40_" class="st0" d="M559.7,36.7c1.1,2.8,1.7,6,1.8,9.5c0,4.2-0.5,7.1-1.6,8.9c-1.1,1.7-3.8,2.6-8.1,2.6h-2.1
		l-0.4-1h2.4c3.7-0.1,6-0.7,7-1.8c1.1-1.5,1.7-4.3,1.7-8.6c-0.1-2.2-0.3-4-0.6-5.4c-6.4,5.5-15.2,10-26.4,13.4l-0.6-1.1
		c11.7-3.5,20.6-8.1,26.7-13.6c-0.6-2.3-1.5-4.3-2.6-6.1c-5.4,4.5-13,8.2-22.8,11.1l-0.6-1.1c10-2.8,17.6-6.5,22.8-11
		c-1-1.6-2.3-3.2-3.6-4.5l-2.7,1.4c-4.3,1.9-9.3,3.6-14.8,5l-0.7-1c5.9-1.5,10.8-3.1,14.7-4.9c3.5-1.6,6.5-3.3,9-5.1H539v-1.2h34.2
		v1.2h-13.5c-2.2,1.6-4.3,2.9-6.2,4c2.5,2.4,4.4,5.2,5.8,8.3c5.8-1.5,11.3-4,16.5-7.5l0.9,0.8c-3.2,2.3-6.6,4.1-10.2,5.5
		c2.8,8.2,7.3,14.6,13.7,19.2l-0.8,1c-6.6-5.1-11.3-11.6-13.9-19.7C563.3,35.7,561.4,36.3,559.7,36.7z M555.4,6.8
		c0.9,2.2,1.7,4.3,2.2,6.3h21.2v8.3h-1.2v-7.1h-43.3v7.1h-1.2v-8.3h23.4c-0.6-2-1.3-4-2.2-6L555.4,6.8z"/>
</g>
</svg>
