<svg id="图层_1" xmlns="http://www.w3.org/2000/svg" viewBox="0 0 586 66"><style>.st0{fill:#fff}</style><g id="XMLID_2_"><path id="XMLID_3_" class="st0" d="M16.5 18.1c-2.2 2.9-4.6 5.6-7.2 7.9l-.8-1c5.7-5 9.9-11 12.8-18l1.2.3c-1.3 3.1-2.9 6.1-4.8 9v21.2h-1.2V18.1zm.6 23.2c-1.8 5.4-4.2 10.1-7.3 14l-1-.7c3.1-3.8 5.5-8.3 7.1-13.6l1.2.3zm18-34c-.9 2.1-1.9 4-3 5.9h23.5v.8c-.8 2.9-1.8 5.7-3.1 8.2l-1.2-.3c1.3-2.4 2.3-4.9 3-7.5h-23c-2.1 3.1-4.6 6-7.4 8.5l-.8-1c4.8-4.2 8.5-9.2 10.9-15l1.1.4zm-8.2 49.6c-2.4 0-3.6-1.1-3.6-3.4V40h1.2v13.3c0 1.6.9 2.5 2.8 2.5h14.1c1.7 0 2.8-.4 3.4-1.1.9-1 1.5-3.8 1.8-8.4l1.2.3c-.3 4.7-1 7.7-2.1 9-.8.9-2.1 1.3-4.1 1.3H26.9zm6.8-32.2c-2.3 4.1-5.1 7.8-8.3 10.9l-1-.7c3.2-3.1 6-6.7 8.1-10.6l1.2.4zM32.6 40c3 3 5.4 5.7 7.1 8l-1 .7c-1.7-2.5-4-5.2-7-8.2l.9-.5zm1-2.4l-.2-1.2c1.9.1 3.3.1 4.1.1 1.5 0 2.2-.8 2.2-2.4v-15h1.2v15.3c0 2.2-1 3.2-3 3.2h-4.3zm14.6-13.4c2.9 3.2 5.5 6.9 7.7 10.9l-1 .5c-2.4-4.2-5.1-7.9-7.9-11l1.2-.4zM49.6 40c3.9 5 6.9 9.3 8.8 12.9l-1 .7c-2.1-4-5.1-8.3-8.8-13l1-.6z"/><path id="XMLID_13_" class="st0" d="M85 39.2h7.5V12.7h11c1-2 1.7-4 2.1-5.9l1.2.2a31 31 0 0 1-2.1 5.8h17.5v26.5c3.8-3.8 6.7-8.1 8.7-12.7l1.1.6c-2.7 5.3-5.9 9.9-9.7 13.7v13.4c0 2.4-1.2 3.5-3.7 3.5h-5.7l-.4-1.2 5.6.1c1.9 0 2.9-.9 2.9-2.6V42c-1.9 1.8-3.8 3.2-5.4 4.3-7.2 4.4-17 7.7-29.4 10l-.5-1.1c14.7-2.7 25.4-6.6 32-11.8 1.4-1.1 2.5-2.1 3.4-2.9H85v-1.3zm36-17.7v-7.6H93.7v7.6H121zm-27.3 1.2V30H121v-7.3H93.7zm0 8.5v8H121v-8H93.7z"/><path id="XMLID_18_" class="st0" d="M195.8 56.7c-2 0-5.5 0-10.4-.1-4-.1-7-.5-9-1.1-2.2-.7-4.3-2.1-6.3-4.4-.7-1-1.5-1.5-2.4-1.5-1.8 0-4.5 2.7-8.2 8l-1-.8c3.5-5.2 6.4-8 8.7-8.4V28.7h-9v-1.2h10.2v20.9c.9.2 1.8.9 2.7 1.9 1.6 1.9 3.4 3.2 5.4 3.9 1.9.6 4.6 1 8.2 1.1 3.5.1 7.2.1 11 .1h6.9l5.3-.1-.3 1.3h-11.8zM160.7 8.8c3.9 2.9 7.1 5.8 9.7 8.6l-.8.9c-2.4-2.7-5.7-5.6-9.7-8.6l.8-.9zm26.2-1.5h1.2v9.9h16.3c-.1 14.6-.9 23.3-2.4 26.2-1.6 2.9-4.3 4.3-8.1 4.3h-3.2l-.3-1.3 3.2.1c4.1-.1 6.7-1.7 7.7-4.6 1-2.9 1.6-10.8 1.8-23.5H188c-.6 13.5-5.1 23.4-13.3 29.7l-.9-.8c8.1-6.1 12.5-15.8 12.9-28.9h-11.8v-1.2h11.9V7.3z"/><path id="XMLID_22_" class="st0" d="M250.9 17.8v36.6h-1.2v-3.8h-13.2V56h-1.2V17.8h4.8c1.3-3.2 2.2-6.8 2.8-10.5l1.2.2c-.7 3.7-1.6 7.2-2.9 10.4h9.7zm-14.5 15.5h13.2V19h-13.2v14.3zm0 16.1h13.2v-15h-13.2v15zM280 17.9c0 16.9-.3 27.5-.8 31.8-.5 4.9-3 7.3-7.6 7.3h-5.2l-.3-1.2 5.5.1c3.6 0 5.7-2 6.3-6 .4-3.8.7-14.1.8-30.7h-18.4c-1.6 3.8-3.5 7.3-5.8 10.3l-.7-.9c4.3-5.8 7.2-12.9 8.7-21.3l1.2.1c-.7 3.9-1.7 7.4-2.9 10.6H280zm-20 11.9c4.7 4.9 8.3 9 10.6 12.5l-.9.7c-2.6-3.9-6.2-8.1-10.7-12.7l1-.5z"/><path id="XMLID_28_" class="st0" d="M308.3 14.2h16.4c.9-2.4 1.7-4.7 2.4-6.9l1.2.1c-.6 2.2-1.4 4.5-2.3 6.8h30.1v1.2h-30.6c-1.9 4.6-4.5 9.1-7.6 13.4V58h-1.2V30.3c-2.6 3.4-5.7 6.6-9.2 9.6l-.7-1c7.8-6.8 13.6-14.6 17.4-23.6h-15.8v-1.1zm15.2 25.4h17.2V33c3.7-2.1 7.2-4.5 10.4-7.4h-23.2v-1.2h25v1.2c-3.2 2.8-6.9 5.5-11 8.1v5.9h15v1.2h-15v13.7c0 2.1-1.1 3.2-3.4 3.2h-7.1l-.3-1.2 6.9.1c1.8 0 2.6-.8 2.6-2.5V40.8h-17.2v-1.2z"/><path id="XMLID_31_" class="st0" d="M387.6 21.9c-1.8 3.6-3.7 6.9-5.9 9.8l-.3-1.2c4.9-7.1 8.3-14.9 10.3-23.3l1.1.5c-1.2 4.1-2.5 8-3.9 11.5v38.5h-1.2V21.9zm4.7 3.4h8.7v26.6c1.9-1.9 4-4.1 6.3-6.8l.3 1.3c-2.6 3.2-5.3 6-8.1 8.5l-.6-1.1c.6-.7.9-1.3.9-1.7V26.5h-7.5v-1.2zm4.1-15.1c3.3 2.7 6.2 5.4 8.5 8.1l-.9.9c-2.2-2.7-5-5.4-8.4-8.2l.8-.8zm12.7 4.4h7.6V7.3h1.2v7.3h7.2v1.2h-7.2v9.6h3.1c3.2-4.3 6-9.3 8.2-14.9l1.1.6c-2.3 5.6-4.9 10.3-7.8 14.3h9v1.2h-10c-2.2 2.8-4.6 5.2-7.1 7.2H428v23.9h-1.2v-2.8h-13.4v2.8h-1.2V35.6c-2 1.4-4.1 2.6-6.3 3.6l-.6-1.1c5.7-2.6 10.6-6.4 14.8-11.5h-12.9v-1.2h9.6v-9.6h-7.6v-1.2zm17.7 29.1V35h-13.4v8.7h13.4zM413.3 45v8.7h13.4V45h-13.4z"/><path id="XMLID_38_" class="st0" d="M456.6 25.4h16.5c1.1-3.8 1.9-7 2.6-9.7h-15.3v-1.2H476c.4-1.6.9-4.1 1.6-7.5l1.2.1c-.6 2.6-1.1 5-1.5 7.4h25.6v1.2H477c-.9 3.6-1.7 6.8-2.5 9.7h31.7v1.2H474c-1 3.4-2.2 6.7-3.5 9.9H499v1.1c-2.9 5-7.6 9.9-14.2 14.7 3.8 1.5 7.7 3.3 11.6 5.3l-.7 1.1c-8.7-4.5-17.6-8.1-26.8-10.8l.7-1c4.9 1.5 9.5 3.1 13.9 4.9 6.1-4.3 10.9-8.9 14.2-14.1H469c1.4-3.6 2.7-7.3 3.9-11.1h-16.2v-1.2z"/><path id="XMLID_40_" class="st0" d="M559.7 36.7c1.1 2.8 1.7 6 1.8 9.5 0 4.2-.5 7.1-1.6 8.9-1.1 1.7-3.8 2.6-8.1 2.6h-2.1l-.4-1h2.4c3.7-.1 6-.7 7-1.8 1.1-1.5 1.7-4.3 1.7-8.6-.1-2.2-.3-4-.6-5.4-6.4 5.5-15.2 10-26.4 13.4l-.6-1.1c11.7-3.5 20.6-8.1 26.7-13.6-.6-2.3-1.5-4.3-2.6-6.1-5.4 4.5-13 8.2-22.8 11.1l-.6-1.1c10-2.8 17.6-6.5 22.8-11-1-1.6-2.3-3.2-3.6-4.5l-2.7 1.4c-4.3 1.9-9.3 3.6-14.8 5l-.7-1c5.9-1.5 10.8-3.1 14.7-4.9 3.5-1.6 6.5-3.3 9-5.1H539v-1.2h34.2v1.2h-13.5c-2.2 1.6-4.3 2.9-6.2 4 2.5 2.4 4.4 5.2 5.8 8.3 5.8-1.5 11.3-4 16.5-7.5l.9.8c-3.2 2.3-6.6 4.1-10.2 5.5 2.8 8.2 7.3 14.6 13.7 19.2l-.8 1c-6.6-5.1-11.3-11.6-13.9-19.7-2.2.7-4.1 1.3-5.8 1.7zm-4.3-29.9c.9 2.2 1.7 4.3 2.2 6.3h21.2v8.3h-1.2v-7.1h-43.3v7.1h-1.2v-8.3h23.4c-.6-2-1.3-4-2.2-6l1.1-.3z"/></g></svg>