<svg id="图层_1" xmlns="http://www.w3.org/2000/svg" viewBox="0 0 568 48"><style>.st0{fill:#7c3e00}</style><g id="XMLID_2_"><path id="XMLID_3_" class="st0" d="M76 5.6l3.5 1.5c.3.1.3.3 0 .6l-.4.4c3.2 5.2 8.4 9.2 15.6 12.2.2.4.2.6 0 .6-1.3.1-2.7.9-4.1 2.5-5.6-4-9.6-9-12.1-14.8v.1C74.3 15.3 68 21.2 59.8 26.6c-.2.1-.3.1-.4 0 0-.2 0-.3.1-.4C66.8 20.5 72.3 13.7 76 5.6zm-3.2 16.6c-1.3 0-2.6.1-3.8.3l-1.1-1.1 14-.4 2-2 2.5 2.4c.3.2.2.3-.1.3l-9.4.4 2.2.6c.3.1.3.3.1.6-.3.1-.5.6-.7 1.4l-.1 4.8h4.1l2.1-2 2.7 2.2c.2.1.1.2-.1.4l-8.7.1-.1 7.3 9.4-.1 2.1-2 2.8 2.2c.2.2.2.3 0 .4l-26 .4c-1.3.1-2.6.2-3.8.4l-1.1-1.1 13.6-.3v-7.2H72c-1.3.1-2.6.2-3.8.4l-1.3-1.1 8.4-.1v-1.7l-.1-5.8-2.4.3z"/><path id="XMLID_6_" class="st0" d="M124 6.5l3.2 1.7c.3.1.3.3 0 .6l-.8 1.3.3 15.9.3 8.2c-.1 2-1.2 3.8-3.2 5.6-.4.2-.6.2-.7.1-.2-.1-.3-.3-.3-.7-.2-1.4-.4-2.5-.7-3.4l-19.3.1c-.1 1.3-.8 2.5-2 3.7-.3.3-.5.4-.7.4-.2 0-.3-.2-.3-.6l.3-26.6c0-2.5-.1-4.6-.3-6.2 0-.1.1-.1.3-.1l3.1 2.2 19.5-.1 1.3-2.1zm-21 3.1l-.3 25.4 20.2-.1-.1-25.5-19.8.2zm6.1 4.5c-.3 0-.8 0-1.4.1-1.3 0-2.2.1-2.5.3l-1-1.1 13.5-.1 1.7-1.7 2.1 2.1c.2.3.1.4-.1.4h-9l1.8.6c.2 0 .3 0 .3.1s0 .2-.1.4l-.1.6-.1 5.5 3.1-.1 1.7-1.5 2 2c.2.3.1.4-.1.4H114v8.3h4.4l1.5-1.7 2.2 2c.2.3.1.4-.1.4l-12.9.1c-.3 0-.8 0-1.4.1-1.2 0-2.1.1-2.5.3l-1-1.1h6.9l-.1-8.3h-.7c-1.7 0-3 .1-3.9.3l-1-1 5.6-.1v-3.7l-.1-3.5h-1.8zm6.1 9.2c2.5 1 3.9 2.1 4.1 3.1 0 .9-.5 1.6-1.4 2.1-.8.2-1.2 0-1.3-.7-.1-2-.6-3.4-1.5-4.2-.2-.3-.1-.3.1-.3z"/><path id="XMLID_11_" class="st0" d="M139.6 14.1l-.1 21.4c0 1.4-.8 2.9-2.2 4.5-.5.1-.8 0-.8-.3l.1-10.3.1-14.2-.1-4.1 3.4 1.3c.2 0 .3.1.3.3v.1l-.7 1.3zm.7-8.2c3.3 1.1 4.9 2.1 4.9 2.8 0 1.1-.5 2.1-1.5 2.8-.7.3-1.1.1-1.3-.4-.8-2.3-1.5-3.9-2.4-4.8-.1-.3 0-.4.3-.4zm11.7 4.4c-1.6.1-3 .2-4.4.4l-1-1 11.5-.4 1.8-2 2.8 2.1.1.1c.1 0 .1.1 0 .3l-1.4 1.5.3 13.9.3 7.7c0 2.5-1.6 4.7-4.9 6.6-.1.1-.2.1-.3 0-.1 0-.1-.1-.1-.4-.1-1.8-.7-2.8-1.8-3.1-.2-.2-.1-.2.1-.1 2.2 0 3.3-.5 3.1-1.4V10.1l-6.1.2z"/><path id="XMLID_15_" class="st0" d="M175.4 9.7c-.1-.3 0-.4.1-.3l3.5 1.5 6.8-.1.3-4.8 4.2.8c.3 0 .3.1.1.4-.5.4-.8 1.5-.8 3.5l5.9-.1 2-2.1 2.5 2.2c.2.3.1.4-.1.4l-21.2.6v7.7c.6 7.5-3.2 14.1-11.2 19.8-.2.1-.3 0-.3-.1s.1-.2.3-.3c3.5-3.1 5.7-6 6.6-8.7 1.1-2.5 1.6-6.7 1.5-12.4v-3.8l-.2-4.2zm17.3 15.9l1.5-1.8 3.2 2c.2 0 .2.1 0 .3l-.7 1.1v7.3l.4.8c.2.4 0 .6-.4.6-5-.3-9.6-.4-13.9-.3v1.5c-.8 1.7-1.6 2.4-2.7 2.2V24.9c0-.5.1-.6.4-.4l2.2 1.4h3.2v-6.8l-.3-6.3 3.9 1.1c.3.1.3.3 0 .6l-.1.1c-.1.2-.2.6-.4 1.3V19l6.9-.3 1.8-1.8 2.4 2.2c.1.2 0 .3-.3.3l-10.8.3-.1 6 3.8-.1zm-9.8 1v8.2l10.1-.1-.1-8.3-10 .2z"/><path id="XMLID_19_" class="st0" d="M227.9 15.6l3.2 1.8c.2.1.2.2 0 .3L230 19l-2.4 18.4h4.1l2.5-2.2 2.8 2.5c.2.2.2.3 0 .4l-26.6.4c-1.3.1-2.6.2-3.8.4l-1-1.1 18.3-.3 1-7.3-13.4.1c-.3 0-.5-.1-.6-.3 0-.2.1-.3.4-.4.5-.2.7-.6.8-1.3l2.2-13.6.6-4.2h-3.2c-1 0-2.1.1-3.2.3-.3.1-.5.1-.7.1l-1.3-1.3 22.9-.1 2.2-2.2 2.8 2.4.1.3c-.1.1-.2.1-.3.1l-18.7.3 2.7 1.4c.2.2.2.3.1.4l-.1.1-.4.7-.8 4.6 9.1-.1 1.8-1.9zm-12.5 13.9l9.7-.1 1.3-11-9.3.1-1.7 11z"/><path id="XMLID_22_" class="st0" d="M255.6 26.6l.1.6-2.4 1.3v2.4c0 1.6 0 2.7.1 3.2 0 .8-.1 1.4-.4 2-.4.7-.9 1.4-1.7 2.2-.3.2-.5.3-.6.3-.2-.1-.3-.2-.3-.4v-8.3l-4.5 2.5c-.7.3-1.5.7-2.4 1.3-.3.2-.5.3-.7.4-.2.3-.4.3-.7.1l-2-2.2v-.1c-.1-.2 0-.3.1-.4 1.1-.3 2.3-.6 3.7-1l.4-.1-.1-19.1c-.8 0-1.7.1-2.8.3h-.3l-1.1-1 13.2-.3 1.8-1.8 2.2 2.1c.2.3.2.4 0 .4l-5.2.1 1.7 1c.2.1.2.2 0 .4l-.3.8-.3 14.1 2.5-.8zm-8.9-3.4l-.1 6.3 4.1-1.3V23l-4 .2zm.2-12.2l-.1 5.6 4.1-.1.1-5.5h-4.1zm-.2 6.4v4.9l3.9-.1.1-4.9-4 .1zm21.1-11.6l3.1 1.5c.2.2.2.4 0 .6l-.7.7c-.6.7-1.4 1.5-2.4 2.7-.8.9-1.5 1.7-2.1 2.4l2.7-.1 1.5-1.7 2.1 2c.2.2.1.3-.1.3l-6.9.4v4.2c0 1.4 0 2.8-.1 4.1l4.4-.1 2-2.1 2.4 2.4c.2.2.1.3-.3.3l-8.4.3c-.2 7.5-5.1 13.2-14.6 17.2-.2 0-.3-.1-.3-.3-.1-.1 0-.2.1-.3 7.7-3.6 11.7-9 12-16.5H260c-1.8.1-3.1.2-3.9.4l-1-1 7-.3c.1-1.4.1-3 .1-4.9v-3.2h-1.3c-1.6 0-2.9.1-3.8.4l-1-1 8.6-.4c1.6-2.9 2.7-5.5 3.1-8zm-9.7 1.1c3 1.5 4.5 2.6 4.4 3.4-.1.9-.6 1.6-1.5 2.1-.7.2-1.1 0-1.3-.6-.3-2.3-.9-3.9-1.8-4.6-.2-.1-.1-.2.2-.3zm7.5 19.3c.7 4.2 3.7 7.9 8.9 11 .2.2.2.3 0 .4-1.4 0-3 .7-4.6 2-2.4-2.3-3.9-6.5-4.4-12.4-.1-.5-.1-.8-.1-1h.2z"/><path id="XMLID_30_" class="st0" d="M281.8 40.6l-.4-.1c2.4-1.6 3.5-3.2 3.2-4.8h-.6c-1.7-.1-2.6-.8-2.7-2.2.1-1.4 1-2.2 2.7-2.2 1.8 0 2.7 1.2 2.7 3.7-.6 2.4-2.2 4.3-4.9 5.6z"/><path id="XMLID_32_" class="st0" d="M319.9 5.9l2.8 1.5c.2.2.2.3 0 .3l-.4 1.1-.1 6 2-.1 1.5-1.5 2 1.8c.2.3.1.4-.1.4l-5.3.1V19c2.4.8 3.8 1.6 4.2 2.5.2.8-.2 1.5-1.1 2.1-.6.4-.9.2-1.1-.4-.6-1.8-1.2-3-2-3.7v10.7l.1 4.6c2.7-3.2 4.7-6.9 6-11.1v-.1c.1-.2.2-.2.4-.1l2.5 1.7c.2.2.2.4 0 .6-1.9 3-4.9 6.3-9 9.8v.6c-.1 1.5-.7 2.9-1.8 4.1-.6.3-.9.1-1-.4l.1-9.8v-6.9c-1.5 2.5-4 5.8-7.6 9.8-.1.1-.2.1-.3 0-.2-.1-.2-.2-.1-.4 3.2-4.3 5.9-9.9 8-16.9h-.8c-1.4 0-2.7.1-3.9.3l-1-1.1h5.9v-4.1c0-.8 0-1.9-.1-3.2V6.1c-.1-.2 0-.3.2-.2zm10.6 13.9c-.3 0-.7 0-1.3.1-1.2 0-2.1.1-2.5.3l-1-1.1 15-.1 2.1-2 2.2 2.2c.2.1.2.2 0 .4l-11.4.1 2.7.7c.3.1.3.2.1.4l-.6 1.1-.3 12.7c-.1 2.2-1.4 3.8-3.9 5.1-.3.1-.4 0-.4-.3 0-1.3-.4-2.1-1.3-2.4-.3-.3-.2-.5.1-.6 1.8.1 2.6-.3 2.5-1.1l.1-15.6h-2.1zm1.9-10c-.3 0-.7 0-1.3.1-1.2 0-2.1.1-2.5.3l-1-1 10.7-.1 1.7-1.7 2.1 1.8c.2.1.2.2 0 .4l-9.7.2zm5.6 16.1c3 .9 5.3 2.2 7 3.7.4.8.2 1.9-.6 3.2-.8.7-1.5.5-2.1-.4-1.1-2.4-2.6-4.5-4.5-6.2-.1-.1-.1-.2.2-.3z"/><path id="XMLID_37_" class="st0" d="M359.1 13.5l-4.4 16.2c-.6 1.7-.7 3.3-.3 4.9.6.8.6 1.5 0 1.8-.8.8-1.7 1.2-2.8 1.1-.8-.1-1.1-.6-.8-1.5.3-.7.4-1.7.4-2.8.1-.9-.5-1.6-1.7-2.1-.1-.2 0-.3.1-.4 1.1.4 1.9.1 2.2-.7l6.8-16.6c.1-.1.2-.1.3-.1.2 0 .3.1.2.2zm-7.7-5.2c3.2 1.4 4.8 2.7 4.8 3.9-.3 1.1-.9 1.9-2 2.2-.7.2-1.2-.1-1.5-.8-.1-2.4-.6-4.1-1.5-5.1-.1-.2 0-.3.2-.2zm6.1 16c-.2.1-.3 0-.4-.1-.1-.1-.1-.2 0-.3 3.5-4.6 6.3-10.7 8.6-18.3l3.4 1.5.3.1-.3.3-.4.6c-1 1.8-2.1 3.6-3.2 5.5l10.8-.1 1.7-1.8 2.4 2.1c.2.2.1.3-.1.3l-6.6.3-.1 5.8 2-.1 1.7-1.5 2.1 1.8c.1.1.1.2.1.3 0 .1-.1.1-.3.1l-5.6.1-.1 5.1 2.1-.1 1.7-1.5 2.1 1.8c.2.3.1.4-.1.4l-5.8.1v5.9h3.9l1.8-2 2.2 2.1c.2.1.3.2.3.3 0 .1-.1.1-.3.1l-16.2.4-.1 2.8c0 1.2-.7 2.6-2 4.1-.7.5-1 .5-1 0l.3-9.4.4-13.4c-.3.4-.7.9-1.3 1.7-1 1.2-2.3 2.9-4 5zm7.6 2.4v5.9h5.2v-6l-5.2.1zm.3-12.2l-.1 5.8 5.1-.1v-5.8l-5 .1zm-.1 6.6V26l5.1-.1V21l-5.1.1zM370.6 8c2.3.8 3.6 1.7 3.7 2.7-.1.8-.6 1.4-1.5 1.8-.8.2-1.1 0-1.1-.6-.1-1.5-.5-2.8-1.1-3.8-.2-.1-.2-.2 0-.1z"/><path id="XMLID_45_" class="st0" d="M383.7 26.6c-.1.1-.2.1-.4 0-.1-.1-.1-.2 0-.3 6.5-7.1 10.8-14.1 13.1-20.8l3.2 1.8c.2.1.2.3 0 .6l-.6.5c-1.3 2.2-2.7 4.2-4.1 6.2l.4 21.2c-.4 1.5-1.1 2.8-2.2 3.9-.3.2-.5.3-.6.3-.1 0-.1-.1-.1-.4l.1-9.4V17.6c-1.6 2-4.2 4.6-7.7 8-.4.5-.8.8-1.1 1zm29.1-14.4l3 2.1c.3.2.2.4-.3.6l-.6.4c-3.2 2.9-6.3 5.3-9.3 7.3l-.6 10c-.2 1.4.5 2.1 2 2 2.1.1 4.1-.1 6.2-.6 1.3-.2 2.3-1.3 3-3.4.1-.2.2-.3.3-.3.1 0 .1.1.1.3-.1 1.8.1 3 .6 3.5 1.4 1.3 1.2 2.4-.6 3.4-2.4.8-5.7 1-9.7.6-3-.3-4.5-2.4-4.4-6.5l.1-7.2c-1.8 1.1-3.7 2.2-5.6 3.4-.4 0-.5-.1-.3-.3.4-.3.9-.7 1.7-1.3 1.1-.8 2.5-1.9 4.2-3.2l.3-10.8c0-.7 0-1.5-.1-2.5 0-.7 0-1.6-.1-2.5 0-.3.1-.4.3-.3l3.8 1.7c.2.1.2.3 0 .6l-.6.7-.6 10.5c3.3-3 5.7-5.7 7.2-8.2z"/><path id="XMLID_48_" class="st0" d="M453.9 33.6c.3 0 .3.2.1.6-1.6.6-2.9 2.2-3.8 4.9-5.4.3-10.6.1-15.6-.6-1.9-.3-3.5-1.7-4.9-4.4-.4-.7-.9-.8-1.7-.3-1.6 1.4-3 3-4.1 4.9-.1.3-.3.3-.6.1l-1.7-2.7V36c-.1-.1 0-.1.1-.1l5.2-3.5.1-12-5.5.1c-.3 0-.5-.1-.6-.3 0-.3.1-.5.4-.6l5.8-.1 1.3-1.7 2.8 2c.3.2.3.4 0 .7l-1 1.1-.1 9.8c0 1.7.8 2.8 2.5 3.2 5.1 1.4 12.1 1 21.3-1zM424.8 7.2c3.1 1.4 4.7 2.9 4.9 4.4-.1 1.3-.8 2.2-2 2.5-.8.2-1.4-.1-1.5-1-.3-2.4-.8-4.3-1.5-5.5-.1-.1-.1-.2-.1-.3-.1-.1 0-.1.2-.1zm19.7 16.7c-.1-.1-.1-.2 0-.3 0-.1.1-.1.3-.1 3.7 2.2 5.7 3.8 6.2 5.1.2 1.1-.5 2.2-2.1 3.4-.7.3-1 0-1.1-.7-.1-1.1-.4-2.2-.8-3.4-5.6 1.6-9.7 3-12.1 4.2-.1 0-.1 0-.1.1-.3.1-.5 0-.7-.1l-1-3.1c1.7.1 2.6-.2 2.8-.8 1.6-2.8 2.9-6.1 3.8-9.8l-2.8.1c-1.7 0-3 .1-3.8.4l-1.3-1.1 16.5-.4 2-2.1 2.5 2.4c.2.1.2.2 0 .3l-12.2.4 3 1.7v.1c.1.1 0 .2-.1.4-1.5 2.3-3.7 5-6.6 7.9l10.1-1c-1-1.5-1.7-2.7-2.5-3.6zM439.2 10c-.3 0-.7 0-1.3.1-1.2 0-2 .1-2.4.3l-1.3-1 10.4-.1 1.8-2 2.2 2.1.1.3c-.1.1-.2.1-.3.1l-9.2.2z"/><path id="XMLID_53_" class="st0" d="M483.4 14.8l1.8-1.1 3.4 3.5c.4.6.2.9-.4 1-1.7-.2-3.4.3-5.1 1.5-.2.1-.3.1-.4 0-.1-.1-.1-.2 0-.3l.8-3.8-20.7.6c-.7 2.5-1.7 4.4-3.2 5.6-.4.2-.7.1-.8-.3-.5-1.1-.6-2-.4-2.7 1.4-1.2 2.2-2.7 2.2-4.5 0-.3 0-.5.1-.6.2-.1.4 0 .6.1.4.2.9.7 1.5 1.5l20.6-.5zm-20-3.7c-1.3 0-2.6.1-3.8.3l-1-1.1h8.2L467 6l3.7 1.3c.1-.1.1 0 .1.3l-.6.6-.3 2h5.6l.3-4.2 3.9 1.3c.3.1.3.2.1.4l-.7.7-.6 1.7h5.1l1.7-2 2.4 2.1c.2.2.2.3 0 .4l-9.3.3-.7 2.2c-.7.9-1.3 1.5-2 1.7-.3-.1-.5-.3-.6-.6l.3-3.4-5.6.1-.1 1.3c-.5 1.2-1.3 2.2-2.4 2.8-.4.1-.6 0-.7-.3l.1-3.8-3.3.2zM483.8 37c-2.3-.2-7.6-.3-15.8-.3h-2.4c-.2 1.2-.9 2.3-2.2 3.4-.4.2-.6 0-.7-.4l.1-3.9v-4.1l-.1-3.1c0-.3.1-.4.4-.3l2.7 1.4 14.2-.4 1.3-1.7 3.2 1.7c.2.1.2.2 0 .3l-.7 1.1V36l.3.6c.1.2.1.3 0 .3 0 0-.1.1-.3.1zM481 26.4c-2.6-.3-7.1-.4-13.5-.4-.5.8-1.2 1.5-2.1 1.8-.3.1-.4 0-.4-.3v-9.2c0-.3.1-.4.3-.3l2.5 1.3 9.6-.1 1.4-1.7 3 1.7c.2 0 .2.1 0 .3l-.7 1 .1 4.6.3.8c0 .4-.1.5-.5.5zm-15.3 4V36H480l-.1-5.9-14.2.3zm2-10.2l.1 5.1 9.8-.1-.3-5.2-9.6.2z"/><path id="XMLID_60_" class="st0" d="M516.9 21.1l.7.6c-1.2 2.8-2.7 4.2-4.5 4.1-1.2.1-2.6-.2-4.2-1-2.1-.8-3.6-1.3-4.5-1.3-1.1.1-2.2.8-3.1 2.1l-.8-.7c1.1-2.8 2.8-4.2 4.9-4.1 1-.1 2.4.3 4.2 1.1 2 .8 3.4 1.2 4.4 1.1.8.2 1.8-.5 2.9-1.9z"/></g></svg>