<svg id="图层_1" xmlns="http://www.w3.org/2000/svg" viewBox="-336 1081 568 48"><style>.st0{fill:#592a00}</style><path class="st0" d="M-249.8 1087.4c4.5 4.7 9.7 8.3 15.6 11l-1.7 3.1c-1.8-.9-3.5-1.8-5-2.8v3.2h-8.3v5.4h10.1v3.3h-10.1v5.7h13.4v3.3H-266v-3.3h13.4v-5.7h-10.2v-3.3h10.2v-5.4h-8.3v-3.2c-1.5.9-3.3 1.9-5.2 2.8l-1.7-3c6.3-3 11.5-6.7 15.7-11.1h2.3zm8.8 11.3c-3.7-2.3-7.1-5-10-8.1-2.7 3-6 5.7-10 8.1h20zM-199.9 1088.8v31.8h-3.5v-1.4h-23.3v1.4h-3.5v-31.8h30.3zm-26.8 27.3h23.3v-24h-23.3v24zm2.8-21.5h17.8v3.1h-7.2v4.4h6v3h-6v5h3.7c-.6-1.4-1.3-2.6-2.1-3.7l2.7-.9c.9 1.2 1.6 2.4 2.2 3.7l-1.9.9h3.7v3.1h-19.8v-3.1h8.2v-5h-6v-3h6v-4.4h-7.2v-3.1zM-193.8 1093.5h3.3v27.3h-3.3v-27.3zm6-6.4c1.7 1.9 3.1 4.1 4.4 6.4l-3.1 1.6c-1.3-2.4-2.8-4.7-4.4-6.7l3.1-1.3zm16.5 33.3l-.9-3.2 3.1.1c1 0 1.4-.6 1.4-1.9v-23.1h-13.5v-3.2h16.8v27.3c0 2.7-1.4 4.1-4.1 4.1h-2.8zM-141.6 1087.3c.5.8 1 2 1.6 3.4h13.1v3.3H-153v7.5c-.1 7.9-1.4 14.3-3.9 19l-2.6-2.3c2-4 3-9.6 3.1-16.7v-10.8h12.9c-.4-.9-1-1.8-1.7-2.8l3.6-.6zm-1 7.8h3.4v3.9h11.5v3.2h-11.5v4.6h9.4v13.8h-3.4v-1.6h-14.2v1.6h-3.4v-13.8h8.1v-11.7zm-4.7 20.8h14.2v-5.9h-14.2v5.9zM-122.4 1088.7h30.8v3.3h-18.7l-1.3 5.1h15.4l-2.8 19h8.2v3.3h-32.4v-3.3h20.8l.8-5.4h-17l4.7-18.7h-8.7v-3.3zm21.4 18.9l1.2-7.2h-12.6l-1.8 7.2h13.2zM-87.5 1088.7H-73v3.2h-2v18.8l2.1-.7v3.3l-2.1.6v6.8h-3.3v-5.9c-2.4.6-5.2 1.3-8.5 1.9l-.8-3.2 2.1-.3v-21.3h-1.9v-3.2zm5.2 7.7h4v-4.5h-4v4.5zm0 7.5h4v-4.4h-4v4.4zm0 8.7c1.2-.3 2.6-.6 4-.9v-4.6h-4v5.5zm9.8-17.6h8.9c1.3-2.3 2.4-4.8 3.3-7.5l3.2 1.2c-1 2.4-2 4.5-3.1 6.3h4.8v3.2h-7.1v.6c0 1.7-.1 3.2-.2 4.8h7.9v3.3h-7c.9 3.7 3.5 7.4 7.6 11.2l-2.3 2.6c-3.7-3.8-6.1-7.6-7.2-11.3-1.5 5.1-4.1 8.9-8 11.4l-2.1-2.7c3.7-2.3 6.2-6 7.3-11.2h-6.6v-3.3h7.1c.1-1.3.2-2.6.2-4v-1.4h-6.8v-3.2zm4-7.3c1.4 2.2 2.5 4 3.2 5.5l-2.5 1.8c-.7-1.5-1.8-3.4-3.3-5.7l2.6-1.6zM-43.1 1116.1c0 3.4-1.6 6-4.8 7.7l-1.2-1.9c2.1-1.3 3.2-2.9 3.4-4.9-.2 0-.5.1-.6.1-.7 0-1.3-.2-1.9-.7-.5-.5-.8-1.1-.8-1.8 0-.8.2-1.5.7-1.9.5-.5 1.1-.7 1.9-.7 2.2-.1 3.3 1.3 3.3 4.1zM-10.5 1087.6h3.3v6.5h3.9v3.3h-3.9v2.3c1.8 1.8 3.5 3.7 5.1 5.7l-1.9 2.9c-1.1-1.8-2.2-3.4-3.2-4.9v17.2h-3.3v-16.3c-1.1 3-2.4 5.7-3.8 8.1l-1.5-3.7c2.4-3.4 4.1-7.1 5.2-11.3h-4v-3.3h4.1v-6.5zm13.7 17c-1.2 5-2.8 9.3-4.9 13l-3-1.9c2.2-3.6 3.8-7.6 4.7-11.8l3.2.7zm-1.4 15.7l-.7-3.2c1.1.1 2.1.2 3.2.2.9 0 1.3-.5 1.3-1.5v-14.5h-8.5v-3.3h20.4v3.3H9v15.4c0 2.4-1.2 3.6-3.6 3.6H1.8zm-2.8-30.9h16.7v3.2H-1v-3.2zm15 14.2c1.4 3.9 2.7 8.3 3.7 13l-3.1 1.4c-1.1-4.9-2.3-9.3-3.6-13.4l3-1zM23.5 1088.5c2.4 3.3 4.2 6.1 5.4 8.4l-2.8 1.9c-1.3-2.6-3.2-5.4-5.4-8.6l2.8-1.7zm5.5 17c-1.5 5.2-3.2 10.2-5.1 15l-3.2-1.4c2-4.9 3.8-9.9 5.3-14.9l3 1.3zm6.5 13.3v2h-3.3v-20.1c-1.1 1.7-2.1 3-2.9 4l-1.1-3.5c3-4.2 5.1-8.8 6.3-13.7l3.3.6c-.5 1.8-1.1 3.6-1.8 5.3h6.7c-.5-1.8-1.2-3.5-1.9-5.3l3.3-.9c.9 2.5 1.5 4.6 1.9 6.2h6.7v3.2h-7.2v4.1h6.4v3.2h-6.4v4.1H52v3.1h-6.5v4.5h8v3.2h-18zm6.6-22.2h-6.6v4.1h6.6v-4.1zm-6.6 7.3v4.1h6.6v-4.1h-6.6zm0 7.2v4.5h6.6v-4.5h-6.6zM70.2 1088.7c-1.2 3-2.8 5.7-4.8 8.3v23.8H62V1101c-1.3 1.4-2.9 2.9-4.8 4.4l-1.1-3.6c4.9-4.2 8.5-9 10.8-14.6l3.3 1.5zm7.2 31.4c-2.9 0-4.3-1.4-4.3-4.3v-10.1c-1.5.8-2.8 1.5-4 2l-1.5-3.2c2.2-1 4.1-1.9 5.5-2.8v-14h3.4v11.9c3.6-2.4 6.7-5 9.3-8l2.4 2.7c-3.5 3.6-7.4 6.7-11.7 9.4v11.6c0 1 .6 1.5 1.7 1.5h5.3c.8 0 1.4-.3 1.8-.8.4-.6.6-2.5.7-5.8l3.2 1c-.2 4.1-.7 6.6-1.4 7.5-.7.9-1.9 1.3-3.7 1.3h-6.7zM116.6 1120.1c-1.2 0-3.3 0-6.3-.1-2.3 0-4.2-.2-5.7-.6-1.4-.4-2.6-1.2-3.7-2.5-.5-.6-1-.9-1.4-.9-.7 0-2 1.6-3.9 4.9l-2.5-2.3c1.8-2.9 3.4-4.8 4.9-5.5v-10.2h-4.9v-3.2h8.1v13.6l.5.5c.8 1 1.6 1.7 2.6 2.2 1.1.5 2.7.8 4.7.9 2.7 0 5.1.1 7.2.1 1.2 0 3 0 5.4-.1 1.6 0 3-.1 4.2-.2l-.8 3.4h-8.4zm-20.7-32.3c2.4 1.9 4.4 3.7 6 5.6l-2.4 2.4c-1.4-1.8-3.4-3.7-6-5.8l2.4-2.2zm7.3 9.4h21.3v3.2h-11.1c-1.7 4.3-3.2 7.5-4.8 9.8 4.2-.4 7.7-1 10.6-1.6-.9-2-1.7-3.8-2.5-5.2l2.8-.9c1.9 3.3 3.6 7 5.1 11.3l-3.1.8c-.4-1.1-.7-2.1-1.1-3-4.1.8-9.2 1.5-15.6 2l-.9-3c1.4-.4 3.3-3.9 5.9-10.3H103v-3.1zm2.4-8.5H122v3.2h-16.4v-3.2zM129.4 1089.7h7.8v-2.2h3.4v2.2h8.8v-2.2h3.4v2.2h7.8v3h-7.8v1.8h-3.4v-1.8h-8.8v1.8h-3.4v-1.8h-7.8v-3zm30.5 6v7.2h-3.3v-4.3h-23.2v4.5h-3.3v-7.3h29.8zm-2.1 14.5v10.6h-3.3v-1.4h-18.7v1.4h-3.3v-10.6h25.3zm-22.1-9.7h18.7v7.7h-18.7v-7.7zm.1 16h18.7v-3.5h-18.7v3.5zm15.5-10.8v-2.6h-12.4v2.6h12.4z"/></svg>