<?xml version="1.0" encoding="utf-8"?>
<!-- Generator: Adobe Illustrator 19.0.0, SVG Export Plug-In . SVG Version: 6.00 Build 0)  -->
<svg version="1.1" id="图层_1" xmlns="http://www.w3.org/2000/svg" xmlns:xlink="http://www.w3.org/1999/xlink" x="0px" y="0px"
	 viewBox="-336 1081 568 48" style="enable-background:new -336 1081 568 48;" xml:space="preserve">
<style type="text/css">
	.st0{fill:#592A00;}
</style>
<g>
	<path class="st0" d="M-249.8,1087.4c4.5,4.7,9.7,8.3,15.6,11l-1.7,3.1c-1.8-0.9-3.5-1.8-5-2.8v3.2h-8.3v5.4h10.1v3.3h-10.1v5.7
		h13.4v3.3h-30.2v-3.3h13.4v-5.7h-10.2v-3.3h10.2v-5.4h-8.3v-3.2c-1.5,0.9-3.3,1.9-5.2,2.8l-1.7-3c6.3-3,11.5-6.7,15.7-11.1H-249.8z
		 M-241,1098.7c-3.7-2.3-7.1-5-10-8.1c-2.7,3-6,5.7-10,8.1H-241z"/>
	<path class="st0" d="M-199.9,1088.8v31.8h-3.5v-1.4h-23.3v1.4h-3.5v-31.8H-199.9z M-226.7,1116.1h23.3v-24h-23.3V1116.1z
		 M-223.9,1094.6h17.8v3.1h-7.2v4.4h6v3h-6v5h3.7c-0.6-1.4-1.3-2.6-2.1-3.7l2.7-0.9c0.9,1.2,1.6,2.4,2.2,3.7l-1.9,0.9h3.7v3.1h-19.8
		v-3.1h8.2v-5h-6v-3h6v-4.4h-7.2V1094.6z"/>
	<path class="st0" d="M-193.8,1093.5h3.3v27.3h-3.3V1093.5z M-187.8,1087.1c1.7,1.9,3.1,4.1,4.4,6.4l-3.1,1.6
		c-1.3-2.4-2.8-4.7-4.4-6.7L-187.8,1087.1z M-171.3,1120.4l-0.9-3.2l3.1,0.1c1,0,1.4-0.6,1.4-1.9v-23.1h-13.5v-3.2h16.8v27.3
		c0,2.7-1.4,4.1-4.1,4.1H-171.3z"/>
	<path class="st0" d="M-141.6,1087.3c0.5,0.8,1,2,1.6,3.4h13.1v3.3H-153v7.5c-0.1,7.9-1.4,14.3-3.9,19l-2.6-2.3c2-4,3-9.6,3.1-16.7
		v-10.8h12.9c-0.4-0.9-1-1.8-1.7-2.8L-141.6,1087.3z M-142.6,1095.1h3.4v3.9h11.5v3.2h-11.5v4.6h9.4v13.8h-3.4v-1.6h-14.2v1.6h-3.4
		v-13.8h8.1V1095.1z M-147.3,1115.9h14.2v-5.9h-14.2V1115.9z"/>
	<path class="st0" d="M-122.4,1088.7h30.8v3.3h-18.7l-1.3,5.1h15.4l-2.8,19h8.2v3.3h-32.4v-3.3h20.8l0.8-5.4h-17l4.7-18.7h-8.7
		V1088.7z M-101,1107.6l1.2-7.2h-12.6l-1.8,7.2H-101z"/>
	<path class="st0" d="M-87.5,1088.7h14.5v3.2H-75v18.8l2.1-0.7v3.3l-2.1,0.6v6.8h-3.3v-5.9c-2.4,0.6-5.2,1.3-8.5,1.9l-0.8-3.2
		l2.1-0.3v-21.3h-1.9V1088.7z M-82.3,1096.4h4v-4.5h-4V1096.4z M-82.3,1103.9h4v-4.4h-4V1103.9z M-82.3,1112.6
		c1.2-0.3,2.6-0.6,4-0.9v-4.6h-4V1112.6z M-72.5,1095h8.9c1.3-2.3,2.4-4.8,3.3-7.5l3.2,1.2c-1,2.4-2,4.5-3.1,6.3h4.8v3.2h-7.1v0.6
		c0,1.7-0.1,3.2-0.2,4.8h7.9v3.3h-7c0.9,3.7,3.5,7.4,7.6,11.2l-2.3,2.6c-3.7-3.8-6.1-7.6-7.2-11.3c-1.5,5.1-4.1,8.9-8,11.4l-2.1-2.7
		c3.7-2.3,6.2-6,7.3-11.2h-6.6v-3.3h7.1c0.1-1.3,0.2-2.6,0.2-4v-1.4h-6.8V1095z M-68.5,1087.7c1.4,2.2,2.5,4,3.2,5.5l-2.5,1.8
		c-0.7-1.5-1.8-3.4-3.3-5.7L-68.5,1087.7z"/>
	<path class="st0" d="M-43.1,1116.1c0,3.4-1.6,6-4.8,7.7l-1.2-1.9c2.1-1.3,3.2-2.9,3.4-4.9c-0.2,0-0.5,0.1-0.6,0.1
		c-0.7,0-1.3-0.2-1.9-0.7c-0.5-0.5-0.8-1.1-0.8-1.8c0-0.8,0.2-1.5,0.7-1.9c0.5-0.5,1.1-0.7,1.9-0.7
		C-44.2,1111.9-43.1,1113.3-43.1,1116.1z"/>
	<path class="st0" d="M-10.5,1087.6h3.3v6.5h3.9v3.3h-3.9v2.3c1.8,1.8,3.5,3.7,5.1,5.7l-1.9,2.9c-1.1-1.8-2.2-3.4-3.2-4.9v17.2h-3.3
		v-16.3c-1.1,3-2.4,5.7-3.8,8.1l-1.5-3.7c2.4-3.4,4.1-7.1,5.2-11.3h-4v-3.3h4.1V1087.6z M3.2,1104.6c-1.2,5-2.8,9.3-4.9,13l-3-1.9
		c2.2-3.6,3.8-7.6,4.7-11.8L3.2,1104.6z M1.8,1120.3l-0.7-3.2c1.1,0.1,2.1,0.2,3.2,0.2c0.9,0,1.3-0.5,1.3-1.5v-14.5h-8.5v-3.3h20.4
		v3.3H9v15.4c0,2.4-1.2,3.6-3.6,3.6H1.8z M-1,1089.4h16.7v3.2H-1V1089.4z M14,1103.6c1.4,3.9,2.7,8.3,3.7,13l-3.1,1.4
		c-1.1-4.9-2.3-9.3-3.6-13.4L14,1103.6z"/>
	<path class="st0" d="M23.5,1088.5c2.4,3.3,4.2,6.1,5.4,8.4l-2.8,1.9c-1.3-2.6-3.2-5.4-5.4-8.6L23.5,1088.5z M29,1105.5
		c-1.5,5.2-3.2,10.2-5.1,15l-3.2-1.4c2-4.9,3.8-9.9,5.3-14.9L29,1105.5z M35.5,1118.8v2h-3.3v-20.1c-1.1,1.7-2.1,3-2.9,4l-1.1-3.5
		c3-4.2,5.1-8.8,6.3-13.7l3.3,0.6c-0.5,1.8-1.1,3.6-1.8,5.3h6.7c-0.5-1.8-1.2-3.5-1.9-5.3l3.3-0.9c0.9,2.5,1.5,4.6,1.9,6.2h6.7v3.2
		h-7.2v4.1h6.4v3.2h-6.4v4.1H52v3.1h-6.5v4.5h8v3.2H35.5z M42.1,1096.6h-6.6v4.1h6.6V1096.6z M35.5,1103.9v4.1h6.6v-4.1H35.5z
		 M35.5,1111.1v4.5h6.6v-4.5H35.5z"/>
	<path class="st0" d="M70.2,1088.7c-1.2,3-2.8,5.7-4.8,8.3v23.8h-3.4V1101c-1.3,1.4-2.9,2.9-4.8,4.4l-1.1-3.6
		c4.9-4.2,8.5-9,10.8-14.6L70.2,1088.7z M77.4,1120.1c-2.9,0-4.3-1.4-4.3-4.3v-10.1c-1.5,0.8-2.8,1.5-4,2l-1.5-3.2
		c2.2-1,4.1-1.9,5.5-2.8v-14h3.4v11.9c3.6-2.4,6.7-5,9.3-8l2.4,2.7c-3.5,3.6-7.4,6.7-11.7,9.4v11.6c0,1,0.6,1.5,1.7,1.5h5.3
		c0.8,0,1.4-0.3,1.8-0.8c0.4-0.6,0.6-2.5,0.7-5.8l3.2,1c-0.2,4.1-0.7,6.6-1.4,7.5c-0.7,0.9-1.9,1.3-3.7,1.3H77.4z"/>
	<path class="st0" d="M116.6,1120.1c-1.2,0-3.3,0-6.3-0.1c-2.3,0-4.2-0.2-5.7-0.6c-1.4-0.4-2.6-1.2-3.7-2.5c-0.5-0.6-1-0.9-1.4-0.9
		c-0.7,0-2,1.6-3.9,4.9l-2.5-2.3c1.8-2.9,3.4-4.8,4.9-5.5v-10.2h-4.9v-3.2h8.1v13.6l0.5,0.5c0.8,1,1.6,1.7,2.6,2.2
		c1.1,0.5,2.7,0.8,4.7,0.9c2.7,0,5.1,0.1,7.2,0.1c1.2,0,3,0,5.4-0.1c1.6,0,3-0.1,4.2-0.2l-0.8,3.4H116.6z M95.9,1087.8
		c2.4,1.9,4.4,3.7,6,5.6l-2.4,2.4c-1.4-1.8-3.4-3.7-6-5.8L95.9,1087.8z M103.2,1097.2h21.3v3.2h-11.1c-1.7,4.3-3.2,7.5-4.8,9.8
		c4.2-0.4,7.7-1,10.6-1.6c-0.9-2-1.7-3.8-2.5-5.2l2.8-0.9c1.9,3.3,3.6,7,5.1,11.3l-3.1,0.8c-0.4-1.1-0.7-2.1-1.1-3
		c-4.1,0.8-9.2,1.5-15.6,2l-0.9-3c1.4-0.4,3.3-3.9,5.9-10.3h-6.8V1097.2z M105.6,1088.7H122v3.2h-16.4V1088.7z"/>
	<path class="st0" d="M129.4,1089.7h7.8v-2.2h3.4v2.2h8.8v-2.2h3.4v2.2h7.8v3h-7.8v1.8h-3.4v-1.8h-8.8v1.8h-3.4v-1.8h-7.8V1089.7z
		 M159.9,1095.7v7.2h-3.3v-4.3h-23.2v4.5h-3.3v-7.3H159.9z M157.8,1110.2v10.6h-3.3v-1.4h-18.7v1.4h-3.3v-10.6H157.8z M135.7,1100.5
		h18.7v7.7h-18.7V1100.5z M135.8,1116.5h18.7v-3.5h-18.7V1116.5z M151.3,1105.7v-2.6h-12.4v2.6H151.3z"/>
</g>
</svg>
