<?xml version="1.0" encoding="utf-8"?>
<!-- Generator: Adobe Illustrator 19.0.0, SVG Export Plug-In . SVG Version: 6.00 Build 0)  -->
<svg version="1.1" id="图层_1" xmlns="http://www.w3.org/2000/svg" xmlns:xlink="http://www.w3.org/1999/xlink" x="0px" y="0px"
	 viewBox="0 0 100 100" style="enable-background:new 0 0 100 100;" xml:space="preserve">
<style type="text/css">
	.st0{opacity:0.8;fill:#FFFFFF;}
</style>
<g id="XMLID_2_">
	<path id="XMLID_4_" class="st0" d="M48.9,5.2c-25,0-45.3,20.3-45.3,45.3s20.3,45.3,45.3,45.3s45.3-20.3,45.3-45.3S74,5.2,48.9,5.2z
		 M48.9,86.5C29.1,86.5,13,70.4,13,50.6s16.1-35.9,35.9-35.9s35.9,16.1,35.9,35.9S68.8,86.5,48.9,86.5z"/>
	<path id="XMLID_3_" class="st0" d="M62.7,50.7c0,0.4-0.2,0.7-0.6,0.9c-6.8,5.5-12.3,9.8-20.1,15.6c-1,0.6-1.9,0-1.9-1V50.7v0V35.1
		c0-1.1,1-1.7,1.9-1c7.8,5.8,13.3,10.1,20.1,15.6C62.5,50,62.7,50.3,62.7,50.7L62.7,50.7z"/>
</g>
</svg>
