<svg id="图层_1" xmlns="http://www.w3.org/2000/svg" viewBox="0 0 100 100"><style>.st0{opacity:.8;fill:#fff}</style><g id="XMLID_2_"><path id="XMLID_4_" class="st0" d="M48.9 5.2c-25 0-45.3 20.3-45.3 45.3s20.3 45.3 45.3 45.3 45.3-20.3 45.3-45.3S74 5.2 48.9 5.2zm0 81.3C29.1 86.5 13 70.4 13 50.6s16.1-35.9 35.9-35.9 35.9 16.1 35.9 35.9-16 35.9-35.9 35.9z"/><path id="XMLID_3_" class="st0" d="M62.7 50.7c0 .4-.2.7-.6.9-6.8 5.5-12.3 9.8-20.1 15.6-1 .6-1.9 0-1.9-1V35.1c0-1.1 1-1.7 1.9-1 7.8 5.8 13.3 10.1 20.1 15.6.4.3.6.6.6 1z"/></g></svg>