<?xml version="1.0" encoding="utf-8"?>
<!-- Generator: Adobe Illustrator 19.0.0, SVG Export Plug-In . SVG Version: 6.00 Build 0)  -->
<svg version="1.1" id="图层_1" xmlns="http://www.w3.org/2000/svg" xmlns:xlink="http://www.w3.org/1999/xlink" x="0px" y="0px"
	 viewBox="0 0 100 100" style="enable-background:new 0 0 100 100;" xml:space="preserve">
<style type="text/css">
	.st0{opacity:0.8;fill:#FFFFFF;}
</style>
<g>
	<path class="st0" d="M51.1,19.2c-17.3,0-31.3,14-31.3,31.2s14,31.3,31.3,31.3s31.2-14,31.2-31.3S68.4,19.2,51.1,19.2z M51.1,75.2
		c-13.7,0-24.8-11.1-24.8-24.8s11.1-24.8,24.8-24.8s24.7,11.1,24.7,24.8S64.8,75.2,51.1,75.2z"/>
	<path class="st0" d="M60.6,50.5c0,0.2-0.1,0.5-0.4,0.7C55.5,55,51.7,57.9,46.3,62c-0.7,0.4-1.3,0-1.3-0.7V50.5v0V39.8
		c0-0.7,0.7-1.2,1.3-0.7c5.4,4,9.2,7,13.8,10.8C60.4,50.1,60.6,50.3,60.6,50.5L60.6,50.5z"/>
</g>
</svg>
