<svg id="图层_1" xmlns="http://www.w3.org/2000/svg" viewBox="0 0 248 270"><style>.st0{fill:#f3f3f3}.st1{opacity:.3;fill:#eac926}.st2{fill:none;stroke-width:2}.st2,.st3{stroke:#eac926;stroke-miterlimit:10}.st3,.st4{fill:none}</style><g id="XMLID_2_"><path id="XMLID_22_" class="st0" d="M62.2 161l61-6.2 36.8 30.7-65.4 10.7z"/><path id="XMLID_21_" class="st1" d="M127.9 59.1l.9 89.4 34.6 27.5V80z"/><path id="XMLID_20_" class="st2" d="M68.9 65v89.8l59.3-6.8-.7-88.9z"/><path id="XMLID_19_" class="st1" d="M68.9 65l1 89.7 58.3-6.7-1.4-88.9z"/><g id="XMLID_16_"><path id="XMLID_18_" class="st2" d="M68.9 66.1v89.4L98.4 186V90z"/><path id="XMLID_17_" class="st1" d="M69.9 65.8v89.4l27.7 28.5V90.4z"/></g><path id="XMLID_15_" class="st2" d="M128.2 148l35.2 28 .3-96L128 58.9"/><path id="XMLID_14_" class="st2" d="M99.2 187.5l65-10.5"/><path id="XMLID_13_" class="st1" d="M69.9 155.4l29.3 32.8 64.2-11.4-35.4-28.1z"/><path id="XMLID_12_" class="st1" d="M69.9 112.2l29.3 21.2 64.2-8.1-35.4-18.4z"/><path id="XMLID_11_" class="st1" d="M68.6 64.8L98.4 90l65.8-9.6L128 58.9z"/><path id="XMLID_10_" class="st3" d="M99.2 133.4l64.2-8.1"/><path id="XMLID_9_" class="st3" d="M98.6 90l64.8-10"/></g></svg>