<?xml version="1.0" encoding="utf-8"?>
<!-- Generator: Adobe Illustrator 19.0.0, SVG Export Plug-In . SVG Version: 6.00 Build 0)  -->
<svg version="1.1" id="图层_1" xmlns="http://www.w3.org/2000/svg" xmlns:xlink="http://www.w3.org/1999/xlink" x="0px" y="0px"
	 viewBox="0 0 248 270" style="enable-background:new 0 0 248 270;" xml:space="preserve">
<style type="text/css">
	.st0{fill:#F3F3F3;}
	.st1{opacity:0.3;fill:#EAC926;}
	.st2{fill:none;stroke:#EAC926;stroke-width:2;stroke-miterlimit:10;}
	.st3{fill:none;stroke:#EAC926;stroke-miterlimit:10;}
	.st4{fill:none;}
</style>
<g id="XMLID_2_">
	<polygon id="XMLID_22_" class="st0" points="62.2,161 123.2,154.8 160,185.5 94.6,196.2 	"/>
	<polygon id="XMLID_21_" class="st1" points="127.9,59.1 128.8,148.5 163.4,176 163.4,80 	"/>
	<polygon id="XMLID_20_" class="st2" points="68.9,65 68.9,154.8 128.2,148 127.5,59.1 	"/>
	<polygon id="XMLID_19_" class="st1" points="68.9,65 69.9,154.7 128.2,148 126.8,59.1 	"/>
	<g id="XMLID_16_">
		<polygon id="XMLID_18_" class="st2" points="68.9,66.1 68.9,155.5 98.4,186 98.4,90 		"/>
		<polygon id="XMLID_17_" class="st1" points="69.9,65.8 69.9,155.2 97.6,183.7 97.6,90.4 		"/>
	</g>
	<polyline id="XMLID_15_" class="st2" points="128.2,148 163.4,176 163.7,80 128,58.9 	"/>
	<line id="XMLID_14_" class="st2" x1="99.2" y1="187.5" x2="164.2" y2="177"/>
	<polygon id="XMLID_13_" class="st1" points="69.9,155.4 99.2,188.2 163.4,176.8 128,148.7 	"/>
	<polygon id="XMLID_12_" class="st1" points="69.9,112.2 99.2,133.4 163.4,125.3 128,106.9 	"/>
	<polygon id="XMLID_11_" class="st1" points="68.6,64.8 98.4,90 164.2,80.4 128,58.9 	"/>
	<line id="XMLID_10_" class="st3" x1="99.2" y1="133.4" x2="163.4" y2="125.3"/>
	<line id="XMLID_9_" class="st3" x1="98.6" y1="90" x2="163.4" y2="80"/>
	<g id="XMLID_6_">
		<path id="XMLID_115_" class="st4" d="M185.6,201.6"/>
	</g>
	<g id="XMLID_3_">
		<path id="XMLID_28_" class="st4" d="M185.8,202.9"/>
	</g>
</g>
</svg>
