<svg xmlns="http://www.w3.org/2000/svg" preserveAspectRatio="xMidYMid" width="140" height="140" viewBox="0 0 140 140"><defs><style>.cls-1{fill:#fff;fill-rule:evenodd}</style></defs><path d="M69.841 139.026c-37.634 0-68.143-30.509-68.143-68.143 0-37.635 30.509-68.143 68.143-68.143 37.635 0 68.143 30.508 68.143 68.143 0 37.634-30.508 68.143-68.143 68.143zm.107-133.057C34.078 5.969 5 35.047 5 70.917c0 35.869 29.078 64.948 64.948 64.948 35.87 0 64.948-29.079 64.948-64.948 0-35.87-29.078-64.948-64.948-64.948zm2.817 64.715l25.11 25.11a1.13 1.13 0 0 1 0 1.597l-.002.002a1.13 1.13 0 0 1-1.597 0l-25.11-25.11-25.145 25.145c-.441.441-1.249.347-1.69-.094l-.002-.002a1.128 1.128 0 0 1 0-1.596l25.145-25.145-25.099-25.099a1.13 1.13 0 0 1 0-1.596l.003-.002a1.128 1.128 0 0 1 1.596 0l25.098 25.098 25.157-25.157a1.13 1.13 0 0 1 1.597 0l.002.002c.441.441.535 1.25.094 1.69L72.765 70.684z" class="cls-1"/></svg>