<svg id="图层_1" xmlns="http://www.w3.org/2000/svg" viewBox="0 0 248 270"><style>.st0{fill:#f3f3f3}.st1{opacity:.3;fill:#eac926}.st2{fill:none;stroke-width:2}.st2,.st3{stroke:#eac926;stroke-miterlimit:10}.st3,.st4{fill:none}.st5,.st6,.st7,.st8{stroke:#eac926;stroke-width:2;stroke-miterlimit:10}.st5{opacity:.3;fill:#eac926}.st6{stroke-dasharray:8.4577,8.4577}.st6,.st7,.st8{fill:none}.st7{stroke-dasharray:8.2793,8.2793}.st8{stroke-dasharray:8.2801,8.2801}.st10,.st11,.st12,.st13,.st14,.st15,.st16,.st17,.st18,.st19,.st9{fill:none;stroke:#eac926;stroke-width:2;stroke-miterlimit:10}.st9{stroke-dasharray:8.3505,8.3505}.st10{stroke-dasharray:8.2001,8.2001}.st11{stroke-dasharray:7.5836,7.5836}.st12{stroke-dasharray:6.5999,6.5999}.st13{stroke-dasharray:6.3127,6.3127}.st14{stroke-dasharray:8.4965,8.4965}.st15{stroke-dasharray:9.042,9.042}.st16{stroke-dasharray:6.1377,6.1377}.st17{stroke-dasharray:8.1267,8.1267}.st18{stroke-dasharray:7.1516,7.1516}.st19{stroke-dasharray:8.4379,8.4379}</style><g id="XMLID_2_"><path id="XMLID_22_" class="st0" d="M507.9 174.4l61-6.2 36.8 30.7-65.5 10.8z"/><path id="XMLID_21_" class="st1" d="M573.5 72.5l1 89.4 34.5 27.5v-96z"/><path id="XMLID_20_" class="st2" d="M514.6 78.4v89.8l59.3-6.8-.7-88.9z"/><path id="XMLID_19_" class="st1" d="M514.6 78.4l1 89.8 58.3-6.8-1.4-88.8z"/><g id="XMLID_16_"><path id="XMLID_18_" class="st2" d="M514.6 79.5v89.4l29.5 30.5v-96z"/><path id="XMLID_17_" class="st1" d="M515.6 79.2v89.5l27.6 28.5v-93.4z"/></g><path id="XMLID_15_" class="st2" d="M573.9 161.4l35.1 28 .4-96-35.8-21"/><path id="XMLID_14_" class="st2" d="M544.9 200.9l64.9-10.5"/><path id="XMLID_13_" class="st1" d="M515.6 168.8l29.3 32.8 64.1-11.4-35.4-28z"/><path id="XMLID_12_" class="st1" d="M515.6 125.7l29.3 21.1 64.1-8-35.4-18.4z"/><path id="XMLID_11_" class="st1" d="M514.3 78.2l29.8 25.2 65.7-9.5-36.2-21.5z"/><path id="XMLID_10_" class="st3" d="M544.9 146.8l64.1-8"/><path id="XMLID_9_" class="st3" d="M544.2 103.4l64.8-10"/></g><g id="XMLID_31_"><path id="XMLID_307_" class="st0" d="M51.4 155l92.3-12 55.8 36.9-109 17.2z"/><path id="XMLID_306_" class="st2" d="M205.8 169.4l-109 16.7-38.6-41.3 88.4-10.5z"/><path id="XMLID_305_" class="st5" d="M59.8 145.1l37 41 106.1-16.9-56.2-33.5z"/><g id="XMLID_299_"><g id="XMLID_109_"><path id="XMLID_113_" class="st2" d="M56.7 76.9v4"/><path id="XMLID_111_" class="st6" d="M56.8 89.3l.2 46.5"/><path id="XMLID_110_" class="st2" d="M57.1 140.1v4"/></g></g><g id="XMLID_293_"><g id="XMLID_103_"><path id="XMLID_107_" class="st2" d="M96.4 120.1v4"/><path id="XMLID_106_" class="st7" d="M96.5 132.4l.3 45.5"/><path id="XMLID_104_" class="st2" d="M96.8 182.1v4"/></g></g><g id="XMLID_287_"><g id="XMLID_97_"><path id="XMLID_101_" class="st2" d="M75.5 97.4v4"/><path id="XMLID_100_" class="st8" d="M75.6 109.6l.3 45.6"/><path id="XMLID_99_" class="st2" d="M75.9 159.3v4"/></g></g><g id="XMLID_281_"><g id="XMLID_92_"><path id="XMLID_95_" class="st2" d="M152.8 111.6l.1 4"/><path id="XMLID_94_" class="st9" d="M152.9 124l.3 45.9"/><path id="XMLID_93_" class="st2" d="M153.2 174.1v4"/></g></g><g id="XMLID_275_"><g id="XMLID_86_"><path id="XMLID_89_" class="st2" d="M207.5 104.6v4"/><path id="XMLID_88_" class="st10" d="M207.5 116.8l.2 45.1"/><path id="XMLID_87_" class="st2" d="M207.7 166v4"/></g></g><g id="XMLID_269_"><g id="XMLID_80_"><path id="XMLID_83_" class="st2" d="M146.9 70.2l-3.9.3"/><path id="XMLID_82_" class="st11" d="M135.4 71.1l-71.8 6"/><path id="XMLID_81_" class="st2" d="M59.8 77.5l-4 .3"/></g></g><g id="XMLID_263_"><g id="XMLID_72_"><path id="XMLID_78_" class="st2" d="M176.8 87.2v3"/><path id="XMLID_76_" class="st12" d="M176.8 96.8l.2 49.5"/><path id="XMLID_73_" class="st2" d="M177 149.6v3"/></g></g><g id="XMLID_257_"><g id="XMLID_67_"><path id="XMLID_70_" class="st2" d="M208.4 105.5l-3 .4"/><path id="XMLID_69_" class="st13" d="M199.1 106.7L102 118.8"/><path id="XMLID_68_" class="st2" d="M98.9 119.2l-3 .3"/></g></g><g id="XMLID_251_"><g id="XMLID_61_"><path id="XMLID_65_" class="st2" d="M175.7 87l-4 .4"/><path id="XMLID_64_" class="st14" d="M163.3 88.4l-80.2 9.3"/><path id="XMLID_63_" class="st2" d="M78.9 98.1l-4 .5"/></g></g><g id="XMLID_245_"><g id="XMLID_56_"><path id="XMLID_59_" class="st2" d="M208.2 105.4l-3.4-1.9"/><path id="XMLID_58_" class="st15" d="M196.9 99l-43.2-24.7"/><path id="XMLID_57_" class="st2" d="M149.8 72.1l-3.5-2"/></g></g><g id="XMLID_239_"><g id="XMLID_51_"><path id="XMLID_54_" class="st2" d="M152.9 112.5l-2.3-1.9"/><path id="XMLID_53_" class="st16" d="M145.9 106.7l-35.5-29.4"/><path id="XMLID_52_" class="st2" d="M108.1 75.4l-2.3-1.9"/></g></g><g id="XMLID_233_"><g id="XMLID_46_"><path id="XMLID_49_" class="st2" d="M146.7 70.2l.1 4"/><path id="XMLID_48_" class="st17" d="M146.8 82.3l.3 44.7"/><path id="XMLID_47_" class="st2" d="M147.1 131.1l.1 4"/></g></g><g id="XMLID_227_"><g id="XMLID_41_"><path id="XMLID_44_" class="st2" d="M96.8 120.1l-2.7-2.9"/><path id="XMLID_43_" class="st18" d="M89.1 112l-27-28.5"/><path id="XMLID_42_" class="st2" d="M59.6 80.9L56.9 78"/></g></g><g id="XMLID_75_"><g id="XMLID_36_"><path id="XMLID_39_" class="st2" d="M105.5 72.7v4"/><path id="XMLID_38_" class="st19" d="M105.6 85.1l.3 46.4"/><path id="XMLID_37_" class="st2" d="M105.9 135.8v4"/></g></g><path id="XMLID_74_" class="st3" d="M105.9 139.8l47.3 36.9"/><path id="XMLID_62_" class="st3" d="M175.7 152.2L75.9 164"/></g></svg>