<?xml version="1.0" encoding="utf-8"?>
<!-- Generator: Adobe Illustrator 19.0.0, SVG Export Plug-In . SVG Version: 6.00 Build 0)  -->
<svg version="1.1" id="图层_1" xmlns="http://www.w3.org/2000/svg" xmlns:xlink="http://www.w3.org/1999/xlink" x="0px" y="0px"
	 viewBox="0 0 248 270" style="enable-background:new 0 0 248 270;" xml:space="preserve">
<style type="text/css">
	.st0{fill:#F3F3F3;}
	.st1{opacity:0.3;fill:#EAC926;}
	.st2{fill:none;stroke:#EAC926;stroke-width:2;stroke-miterlimit:10;}
	.st3{fill:none;stroke:#EAC926;stroke-miterlimit:10;}
	.st4{fill:none;}
	.st5{opacity:0.3;fill:#EAC926;stroke:#EAC926;stroke-width:2;stroke-miterlimit:10;}
	.st6{fill:none;stroke:#EAC926;stroke-width:2;stroke-miterlimit:10;stroke-dasharray:8.4577,8.4577;}
	.st7{fill:none;stroke:#EAC926;stroke-width:2;stroke-miterlimit:10;stroke-dasharray:8.2793,8.2793;}
	.st8{fill:none;stroke:#EAC926;stroke-width:2;stroke-miterlimit:10;stroke-dasharray:8.2801,8.2801;}
	.st9{fill:none;stroke:#EAC926;stroke-width:2;stroke-miterlimit:10;stroke-dasharray:8.3505,8.3505;}
	.st10{fill:none;stroke:#EAC926;stroke-width:2;stroke-miterlimit:10;stroke-dasharray:8.2001,8.2001;}
	.st11{fill:none;stroke:#EAC926;stroke-width:2;stroke-miterlimit:10;stroke-dasharray:7.5836,7.5836;}
	.st12{fill:none;stroke:#EAC926;stroke-width:2;stroke-miterlimit:10;stroke-dasharray:6.5999,6.5999;}
	.st13{fill:none;stroke:#EAC926;stroke-width:2;stroke-miterlimit:10;stroke-dasharray:6.3127,6.3127;}
	.st14{fill:none;stroke:#EAC926;stroke-width:2;stroke-miterlimit:10;stroke-dasharray:8.4965,8.4965;}
	.st15{fill:none;stroke:#EAC926;stroke-width:2;stroke-miterlimit:10;stroke-dasharray:9.042,9.042;}
	.st16{fill:none;stroke:#EAC926;stroke-width:2;stroke-miterlimit:10;stroke-dasharray:6.1377,6.1377;}
	.st17{fill:none;stroke:#EAC926;stroke-width:2;stroke-miterlimit:10;stroke-dasharray:8.1267,8.1267;}
	.st18{fill:none;stroke:#EAC926;stroke-width:2;stroke-miterlimit:10;stroke-dasharray:7.1516,7.1516;}
	.st19{fill:none;stroke:#EAC926;stroke-width:2;stroke-miterlimit:10;stroke-dasharray:8.4379,8.4379;}
</style>
<g id="XMLID_2_">
	<polygon id="XMLID_22_" class="st0" points="507.9,174.4 568.9,168.2 605.7,198.9 540.2,209.7 	"/>
	<polygon id="XMLID_21_" class="st1" points="573.5,72.5 574.5,161.9 609,189.4 609,93.4 	"/>
	<polygon id="XMLID_20_" class="st2" points="514.6,78.4 514.6,168.2 573.9,161.4 573.2,72.5 	"/>
	<polygon id="XMLID_19_" class="st1" points="514.6,78.4 515.6,168.2 573.9,161.4 572.5,72.6 	"/>
	<g id="XMLID_16_">
		<polygon id="XMLID_18_" class="st2" points="514.6,79.5 514.6,168.9 544.1,199.4 544.1,103.4 		"/>
		<polygon id="XMLID_17_" class="st1" points="515.6,79.2 515.6,168.7 543.2,197.2 543.2,103.8 		"/>
	</g>
	<polyline id="XMLID_15_" class="st2" points="573.9,161.4 609,189.4 609.4,93.4 573.6,72.4 	"/>
	<line id="XMLID_14_" class="st2" x1="544.9" y1="200.9" x2="609.8" y2="190.4"/>
	<polygon id="XMLID_13_" class="st1" points="515.6,168.8 544.9,201.6 609,190.2 573.6,162.2 	"/>
	<polygon id="XMLID_12_" class="st1" points="515.6,125.7 544.9,146.8 609,138.8 573.6,120.4 	"/>
	<polygon id="XMLID_11_" class="st1" points="514.3,78.2 544.1,103.4 609.8,93.9 573.6,72.4 	"/>
	<line id="XMLID_10_" class="st3" x1="544.9" y1="146.8" x2="609" y2="138.8"/>
	<line id="XMLID_9_" class="st3" x1="544.2" y1="103.4" x2="609" y2="93.4"/>
	<g id="XMLID_6_">
		<path id="XMLID_115_" class="st4" d="M631.3,215"/>
	</g>
	<g id="XMLID_3_">
		<path id="XMLID_28_" class="st4" d="M631.5,216.3"/>
	</g>
</g>
<g id="XMLID_31_">
	<polygon id="XMLID_307_" class="st0" points="51.4,155 143.7,143 199.5,179.9 90.5,197.1 	"/>
	<polygon id="XMLID_306_" class="st2" points="205.8,169.4 96.8,186.1 58.2,144.8 146.6,134.3 	"/>
	<polygon id="XMLID_305_" class="st5" points="59.8,145.1 96.8,186.1 202.9,169.2 146.7,135.7 	"/>
	<g id="XMLID_299_">
		<g id="XMLID_109_">
			<line id="XMLID_113_" class="st2" x1="56.7" y1="76.9" x2="56.7" y2="80.9"/>
			<line id="XMLID_111_" class="st6" x1="56.8" y1="89.3" x2="57" y2="135.8"/>
			<line id="XMLID_110_" class="st2" x1="57.1" y1="140.1" x2="57.1" y2="144.1"/>
		</g>
	</g>
	<g id="XMLID_293_">
		<g id="XMLID_103_">
			<line id="XMLID_107_" class="st2" x1="96.4" y1="120.1" x2="96.4" y2="124.1"/>
			<line id="XMLID_106_" class="st7" x1="96.5" y1="132.4" x2="96.8" y2="177.9"/>
			<line id="XMLID_104_" class="st2" x1="96.8" y1="182.1" x2="96.8" y2="186.1"/>
		</g>
	</g>
	<g id="XMLID_287_">
		<g id="XMLID_97_">
			<line id="XMLID_101_" class="st2" x1="75.5" y1="97.4" x2="75.5" y2="101.4"/>
			<line id="XMLID_100_" class="st8" x1="75.6" y1="109.6" x2="75.9" y2="155.2"/>
			<line id="XMLID_99_" class="st2" x1="75.9" y1="159.3" x2="75.9" y2="163.3"/>
		</g>
	</g>
	<g id="XMLID_281_">
		<g id="XMLID_92_">
			<line id="XMLID_95_" class="st2" x1="152.8" y1="111.6" x2="152.9" y2="115.6"/>
			<line id="XMLID_94_" class="st9" x1="152.9" y1="124" x2="153.2" y2="169.9"/>
			<line id="XMLID_93_" class="st2" x1="153.2" y1="174.1" x2="153.2" y2="178.1"/>
		</g>
	</g>
	<g id="XMLID_275_">
		<g id="XMLID_86_">
			<line id="XMLID_89_" class="st2" x1="207.5" y1="104.6" x2="207.5" y2="108.6"/>
			<line id="XMLID_88_" class="st10" x1="207.5" y1="116.8" x2="207.7" y2="161.9"/>
			<line id="XMLID_87_" class="st2" x1="207.7" y1="166" x2="207.7" y2="170"/>
		</g>
	</g>
	<g id="XMLID_269_">
		<g id="XMLID_80_">
			<line id="XMLID_83_" class="st2" x1="146.9" y1="70.2" x2="143" y2="70.5"/>
			<line id="XMLID_82_" class="st11" x1="135.4" y1="71.1" x2="63.6" y2="77.1"/>
			<line id="XMLID_81_" class="st2" x1="59.8" y1="77.5" x2="55.8" y2="77.8"/>
		</g>
	</g>
	<g id="XMLID_263_">
		<g id="XMLID_72_">
			<line id="XMLID_78_" class="st2" x1="176.8" y1="87.2" x2="176.8" y2="90.2"/>
			<line id="XMLID_76_" class="st12" x1="176.8" y1="96.8" x2="177" y2="146.3"/>
			<line id="XMLID_73_" class="st2" x1="177" y1="149.6" x2="177" y2="152.6"/>
		</g>
	</g>
	<g id="XMLID_257_">
		<g id="XMLID_67_">
			<line id="XMLID_70_" class="st2" x1="208.4" y1="105.5" x2="205.4" y2="105.9"/>
			<line id="XMLID_69_" class="st13" x1="199.1" y1="106.7" x2="102" y2="118.8"/>
			<line id="XMLID_68_" class="st2" x1="98.9" y1="119.2" x2="95.9" y2="119.5"/>
		</g>
	</g>
	<g id="XMLID_251_">
		<g id="XMLID_61_">
			<line id="XMLID_65_" class="st2" x1="175.7" y1="87" x2="171.7" y2="87.4"/>
			<line id="XMLID_64_" class="st14" x1="163.3" y1="88.4" x2="83.1" y2="97.7"/>
			<line id="XMLID_63_" class="st2" x1="78.9" y1="98.1" x2="74.9" y2="98.6"/>
		</g>
	</g>
	<g id="XMLID_245_">
		<g id="XMLID_56_">
			<line id="XMLID_59_" class="st2" x1="208.2" y1="105.4" x2="204.8" y2="103.5"/>
			<line id="XMLID_58_" class="st15" x1="196.9" y1="99" x2="153.7" y2="74.3"/>
			<line id="XMLID_57_" class="st2" x1="149.8" y1="72.1" x2="146.3" y2="70.1"/>
		</g>
	</g>
	<g id="XMLID_239_">
		<g id="XMLID_51_">
			<line id="XMLID_54_" class="st2" x1="152.9" y1="112.5" x2="150.6" y2="110.6"/>
			<line id="XMLID_53_" class="st16" x1="145.9" y1="106.7" x2="110.4" y2="77.3"/>
			<line id="XMLID_52_" class="st2" x1="108.1" y1="75.4" x2="105.8" y2="73.5"/>
		</g>
	</g>
	<g id="XMLID_233_">
		<g id="XMLID_46_">
			<line id="XMLID_49_" class="st2" x1="146.7" y1="70.2" x2="146.8" y2="74.2"/>
			<line id="XMLID_48_" class="st17" x1="146.8" y1="82.3" x2="147.1" y2="127"/>
			<line id="XMLID_47_" class="st2" x1="147.1" y1="131.1" x2="147.2" y2="135.1"/>
		</g>
	</g>
	<g id="XMLID_227_">
		<g id="XMLID_41_">
			<line id="XMLID_44_" class="st2" x1="96.8" y1="120.1" x2="94.1" y2="117.2"/>
			<line id="XMLID_43_" class="st18" x1="89.1" y1="112" x2="62.1" y2="83.5"/>
			<line id="XMLID_42_" class="st2" x1="59.6" y1="80.9" x2="56.9" y2="78"/>
		</g>
	</g>
	<g id="XMLID_75_">
		<g id="XMLID_36_">
			<line id="XMLID_39_" class="st2" x1="105.5" y1="72.7" x2="105.5" y2="76.7"/>
			<line id="XMLID_38_" class="st19" x1="105.6" y1="85.1" x2="105.9" y2="131.5"/>
			<line id="XMLID_37_" class="st2" x1="105.9" y1="135.8" x2="105.9" y2="139.8"/>
		</g>
	</g>
	<line id="XMLID_74_" class="st3" x1="105.9" y1="139.8" x2="153.2" y2="176.7"/>
	<line id="XMLID_62_" class="st3" x1="175.7" y1="152.2" x2="75.9" y2="164"/>
</g>
</svg>
