<?xml version="1.0" encoding="utf-8"?>
<!-- Generator: Adobe Illustrator 19.0.0, SVG Export Plug-In . SVG Version: 6.00 Build 0)  -->
<svg version="1.1" id="图层_1" xmlns="http://www.w3.org/2000/svg" xmlns:xlink="http://www.w3.org/1999/xlink" x="0px" y="0px"
	 viewBox="0 0 100 100" style="enable-background:new 0 0 100 100;" xml:space="preserve">
<style type="text/css">
	.st0{fill:#FFFFFF;}
</style>
<g id="XMLID_40_">
	<path id="XMLID_46_" class="st0" d="M68.8,57.7l-2.3-0.6l0,0l-5.2,10.7c-0.3,0.6-0.9,1-1.5,1c-0.6,0-1.3-0.3-1.6-0.8L54,62.1
		c-0.2-0.3-0.6-0.5-1-0.6c-0.4,0-0.8,0.1-1,0.4l-1,1.1c-0.2,0.3-0.6,0.4-0.9,0.4c-0.4,0-0.7-0.1-0.9-0.4l-1-1.1
		c-0.3-0.3-0.7-0.4-1-0.4c-0.4,0-0.7,0.2-1,0.6l-4.2,6.1c-0.4,0.5-1,0.8-1.6,0.8c-0.6,0-1.2-0.4-1.5-1l-5.2-10.7l0,0l-2.4,0.6
		c-9.7,2.4-16.6,11.2-16.6,21.2V92c0,2.6,2.2,4.7,4.7,4.7h61.2c2.6,0,4.7-2.1,4.7-4.7V78.9C85.3,68.9,78.5,60.2,68.8,57.7z M50,93
		c-1.1,0-2-0.9-2-2c0-1.1,0.9-2,2-2c1.1,0,2,0.9,2,2C52,92.1,51.1,93,50,93z M50,83.4c-1.1,0-2-0.9-2-2c0-1.1,0.9-2,2-2
		c1.1,0,2,0.9,2,2C52,82.5,51.1,83.4,50,83.4z M50,73.7c-1.1,0-2-0.9-2-2c0-1.1,0.9-2,2-2c1.1,0,2,0.9,2,2
		C52,72.8,51.1,73.7,50,73.7z"/>
	<path id="XMLID_41_" class="st0" d="M28.3,28c-1.8,0.8-3.1,2.8-2.8,7.1c0.4,4.6,2.7,6.7,5.2,7.3c3.6,8.8,10.7,16,19.1,16
		c8.4,0,15.5-7.2,19.1-15.9c2.7-0.4,5.2-2.5,5.6-7.3c0.3-3.7-0.6-5.6-2-6.6c3.1-15.8-7.9-19-7.9-19S54.5-2.7,36.5,6.9
		c-3.5,1.9-7.1,5.8-9.5,10.6c-0.3,0.7-0.3,1.5,0.2,2.1c0.5,0.6,1.2,0.9,2,0.7C27.1,24.7,28.3,27.8,28.3,28z M32.4,27.9
		c13.6-0.1,21.9-5.7,26.5-10.7c4.8,4.8,7.2,10.9,8.4,15.3c-0.9,10.4-8.3,21.9-17.4,21.9c-9.7,0-17.5-13.2-17.5-24.1
		C32.4,29.5,32.4,28.6,32.4,27.9z"/>
</g>
</svg>
