<svg id="图层_1" xmlns="http://www.w3.org/2000/svg" viewBox="0 0 100 100"><style>.st0{fill:#fff}</style><g id="XMLID_40_"><path id="XMLID_46_" class="st0" d="M68.8 57.7l-2.3-.6-5.2 10.7c-.3.6-.9 1-1.5 1s-1.3-.3-1.6-.8L54 62.1c-.2-.3-.6-.5-1-.6-.4 0-.8.1-1 .4L51 63c-.2.3-.6.4-.9.4-.4 0-.7-.1-.9-.4l-1-1.1c-.3-.3-.7-.4-1-.4-.4 0-.7.2-1 .6L42 68.2c-.4.5-1 .8-1.6.8-.6 0-1.2-.4-1.5-1l-5.2-10.7-2.4.6c-9.7 2.4-16.6 11.2-16.6 21.2V92c0 2.6 2.2 4.7 4.7 4.7h61.2c2.6 0 4.7-2.1 4.7-4.7V78.9c0-10-6.8-18.7-16.5-21.2zM50 93c-1.1 0-2-.9-2-2s.9-2 2-2 2 .9 2 2-.9 2-2 2zm0-9.6c-1.1 0-2-.9-2-2s.9-2 2-2 2 .9 2 2-.9 2-2 2zm0-9.7c-1.1 0-2-.9-2-2s.9-2 2-2 2 .9 2 2-.9 2-2 2z"/><path id="XMLID_41_" class="st0" d="M28.3 28c-1.8.8-3.1 2.8-2.8 7.1.4 4.6 2.7 6.7 5.2 7.3 3.6 8.8 10.7 16 19.1 16 8.4 0 15.5-7.2 19.1-15.9 2.7-.4 5.2-2.5 5.6-7.3.3-3.7-.6-5.6-2-6.6 3.1-15.8-7.9-19-7.9-19S54.5-2.7 36.5 6.9C33 8.8 29.4 12.7 27 17.5c-.3.7-.3 1.5.2 2.1.5.6 1.2.9 2 .7-2.1 4.4-.9 7.5-.9 7.7zm4.1-.1c13.6-.1 21.9-5.7 26.5-10.7 4.8 4.8 7.2 10.9 8.4 15.3-.9 10.4-8.3 21.9-17.4 21.9-9.7 0-17.5-13.2-17.5-24.1v-2.4z"/></g></svg>