<svg id="图层_1" xmlns="http://www.w3.org/2000/svg" viewBox="0 0 100 100"><style>.st0{fill:#fff}</style><path id="XMLID_70_" class="st0" d="M71.6 56.2V22.4c0-8.9-7.3-16.1-16.2-16.1H44.6c-8.9 0-16.1 7.2-16.1 16.1v33.7C21 59.6 16.1 67.2 16.1 75.7v11.9c0 3.4 2.7 6.1 6.1 6.1h55.6c3.4 0 6.2-2.7 6.2-6.1V75.8c-.1-8.5-5-16.1-12.4-19.6zM21.9 90c-1.1-.2-2-1.1-2-2.3V75.8c0-8.2 5.5-15.3 13.5-17.4v14.9l-.9.3c-2.3.9-3.8 3-3.8 5.5V90h-6.8zm12.4-61.9c12.5.5 19.9-4.6 23.9-8.9C63.1 24 65 30.5 65.7 34c-1 9.3-7.6 19.4-15.7 19.4-8.8 0-15.8-11.9-15.8-21.8 0-1.2 0-2.4.1-3.5zM39.1 57l4.7-1.2c1.4.7 2.9 1.2 4.5 1.4.6.1 1.2.1 1.8.1.6 0 1.2 0 1.8-.1 1.5-.2 3-.7 4.4-1.3l4.7 1.2v16.5c-1.9.6-3.6 1.7-4.9 3.2-1.6 1.8-3.3 2.8-6.2 2.8-2.2 0-4.3-1-5.7-2.6-1.3-1.5-3.1-2.7-5.1-3.3V57zm28.3 16.6c-.5-.2-.9-.3-.9-.3V58.4c7.9 2 13.4 9.1 13.4 17.3v11.9c0 1.3-1 2.3-2.3 2.3h-6.4V79.1c0-2.4-1.5-4.6-3.8-5.5z"/></svg>