<?xml version="1.0" encoding="utf-8"?>
<!-- Generator: Adobe Illustrator 19.0.0, SVG Export Plug-In . SVG Version: 6.00 Build 0)  -->
<svg version="1.1" id="图层_1" xmlns="http://www.w3.org/2000/svg" xmlns:xlink="http://www.w3.org/1999/xlink" x="0px" y="0px"
	 viewBox="0 0 100 100" style="enable-background:new 0 0 100 100;" xml:space="preserve">
<style type="text/css">
	.st0{fill:#FFFFFF;}
</style>
<path id="XMLID_70_" class="st0" d="M71.6,56.2V22.4c0-8.9-7.3-16.1-16.2-16.1H44.6c-8.9,0-16.1,7.2-16.1,16.1v33.7
	C21,59.6,16.1,67.2,16.1,75.7v11.9c0,3.4,2.7,6.1,6.1,6.1h0.1h55.4h0.1c3.4,0,6.2-2.7,6.2-6.1V75.8C83.9,67.3,79,59.7,71.6,56.2z
	 M21.9,90c-1.1-0.2-2-1.1-2-2.3V75.8c0-8.2,5.5-15.3,13.5-17.4v14.9c0,0-0.3,0.1-0.9,0.3c-2.3,0.9-3.8,3-3.8,5.5V90h-6.7
	C22.1,90,22,90,21.9,90z M34.3,28.1c12.5,0.5,19.9-4.6,23.9-8.9C63.1,24,65,30.5,65.7,34c-1,9.3-7.6,19.4-15.7,19.4
	c-8.8,0-15.8-11.9-15.8-21.8C34.2,30.4,34.2,29.2,34.3,28.1z M39.1,57l4.7-1.2c1.4,0.7,2.9,1.2,4.5,1.4c0.6,0.1,1.2,0.1,1.8,0.1
	c0.6,0,1.2,0,1.8-0.1c1.5-0.2,3-0.7,4.4-1.3l4.7,1.2v16.5c-1.9,0.6-3.6,1.7-4.9,3.2c-1.6,1.8-3.3,2.8-6.2,2.8h0
	c-2.2,0-4.3-1-5.7-2.6c-1.3-1.5-3.1-2.7-5.1-3.3V57z M67.4,73.6c-0.5-0.2-0.9-0.3-0.9-0.3V58.4c7.9,2,13.4,9.1,13.4,17.3v11.9
	c0,1.3-1,2.3-2.3,2.3h-6.4V79.1C71.2,76.7,69.7,74.5,67.4,73.6z"/>
</svg>
