<svg id="图层_1" xmlns="http://www.w3.org/2000/svg" xmlns:xlink="http://www.w3.org/1999/xlink" viewBox="-5605 4187.9 128 128"><style>.st0{fill:#f5d01f}.st1{fill:none;enable-background:new}.st2{clip-path:url(#SVGID_2_)}.st3{fill:#ba6435}.st4{fill:#c77244}.st5{fill:#5a4337}.st6{fill:#ba6436}.st7{clip-path:url(#SVGID_4_)}.st8{opacity:.28;fill:#5a4337;enable-background:new}.st9{clip-path:url(#SVGID_6_)}</style><path class="st0" d="M-5541.6 4189c34.6 0 62.7 28.1 62.7 62.7s-28.1 62.7-62.7 62.7-62.7-28.1-62.7-62.7c0-34.7 28.1-62.7 62.7-62.7z"/><defs><path id="SVGID_1_" d="M-5541.6 4189c34.6 0 62.7 28.1 62.7 62.7s-28.1 62.7-62.7 62.7-62.7-28.1-62.7-62.7c0-34.7 28.1-62.7 62.7-62.7z"/></defs><clipPath id="SVGID_2_"><use xlink:href="#SVGID_1_" overflow="visible"/></clipPath><g class="st2"><path class="st3" d="M-5605 4237.8h65.1v79.7h-65.1v-79.7z"/><path class="st4" d="M-5605.2 4256h47.3v56.9h-47.3V4256z"/><path class="st5" d="M-5536.9 4325.5h-3V4238h-62.6l-3.1 3.1V4224c0-3.3 2.7-6 6-6h62.7c3.3 0 6 2.7 6 6v95.5c0 3.3-2.7 6-6 6z"/><path class="st6" d="M-5589.1 4225.9h16.1c1.1 0 2.1.9 2.1 2.1 0 1.1-.9 2.1-2.1 2.1h-16.1c-1.1 0-2.1-.9-2.1-2.1.1-1.2 1-2.1 2.1-2.1z"/></g><defs><path id="SVGID_3_" d="M-5541.6 4189c34.6 0 62.7 28.1 62.7 62.7s-28.1 62.7-62.7 62.7-62.7-28.1-62.7-62.7c0-34.7 28.1-62.7 62.7-62.7z"/></defs><clipPath id="SVGID_4_"><use xlink:href="#SVGID_3_" overflow="visible"/></clipPath><g class="st7"><path class="st0" d="M-5522.7 4245.3c10.7 0 19.3 8.6 19.3 19.3 0 10.7-8.6 19.3-19.3 19.3s-19.3-8.6-19.3-19.3c0-10.6 8.6-19.3 19.3-19.3z"/><path class="st5" d="M-5482.4 4305.7c-1.9 1.9-5 1.9-6.9 0l-17.8-18.1c-4.5 3-9.9 4.8-15.7 4.8-15.4 0-27.9-12.5-27.9-27.9 0-15.4 12.5-27.9 27.9-27.9 15.4 0 27.9 12.5 27.9 27.9 0 6.1-2 11.7-5.2 16.3l17.8 18c1.8 1.9 1.8 5-.1 6.9zm-40.4-59.6c-10.1 0-18.3 8.2-18.3 18.3 0 10.1 8.2 18.3 18.3 18.3 10.1 0 18.3-8.2 18.3-18.3 0-10.1-8.2-18.3-18.3-18.3z"/><path class="st8" d="M-5517.3 4251s7 4.2 7.5 10c1.7 1.6 1.9.1 1.8-1.2-1.5-3.5-4.1-7.5-9.3-8.8z"/></g><defs><path id="SVGID_5_" d="M-5541.6 4189c34.6 0 62.7 28.1 62.7 62.7s-28.1 62.7-62.7 62.7-62.7-28.1-62.7-62.7c0-34.7 28.1-62.7 62.7-62.7z"/></defs><clipPath id="SVGID_6_"><use xlink:href="#SVGID_5_" overflow="visible"/></clipPath><g class="st9"><path class="st5" d="M-5621.5 4289.7h2.8v2.8h-2.8zm0-2.8h2.8v2.8h-2.8zm-11-5.5h2.8v2.8h-2.8zm2.8 0h2.8v2.8h-2.8zm8.2 13.8h2.8v2.8h-2.8zm-2.7-13.8h2.8v2.8h-2.8zm8.3 11h2.8v2.8h-2.8z"/><path class="st5" d="M-5615.9 4289.7h2.8v2.8h-2.8zm0 5.5h2.8v2.8h-2.8zm0-8.3h2.8v2.8h-2.8z"/><path class="st5" d="M-5615.9 4284.2h2.8v2.8h-2.8zm-5.6-11.1h2.8v2.8h-2.8zm5.6 8.3h2.8v2.8h-2.8z"/><path class="st5" d="M-5615.9 4278.7h2.8v2.8h-2.8zm0-2.8h2.8v2.8h-2.8zm-19.3-2.8h2.8v2.8h-2.8zm5.5 2.8h2.8v2.8h-2.8zm-2.8 0h2.8v2.8h-2.8z"/><path class="st5" d="M-5635.2 4275.9h2.8v2.8h-2.8zm13.7 0h2.8v2.8h-2.8zm-5.5 0h2.8v2.8h-2.8z"/><path class="st5" d="M-5624.2 4275.9h2.8v2.8h-2.8zm5.5 11h2.8v2.8h-2.8zm0-5.5h2.8v2.8h-2.8zm0 13.8h2.8v2.8h-2.8zm0-2.8h2.8v2.8h-2.8zm-16.5 2.8h2.8v2.8h-2.8zm0-2.8h2.8v2.8h-2.8z"/><path class="st5" d="M-5632.5 4289.7h2.8v2.8h-2.8zm0 5.5h2.8v2.8h-2.8zm2.8-11h2.8v2.8h-2.8zm2.7 11h2.8v2.8h-2.8zm-8.2-11h2.8v2.8h-2.8z"/><path class="st5" d="M-5627 4284.2h2.8v2.8h-2.8zm2.8 8.2h2.8v2.8h-2.8z"/><path class="st5" d="M-5624.2 4289.7h2.8v2.8h-2.8zm0-2.8h2.8v2.8h-2.8zm-5.5 0h2.8v2.8h-2.8zm-2.8 0h2.8v2.8h-2.8zm2.8 8.3h2.8v2.8h-2.8zm0-2.8h2.8v2.8h-2.8zm24.8 2.8h2.8v2.8h-2.8zm0-13.8h2.8v2.8h-2.8z"/><path class="st5" d="M-5604.9 4278.7h2.8v2.8h-2.8zm0-2.8h2.8v2.8h-2.8zm0 8.3h2.8v2.8h-2.8zm0 5.5h2.8v2.8h-2.8z"/><path class="st5" d="M-5604.9 4286.9h2.8v2.8h-2.8zm-2.8-11h2.8v2.8h-2.8zm-13.8-11h2.8v2.8h-2.8zm-13.7 0h2.8v2.8h-2.8zm27.5 30.3h2.8v2.8h-2.8zm0-2.8h2.8v2.8h-2.8z"/><path class="st5" d="M-5607.7 4289.7h2.8v2.8h-2.8zm0-16.6h2.8v2.8h-2.8zm2.8 0h2.8v2.8h-2.8zm-2.8 13.8h2.8v2.8h-2.8z"/><path class="st5" d="M-5604.9 4270.4h2.8v2.8h-2.8zm2.7 24.8h2.8v-2.8h-2.8v2.8zm0-5.5h2.8v-2.8h-2.8v2.8z"/><path class="st5" d="M-5602.2 4273.1h2.8v-2.8h-2.8v2.8zm0 8.3h2.8v-2.8h-2.8v2.8zm-30.3-16.5v-2.8h-2.8v2.8h2.8zm2.8 0v-2.8h-2.8v2.8h2.8zm24.8 0v-2.8h-2.8v2.8h2.8zm-2.8 0v-2.8h-2.8v2.8h2.8z"/><path class="st5" d="M-5604.9 4267.6h2.8v2.8h-2.8zm5.5-2.7v-2.8h-2.8v2.8h2.8zm-22.1 0v-2.8h-2.8v2.8h2.8z"/><path class="st5" d="M-5624.2 4264.9v-2.8h-2.8v2.8h2.8zm-2.8 0v-2.8h-2.8v2.8h2.8zm8.3 0v-2.8h-2.8v2.8h2.8zm5.5 0v-2.8h-2.8v2.8h2.8zm2.8 0v-2.8h-2.8v2.8h2.8zm-2.8 5.5h2.8v2.8h-2.8zm-13.8 0h2.8v2.8h-2.8z"/><path class="st5" d="M-5629.7 4270.4h2.8v2.8h-2.8zm8.2 0h2.8v2.8h-2.8zm-13.7 0h2.8v2.8h-2.8zm22 24.8h2.8v2.8h-2.8zm0-16.5h2.8v2.8h-2.8z"/><path class="st5" d="M-5613.2 4281.4h2.8v2.8h-2.8zm0-5.5h2.8v2.8h-2.8zm0 13.8h2.8v2.8h-2.8zm0-5.5h2.8v2.8h-2.8z"/><path class="st5" d="M-5613.2 4273.1h2.8v2.8h-2.8zm2.8 13.8h2.8v2.8h-2.8z"/><path class="st5" d="M-5610.4 4284.2h2.8v2.8h-2.8zm0 8.2h2.8v2.8h-2.8zm0-24.8h2.8v2.8h-2.8zm-2.8 0h2.8v2.8h-2.8zm2.8 11.1h2.8v2.8h-2.8zm0-5.6h2.8v2.8h-2.8z"/><path class="st5" d="M-5615.9 4267.6h2.8v2.8h-2.8zm-19.3 0h2.8v2.8h-2.8zm13.7 0h2.8v2.8h-2.8zm-5.5 0h2.8v2.8h-2.8z"/><path class="st5" d="M-5629.7 4267.6h2.8v2.8h-2.8zm44.1 22.1h2.8v2.8h-2.8zm0-8.3h2.8v2.8h-2.8zm0 5.5h2.8v2.8h-2.8zm-11.1-8.2h2.8v2.8h-2.8z"/><path class="st5" d="M-5599.4 4278.7h2.8v2.8h-2.8z"/><path class="st5" d="M-5599.4 4281.4h2.8v2.8h-2.8zm8.2 0h2.8v2.8h-2.8zm2.8 0h2.8v2.8h-2.8zm2.8 11h2.8v2.8h-2.8zm5.5-2.7h2.8v2.8h-2.8zm0 5.5h2.8v2.8h-2.8zm0-11h2.8v2.8h-2.8zm0-11.1h2.8v2.8h-2.8zm-8.3 0h2.8v2.8h-2.8z"/><path class="st5" d="M-5585.6 4273.1h2.8v2.8h-2.8zm5.5 2.8h2.8v2.8h-2.8zm-19.3-2.8h2.8v2.8h-2.8zm5.5 2.8h2.8v2.8h-2.8z"/><path class="st5" d="M-5599.4 4275.9h2.8v2.8h-2.8zm13.8 0h2.8v2.8h-2.8zm-5.6 0h2.8v2.8h-2.8zm2.8 0h2.8v2.8h-2.8zm5.5 11h2.8v2.8h-2.8zm0-5.5h2.8v2.8h-2.8z"/><path class="st5" d="M-5582.9 4284.2h2.8v2.8h-2.8zm0 11h2.8v2.8h-2.8zm0-5.5h2.8v2.8h-2.8zm-16.5 5.5h2.8v2.8h-2.8zm0-2.8h2.8v2.8h-2.8z"/><path class="st5" d="M-5596.7 4289.7h2.8v2.8h-2.8z"/><path class="st5" d="M-5599.4 4289.7h2.8v2.8h-2.8zm2.7 5.5h2.8v2.8h-2.8zm8.3-11h2.8v2.8h-2.8zm-5.5 0h2.8v2.8h-2.8z"/><path class="st5" d="M-5591.2 4286.9h2.8v2.8h-2.8zm-5.5-2.7h2.8v2.8h-2.8zm8.3 8.2h2.8v2.8h-2.8z"/><path class="st5" d="M-5588.4 4289.7h2.8v2.8h-2.8zm0 5.5h2.8v2.8h-2.8zm-5.5-8.3h2.8v2.8h-2.8zm-5.5 0h2.8v2.8h-2.8zm5.5 8.3h2.8v2.8h-2.8zm0-2.8h2.8v2.8h-2.8zm24.8 2.8h2.8v2.8h-2.8zm0-2.8h2.8v2.8h-2.8zm0-16.5h2.8v2.8h-2.8zm0 8.3h2.8v2.8h-2.8z"/><path class="st5" d="M-5569.1 4289.7h2.8v2.8h-2.8zm0-2.8h2.8v2.8h-2.8zm-2.8-11h2.8v2.8h-2.8zm-13.7-11h2.8v2.8h-2.8zm5.5 0h2.8v2.8h-2.8zm-11.1 0h2.8v2.8h-2.8zm-8.2 0h2.8v2.8h-2.8z"/><path class="st5" d="M-5596.7 4264.9h2.8v2.8h-2.8zm2.8 0h2.8v2.8h-2.8zm22 16.5h2.8v2.8h-2.8zm0 11h2.8v2.8h-2.8z"/><path class="st5" d="M-5571.9 4289.7h2.8v2.8h-2.8zm0-22.1h2.8v2.8h-2.8zm0 2.8h2.8v2.8h-2.8zm0 13.8h2.8v2.8h-2.8zm5.5 13.7h2.8v-2.8h-2.8v2.8zm0-8.2h2.8v-2.8h-2.8v2.8zm0-13.8h2.8v-2.8h-2.8v2.8z"/><path class="st5" d="M-5566.4 4273.1h2.8v-2.8h-2.8v2.8z"/><path class="st5" d="M-5566.4 4267.6v2.8h2.8v-2.8h-2.8zm0 11.1h2.8v-2.8h-2.8v2.8zm-30.3-13.8v-2.8h-2.8v2.8h2.8zm30.3 0v-2.8h-2.8v2.8h2.8z"/><path class="st5" d="M-5569.1 4264.9v-2.8h-2.8v2.8h2.8z"/><path class="st5" d="M-5571.9 4264.9v-2.8h-2.8v2.8h2.8zm5.5 2.7h2.8v-2.8h-2.8v2.8z"/><path class="st5" d="M-5563.6 4264.9v-2.8h-2.8v2.8h2.8zm-22 0v-2.8h-2.8v2.8h2.8zm-5.6 0v-2.8h-2.8v2.8h2.8z"/><path class="st5" d="M-5582.9 4264.9v-2.8h-2.8v2.8h2.8zm5.5 0v-2.8h-2.8v2.8h2.8z"/><path class="st5" d="M-5574.6 4264.9v-2.8h-2.8v2.8h2.8zm-5.5 5.5h2.8v2.8h-2.8zm-11.1 0h2.8v2.8h-2.8z"/><path class="st5" d="M-5593.9 4270.4h2.8v2.8h-2.8zm8.3 0h2.8v2.8h-2.8zm-13.8 0h2.8v2.8h-2.8zm22 11h2.8v2.8h-2.8zm0-5.5h2.8v2.8h-2.8zm0 13.8h2.8v2.8h-2.8zm0-5.5h2.8v2.8h-2.8z"/><path class="st5" d="M-5574.6 4281.4h2.8v2.8h-2.8zm0 5.5h2.8v2.8h-2.8z"/><path class="st5" d="M-5574.6 4284.2h2.8v2.8h-2.8zm0 8.2h2.8v2.8h-2.8zm0 2.8h2.8v2.8h-2.8zm0-27.6h2.8v2.8h-2.8zm0 8.3h2.8v2.8h-2.8zm0-5.5h2.8v2.8h-2.8zm-5.5-2.8h2.8v2.8h-2.8zm-19.3 0h2.8v2.8h-2.8z"/><path class="st5" d="M-5596.7 4267.6h2.8v2.8h-2.8zm8.3 0h2.8v2.8h-2.8zm-2.8 0h2.8v2.8h-2.8zm-30.3 57.9h2.8v2.8h-2.8zm-2.7-11h2.8v2.8h-2.8zm-2.8 0h2.8v2.8h-2.8zm5.5 8.2h2.8v2.8h-2.8z"/><path class="st5" d="M-5621.5 4320h2.8v2.8h-2.8zm-11-5.5h2.8v2.8h-2.8z"/><path class="st5" d="M-5635.2 4314.5h2.8v2.8h-2.8zm8.2 2.7h2.8v2.8h-2.8zm5.5 13.8h2.8v2.8h-2.8zm-2.7-13.8h2.8v2.8h-2.8zm2.7 11h2.8v2.8h-2.8zm5.6 0h2.8v2.8h-2.8zm0-5.5h2.8v2.8h-2.8z"/><path class="st5" d="M-5615.9 4320h2.8v2.8h-2.8zm0-11h2.8v2.8h-2.8zm-8.3 0h2.8v2.8h-2.8z"/><path class="st5" d="M-5621.5 4309h2.8v2.8h-2.8zm5.6 5.5h2.8v2.8h-2.8zm0-2.8h2.8v2.8h-2.8zm-13.8-2.7h2.8v2.8h-2.8z"/><path class="st5" d="M-5627 4309h2.8v2.8h-2.8zm-5.5 0h2.8v2.8h-2.8z"/><path class="st5" d="M-5635.2 4309h2.8v2.8h-2.8zm5.5 2.7h2.8v2.8h-2.8z"/><path class="st5" d="M-5632.5 4311.7h2.8v2.8h-2.8zm11 0h2.8v2.8h-2.8zm2.8 11h2.8v2.8h-2.8zm0-5.5h2.8v2.8h-2.8z"/><path class="st5" d="M-5618.7 4314.5h2.8v2.8h-2.8zm0 5.5h2.8v2.8h-2.8zm0 11h2.8v2.8h-2.8zm0-2.8h2.8v2.8h-2.8zm-16.5 2.8h2.8v2.8h-2.8zm0-2.8h2.8v2.8h-2.8z"/><path class="st5" d="M-5632.5 4325.5h2.8v2.8h-2.8zm0 5.5h2.8v2.8h-2.8zm5.5 0h2.8v2.8h-2.8zm-8.2-11h2.8v2.8h-2.8zm8.2 5.5h2.8v2.8h-2.8zm0-2.8h2.8v2.8h-2.8zm2.8 0h2.8v2.8h-2.8zm0 8.3h2.8v2.8h-2.8z"/><path class="st5" d="M-5629.7 4325.5h2.8v2.8h-2.8zm-5.5-2.8h2.8v2.8h-2.8z"/><path class="st5" d="M-5632.5 4322.7h2.8v2.8h-2.8zm2.8 5.5h2.8v2.8h-2.8zm24.8 2.8h2.8v2.8h-2.8zm0-13.8h2.8v2.8h-2.8z"/><path class="st5" d="M-5604.9 4314.5h2.8v2.8h-2.8zm0-2.8h2.8v2.8h-2.8zm0 8.3h2.8v2.8h-2.8zm0 5.5h2.8v2.8h-2.8zm-2.8-13.8h2.8v2.8h-2.8zm-11-11h2.8v2.8h-2.8zm-2.8 0h2.8v2.8h-2.8z"/><path class="st5" d="M-5624.2 4300.7h2.8v2.8h-2.8zm16.5 0h2.8v2.8h-2.8zm-19.3 0h2.8v2.8h-2.8zm-8.2 0h2.8v2.8h-2.8z"/><path class="st5" d="M-5629.7 4300.7h2.8v2.8h-2.8zm22 16.5h2.8v2.8h-2.8zm0 13.8h2.8v2.8h-2.8zm0-2.8h2.8v2.8h-2.8z"/><path class="st5" d="M-5607.7 4325.5h2.8v2.8h-2.8zm0-22.1h2.8v2.8h-2.8zm0 5.6h2.8v2.8h-2.8zm2.8 0h2.8v2.8h-2.8zm-2.8 11h2.8v2.8h-2.8z"/><path class="st5" d="M-5607.7 4322.7h2.8v2.8h-2.8zm2.8-16.5h2.8v2.8h-2.8zm2.7 24.8h2.8v-2.8h-2.8v2.8zm0-2.8h2.8v-2.8h-2.8v2.8z"/><path class="st5" d="M-5602.2 4311.7h2.8v-2.8h-2.8v2.8zm0 2.8h2.8v-2.8h-2.8v2.8zm-30.3-13.8v-2.8h-2.8v2.8h2.8zm2.8 0v-2.8h-2.8v2.8h2.8zm24.8 2.7h2.8v2.8h-2.8z"/><path class="st5" d="M-5604.9 4300.7h2.8v2.8h-2.8zm5.5 0v-2.8h-2.8v2.8h2.8zm-27.6 0v-2.8h-2.8v2.8h2.8zm8.3 0v-2.8h-2.8v2.8h2.8zm5.5 0v-2.8h-2.8v2.8h2.8zm-2.7 5.5h2.8v2.8h-2.8zm-11.1 0h2.8v2.8h-2.8zm5.5 0h2.8v2.8h-2.8zm2.8 0h2.8v2.8h-2.8zm-16.5 0h2.8v2.8h-2.8zm22 24.8h2.8v2.8h-2.8zm0-13.8h2.8v2.8h-2.8zm0-5.5h2.8v2.8h-2.8zm0 13.8h2.8v2.8h-2.8zm0-5.5h2.8v2.8h-2.8z"/><path class="st5" d="M-5613.2 4322.7h2.8v2.8h-2.8zm2.8 2.8h2.8v2.8h-2.8zm0 5.5h2.8v2.8h-2.8zm0-27.6h2.8v2.8h-2.8zm-2.8 0h2.8v2.8h-2.8zm-5.5 0h2.8v2.8h-2.8zm8.3 11.1h2.8v2.8h-2.8zm0-2.8h2.8v2.8h-2.8z"/><path class="st5" d="M-5610.4 4309h2.8v2.8h-2.8zm0-2.8h2.8v2.8h-2.8zm-13.8-2.8h2.8v2.8h-2.8zm-5.5 0h2.8v2.8h-2.8zm44.1 22.1h2.8v2.8h-2.8zm-2.8-11h2.8v2.8h-2.8zm-2.8 0h2.8v2.8h-2.8z"/><path class="st5" d="M-5593.9 4314.5h2.8v2.8h-2.8zm8.3 8.2h2.8v2.8h-2.8z"/><path class="st5" d="M-5585.6 4320h2.8v2.8h-2.8zm0-5.5h2.8v2.8h-2.8zm-11.1 0h2.8v2.8h-2.8z"/><path class="st5" d="M-5599.4 4317.2h2.8v2.8h-2.8zm5.5 0h2.8v2.8h-2.8zm8.3 11h2.8v2.8h-2.8zm5.5 0h2.8v2.8h-2.8z"/><path class="st5" d="M-5580.1 4325.5h2.8v2.8h-2.8zm0 5.5h2.8v2.8h-2.8zm0-8.3h2.8v2.8h-2.8z"/><path class="st5" d="M-5580.1 4320h2.8v2.8h-2.8zm0-11h2.8v2.8h-2.8zm-8.3 0h2.8v2.8h-2.8zm2.8 0h2.8v2.8h-2.8zm5.5 8.2h2.8v2.8h-2.8zm-13.8-8.2h2.8v2.8h-2.8zm-5.5 0h2.8v2.8h-2.8z"/><path class="st5" d="M-5596.7 4311.7h2.8v2.8h-2.8z"/><path class="st5" d="M-5599.4 4311.7h2.8v2.8h-2.8zm13.8 0h2.8v2.8h-2.8zm-5.6 0h2.8v2.8h-2.8z"/><path class="st5" d="M-5582.9 4311.7h2.8v2.8h-2.8zm-16.5 16.5h2.8v2.8h-2.8z"/><path class="st5" d="M-5599.4 4325.5h2.8v2.8h-2.8zm2.7 5.5h2.8v2.8h-2.8zm8.3-11h2.8v2.8h-2.8zm-11 0h2.8v2.8h-2.8zm8.2 0h2.8v2.8h-2.8zm0 8.2h2.8v2.8h-2.8z"/><path class="st5" d="M-5591.2 4325.5h2.8v2.8h-2.8zm-5.5-5.5h2.8v2.8h-2.8zm8.3 11h2.8v2.8h-2.8z"/><path class="st5" d="M-5593.9 4325.5h2.8v2.8h-2.8zm0-2.8h2.8v2.8h-2.8zm-5.5 0h2.8v2.8h-2.8z"/><path class="st5" d="M-5596.7 4322.7h2.8v2.8h-2.8zm2.8 5.5h2.8v2.8h-2.8zm24.8 2.8h2.8v2.8h-2.8zm0-13.8h2.8v2.8h-2.8zm0-5.5h2.8v2.8h-2.8zm-16.5-11h2.8v2.8h-2.8zm-2.8 0h2.8v2.8h-2.8zm16.5 0h2.8v2.8h-2.8zm-8.2 0h2.8v2.8h-2.8zm-11.1 0h2.8v2.8h-2.8zm-8.2 0h2.8v2.8h-2.8zm27.5 16.5h2.8v2.8h-2.8zm0 13.8h2.8v2.8h-2.8zm0-5.5h2.8v2.8h-2.8z"/><path class="st5" d="M-5571.9 4303.4h2.8v2.8h-2.8zm0 5.6h2.8v2.8h-2.8z"/><path class="st5" d="M-5569.1 4309h2.8v2.8h-2.8zm-2.8 13.7h2.8v2.8h-2.8zm-5.5-22h2.8v2.8h-2.8zm8.3 5.5h2.8v2.8h-2.8zm2.7 27.5h2.8v-2.8h-2.8v2.8z"/><path class="st5" d="M-5566.4 4331h2.8v-2.8h-2.8v2.8zm0-2.8h2.8v-2.8h-2.8v2.8z"/><path class="st5" d="M-5566.4 4325.5h2.8v-2.8h-2.8v2.8zm0-2.8h2.8v-2.8h-2.8v2.8zm0-11h2.8v-2.8h-2.8v2.8zm0-8.3v2.8h2.8v-2.8h-2.8z"/><path class="st5" d="M-5566.4 4320h2.8v-2.8h-2.8v2.8zm-30.3-19.3v-2.8h-2.8v2.8h2.8zm2.8 0v-2.8h-2.8v2.8h2.8zm22 0v-2.8h-2.8v2.8h2.8zm5.5 2.7h2.8v-2.8h-2.8v2.8zm-19.2-2.7v-2.8h-2.8v2.8h2.8z"/><path class="st5" d="M-5591.2 4300.7v-2.8h-2.8v2.8h2.8zm13.8 0v-2.8h-2.8v2.8h2.8z"/><path class="st5" d="M-5580.1 4300.7v-2.8h-2.8v2.8h2.8zm0 5.5h2.8v2.8h-2.8zm-11.1 0h2.8v2.8h-2.8zm2.8 0h2.8v2.8h-2.8zm-8.3 0h2.8v2.8h-2.8z"/><path class="st5" d="M-5582.9 4306.2h2.8v2.8h-2.8zm-16.5 0h2.8v2.8h-2.8zm22 24.8h2.8v2.8h-2.8zm0-13.8h2.8v2.8h-2.8zm0-5.5h2.8v2.8h-2.8z"/><path class="st5" d="M-5574.6 4317.2h2.8v2.8h-2.8zm0 5.5h2.8v2.8h-2.8zm0 2.8h2.8v2.8h-2.8zm0 5.5h2.8v2.8h-2.8zm-2.8-27.6h2.8v2.8h-2.8zm2.8 8.3h2.8v2.8h-2.8zm-11-8.3h2.8v2.8h-2.8zm-5.6 0h2.8v2.8h-2.8z"/><path class="st5" d="M-5593.9 4303.4h2.8v2.8h-2.8z"/></g></svg>