<?xml version="1.0" encoding="utf-8"?>
<!-- Generator: Adobe Illustrator 19.0.0, SVG Export Plug-In . SVG Version: 6.00 Build 0)  -->
<svg version="1.1" id="图层_1" xmlns="http://www.w3.org/2000/svg" xmlns:xlink="http://www.w3.org/1999/xlink" x="0px" y="0px"
	 viewBox="-5605 4187.9 128 128" style="enable-background:new -5605 4187.9 128 128;" xml:space="preserve">
<style type="text/css">
	.st0{fill:#F5D01F;}
	.st1{fill:none;enable-background:new    ;}
	.st2{clip-path:url(#SVGID_2_);}
	.st3{fill:#BA6435;}
	.st4{fill:#C77244;}
	.st5{fill:#5A4337;}
	.st6{fill:#BA6436;}
	.st7{clip-path:url(#SVGID_4_);}
	.st8{opacity:0.28;fill:#5A4337;enable-background:new    ;}
	.st9{clip-path:url(#SVGID_6_);}
</style>
<path class="st0" d="M-5541.6,4189c34.6,0,62.7,28.1,62.7,62.7c0,34.6-28.1,62.7-62.7,62.7c-34.6,0-62.7-28.1-62.7-62.7
	C-5604.3,4217-5576.2,4189-5541.6,4189z"/>
<path class="st1" d="z"/>
<g>
	<defs>
		<path id="SVGID_1_" d="M-5541.6,4189c34.6,0,62.7,28.1,62.7,62.7c0,34.6-28.1,62.7-62.7,62.7c-34.6,0-62.7-28.1-62.7-62.7
			C-5604.3,4217-5576.2,4189-5541.6,4189z"/>
	</defs>
	<clipPath id="SVGID_2_">
		<use xlink:href="#SVGID_1_"  style="overflow:visible;"/>
	</clipPath>
	<g class="st2">
		<path class="st3" d="M-5605,4237.8h65.1v79.7h-65.1V4237.8z"/>
		<path class="st4" d="M-5605.2,4256h47.3v56.9h-47.3V4256z"/>
		<path class="st5" d="M-5536.9,4325.5h-3l0-87.5h-62.6l-3.1,3.1v-17.1c0-3.3,2.7-6,6-6h62.7c3.3,0,6,2.7,6,6v95.5
			C-5530.9,4322.8-5533.6,4325.5-5536.9,4325.5z"/>
		<path class="st6" d="M-5589.1,4225.9h16.1c1.1,0,2.1,0.9,2.1,2.1v0c0,1.1-0.9,2.1-2.1,2.1h-16.1c-1.1,0-2.1-0.9-2.1-2.1v0
			C-5591.1,4226.8-5590.2,4225.9-5589.1,4225.9z"/>
	</g>
</g>
<g>
	<defs>
		<path id="SVGID_3_" d="M-5541.6,4189c34.6,0,62.7,28.1,62.7,62.7c0,34.6-28.1,62.7-62.7,62.7c-34.6,0-62.7-28.1-62.7-62.7
			C-5604.3,4217-5576.2,4189-5541.6,4189z"/>
	</defs>
	<clipPath id="SVGID_4_">
		<use xlink:href="#SVGID_3_"  style="overflow:visible;"/>
	</clipPath>
	<g class="st7">
		<path class="st0" d="M-5522.7,4245.3c10.7,0,19.3,8.6,19.3,19.3c0,10.7-8.6,19.3-19.3,19.3s-19.3-8.6-19.3-19.3
			C-5542,4254-5533.4,4245.3-5522.7,4245.3z"/>
		<g>
			<path class="st5" d="M-5482.4,4305.7c-1.9,1.9-5,1.9-6.9,0l-17.8-18.1c-4.5,3-9.9,4.8-15.7,4.8c-15.4,0-27.9-12.5-27.9-27.9
				c0-15.4,12.5-27.9,27.9-27.9c15.4,0,27.9,12.5,27.9,27.9c0,6.1-2,11.7-5.2,16.3l17.8,18
				C-5480.5,4300.7-5480.5,4303.8-5482.4,4305.7z M-5522.8,4246.1c-10.1,0-18.3,8.2-18.3,18.3c0,10.1,8.2,18.3,18.3,18.3
				c10.1,0,18.3-8.2,18.3-18.3C-5504.5,4254.3-5512.7,4246.1-5522.8,4246.1z"/>
			<path class="st8" d="M-5517.3,4251c0,0,7,4.2,7.5,10c1.7,1.6,1.9,0.1,1.8-1.2C-5509.5,4256.3-5512.1,4252.3-5517.3,4251z"/>
		</g>
	</g>
</g>
<g>
	<defs>
		<path id="SVGID_5_" d="M-5541.6,4189c34.6,0,62.7,28.1,62.7,62.7c0,34.6-28.1,62.7-62.7,62.7c-34.6,0-62.7-28.1-62.7-62.7
			C-5604.3,4217-5576.2,4189-5541.6,4189z"/>
	</defs>
	<clipPath id="SVGID_6_">
		<use xlink:href="#SVGID_5_"  style="overflow:visible;"/>
	</clipPath>
	<g class="st9">
		<rect x="-5621.5" y="4289.7" class="st5" width="2.8" height="2.8"/>
		<rect x="-5621.5" y="4286.9" class="st5" width="2.8" height="2.8"/>
		<rect x="-5632.5" y="4281.4" class="st5" width="2.8" height="2.8"/>
		<rect x="-5629.7" y="4281.4" class="st5" width="2.8" height="2.8"/>
		<rect x="-5621.5" y="4295.2" class="st5" width="2.8" height="2.8"/>
		<rect x="-5624.2" y="4281.4" class="st5" width="2.8" height="2.8"/>
		<rect x="-5615.9" y="4292.4" class="st5" width="2.8" height="2.8"/>
		<rect x="-5615.9" y="4289.7" class="st5" width="2.8" height="2.8"/>
		<rect x="-5615.9" y="4295.2" class="st5" width="2.8" height="2.8"/>
		<rect x="-5615.9" y="4286.9" class="st5" width="2.8" height="2.8"/>
		<rect x="-5615.9" y="4284.2" class="st5" width="2.8" height="2.8"/>
		<rect x="-5621.5" y="4273.1" class="st5" width="2.8" height="2.8"/>
		<rect x="-5615.9" y="4281.4" class="st5" width="2.8" height="2.8"/>
		<rect x="-5615.9" y="4278.7" class="st5" width="2.8" height="2.8"/>
		<rect x="-5615.9" y="4275.9" class="st5" width="2.8" height="2.8"/>
		<rect x="-5635.2" y="4273.1" class="st5" width="2.8" height="2.8"/>
		<rect x="-5629.7" y="4275.9" class="st5" width="2.8" height="2.8"/>
		<rect x="-5632.5" y="4275.9" class="st5" width="2.8" height="2.8"/>
		<rect x="-5635.2" y="4275.9" class="st5" width="2.8" height="2.8"/>
		<rect x="-5621.5" y="4275.9" class="st5" width="2.8" height="2.8"/>
		<rect x="-5627" y="4275.9" class="st5" width="2.8" height="2.8"/>
		<rect x="-5624.2" y="4275.9" class="st5" width="2.8" height="2.8"/>
		<rect x="-5618.7" y="4286.9" class="st5" width="2.8" height="2.8"/>
		<rect x="-5618.7" y="4281.4" class="st5" width="2.8" height="2.8"/>
		<rect x="-5618.7" y="4295.2" class="st5" width="2.8" height="2.8"/>
		<rect x="-5618.7" y="4292.4" class="st5" width="2.8" height="2.8"/>
		<rect x="-5635.2" y="4295.2" class="st5" width="2.8" height="2.8"/>
		<rect x="-5635.2" y="4292.4" class="st5" width="2.8" height="2.8"/>
		<rect x="-5632.5" y="4289.7" class="st5" width="2.8" height="2.8"/>
		<rect x="-5632.5" y="4295.2" class="st5" width="2.8" height="2.8"/>
		<rect x="-5629.7" y="4284.2" class="st5" width="2.8" height="2.8"/>
		<rect x="-5627" y="4295.2" class="st5" width="2.8" height="2.8"/>
		<rect x="-5635.2" y="4284.2" class="st5" width="2.8" height="2.8"/>
		<rect x="-5627" y="4284.2" class="st5" width="2.8" height="2.8"/>
		<rect x="-5624.2" y="4292.4" class="st5" width="2.8" height="2.8"/>
		<rect x="-5624.2" y="4289.7" class="st5" width="2.8" height="2.8"/>
		<rect x="-5624.2" y="4286.9" class="st5" width="2.8" height="2.8"/>
		<rect x="-5629.7" y="4286.9" class="st5" width="2.8" height="2.8"/>
		<rect x="-5632.5" y="4286.9" class="st5" width="2.8" height="2.8"/>
		<rect x="-5629.7" y="4295.2" class="st5" width="2.8" height="2.8"/>
		<rect x="-5629.7" y="4292.4" class="st5" width="2.8" height="2.8"/>
		<rect x="-5604.9" y="4295.2" class="st5" width="2.8" height="2.8"/>
		<rect x="-5604.9" y="4281.4" class="st5" width="2.8" height="2.8"/>
		<rect x="-5604.9" y="4278.7" class="st5" width="2.8" height="2.8"/>
		<rect x="-5604.9" y="4275.9" class="st5" width="2.8" height="2.8"/>
		<rect x="-5604.9" y="4284.2" class="st5" width="2.8" height="2.8"/>
		<rect x="-5604.9" y="4289.7" class="st5" width="2.8" height="2.8"/>
		<rect x="-5604.9" y="4286.9" class="st5" width="2.8" height="2.8"/>
		<rect x="-5607.7" y="4275.9" class="st5" width="2.8" height="2.8"/>
		<rect x="-5621.5" y="4264.9" class="st5" width="2.8" height="2.8"/>
		<rect x="-5635.2" y="4264.9" class="st5" width="2.8" height="2.8"/>
		<rect x="-5607.7" y="4295.2" class="st5" width="2.8" height="2.8"/>
		<rect x="-5607.7" y="4292.4" class="st5" width="2.8" height="2.8"/>
		<rect x="-5607.7" y="4289.7" class="st5" width="2.8" height="2.8"/>
		<rect x="-5607.7" y="4273.1" class="st5" width="2.8" height="2.8"/>
		<rect x="-5604.9" y="4273.1" class="st5" width="2.8" height="2.8"/>
		<rect x="-5607.7" y="4286.9" class="st5" width="2.8" height="2.8"/>
		<rect x="-5604.9" y="4270.4" class="st5" width="2.8" height="2.8"/>
		<path class="st5" d="M-5602.2,4295.2h2.8c0-0.9,0-1.8,0-2.8h-2.8V4295.2z"/>
		<path class="st5" d="M-5602.2,4289.7h2.8c0-0.9,0-1.8,0-2.8h-2.8V4289.7z"/>
		<path class="st5" d="M-5602.2,4273.1h2.8c0-1,0-1.9,0-2.8h-2.8V4273.1z"/>
		<path class="st5" d="M-5602.2,4281.4h2.8c0-0.9,0-1.9,0-2.8h-2.8V4281.4z"/>
		<path class="st5" d="M-5632.5,4264.9v-2.8c-0.9,0-1.8,0-2.8,0v2.8H-5632.5z"/>
		<path class="st5" d="M-5629.7,4264.9v-2.8c-0.9,0-1.8,0-2.8,0v2.8H-5629.7z"/>
		<path class="st5" d="M-5604.9,4264.9v-2.8c-0.9,0-1.8,0-2.8,0v2.8H-5604.9z"/>
		<path class="st5" d="M-5607.7,4264.9v-2.8c-0.9,0-1.8,0-2.8,0v2.8H-5607.7z"/>
		<rect x="-5604.9" y="4267.6" class="st5" width="2.8" height="2.8"/>
		<path class="st5" d="M-5599.4,4264.9c0-1.1,0-2,0-2.8c-0.7,0-1.7,0-2.8,0v2.8H-5599.4z"/>
		<path class="st5" d="M-5621.5,4264.9v-2.8c-0.9,0-1.8,0-2.8,0v2.8H-5621.5z"/>
		<path class="st5" d="M-5624.2,4264.9v-2.8c-0.9,0-1.8,0-2.8,0v2.8H-5624.2z"/>
		<path class="st5" d="M-5627,4264.9v-2.8c-0.9,0-1.8,0-2.8,0v2.8H-5627z"/>
		<path class="st5" d="M-5618.7,4264.9v-2.8c-0.9,0-1.8,0-2.8,0v2.8H-5618.7z"/>
		<path class="st5" d="M-5613.2,4264.9v-2.8c-0.9,0-1.8,0-2.8,0v2.8H-5613.2z"/>
		<path class="st5" d="M-5610.4,4264.9v-2.8c-0.9,0-1.8,0-2.8,0v2.8H-5610.4z"/>
		<rect x="-5613.2" y="4270.4" class="st5" width="2.8" height="2.8"/>
		<rect x="-5627" y="4270.4" class="st5" width="2.8" height="2.8"/>
		<rect x="-5629.7" y="4270.4" class="st5" width="2.8" height="2.8"/>
		<rect x="-5621.5" y="4270.4" class="st5" width="2.8" height="2.8"/>
		<rect x="-5635.2" y="4270.4" class="st5" width="2.8" height="2.8"/>
		<rect x="-5613.2" y="4295.2" class="st5" width="2.8" height="2.8"/>
		<rect x="-5613.2" y="4278.7" class="st5" width="2.8" height="2.8"/>
		<rect x="-5613.2" y="4281.4" class="st5" width="2.8" height="2.8"/>
		<rect x="-5613.2" y="4275.9" class="st5" width="2.8" height="2.8"/>
		<rect x="-5613.2" y="4289.7" class="st5" width="2.8" height="2.8"/>
		<rect x="-5613.2" y="4284.2" class="st5" width="2.8" height="2.8"/>
		<rect x="-5613.2" y="4273.1" class="st5" width="2.8" height="2.8"/>
		<rect x="-5610.4" y="4286.9" class="st5" width="2.8" height="2.8"/>
		<rect x="-5610.4" y="4284.2" class="st5" width="2.8" height="2.8"/>
		<rect x="-5610.4" y="4292.4" class="st5" width="2.8" height="2.8"/>
		<rect x="-5610.4" y="4267.6" class="st5" width="2.8" height="2.8"/>
		<rect x="-5613.2" y="4267.6" class="st5" width="2.8" height="2.8"/>
		<rect x="-5610.4" y="4278.7" class="st5" width="2.8" height="2.8"/>
		<rect x="-5610.4" y="4273.1" class="st5" width="2.8" height="2.8"/>
		<rect x="-5615.9" y="4267.6" class="st5" width="2.8" height="2.8"/>
		<rect x="-5635.2" y="4267.6" class="st5" width="2.8" height="2.8"/>
		<rect x="-5621.5" y="4267.6" class="st5" width="2.8" height="2.8"/>
		<rect x="-5627" y="4267.6" class="st5" width="2.8" height="2.8"/>
		<rect x="-5629.7" y="4267.6" class="st5" width="2.8" height="2.8"/>
		<rect x="-5585.6" y="4289.7" class="st5" width="2.8" height="2.8"/>
		<rect x="-5585.6" y="4281.4" class="st5" width="2.8" height="2.8"/>
		<rect x="-5585.6" y="4286.9" class="st5" width="2.8" height="2.8"/>
		<rect x="-5596.7" y="4278.7" class="st5" width="2.8" height="2.8"/>
		<rect x="-5599.4" y="4278.7" class="st5" width="2.8" height="2.8"/>
		<rect x="-5599.4" y="4281.4" class="st5" width="2.8" height="2.8"/>
		<rect x="-5591.2" y="4281.4" class="st5" width="2.8" height="2.8"/>
		<rect x="-5588.4" y="4281.4" class="st5" width="2.8" height="2.8"/>
		<rect x="-5585.6" y="4292.4" class="st5" width="2.8" height="2.8"/>
		<rect x="-5580.1" y="4289.7" class="st5" width="2.8" height="2.8"/>
		<rect x="-5580.1" y="4295.2" class="st5" width="2.8" height="2.8"/>
		<rect x="-5580.1" y="4284.2" class="st5" width="2.8" height="2.8"/>
		<rect x="-5580.1" y="4273.1" class="st5" width="2.8" height="2.8"/>
		<rect x="-5588.4" y="4273.1" class="st5" width="2.8" height="2.8"/>
		<rect x="-5585.6" y="4273.1" class="st5" width="2.8" height="2.8"/>
		<rect x="-5580.1" y="4275.9" class="st5" width="2.8" height="2.8"/>
		<rect x="-5599.4" y="4273.1" class="st5" width="2.8" height="2.8"/>
		<rect x="-5593.9" y="4275.9" class="st5" width="2.8" height="2.8"/>
		<rect x="-5599.4" y="4275.9" class="st5" width="2.8" height="2.8"/>
		<rect x="-5585.6" y="4275.9" class="st5" width="2.8" height="2.8"/>
		<rect x="-5591.2" y="4275.9" class="st5" width="2.8" height="2.8"/>
		<rect x="-5588.4" y="4275.9" class="st5" width="2.8" height="2.8"/>
		<rect x="-5582.9" y="4286.9" class="st5" width="2.8" height="2.8"/>
		<rect x="-5582.9" y="4281.4" class="st5" width="2.8" height="2.8"/>
		<rect x="-5582.9" y="4284.2" class="st5" width="2.8" height="2.8"/>
		<rect x="-5582.9" y="4295.2" class="st5" width="2.8" height="2.8"/>
		<rect x="-5582.9" y="4289.7" class="st5" width="2.8" height="2.8"/>
		<rect x="-5599.4" y="4295.2" class="st5" width="2.8" height="2.8"/>
		<rect x="-5599.4" y="4292.4" class="st5" width="2.8" height="2.8"/>
		<rect x="-5596.7" y="4289.7" class="st5" width="2.8" height="2.8"/>
		<rect x="-5599.4" y="4289.7" class="st5" width="2.8" height="2.8"/>
		<rect x="-5596.7" y="4295.2" class="st5" width="2.8" height="2.8"/>
		<rect x="-5588.4" y="4284.2" class="st5" width="2.8" height="2.8"/>
		<rect x="-5593.9" y="4284.2" class="st5" width="2.8" height="2.8"/>
		<rect x="-5591.2" y="4286.9" class="st5" width="2.8" height="2.8"/>
		<rect x="-5596.7" y="4284.2" class="st5" width="2.8" height="2.8"/>
		<rect x="-5588.4" y="4292.4" class="st5" width="2.8" height="2.8"/>
		<rect x="-5588.4" y="4289.7" class="st5" width="2.8" height="2.8"/>
		<rect x="-5588.4" y="4295.2" class="st5" width="2.8" height="2.8"/>
		<rect x="-5593.9" y="4286.9" class="st5" width="2.8" height="2.8"/>
		<rect x="-5599.4" y="4286.9" class="st5" width="2.8" height="2.8"/>
		<rect x="-5593.9" y="4295.2" class="st5" width="2.8" height="2.8"/>
		<rect x="-5593.9" y="4292.4" class="st5" width="2.8" height="2.8"/>
		<rect x="-5569.1" y="4295.2" class="st5" width="2.8" height="2.8"/>
		<rect x="-5569.1" y="4292.4" class="st5" width="2.8" height="2.8"/>
		<rect x="-5569.1" y="4275.9" class="st5" width="2.8" height="2.8"/>
		<rect x="-5569.1" y="4284.2" class="st5" width="2.8" height="2.8"/>
		<rect x="-5569.1" y="4289.7" class="st5" width="2.8" height="2.8"/>
		<rect x="-5569.1" y="4286.9" class="st5" width="2.8" height="2.8"/>
		<rect x="-5571.9" y="4275.9" class="st5" width="2.8" height="2.8"/>
		<rect x="-5585.6" y="4264.9" class="st5" width="2.8" height="2.8"/>
		<rect x="-5580.1" y="4264.9" class="st5" width="2.8" height="2.8"/>
		<rect x="-5591.2" y="4264.9" class="st5" width="2.8" height="2.8"/>
		<rect x="-5599.4" y="4264.9" class="st5" width="2.8" height="2.8"/>
		<rect x="-5596.7" y="4264.9" class="st5" width="2.8" height="2.8"/>
		<rect x="-5593.9" y="4264.9" class="st5" width="2.8" height="2.8"/>
		<rect x="-5571.9" y="4281.4" class="st5" width="2.8" height="2.8"/>
		<rect x="-5571.9" y="4292.4" class="st5" width="2.8" height="2.8"/>
		<rect x="-5571.9" y="4289.7" class="st5" width="2.8" height="2.8"/>
		<rect x="-5571.9" y="4267.6" class="st5" width="2.8" height="2.8"/>
		<rect x="-5571.9" y="4270.4" class="st5" width="2.8" height="2.8"/>
		<rect x="-5571.9" y="4284.2" class="st5" width="2.8" height="2.8"/>
		<path class="st5" d="M-5566.4,4297.9h2.8c0-0.9,0-1.8,0-2.8h-2.8V4297.9z"/>
		<path class="st5" d="M-5566.4,4289.7h2.8c0-0.9,0-1.8,0-2.8h-2.8V4289.7z"/>
		<path class="st5" d="M-5566.4,4275.9h2.8c0-1,0-1.9,0-2.8h-2.8V4275.9z"/>
		<path class="st5" d="M-5566.4,4273.1h2.8c0-1,0-1.9,0-2.8h-2.8V4273.1z"/>
		<path class="st5" d="M-5566.4,4267.6v2.8h2.8c0-1,0-1.9,0-2.8H-5566.4z"/>
		<path class="st5" d="M-5566.4,4278.7h2.8c0-0.9,0-1.9,0-2.8h-2.8V4278.7z"/>
		<path class="st5" d="M-5596.7,4264.9v-2.8c-0.9,0-1.8,0-2.8,0v2.8H-5596.7z"/>
		<path class="st5" d="M-5566.4,4264.9v-2.8c-0.8,0-1.8,0-2.8,0v2.8H-5566.4z"/>
		<path class="st5" d="M-5569.1,4264.9v-2.8c-0.9,0-1.8,0-2.8,0v2.8H-5569.1z"/>
		<path class="st5" d="M-5571.9,4264.9v-2.8c-0.9,0-1.8,0-2.8,0v2.8H-5571.9z"/>
		<path class="st5" d="M-5566.4,4267.6h2.8c0-1,0-1.9,0-2.8h-2.8V4267.6z"/>
		<path class="st5" d="M-5563.6,4264.9c0-1.1,0-2,0-2.8c-0.7,0-1.7,0-2.8,0v2.8H-5563.6z"/>
		<path class="st5" d="M-5585.6,4264.9v-2.8c-0.9,0-1.8,0-2.8,0v2.8H-5585.6z"/>
		<path class="st5" d="M-5591.2,4264.9v-2.8c-0.9,0-1.8,0-2.8,0v2.8H-5591.2z"/>
		<path class="st5" d="M-5582.9,4264.9v-2.8c-0.9,0-1.8,0-2.8,0v2.8H-5582.9z"/>
		<path class="st5" d="M-5577.4,4264.9v-2.8c-0.9,0-1.8,0-2.8,0v2.8H-5577.4z"/>
		<path class="st5" d="M-5574.6,4264.9v-2.8c-0.9,0-1.8,0-2.8,0v2.8H-5574.6z"/>
		<rect x="-5580.1" y="4270.4" class="st5" width="2.8" height="2.8"/>
		<rect x="-5591.2" y="4270.4" class="st5" width="2.8" height="2.8"/>
		<rect x="-5593.9" y="4270.4" class="st5" width="2.8" height="2.8"/>
		<rect x="-5585.6" y="4270.4" class="st5" width="2.8" height="2.8"/>
		<rect x="-5599.4" y="4270.4" class="st5" width="2.8" height="2.8"/>
		<rect x="-5577.4" y="4281.4" class="st5" width="2.8" height="2.8"/>
		<rect x="-5577.4" y="4275.9" class="st5" width="2.8" height="2.8"/>
		<rect x="-5577.4" y="4289.7" class="st5" width="2.8" height="2.8"/>
		<rect x="-5577.4" y="4284.2" class="st5" width="2.8" height="2.8"/>
		<rect x="-5574.6" y="4281.4" class="st5" width="2.8" height="2.8"/>
		<rect x="-5574.6" y="4286.9" class="st5" width="2.8" height="2.8"/>
		<rect x="-5574.6" y="4284.2" class="st5" width="2.8" height="2.8"/>
		<rect x="-5574.6" y="4292.4" class="st5" width="2.8" height="2.8"/>
		<rect x="-5574.6" y="4295.2" class="st5" width="2.8" height="2.8"/>
		<rect x="-5574.6" y="4267.6" class="st5" width="2.8" height="2.8"/>
		<rect x="-5574.6" y="4275.9" class="st5" width="2.8" height="2.8"/>
		<rect x="-5574.6" y="4270.4" class="st5" width="2.8" height="2.8"/>
		<rect x="-5580.1" y="4267.6" class="st5" width="2.8" height="2.8"/>
		<rect x="-5599.4" y="4267.6" class="st5" width="2.8" height="2.8"/>
		<rect x="-5596.7" y="4267.6" class="st5" width="2.8" height="2.8"/>
		<rect x="-5588.4" y="4267.6" class="st5" width="2.8" height="2.8"/>
		<rect x="-5591.2" y="4267.6" class="st5" width="2.8" height="2.8"/>
		<rect x="-5621.5" y="4325.5" class="st5" width="2.8" height="2.8"/>
		<rect x="-5624.2" y="4314.5" class="st5" width="2.8" height="2.8"/>
		<rect x="-5627" y="4314.5" class="st5" width="2.8" height="2.8"/>
		<rect x="-5621.5" y="4322.7" class="st5" width="2.8" height="2.8"/>
		<rect x="-5621.5" y="4320" class="st5" width="2.8" height="2.8"/>
		<rect x="-5632.5" y="4314.5" class="st5" width="2.8" height="2.8"/>
		<rect x="-5635.2" y="4314.5" class="st5" width="2.8" height="2.8"/>
		<rect x="-5627" y="4317.2" class="st5" width="2.8" height="2.8"/>
		<rect x="-5621.5" y="4331" class="st5" width="2.8" height="2.8"/>
		<rect x="-5624.2" y="4317.2" class="st5" width="2.8" height="2.8"/>
		<rect x="-5621.5" y="4328.2" class="st5" width="2.8" height="2.8"/>
		<rect x="-5615.9" y="4328.2" class="st5" width="2.8" height="2.8"/>
		<rect x="-5615.9" y="4322.7" class="st5" width="2.8" height="2.8"/>
		<rect x="-5615.9" y="4320" class="st5" width="2.8" height="2.8"/>
		<rect x="-5615.9" y="4309" class="st5" width="2.8" height="2.8"/>
		<rect x="-5624.2" y="4309" class="st5" width="2.8" height="2.8"/>
		<rect x="-5621.5" y="4309" class="st5" width="2.8" height="2.8"/>
		<rect x="-5615.9" y="4314.5" class="st5" width="2.8" height="2.8"/>
		<rect x="-5615.9" y="4311.7" class="st5" width="2.8" height="2.8"/>
		<rect x="-5629.7" y="4309" class="st5" width="2.8" height="2.8"/>
		<rect x="-5627" y="4309" class="st5" width="2.8" height="2.8"/>
		<rect x="-5632.5" y="4309" class="st5" width="2.8" height="2.8"/>
		<rect x="-5635.2" y="4309" class="st5" width="2.8" height="2.8"/>
		<rect x="-5629.7" y="4311.7" class="st5" width="2.8" height="2.8"/>
		<rect x="-5632.5" y="4311.7" class="st5" width="2.8" height="2.8"/>
		<rect x="-5621.5" y="4311.7" class="st5" width="2.8" height="2.8"/>
		<rect x="-5618.7" y="4322.7" class="st5" width="2.8" height="2.8"/>
		<rect x="-5618.7" y="4317.2" class="st5" width="2.8" height="2.8"/>
		<rect x="-5618.7" y="4314.5" class="st5" width="2.8" height="2.8"/>
		<rect x="-5618.7" y="4320" class="st5" width="2.8" height="2.8"/>
		<rect x="-5618.7" y="4331" class="st5" width="2.8" height="2.8"/>
		<rect x="-5618.7" y="4328.2" class="st5" width="2.8" height="2.8"/>
		<rect x="-5635.2" y="4331" class="st5" width="2.8" height="2.8"/>
		<rect x="-5635.2" y="4328.2" class="st5" width="2.8" height="2.8"/>
		<rect x="-5632.5" y="4325.5" class="st5" width="2.8" height="2.8"/>
		<rect x="-5632.5" y="4331" class="st5" width="2.8" height="2.8"/>
		<rect x="-5627" y="4331" class="st5" width="2.8" height="2.8"/>
		<rect x="-5635.2" y="4320" class="st5" width="2.8" height="2.8"/>
		<rect x="-5627" y="4325.5" class="st5" width="2.8" height="2.8"/>
		<rect x="-5627" y="4322.7" class="st5" width="2.8" height="2.8"/>
		<rect x="-5624.2" y="4322.7" class="st5" width="2.8" height="2.8"/>
		<rect x="-5624.2" y="4331" class="st5" width="2.8" height="2.8"/>
		<rect x="-5629.7" y="4325.5" class="st5" width="2.8" height="2.8"/>
		<rect x="-5635.2" y="4322.7" class="st5" width="2.8" height="2.8"/>
		<rect x="-5632.5" y="4322.7" class="st5" width="2.8" height="2.8"/>
		<rect x="-5629.7" y="4328.2" class="st5" width="2.8" height="2.8"/>
		<rect x="-5604.9" y="4331" class="st5" width="2.8" height="2.8"/>
		<rect x="-5604.9" y="4317.2" class="st5" width="2.8" height="2.8"/>
		<rect x="-5604.9" y="4314.5" class="st5" width="2.8" height="2.8"/>
		<rect x="-5604.9" y="4311.7" class="st5" width="2.8" height="2.8"/>
		<rect x="-5604.9" y="4320" class="st5" width="2.8" height="2.8"/>
		<rect x="-5604.9" y="4325.5" class="st5" width="2.8" height="2.8"/>
		<rect x="-5607.7" y="4311.7" class="st5" width="2.8" height="2.8"/>
		<rect x="-5618.7" y="4300.7" class="st5" width="2.8" height="2.8"/>
		<rect x="-5621.5" y="4300.7" class="st5" width="2.8" height="2.8"/>
		<rect x="-5624.2" y="4300.7" class="st5" width="2.8" height="2.8"/>
		<rect x="-5607.7" y="4300.7" class="st5" width="2.8" height="2.8"/>
		<rect x="-5627" y="4300.7" class="st5" width="2.8" height="2.8"/>
		<rect x="-5635.2" y="4300.7" class="st5" width="2.8" height="2.8"/>
		<rect x="-5629.7" y="4300.7" class="st5" width="2.8" height="2.8"/>
		<rect x="-5607.7" y="4317.2" class="st5" width="2.8" height="2.8"/>
		<rect x="-5607.7" y="4331" class="st5" width="2.8" height="2.8"/>
		<rect x="-5607.7" y="4328.2" class="st5" width="2.8" height="2.8"/>
		<rect x="-5607.7" y="4325.5" class="st5" width="2.8" height="2.8"/>
		<rect x="-5607.7" y="4303.4" class="st5" width="2.8" height="2.8"/>
		<rect x="-5607.7" y="4309" class="st5" width="2.8" height="2.8"/>
		<rect x="-5604.9" y="4309" class="st5" width="2.8" height="2.8"/>
		<rect x="-5607.7" y="4320" class="st5" width="2.8" height="2.8"/>
		<rect x="-5607.7" y="4322.7" class="st5" width="2.8" height="2.8"/>
		<rect x="-5604.9" y="4306.2" class="st5" width="2.8" height="2.8"/>
		<path class="st5" d="M-5602.2,4331h2.8c0-0.9,0-1.8,0-2.8h-2.8V4331z"/>
		<path class="st5" d="M-5602.2,4328.2h2.8c0-0.9,0-1.8,0-2.8h-2.8V4328.2z"/>
		<path class="st5" d="M-5602.2,4311.7h2.8c0-0.9,0-1.9,0-2.8h-2.8V4311.7z"/>
		<path class="st5" d="M-5602.2,4314.5h2.8c0-0.9,0-1.9,0-2.8h-2.8V4314.5z"/>
		<path class="st5" d="M-5632.5,4300.7v-2.8c-0.9,0-1.8,0-2.8,0v2.8H-5632.5z"/>
		<path class="st5" d="M-5629.7,4300.7v-2.8c-0.9,0-1.8,0-2.8,0v2.8H-5629.7z"/>
		<rect x="-5604.9" y="4303.4" class="st5" width="2.8" height="2.8"/>
		<rect x="-5604.9" y="4300.7" class="st5" width="2.8" height="2.8"/>
		<path class="st5" d="M-5599.4,4300.7c0-1.1,0-2,0-2.8c-0.7,0-1.7,0-2.8,0v2.8H-5599.4z"/>
		<path class="st5" d="M-5627,4300.7v-2.8c-0.9,0-1.8,0-2.8,0v2.8H-5627z"/>
		<path class="st5" d="M-5618.7,4300.7v-2.8c-0.9,0-1.8,0-2.8,0v2.8H-5618.7z"/>
		<path class="st5" d="M-5613.2,4300.7v-2.8c-0.9,0-1.8,0-2.8,0v2.8H-5613.2z"/>
		<rect x="-5615.9" y="4306.2" class="st5" width="2.8" height="2.8"/>
		<rect x="-5627" y="4306.2" class="st5" width="2.8" height="2.8"/>
		<rect x="-5621.5" y="4306.2" class="st5" width="2.8" height="2.8"/>
		<rect x="-5618.7" y="4306.2" class="st5" width="2.8" height="2.8"/>
		<rect x="-5635.2" y="4306.2" class="st5" width="2.8" height="2.8"/>
		<rect x="-5613.2" y="4331" class="st5" width="2.8" height="2.8"/>
		<rect x="-5613.2" y="4317.2" class="st5" width="2.8" height="2.8"/>
		<rect x="-5613.2" y="4311.7" class="st5" width="2.8" height="2.8"/>
		<rect x="-5613.2" y="4325.5" class="st5" width="2.8" height="2.8"/>
		<rect x="-5613.2" y="4320" class="st5" width="2.8" height="2.8"/>
		<rect x="-5613.2" y="4322.7" class="st5" width="2.8" height="2.8"/>
		<rect x="-5610.4" y="4325.5" class="st5" width="2.8" height="2.8"/>
		<rect x="-5610.4" y="4331" class="st5" width="2.8" height="2.8"/>
		<rect x="-5610.4" y="4303.4" class="st5" width="2.8" height="2.8"/>
		<rect x="-5613.2" y="4303.4" class="st5" width="2.8" height="2.8"/>
		<rect x="-5618.7" y="4303.4" class="st5" width="2.8" height="2.8"/>
		<rect x="-5610.4" y="4314.5" class="st5" width="2.8" height="2.8"/>
		<rect x="-5610.4" y="4311.7" class="st5" width="2.8" height="2.8"/>
		<rect x="-5610.4" y="4309" class="st5" width="2.8" height="2.8"/>
		<rect x="-5610.4" y="4306.2" class="st5" width="2.8" height="2.8"/>
		<rect x="-5624.2" y="4303.4" class="st5" width="2.8" height="2.8"/>
		<rect x="-5629.7" y="4303.4" class="st5" width="2.8" height="2.8"/>
		<rect x="-5585.6" y="4325.5" class="st5" width="2.8" height="2.8"/>
		<rect x="-5588.4" y="4314.5" class="st5" width="2.8" height="2.8"/>
		<rect x="-5591.2" y="4314.5" class="st5" width="2.8" height="2.8"/>
		<rect x="-5593.9" y="4314.5" class="st5" width="2.8" height="2.8"/>
		<rect x="-5585.6" y="4322.7" class="st5" width="2.8" height="2.8"/>
		<rect x="-5585.6" y="4320" class="st5" width="2.8" height="2.8"/>
		<rect x="-5585.6" y="4314.5" class="st5" width="2.8" height="2.8"/>
		<rect x="-5596.7" y="4314.5" class="st5" width="2.8" height="2.8"/>
		<rect x="-5599.4" y="4317.2" class="st5" width="2.8" height="2.8"/>
		<rect x="-5593.9" y="4317.2" class="st5" width="2.8" height="2.8"/>
		<rect x="-5585.6" y="4328.2" class="st5" width="2.8" height="2.8"/>
		<rect x="-5580.1" y="4328.2" class="st5" width="2.8" height="2.8"/>
		<rect x="-5580.1" y="4325.5" class="st5" width="2.8" height="2.8"/>
		<rect x="-5580.1" y="4331" class="st5" width="2.8" height="2.8"/>
		<rect x="-5580.1" y="4322.7" class="st5" width="2.8" height="2.8"/>
		<rect x="-5580.1" y="4320" class="st5" width="2.8" height="2.8"/>
		<rect x="-5580.1" y="4309" class="st5" width="2.8" height="2.8"/>
		<rect x="-5588.4" y="4309" class="st5" width="2.8" height="2.8"/>
		<rect x="-5585.6" y="4309" class="st5" width="2.8" height="2.8"/>
		<rect x="-5580.1" y="4317.2" class="st5" width="2.8" height="2.8"/>
		<rect x="-5593.9" y="4309" class="st5" width="2.8" height="2.8"/>
		<rect x="-5599.4" y="4309" class="st5" width="2.8" height="2.8"/>
		<rect x="-5596.7" y="4311.7" class="st5" width="2.8" height="2.8"/>
		<rect x="-5599.4" y="4311.7" class="st5" width="2.8" height="2.8"/>
		<rect x="-5585.6" y="4311.7" class="st5" width="2.8" height="2.8"/>
		<rect x="-5591.2" y="4311.7" class="st5" width="2.8" height="2.8"/>
		<rect x="-5582.9" y="4311.7" class="st5" width="2.8" height="2.8"/>
		<rect x="-5599.4" y="4328.2" class="st5" width="2.8" height="2.8"/>
		<rect x="-5599.4" y="4325.5" class="st5" width="2.8" height="2.8"/>
		<rect x="-5596.7" y="4331" class="st5" width="2.8" height="2.8"/>
		<rect x="-5588.4" y="4320" class="st5" width="2.8" height="2.8"/>
		<rect x="-5599.4" y="4320" class="st5" width="2.8" height="2.8"/>
		<rect x="-5591.2" y="4320" class="st5" width="2.8" height="2.8"/>
		<rect x="-5591.2" y="4328.2" class="st5" width="2.8" height="2.8"/>
		<rect x="-5591.2" y="4325.5" class="st5" width="2.8" height="2.8"/>
		<rect x="-5596.7" y="4320" class="st5" width="2.8" height="2.8"/>
		<rect x="-5588.4" y="4331" class="st5" width="2.8" height="2.8"/>
		<rect x="-5593.9" y="4325.5" class="st5" width="2.8" height="2.8"/>
		<rect x="-5593.9" y="4322.7" class="st5" width="2.8" height="2.8"/>
		<rect x="-5599.4" y="4322.7" class="st5" width="2.8" height="2.8"/>
		<rect x="-5596.7" y="4322.7" class="st5" width="2.8" height="2.8"/>
		<rect x="-5593.9" y="4328.2" class="st5" width="2.8" height="2.8"/>
		<rect x="-5569.1" y="4331" class="st5" width="2.8" height="2.8"/>
		<rect x="-5569.1" y="4317.2" class="st5" width="2.8" height="2.8"/>
		<rect x="-5569.1" y="4311.7" class="st5" width="2.8" height="2.8"/>
		<rect x="-5585.6" y="4300.7" class="st5" width="2.8" height="2.8"/>
		<rect x="-5588.4" y="4300.7" class="st5" width="2.8" height="2.8"/>
		<rect x="-5571.9" y="4300.7" class="st5" width="2.8" height="2.8"/>
		<rect x="-5580.1" y="4300.7" class="st5" width="2.8" height="2.8"/>
		<rect x="-5591.2" y="4300.7" class="st5" width="2.8" height="2.8"/>
		<rect x="-5599.4" y="4300.7" class="st5" width="2.8" height="2.8"/>
		<rect x="-5571.9" y="4317.2" class="st5" width="2.8" height="2.8"/>
		<rect x="-5571.9" y="4331" class="st5" width="2.8" height="2.8"/>
		<rect x="-5571.9" y="4325.5" class="st5" width="2.8" height="2.8"/>
		<rect x="-5571.9" y="4303.4" class="st5" width="2.8" height="2.8"/>
		<rect x="-5571.9" y="4309" class="st5" width="2.8" height="2.8"/>
		<rect x="-5569.1" y="4309" class="st5" width="2.8" height="2.8"/>
		<rect x="-5571.9" y="4322.7" class="st5" width="2.8" height="2.8"/>
		<rect x="-5577.4" y="4300.7" class="st5" width="2.8" height="2.8"/>
		<rect x="-5569.1" y="4306.2" class="st5" width="2.8" height="2.8"/>
		<path class="st5" d="M-5566.4,4333.7h2.8c0-0.9,0-1.8,0-2.8h-2.8V4333.7z"/>
		<path class="st5" d="M-5566.4,4331h2.8c0-0.9,0-1.8,0-2.8h-2.8V4331z"/>
		<path class="st5" d="M-5566.4,4328.2h2.8c0-0.9,0-1.8,0-2.8h-2.8V4328.2z"/>
		<path class="st5" d="M-5566.4,4325.5h2.8c0-0.9,0-1.8,0-2.8h-2.8V4325.5z"/>
		<path class="st5" d="M-5566.4,4322.7h2.8c0-0.9,0-1.9,0-2.8h-2.8V4322.7z"/>
		<path class="st5" d="M-5566.4,4311.7h2.8c0-0.9,0-1.9,0-2.8h-2.8V4311.7z"/>
		<path class="st5" d="M-5566.4,4303.4v2.8h2.8c0-1,0-1.9,0-2.8H-5566.4z"/>
		<path class="st5" d="M-5566.4,4320h2.8c0-0.9,0-1.9,0-2.8h-2.8V4320z"/>
		<path class="st5" d="M-5596.7,4300.7v-2.8c-0.9,0-1.8,0-2.8,0v2.8H-5596.7z"/>
		<path class="st5" d="M-5593.9,4300.7v-2.8c-0.9,0-1.8,0-2.8,0v2.8H-5593.9z"/>
		<path class="st5" d="M-5571.9,4300.7v-2.8c-0.9,0-1.8,0-2.8,0v2.8H-5571.9z"/>
		<path class="st5" d="M-5566.4,4303.4h2.8c0-1,0-1.9,0-2.8h-2.8V4303.4z"/>
		<path class="st5" d="M-5585.6,4300.7v-2.8c-0.9,0-1.8,0-2.8,0v2.8H-5585.6z"/>
		<path class="st5" d="M-5591.2,4300.7v-2.8c-0.9,0-1.8,0-2.8,0v2.8H-5591.2z"/>
		<path class="st5" d="M-5577.4,4300.7v-2.8c-0.9,0-1.8,0-2.8,0v2.8H-5577.4z"/>
		<path class="st5" d="M-5580.1,4300.7v-2.8c-0.9,0-1.8,0-2.8,0v2.8H-5580.1z"/>
		<rect x="-5580.1" y="4306.2" class="st5" width="2.8" height="2.8"/>
		<rect x="-5591.2" y="4306.2" class="st5" width="2.8" height="2.8"/>
		<rect x="-5588.4" y="4306.2" class="st5" width="2.8" height="2.8"/>
		<rect x="-5596.7" y="4306.2" class="st5" width="2.8" height="2.8"/>
		<rect x="-5582.9" y="4306.2" class="st5" width="2.8" height="2.8"/>
		<rect x="-5599.4" y="4306.2" class="st5" width="2.8" height="2.8"/>
		<rect x="-5577.4" y="4331" class="st5" width="2.8" height="2.8"/>
		<rect x="-5577.4" y="4317.2" class="st5" width="2.8" height="2.8"/>
		<rect x="-5577.4" y="4311.7" class="st5" width="2.8" height="2.8"/>
		<rect x="-5574.6" y="4317.2" class="st5" width="2.8" height="2.8"/>
		<rect x="-5574.6" y="4322.7" class="st5" width="2.8" height="2.8"/>
		<rect x="-5574.6" y="4325.5" class="st5" width="2.8" height="2.8"/>
		<rect x="-5574.6" y="4331" class="st5" width="2.8" height="2.8"/>
		<rect x="-5577.4" y="4303.4" class="st5" width="2.8" height="2.8"/>
		<rect x="-5574.6" y="4311.7" class="st5" width="2.8" height="2.8"/>
		<rect x="-5585.6" y="4303.4" class="st5" width="2.8" height="2.8"/>
		<rect x="-5591.2" y="4303.4" class="st5" width="2.8" height="2.8"/>
		<rect x="-5593.9" y="4303.4" class="st5" width="2.8" height="2.8"/>
	</g>
</g>
</svg>
