<svg id="图层_1" xmlns="http://www.w3.org/2000/svg" xmlns:xlink="http://www.w3.org/1999/xlink" viewBox="-5605 4187.9 128 128"><style>.st0{fill:#f5d01f}.st1{fill:none;enable-background:new}.st2{clip-path:url(#SVGID_2_)}.st3{fill:#5a4337}.st4{fill:#ba6436}</style><path class="st0" d="M-5541 4189.4c34.6 0 62.7 28.1 62.7 62.7s-28.1 62.7-62.7 62.7-62.7-28.1-62.7-62.7c-.1-34.6 28-62.7 62.7-62.7z"/><defs><path id="SVGID_1_" d="M-5541 4189.4c34.6 0 62.7 28.1 62.7 62.7s-28.1 62.7-62.7 62.7-62.7-28.1-62.7-62.7c-.1-34.6 28-62.7 62.7-62.7z"/></defs><clipPath id="SVGID_2_"><use xlink:href="#SVGID_1_" overflow="visible"/></clipPath><path class="st2 st3" d="M-5565.1 4236.2c-.1 5.6 0 13 4.2 22 7.5 16 19.2 14.5 19.2 14.5 4.7 0 12.1-5.7 16.6-14.5s3.9-16.1 3.7-21.7c-.8-27.1-43.1-27.2-43.7-.3zm22.8 41.2l-9.8 9 9.8 21.9 9.8-22zm-19.1.9s-2.2 1.9-6.5 2.7c0 0-9.7 1.3-13.3 3.8-3.2 2.3-6.1 5.5-6.1 11.6 0 6.6-.4 20-.4 20h42.7l-16.4-38.1zm63.9 18.2c0-6.2-2.9-9.4-6.1-11.6-3.6-2.5-13.3-3.8-13.3-3.8-4.2-.8-6.5-2.7-6.5-2.7l-16.4 38.2h42.7c0-.1-.4-13.6-.4-20.1zm-13.7 2.4h-10.8v-3.1h10.8v3.1z"/><path class="st4" d="M-5542.3 4277.4l-9.8 9 9.8 21.9 9.8-22-9.8-8.9z"/></svg>