<?xml version="1.0" encoding="utf-8"?>
<!-- Generator: Adobe Illustrator 19.0.0, SVG Export Plug-In . SVG Version: 6.00 Build 0)  -->
<svg version="1.1" id="图层_1" xmlns="http://www.w3.org/2000/svg" xmlns:xlink="http://www.w3.org/1999/xlink" x="0px" y="0px"
	 viewBox="-5605 4187.9 128 128" style="enable-background:new -5605 4187.9 128 128;" xml:space="preserve">
<style type="text/css">
	.st0{fill:#F5D01F;}
	.st1{fill:none;enable-background:new    ;}
	.st2{clip-path:url(#SVGID_2_);}
	.st3{fill:#5A4337;}
	.st4{fill:#BA6436;}
</style>
<path class="st0" d="M-5541,4189.4c34.6,0,62.7,28.1,62.7,62.7c0,34.6-28.1,62.7-62.7,62.7c-34.6,0-62.7-28.1-62.7-62.7
	C-5603.8,4217.5-5575.7,4189.4-5541,4189.4z"/>
<path class="st1" d="z"/>
<g>
	<defs>
		<path id="SVGID_1_" d="M-5541,4189.4c34.6,0,62.7,28.1,62.7,62.7c0,34.6-28.1,62.7-62.7,62.7c-34.6,0-62.7-28.1-62.7-62.7
			C-5603.8,4217.5-5575.7,4189.4-5541,4189.4z"/>
	</defs>
	<clipPath id="SVGID_2_">
		<use xlink:href="#SVGID_1_"  style="overflow:visible;"/>
	</clipPath>
	<g class="st2">
		<path class="st3" d="M-5565.1,4236.2c-0.1,5.6,0,13,4.2,22c7.5,16,19.2,14.5,19.2,14.5c4.7,0,12.1-5.7,16.6-14.5
			s3.9-16.1,3.7-21.7C-5522.2,4209.4-5564.5,4209.3-5565.1,4236.2z"/>
		<polygon class="st3" points="-5542.3,4277.4 -5552.1,4286.4 -5542.3,4308.3 -5532.5,4286.3 		"/>
		<path class="st3" d="M-5561.4,4278.3c0,0-2.2,1.9-6.5,2.7c0,0-9.7,1.3-13.3,3.8c-3.2,2.3-6.1,5.5-6.1,11.6c0,6.6-0.4,20-0.4,20
			h42.7L-5561.4,4278.3z"/>
		<path class="st3" d="M-5497.5,4296.5c0-6.2-2.9-9.4-6.1-11.6c-3.6-2.5-13.3-3.8-13.3-3.8c-4.2-0.8-6.5-2.7-6.5-2.7l-16.4,38.2
			h42.7C-5497.1,4316.5-5497.5,4303-5497.5,4296.5z M-5511.2,4298.9h-10.8v-3.1h10.8V4298.9z"/>
	</g>
</g>
<path class="st4" d="M-5542.3,4277.4l-9.8,9l9.8,21.9l9.8-22L-5542.3,4277.4z"/>
</svg>
