<svg id="图层_1" xmlns="http://www.w3.org/2000/svg" viewBox="0 0 100 100"><style>.st0{fill:#fff}</style><g id="XMLID_30_"><path id="XMLID_37_" class="st0" d="M22.8 33.3c0 3.1 2.3 5.7 5.1 5.7h.1c-.2.9-.3 2-.2 3.4.3 4.2 2.4 6.1 4.7 6.6 3.2 7.9 9.6 14.5 17.2 14.5s14-6.5 17.2-14.4c2.4-.4 4.7-2.2 5-6.6.1-1.4 0-2.5-.2-3.4h.1c2.8 0 5.1-2.5 5.1-5.7 0-2.3-1.2-4.2-3-5.1 1.2-.6 2-1.9 2-3.4s-.8-2.8-2-3.4c.6-1 1-2.2 1-3.6 0-3.5-2.6-6.4-5.8-6.4h-.2c-.7-3.4-3.5-5.9-6.8-5.9-1.9 0-3.6.9-4.9 2.2-.7-3.4-3.5-5.8-6.8-5.8h-.8c-3.4 0-6.2 2.5-7.1 5.8-1.3-1.4-3-2.2-4.9-2.2-3.3 0-6.1 2.5-6.8 5.9h-.2c-3.2 0-5.8 2.8-5.8 6.4 0 1.3.4 2.5 1 3.6-1.2.6-2 1.9-2 3.4s.8 2.8 2 3.4c-1.8.8-3 2.8-3 5zm19.5-12.8c1.2 1.3 4.1 2.3 7.5 2.3 3.5 0 6.4-1 7.6-2.3 5 1.5 8.2 5.8 8.2 17.6 0 9.8-7.1 21.7-15.8 21.7S34 47.9 34 38c0-11.6 3.4-15.9 8.3-17.5z"/><path id="XMLID_31_" class="st0" d="M67 62.8l-4.6-1.2-.1.1c-3.7 3.3-8.1 5.1-12.4 5.1-4.4 0-8.7-1.8-12.4-5.1L33 62.8C24.2 65 18.1 72.9 18.1 81.9v11.9c0 2.3 1.9 4.2 4.2 4.2h55.2c2.3 0 4.3-1.9 4.3-4.2V81.9c.1-9-6.1-16.9-14.8-19.1zM51.8 75.4c0 1-.8 1.8-1.8 1.8s-1.8-.8-1.8-1.8.8-1.8 1.8-1.8 1.8.8 1.8 1.8zm0 8.7c0 1-.8 1.8-1.8 1.8s-1.8-.8-1.8-1.8.8-1.8 1.8-1.8 1.8.9 1.8 1.8zm-29.5 9.7V81.9c0-7 4.7-13 11.3-14.9v26.8H22.3zm55.3.1H65.5V66.8l.4.1c6.9 1.7 11.8 7.9 11.8 15.1v11.9c0-.1 0 0-.1 0z"/></g></svg>