<?xml version="1.0" encoding="utf-8"?>
<!-- Generator: Adobe Illustrator 19.0.0, SVG Export Plug-In . SVG Version: 6.00 Build 0)  -->
<svg version="1.1" id="图层_1" xmlns="http://www.w3.org/2000/svg" xmlns:xlink="http://www.w3.org/1999/xlink" x="0px" y="0px"
	 viewBox="0 0 100 100" style="enable-background:new 0 0 100 100;" xml:space="preserve">
<style type="text/css">
	.st0{fill:#FFFFFF;}
</style>
<g id="XMLID_30_">
	<path id="XMLID_37_" class="st0" d="M22.8,33.3c0,3.1,2.3,5.7,5.1,5.7c0,0,0.1,0,0.1,0c-0.2,0.9-0.3,2-0.2,3.4
		c0.3,4.2,2.4,6.1,4.7,6.6c3.2,7.9,9.6,14.5,17.2,14.5c7.6,0,14-6.5,17.2-14.4c2.4-0.4,4.7-2.2,5-6.6c0.1-1.4,0-2.5-0.2-3.4
		c0,0,0.1,0,0.1,0c2.8,0,5.1-2.5,5.1-5.7c0-2.3-1.2-4.2-3-5.1c1.2-0.6,2-1.9,2-3.4c0-1.5-0.8-2.8-2-3.4c0.6-1,1-2.2,1-3.6
		c0-3.5-2.6-6.4-5.8-6.4c-0.1,0-0.1,0-0.2,0c-0.7-3.4-3.5-5.9-6.8-5.9c-1.9,0-3.6,0.9-4.9,2.2C56.5,4.4,53.7,2,50.4,2
		c-0.1,0-0.6,0-0.8,0c-3.4,0-6.2,2.5-7.1,5.8c-1.3-1.4-3-2.2-4.9-2.2c-3.3,0-6.1,2.5-6.8,5.9c-0.1,0-0.1,0-0.2,0
		c-3.2,0-5.8,2.8-5.8,6.4c0,1.3,0.4,2.5,1,3.6c-1.2,0.6-2,1.9-2,3.4c0,1.5,0.8,2.8,2,3.4C24,29.1,22.8,31.1,22.8,33.3z M42.3,20.5
		c1.2,1.3,4.1,2.3,7.5,2.3c3.5,0,6.4-1,7.6-2.3c5,1.5,8.2,5.8,8.2,17.6c0,9.8-7.1,21.7-15.8,21.7S34,47.9,34,38
		C34,26.4,37.4,22.1,42.3,20.5z"/>
	<path id="XMLID_31_" class="st0" d="M67,62.8l-4.6-1.2c0,0,0,0-0.1,0.1c-3.7,3.3-8.1,5.1-12.4,5.1c-4.4,0-8.7-1.8-12.4-5.1L33,62.8
		C24.2,65,18.1,72.9,18.1,81.9v11.9c0,2.3,1.9,4.2,4.2,4.2h11.2h32h12c2.3,0,4.3-1.9,4.3-4.2V81.9C81.9,72.9,75.7,65,67,62.8z
		 M51.8,75.4c0,1-0.8,1.8-1.8,1.8c-1,0-1.8-0.8-1.8-1.8c0-1,0.8-1.8,1.8-1.8C51,73.6,51.8,74.4,51.8,75.4z M51.8,84.1
		c0,1-0.8,1.8-1.8,1.8c-1,0-1.8-0.8-1.8-1.8c0-1,0.8-1.8,1.8-1.8C51,82.3,51.8,83.2,51.8,84.1z M22.3,93.8V81.9
		c0-7,4.7-13,11.3-14.9v26.8L22.3,93.8z M77.6,93.9l-12.1,0V66.8l0.4,0.1c6.9,1.7,11.8,7.9,11.8,15.1v11.9
		C77.7,93.8,77.7,93.9,77.6,93.9z"/>
</g>
</svg>
