<svg id="图层_1" xmlns="http://www.w3.org/2000/svg" xmlns:xlink="http://www.w3.org/1999/xlink" viewBox="-5605 4187.9 128 128"><style>.st0{fill:#f5d01f}.st1{clip-path:url(#SVGID_2_)}.st2{fill:#5a4337}.st3{fill:#ba6436}.st4{fill:#cc7a4e;stroke:#b75f30;stroke-linejoin:round}.st5{font-family:&amp;apos;PingFangSC-Semibold-GBpc-EUC-H&amp;apos;}.st6{font-size:9.9923px}</style><path class="st0" d="M-5541.1 4189c34.6 0 62.7 28.1 62.7 62.7s-28.1 62.7-62.7 62.7-62.7-28.1-62.7-62.7 28-62.7 62.7-62.7z"/><defs><path id="SVGID_1_" d="M-5541.1 4189c34.6 0 62.7 28.1 62.7 62.7s-28.1 62.7-62.7 62.7-62.7-28.1-62.7-62.7 28-62.7 62.7-62.7z"/></defs><clipPath id="SVGID_2_"><use xlink:href="#SVGID_1_" overflow="visible"/></clipPath><g class="st1"><path class="st2" d="M-5514.1 4245.7c-1.1.1-2.2-.6-2.3-1.8l-.1-.7c-1.3-9.7-10.2-16.6-19.9-15.3l-.7.1c-1.1.1-2.1-.6-2.3-1.8-.1-1.1.6-2.1 1.8-2.3l.7-.1.7-.1h.5c11.1-.9 21.1 6.8 23.1 17.8.1.1.1.3.1.4l.1.7.1.7c.1 1.3-.7 2.3-1.8 2.4zm-41.6 2.7zm19-17.6l1.4-.2h.5c7.4-.4 14 4.7 15.5 11.9.1.1.1.3.1.4l.2 1.4c.1 1.1-.6 2.1-1.8 2.3-1.1.1-2.1-.6-2.3-1.8l-.1-.7c-.8-6-6.3-10.2-12.2-9.4l-.7.1c-1.1.1-2.1-.6-2.3-1.8-.2-1.1.6-2.1 1.7-2.2zm.9 6.7l1.4-.2h.7c3.5.1 6.5 2.5 7.5 5.8.1.2.2.4.2.7l.2 1.4c.1 1.1-.6 2.1-1.8 2.3-1.1.1-2.1-.6-2.3-1.8l-.1-.7c-.3-2.2-2.3-3.8-4.6-3.5l-.7.1c-1.1.1-2.1-.6-2.3-1.8-.1-1.1.7-2.1 1.8-2.3z"/><path class="st3" d="M-5605.4 4269.8l30.5-24.8 43.7 33.4-44.2 38.9c-.1 0-30-13.3-30-47.5z"/><circle class="st4" cx="-5579.6" cy="4283.7" r="17.9"/><path class="st2" d="M-5512.7 4274.9l-58.7 49.2-5.3-6 45.1-39.5-44.4-31.5-37.1 29.8-4.5-5.1s33.5-28.8 45.9-39.4c2.4-1.7 4.7-3.9 9.2-.5 11.2 7.8 42.8 29.7 47 32.8 7.6 5.5 2.8 10.2 2.8 10.2z"/><path class="st3" d="M-5554.2 4248.9l14.8 9.8c.8.6 1.1 1.7.5 2.5-.6.8-1.7 1.1-2.5.5l-14.8-9.8c-.8-.6-1.1-1.7-.5-2.5.6-.8 1.7-1 2.5-.5z"/><text transform="rotate(41.591 -8429.034 -5218.98)" class="st3 st5 st6">开锁</text></g></svg>