<?xml version="1.0" encoding="utf-8"?>
<!-- Generator: Adobe Illustrator 19.0.0, SVG Export Plug-In . SVG Version: 6.00 Build 0)  -->
<svg version="1.1" id="图层_1" xmlns="http://www.w3.org/2000/svg" xmlns:xlink="http://www.w3.org/1999/xlink" x="0px" y="0px"
	 viewBox="-5605 4187.9 128 128" style="enable-background:new -5605 4187.9 128 128;" xml:space="preserve">
<style type="text/css">
	.st0{fill:#F5D01F;}
	.st1{clip-path:url(#SVGID_2_);}
	.st2{fill:#5A4337;}
	.st3{fill:#BA6436;}
	.st4{fill:#CC7A4E;stroke:#B75F30;stroke-linejoin:round;}
	.st5{font-family:'PingFangSC-Semibold-GBpc-EUC-H';}
	.st6{font-size:9.9923px;}
</style>
<path class="st0" d="M-5541.1,4189c34.6,0,62.7,28.1,62.7,62.7c0,34.6-28.1,62.7-62.7,62.7c-34.6,0-62.7-28.1-62.7-62.7
	C-5603.8,4217.1-5575.8,4189-5541.1,4189z"/>
<g>
	<defs>
		<path id="SVGID_1_" d="M-5541.1,4189c34.6,0,62.7,28.1,62.7,62.7c0,34.6-28.1,62.7-62.7,62.7c-34.6,0-62.7-28.1-62.7-62.7
			C-5603.8,4217.1-5575.8,4189-5541.1,4189z"/>
	</defs>
	<clipPath id="SVGID_2_">
		<use xlink:href="#SVGID_1_"  style="overflow:visible;"/>
	</clipPath>
	<g class="st1">
		<path class="st2" d="M-5514.1,4245.7c-1.1,0.1-2.2-0.6-2.3-1.8l-0.1-0.7l0,0c-1.3-9.7-10.2-16.6-19.9-15.3l-0.7,0.1
			c-1.1,0.1-2.1-0.6-2.3-1.8c-0.1-1.1,0.6-2.1,1.8-2.3l0.7-0.1l0,0c0,0,0,0,0,0l0.7-0.1c0.2,0,0.3,0,0.5,0
			c11.1-0.9,21.1,6.8,23.1,17.8c0.1,0.1,0.1,0.3,0.1,0.4l0.1,0.7l0,0l0,0l0.1,0.7C-5512.2,4244.6-5513,4245.6-5514.1,4245.7z
			 M-5555.7,4248.4L-5555.7,4248.4L-5555.7,4248.4L-5555.7,4248.4z M-5536.7,4230.8l1.4-0.2c0.2,0,0.3,0,0.5,0
			c7.4-0.4,14,4.7,15.5,11.9c0.1,0.1,0.1,0.3,0.1,0.4l0.2,1.4c0.1,1.1-0.6,2.1-1.8,2.3c-1.1,0.1-2.1-0.6-2.3-1.8l-0.1-0.7l0,0l0,0
			c-0.8-6-6.3-10.2-12.2-9.4l-0.7,0.1c-1.1,0.1-2.1-0.6-2.3-1.8C-5538.6,4231.9-5537.8,4230.9-5536.7,4230.8z M-5535.8,4237.5
			l1.4-0.2c0.2,0,0.5,0,0.7,0c3.5,0.1,6.5,2.5,7.5,5.8c0.1,0.2,0.2,0.4,0.2,0.7l0.2,1.4c0.1,1.1-0.6,2.1-1.8,2.3
			c-1.1,0.1-2.1-0.6-2.3-1.8l-0.1-0.7c-0.3-2.2-2.3-3.8-4.6-3.5l0,0l-0.7,0.1c-1.1,0.1-2.1-0.6-2.3-1.8
			C-5537.7,4238.7-5536.9,4237.7-5535.8,4237.5z"/>
		<path class="st3" d="M-5605.4,4269.8l30.5-24.8l43.7,33.4l-44.2,38.9C-5575.5,4317.3-5605.4,4304-5605.4,4269.8z"/>
		<circle class="st4" cx="-5579.6" cy="4283.7" r="17.9"/>
		<path class="st2" d="M-5512.7,4274.9l-58.7,49.2l-5.3-6l45.1-39.5l-44.4-31.5l-37.1,29.8l-4.5-5.1c0,0,33.5-28.8,45.9-39.4
			c2.4-1.7,4.7-3.9,9.2-0.5c11.2,7.8,42.8,29.7,47,32.8C-5507.9,4270.2-5512.7,4274.9-5512.7,4274.9z"/>
		<path class="st3" d="M-5554.2,4248.9l14.8,9.8c0.8,0.6,1.1,1.7,0.5,2.5c-0.6,0.8-1.7,1.1-2.5,0.5l-14.8-9.8
			c-0.8-0.6-1.1-1.7-0.5-2.5C-5556.1,4248.6-5555,4248.4-5554.2,4248.9z"/>
		<text transform="matrix(0.7479 0.6638 -0.6638 0.7479 -5589.3188 4279.4878)" class="st3 st5 st6">开锁</text>
	</g>
</g>
</svg>
