<?xml version="1.0" encoding="utf-8"?>
<!-- Generator: Adobe Illustrator 19.0.0, SVG Export Plug-In . SVG Version: 6.00 Build 0)  -->
<svg version="1.1" id="图层_1" xmlns="http://www.w3.org/2000/svg" xmlns:xlink="http://www.w3.org/1999/xlink" x="0px" y="0px"
	 viewBox="0 0 100 100" style="enable-background:new 0 0 100 100;" xml:space="preserve">
<style type="text/css">
	.st0{fill:#FFFFFF;}
</style>
<g id="XMLID_61_">
	<path id="XMLID_67_" class="st0" d="M67.8,56.3l-1.5-0.4L53,77.5c-0.7,1.1-1.8,1.8-3,1.8c-1.2,0-2.3-0.7-3-1.8L33.8,55.9l-1.5,0.4
		C22.7,58.7,16.1,67.2,16.1,77v12.9c0,2.5,2.1,4.6,4.6,4.6h58.6c2.5,0,4.6-2,4.6-4.6V77C84,67.2,77.3,58.7,67.8,56.3z M73,84.4
		c0,1.1-0.8,2-1.9,2h-8c-1.1,0-2-0.9-2-2v0c0-1.1,0.9-1.9,2-1.9h8C72.1,82.4,73,83.3,73,84.4L73,84.4z"/>
	<path id="XMLID_63_" class="st0" d="M31.2,41.3C34.7,49.9,41.6,57,49.8,57c0,0,0.3,0,0.3,0c8.2,0,15.2-7.1,18.7-15.7
		c2.4-0.6,4.7-2.6,5-7.1c0.3-4.2-0.9-6.1-2.6-6.9C70.5,8.3,60.7,5.6,50.1,5.6c0,0-0.1,0-0.1,0c0,0-0.1,0-0.1,0
		c-10.6,0-20.4,2.7-21.1,21.7c-1.7,0.8-3,2.7-2.6,6.9C26.5,38.7,28.7,40.8,31.2,41.3z M50,53C50,53,50,53,50,53C50,53,50,53,50,53
		c-2.8,0-5.1-2.2-5.1-4.8c0-2.6,2.3-4.8,5.1-4.8s5.1,2.2,5.1,4.8C55.1,50.8,52.8,53,50,53z M50,13.8L50,13.8L50,13.8
		c16.2-4.1,17.2,11.4,17.1,17.5C67,37.9,63.6,44.8,59,49c0-0.3,0-0.5,0-0.8c0-4.8-4.1-8.7-9.1-8.7c-5,0-9.1,4-9.1,8.7
		c0,0.3,0,0.5,0,0.8c-4.5-4.3-8-11.2-8.1-17.7C32.8,25.2,33.8,9.7,50,13.8z"/>
	<path id="XMLID_62_" class="st0" d="M56.5,59.4l-4,1.2c-0.1,0-0.1,0-0.2,0c-0.6-0.6-1.5-0.9-2.4-0.9c-0.9,0-1.7,0.4-2.4,0.9
		c-0.1,0-0.1,0-0.2,0l-4-1.2c-1.2-0.3-2.3,0.6-2.3,1.8v4.5c0,1.2,1.1,2.1,2.3,1.8l4.1-1.2c0.6,0.6,1.5,0.9,2.4,1
		c0.9,0,1.8-0.4,2.4-1l4.1,1.2c1.2,0.3,2.3-0.5,2.3-1.8v-4.5C58.9,60,57.7,59.1,56.5,59.4z"/>
</g>
</svg>
