<svg id="图层_1" xmlns="http://www.w3.org/2000/svg" viewBox="0 0 100 100"><style>.st0{fill:#fff}</style><g id="XMLID_61_"><path id="XMLID_67_" class="st0" d="M67.8 56.3l-1.5-.4L53 77.5c-.7 1.1-1.8 1.8-3 1.8s-2.3-.7-3-1.8L33.8 55.9l-1.5.4C22.7 58.7 16.1 67.2 16.1 77v12.9c0 2.5 2.1 4.6 4.6 4.6h58.6c2.5 0 4.6-2 4.6-4.6V77c.1-9.8-6.6-18.3-16.1-20.7zM73 84.4c0 1.1-.8 2-1.9 2h-8c-1.1 0-2-.9-2-2s.9-1.9 2-1.9h8c1-.1 1.9.8 1.9 1.9z"/><path id="XMLID_63_" class="st0" d="M31.2 41.3C34.7 49.9 41.6 57 49.8 57h.3c8.2 0 15.2-7.1 18.7-15.7 2.4-.6 4.7-2.6 5-7.1.3-4.2-.9-6.1-2.6-6.9-.7-19-10.5-21.7-21.1-21.7h-.2c-10.6 0-20.4 2.7-21.1 21.7-1.7.8-3 2.7-2.6 6.9.3 4.5 2.5 6.6 5 7.1zM50 53c-2.8 0-5.1-2.2-5.1-4.8 0-2.6 2.3-4.8 5.1-4.8s5.1 2.2 5.1 4.8c0 2.6-2.3 4.8-5.1 4.8zm0-39.2c16.2-4.1 17.2 11.4 17.1 17.5C67 37.9 63.6 44.8 59 49v-.8c0-4.8-4.1-8.7-9.1-8.7s-9.1 4-9.1 8.7v.8c-4.5-4.3-8-11.2-8.1-17.7.1-6.1 1.1-21.6 17.3-17.5z"/><path id="XMLID_62_" class="st0" d="M56.5 59.4l-4 1.2h-.2c-.6-.6-1.5-.9-2.4-.9-.9 0-1.7.4-2.4.9h-.2l-4-1.2c-1.2-.3-2.3.6-2.3 1.8v4.5c0 1.2 1.1 2.1 2.3 1.8l4.1-1.2c.6.6 1.5.9 2.4 1 .9 0 1.8-.4 2.4-1l4.1 1.2c1.2.3 2.3-.5 2.3-1.8v-4.5c.3-1.2-.9-2.1-2.1-1.8z"/></g></svg>