<svg id="图层_1" xmlns="http://www.w3.org/2000/svg" viewBox="0 0 130 40"><style>.st0,.st1{fill:#191919}.st1{fill-rule:evenodd;clip-rule:evenodd}</style><g id="XMLID_1336_"><g id="XMLID_1337_"><g id="XMLID_1338_"><g id="XMLID_1354_"><g id="XMLID_1355_"><path id="XMLID_1356_" class="st0" d="M44.5 3.3h5.6c-.7 11.4-3 18.5-5.6 25.1h2.4c2-5 3.6-10.3 4.6-16.9h14.2c1.1 0 1.9.8 1.9 1.9v11c0 1-.8 1.9-1.9 1.9h-7.5l-1.3 2.1h8.8c2.3 0 4.1-1.9 4.1-4.1v-11c0-2.3-1.9-4.1-4.1-4.1H51.8c.2-2 .4-3.7.6-6h17.4V1H44.5v2.3z"/></g></g><g id="XMLID_1351_"><g id="XMLID_1352_"><path id="XMLID_1353_" class="st0" d="M79.3-.1h-2.1v6.3h-2.7.1l1.9-3.8h-2.2l-3.3 6h6.2v8.1L71 19v2.3l6.2-2.5v9.5h2.1V17.9l2.2-.9v-2.4l-2.2.9V8.4h2.2V6.2h-2.2z"/></g></g><g id="XMLID_1348_"><g id="XMLID_1349_"><path id="XMLID_1350_" class="st0" d="M95.5 3.7h-9.3l2.2-3.8h-2.5l-3.1 6h4.1c-1.1 9.3-3 16.7-4.9 22.6h2.2c2-6.1 3.8-13.1 4.8-22.6h3.4c-.8 9.3-2.5 16.6-4.2 22.6h2.3c1.8-6.1 3.4-13 4.1-22.6h.8c1 0 1.8.8 1.8 1.8v17c0 1-.8 1.8-1.8 1.8h-1.7l-1.3 2.2h3c2.2 0 4-1.8 4-4v-17c.1-2.1-1.7-4-3.9-4z"/></g></g><g id="XMLID_1344_"><g id="XMLID_1345_"><path id="XMLID_1346_" class="st0" d="M110 2.5h10.2c1.4 0 2.3.9 3.1 2.1l4.2 6.6 1.8-1.1-4.2-6.6c-1.2-1.9-2.3-3.1-4.8-3.1H110c-2.5 0-3.6 1.2-4.8 3.1L101 10l1.8 1.1 4.2-6.6c.8-1.1 1.6-2 3-2z"/></g></g><g id="XMLID_1339_"><g id="XMLID_1340_"><path id="XMLID_1342_" class="st0" d="M106.1 25.2V14.6c0-1 .8-1.8 1.8-1.8h15.2c.4 0 .7.3.7.7v4.9c0 .4-.3.7-.7.7h-9.7v2.1h9.7c1.5 0 2.8-1.3 2.8-2.8v-4.9c0-1.5-1.3-2.8-2.8-2.8h-15.2c-2.2 0-4 1.8-4 4v10.6c0 2.2 1.8 3.2 4 3.2h18.6l1.2-2.1h-19.8c-1-.2-1.8-.3-1.8-1.2z"/></g></g></g></g></g><g id="XMLID_1288_"><g id="XMLID_1292_"><g id="XMLID_1293_"><path id="XMLID_1319_" class="st1" d="M43.6 26.3c-1.2 1.1-2.5 1.2-3.9.7-.6-.2-1.1.1-1.5.5-.1.1-.2.3-.4.5 0-1.5-.1-1.7-1.4-2.1-1.1-.4-2.1-.8-2.6-2-.5 1.4-.2 3.3 1 4.2 1.6 1.2 1.9 2.9.7 4.5-.8 1-1.9 1.7-3.2 1.6-1.4-.2-2.1-1.2-2.5-2.4-.3-.8-.4-1.7-.4-2.6V6.7c0-3-2.2-5.3-5.3-5.3H5.7C2.5 1.4.3 3.6.3 6.8V34c0 2.9 2.4 5.3 5.3 5.3h20.9c1.5 0 3-.2 4.5-.5 3.1-.8 5.3-2.6 6.2-5.7l.6-1.8c.3-1 1-1.5 2-1.5h.7c1.6-.1 3.3-1.9 3.1-3.5zm-19.5 10H5.5c-1.5 0-2.4-1.1-2.4-2.9v-4.7V7.1v-.3c0-1.7.7-2.5 2.4-2.7h17.8c.2 0 .5 0 .7.1-1.9.2-3.9.5-5.8.7-2.6.3-5.2.6-7.9.9-1 .2-2.1.3-3.2.5-1 .1-1.4.6-1.4 1.6v24.5c0 1.3.6 2 1.8 2.1 2.7.3 5.4.6 8 .9 2.7.3 5.3.6 8 .9.2-.1.4-.1.6 0zM11.8 13.4c0 1.1-.9 2-2 2s-2-.9-2-2 .9-2 2-2 2 .9 2 2z"/></g></g><g id="XMLID_1289_"><g id="XMLID_1290_"><path id="XMLID_1291_" class="st1" d="M24.1 36.3c.2-.1.3-.1.6-.1-.3.2-.5.2-.6.1z"/></g></g></g><path id="XMLID_896_" class="st0" d="M47.4 32.5c0 .6 0 1.2-.1 1.8h3.6v.2c-.2 2.7-.3 3.6-.6 3.9-.1.2-.3.2-.6.2h-1.4c0-.1-.1-.3-.1-.4.6.1 1.2.1 1.4.1.2 0 .3 0 .4-.1.3-.2.4-1.2.5-3.5h-3.2c-.2 1.6-.8 3.2-2.4 4.1l-.3-.3c2.3-1.2 2.5-3.9 2.5-6h-2.3v-.4h6.9v.4h-4.3z"/><path id="XMLID_894_" class="st0" d="M62.8 35.4c-.4.1-.7.2-1.1.4v3h-.4V36l-1.4.4-.1-.4c.4-.1.9-.3 1.5-.5v-2h-.8c-.1.5-.2.9-.4 1.3-.1 0-.2-.1-.3-.2.3-.7.5-1.7.6-2.7l.4.1c0 .4-.1.8-.2 1.2h.8v-1.7h.4v1.7h.9v.4h-.9v1.8l1-.3v.3z"/><path id="XMLID_893_" class="st0" d="M67 32.9v.2c-.2 3.7-.4 4.9-.7 5.3-.2.2-.3.2-.5.2h-.9c0-.1 0-.3-.1-.4h.9c.1 0 .2 0 .3-.1.3-.3.5-1.5.7-4.9H66c-.4 2.2-1.3 4.3-2.7 5.4-.1-.1-.2-.2-.3-.2 1.3-1 2.2-3 2.7-5.1h-.8c-.4 1.4-1.2 2.9-2.1 3.7-.1-.1-.2-.2-.3-.2.9-.7 1.6-2.1 2-3.5h-.9c-.3.6-.6 1.2-1 1.6-.1-.1-.2-.2-.3-.2.7-.7 1.2-1.9 1.5-3.1l.4.1c-.1.5-.2.9-.4 1.3H67z"/><path id="XMLID_891_" class="st0" d="M79.3 31.7c-.1.1-.1.2-.2.3.9 1.2 2.1 2 3.5 2.6l-.3.3c-1.3-.7-2.4-1.5-3.4-2.7-.9 1.1-2.1 2.1-3.4 2.8l-.3-.3c1.5-.7 2.9-1.9 3.7-3.2l.4.2z"/><path id="XMLID_890_" class="st0" d="M80.6 38.1c.6 0 .7-.2.8-1.3.1.1.3.1.4.2-.1 1.2-.3 1.5-1.2 1.5h-2.5c-.9 0-1.2-.2-1.2-.8v-3.3H81v.2c-.1 1.4-.1 1.9-.3 2.1-.1.1-.3.2-.5.2h-1.1c0-.1 0-.2-.1-.4h1c.2 0 .2 0 .3-.1.1-.1.2-.6.2-1.7h-3.3v3c0 .4.1.4.8.4h2.6z"/><path id="XMLID_888_" class="st0" d="M93.6 32.9c-.3.7-.6 1.3-1.1 1.9v3.9h-.4v-3.4c-.3.4-.7.7-1.1 1 0-.1-.2-.2-.2-.3 1-.8 1.8-1.9 2.3-3.1H91v-.4h2.3c.1-.4.3-.7.4-1l.4.1c-.1.3-.2.6-.3 1H98v.4h-4.4z"/><path id="XMLID_887_" class="st0" d="M98.1 36.5h-2.3v1.8c0 .3-.1.4-.3.5-.2.1-.7.1-1.4.1 0-.1-.1-.2-.1-.4h1.2c.1 0 .2 0 .2-.2v-1.8h-2.3v-.4h2.3v-.7c.5-.3 1-.6 1.4-1h-3V34h3.5l.3.2c-.4.5-1.1 1-1.7 1.3v.6h2.3v.4z"/><path id="XMLID_885_" class="st0" d="M109.2 32.5c0 .6 0 1.2-.1 1.8h3.6v.2c-.2 2.7-.3 3.6-.6 3.9-.1.2-.3.2-.6.2h-1.4c0-.1-.1-.3-.1-.4.6.1 1.2.1 1.4.1.2 0 .3 0 .4-.1.3-.2.4-1.2.5-3.5H109c-.2 1.6-.8 3.2-2.4 4.1l-.3-.3c2.3-1.2 2.5-3.9 2.5-6h-2.3v-.4h6.9v.4h-4.2z"/><path id="XMLID_883_" class="st0" d="M124.6 35.4c-.4.1-.7.2-1.1.4v3h-.4V36l-1.4.4-.1-.4c.4-.1.9-.3 1.5-.5v-2h-.8c-.1.5-.2.9-.4 1.3-.1 0-.2-.1-.3-.2.3-.7.5-1.7.6-2.7l.4.1c0 .4-.1.8-.2 1.2h.8v-1.7h.4v1.7h.9v.4h-.9v1.8l1-.3v.3z"/><path id="XMLID_882_" class="st0" d="M128.8 32.9v.2c-.2 3.7-.4 4.9-.7 5.3-.2.2-.3.2-.5.2h-.9c0-.1 0-.3-.1-.4h.9c.1 0 .2 0 .3-.1.3-.3.5-1.5.7-4.9h-.6c-.4 2.2-1.3 4.3-2.7 5.4-.1-.1-.2-.2-.3-.2 1.3-1 2.2-3 2.7-5.1h-.8c-.4 1.4-1.2 2.9-2.1 3.7-.1-.1-.2-.2-.3-.2.9-.7 1.6-2.1 2-3.5h-.9c-.3.6-.6 1.2-1 1.6-.1-.1-.2-.2-.3-.2.7-.7 1.2-1.9 1.5-3.1l.4.1c-.1.5-.2.9-.4 1.3h3.1z"/></svg>