<svg id="图层_1" xmlns="http://www.w3.org/2000/svg" viewBox="0 0 152 30"><style>.st0,.st1{fill:#fff}.st1{fill-rule:evenodd;clip-rule:evenodd}</style><g id="XMLID_2_"><g id="XMLID_59_"><g id="XMLID_60_"><g id="XMLID_61_"><g id="XMLID_74_"><g id="XMLID_75_"><path id="XMLID_76_" class="st0" d="M55.2-3.2h5.9c-.8 12.1-3.1 19.6-6 26.6h2.6c2.1-5.3 3.8-10.9 4.8-17.9h15.1c1.1 0 2 .9 2 2v11.6c0 1.1-.9 2-2 2h-8l-1.4 2.3h9.3c2.4 0 4.4-2 4.4-4.4V7.5c0-2.4-2-4.4-4.4-4.4H62.8c.2-2.1.5-4 .6-6.3h18.5v-2.4H55.2v2.4z"/></g></g><g id="XMLID_71_"><g id="XMLID_72_"><path id="XMLID_73_" class="st0" d="M92-6.8h-2.2v6.7H87l2.1-4h-2.4l-3.5 6.3h6.6v8.6l-6.6 2.6v2.5l6.6-2.6v10.1H92V12.3l2.3-1V8.8l-2.3 1V2.2h2.3V-.1H92z"/></g></g><g id="XMLID_68_"><g id="XMLID_69_"><path id="XMLID_70_" class="st0" d="M109.2-2.7h-9.9l2.3-4H99L95.7-.4h4.4c-1.1 9.9-3.2 17.7-5.2 23.9h2.4c2.1-6.5 4-13.8 5.1-23.9h3.6c-.8 9.8-2.7 17.6-4.5 23.9h2.4c1.9-6.5 3.6-13.8 4.4-23.9h.9c1.1 0 1.9.8 1.9 1.9v18c0 1-.8 1.9-1.9 1.9h-1.8l-1.3 2.3h3.2c2.3 0 4.2-1.9 4.2-4.2v-18c-.1-2.3-2-4.2-4.3-4.2z"/></g></g><g id="XMLID_65_"><g id="XMLID_66_"><path id="XMLID_67_" class="st0" d="M124.6-4h10.8c1.5 0 2.4 1 3.2 2.2l4.5 7L145 4l-4.5-7c-1.3-2-2.4-3.3-5.1-3.3h-10.8c-2.7 0-3.8 1.3-5.1 3.3L115 4l1.9 1.2 4.5-7c.8-1.3 1.7-2.2 3.2-2.2z"/></g></g><g id="XMLID_62_"><g id="XMLID_63_"><path id="XMLID_64_" class="st0" d="M120.4 20V8.8c0-1.1.9-1.9 1.9-1.9h16.1c.4 0 .7.3.7.7v5.2c0 .4-.3.7-.7.7h-10.3v2.3h10.3c1.6 0 3-1.4 3-3V7.5c0-1.6-1.3-3-3-3h-16.1c-2.3 0-4.2 1.9-4.2 4.2V20c0 2.3 1.9 3.4 4.2 3.4H142l1.3-2.3h-21c-1 0-1.9-.1-1.9-1.1z"/></g></g></g></g></g><g id="XMLID_49_"><g id="XMLID_53_"><g id="XMLID_54_"><path id="XMLID_55_" class="st1" d="M54.2 21.2c-1.2 1.2-2.6 1.3-4.1.7-.6-.2-1.1.1-1.6.5-.1.1-.2.3-.4.5 0-1.6-.1-1.8-1.4-2.2-1.1-.4-2.2-.9-2.8-2.1-.5 1.5-.2 3.5 1.1 4.5 1.7 1.3 2 3.1.7 4.7-.8 1.1-2 1.8-3.4 1.7-1.5-.2-2.2-1.2-2.7-2.5-.3-.9-.4-1.8-.4-2.7V.5c0-3.2-2.4-5.6-5.6-5.6H14.1c-3.4 0-5.7 2.4-5.7 5.7v28.9c0 3.1 2.5 5.7 5.6 5.7h22.2c1.6 0 3.2-.2 4.8-.6 3.3-.8 5.6-2.7 6.6-6 .2-.7.4-1.3.7-1.9.4-1 1.1-1.5 2.2-1.6h.8c1.3-.3 3-2.2 2.9-3.9zM33.5 31.8H13.8c-1.6 0-2.5-1.2-2.6-3v-5V.9.5c0-1.8.8-2.6 2.6-2.8H32.7c.3 0 .5 0 .8.1-2.1.3-4.1.5-6.2.8-2.8.3-5.6.7-8.3 1-1.2.1-2.3.3-3.5.4-1 .1-1.5.7-1.5 1.7v25.9c0 1.4.6 2.1 1.9 2.3 2.8.3 5.7.6 8.5.9 2.8.3 5.6.6 8.5.9.2 0 .4 0 .6.1 0 0 .1 0 0 0zm-13-24.3c0 1.2-.9 2.1-2.1 2.1-1.2 0-2.1-1-2.1-2.1s1-2.1 2.1-2.1 2.1 1 2.1 2.1z"/></g></g><g id="XMLID_50_"><g id="XMLID_51_"><path id="XMLID_52_" class="st1" d="M33.5 31.8c.2-.1.3-.1.6-.1-.3.2-.4.2-.6.1z"/></g></g></g><g id="XMLID_3_"><path id="XMLID_48_" class="st0" d="M58.2 27.8c0 .6 0 1.3-.1 1.9h3.8v.2c-.2 2.8-.3 3.8-.6 4.2-.2.2-.3.2-.6.2s-.9 0-1.5-.1c0-.1-.1-.3-.1-.4.7.1 1.3.1 1.5.1.2 0 .3 0 .4-.1.3-.3.4-1.2.6-3.8H58c-.2 1.7-.9 3.4-2.6 4.3l-.3-.3c2.5-1.3 2.6-4.1 2.6-6.3h-2.5v-.4h7.4v.4h-4.4z"/><path id="XMLID_47_" class="st0" d="M74.5 30.9c-.4.1-.8.3-1.2.4v3.1H73v-3l-1.5.5-.1-.4c.4-.1 1-.3 1.6-.5v-2.1h-.9c-.1.5-.2 1-.4 1.4-.1-.1-.2-.1-.3-.2.3-.7.5-1.8.6-2.9l.4.1c-.1.4-.1.8-.2 1.2h.8v-1.8h.4v1.8h1v.4h-1v1.9l1.1-.3v.4z"/><path id="XMLID_46_" class="st0" d="M79 28.2v.2c-.2 3.9-.4 5.2-.8 5.6-.2.2-.3.2-.6.3h-1c0-.1 0-.3-.1-.4h1c.1 0 .2 0 .3-.1.3-.3.5-1.6.7-5.2h-.6c-.4 2.3-1.4 4.6-2.8 5.7-.1-.1-.2-.2-.4-.3 1.4-1 2.4-3.2 2.8-5.4h-.9c-.4 1.5-1.2 3.1-2.2 3.9-.1-.1-.2-.2-.3-.2.9-.7 1.7-2.3 2.1-3.7h-.9c-.3.6-.6 1.2-1 1.7-.1-.1-.2-.2-.3-.2.7-.8 1.2-2 1.5-3.3l.4.1c-.1.5-.3 1-.4 1.4H79z"/><path id="XMLID_45_" class="st0" d="M92 26.9c-.1.1-.1.2-.2.3 1 1.3 2.3 2.1 3.7 2.8l-.3.3c-1.4-.7-2.6-1.6-3.6-2.8-.9 1.2-2.3 2.3-3.6 2.9l-.3-.3c1.6-.7 3.1-2 4-3.4l.3.2z"/><path id="XMLID_44_" class="st0" d="M93.3 33.7c.6 0 .7-.2.8-1.4.1.1.3.1.4.2-.1 1.3-.3 1.6-1.2 1.6h-2.7c-1 0-1.3-.2-1.3-.9v-3.5h4.4v.2c-.1 1.5-.1 2-.3 2.2-.1.1-.3.2-.5.2h-1.1c0-.1 0-.3-.1-.4.5.1.9.1 1.1.1.2 0 .2 0 .3-.1.1-.1.2-.6.2-1.8h-3.5v3.1c0 .4.2.5.9.5h2.6z"/><path id="XMLID_43_" class="st0" d="M107.1 28.2c-.3.7-.7 1.4-1.1 2v4.1h-.4v-3.6c-.3.4-.7.8-1.1 1.1-.1-.1-.2-.3-.2-.3 1.1-.8 1.9-2 2.5-3.2h-2.2v-.4h2.4c.2-.4.3-.7.4-1.1l.4.1c-.1.3-.2.7-.4 1h4.5v.4h-4.8z"/><path id="XMLID_42_" class="st0" d="M111.9 32h-2.4v1.9c0 .3-.1.4-.3.5-.2.1-.7.1-1.4.1 0-.1-.1-.3-.2-.4h1.3c.2 0 .2-.1.2-.2V32h-2.5v-.4h2.5v-.8c.5-.3 1.1-.7 1.5-1.1h-3.2v-.4h3.7l.3.2c-.5.5-1.2 1.1-1.8 1.4v.6h2.4v.5z"/><path id="XMLID_41_" class="st0" d="M123.7 27.8c0 .6 0 1.3-.1 1.9h3.8v.2c-.2 2.8-.3 3.8-.6 4.2-.2.2-.3.2-.6.2s-.9 0-1.5-.1c0-.1-.1-.3-.1-.4.7.1 1.3.1 1.5.1.2 0 .3 0 .4-.1.3-.3.4-1.2.6-3.8h-3.4c-.2 1.7-.9 3.4-2.6 4.3l-.3-.3c2.5-1.3 2.6-4.1 2.6-6.3h-2.5v-.4h7.4v.4h-4.6z"/><path id="XMLID_40_" class="st0" d="M140.1 30.9c-.4.1-.8.3-1.2.4v3.1h-.4v-3l-1.5.5-.1-.4c.4-.1 1-.3 1.6-.5v-2.1h-.9c-.1.5-.2 1-.4 1.4-.1-.1-.2-.1-.3-.2.3-.7.5-1.8.6-2.9l.4.1c0 .4-.1.8-.2 1.2h.8v-1.8h.4v1.8h1v.4h-1v1.9l1.1-.3.1.4z"/><path id="XMLID_39_" class="st0" d="M144.5 28.2v.2c-.2 3.9-.4 5.2-.8 5.6-.2.2-.3.2-.6.3h-1c0-.1 0-.3-.1-.4h1c.1 0 .2 0 .3-.1.3-.3.5-1.6.7-5.2h-.6c-.4 2.3-1.4 4.6-2.8 5.7-.1-.1-.2-.2-.4-.3 1.4-1 2.4-3.2 2.8-5.4h-.9c-.4 1.5-1.2 3.1-2.2 3.9-.1-.1-.2-.2-.3-.2.9-.7 1.7-2.3 2.1-3.7h-.7c-.3.6-.6 1.2-1 1.7-.1-.1-.2-.2-.3-.2.7-.8 1.2-2 1.5-3.3l.4.1c-.1.5-.3 1-.4 1.4h3.3z"/></g></g></svg>