<?xml version="1.0" encoding="utf-8"?>
<!-- Generator: Adobe Illustrator 19.0.0, SVG Export Plug-In . SVG Version: 6.00 Build 0)  -->
<svg version="1.1" id="图层_1" xmlns="http://www.w3.org/2000/svg" xmlns:xlink="http://www.w3.org/1999/xlink" x="0px" y="0px"
	 viewBox="0 0 140 50" style="enable-background:new 0 0 140 50;" xml:space="preserve">
<style type="text/css">
	.st0{fill:#FFFFFF;}
	.st1{fill:none;}
</style>
<g id="XMLID_46_">
	<g id="XMLID_21_">
		<g id="XMLID_22_">
			<g id="XMLID_24_">
				<g id="XMLID_42_">
					<g id="XMLID_43_">
						<path id="XMLID_44_" class="st0" d="M49.7,9.4h5.6c-0.7,11.4-3,18.5-5.6,25.1h2.4c2-5,3.6-10.3,4.6-16.9h14.2
							c1.1,0,1.9,0.8,1.9,1.9v11c0,1-0.8,1.9-1.9,1.9h-7.5l-1.3,2.1h8.8c2.3,0,4.1-1.9,4.1-4.1V19.5c0-2.3-1.9-4.1-4.1-4.1H57
							c0.2-2,0.4-3.7,0.6-6H75V7.2H49.8L49.7,9.4L49.7,9.4z"/>
					</g>
				</g>
				<g id="XMLID_39_">
					<g id="XMLID_40_">
						<polygon id="XMLID_41_" class="st0" points="84.5,6.1 82.4,6.1 82.4,12.4 79.7,12.4 79.8,12.4 81.7,8.5 79.5,8.5 76.2,14.5 
							76.2,14.5 76.2,14.5 76.2,14.5 76.2,14.5 82.4,14.5 82.4,22.6 76.2,25.1 76.2,27.5 82.4,25 82.4,34.5 84.5,34.5 84.5,24.1 
							86.7,23.1 86.7,20.8 84.5,21.7 84.5,14.5 86.7,14.5 86.7,12.4 84.5,12.4 						"/>
					</g>
				</g>
				<g id="XMLID_36_">
					<g id="XMLID_37_">
						<path id="XMLID_38_" class="st0" d="M100.7,9.9h-9.3l2.2-3.8h-2.5l-3.1,6h4.1c-1.1,9.3-3,16.7-4.9,22.6h2.2
							c2-6.1,3.8-13.1,4.8-22.6h3.4c-0.8,9.3-2.5,16.6-4.2,22.6h2.3c1.8-6.1,3.4-13,4.1-22.6h0.8c1,0,1.8,0.8,1.8,1.8v17
							c0,1-0.8,1.8-1.8,1.8h-1.7l-1.3,2.2h3c2.2,0,4-1.8,4-4v-17C104.7,11.7,102.9,9.9,100.7,9.9z"/>
					</g>
				</g>
				<g id="XMLID_30_">
					<g id="XMLID_31_">
						<path id="XMLID_34_" class="st0" d="M115.2,8.6h10.2c1.4,0,2.3,0.9,3.1,2.1l4.2,6.6l1.8-1.1l-4.2-6.6
							c-1.2-1.9-2.3-3.1-4.8-3.1h-10.3c-2.5,0-3.6,1.2-4.8,3.1l-4.2,6.6l1.8,1.1l4.2-6.6C113,9.6,113.8,8.6,115.2,8.6z"/>
					</g>
				</g>
				<g id="XMLID_27_">
					<g id="XMLID_28_">
						<path id="XMLID_29_" class="st0" d="M111.3,31.3V20.7c0-1,0.8-1.8,1.8-1.8h15.2c0.4,0,0.7,0.3,0.7,0.7v4.9
							c0,0.4-0.3,0.7-0.7,0.7h-9.7v2.1h9.7c1.5,0,2.8-1.3,2.8-2.8v-4.9c0-1.5-1.3-2.8-2.8-2.8h-15.2c-2.2,0-4,1.8-4,4v10.6
							c0,2.2,1.8,3.2,4,3.2h18.6l1.2-2.1h-19.8C112.1,32.4,111.3,32.3,111.3,31.3z"/>
					</g>
				</g>
			</g>
		</g>
	</g>
	<g id="XMLID_11_">
		<g id="XMLID_15_">
			<g id="XMLID_16_">
				<path id="XMLID_17_" class="st0" d="M48.8,32.4c-1.2,1.1-2.5,1.2-3.9,0.7c-0.6-0.2-1.1,0.1-1.5,0.5c-0.1,0.1-0.2,0.3-0.4,0.5
					c0-1.5-0.1-1.7-1.4-2.1c-1.1-0.4-2.1-0.8-2.6-2c-0.5,1.4-0.2,3.3,1,4.2c1.6,1.2,1.9,2.9,0.7,4.5c-0.8,1-1.9,1.7-3.2,1.6
					c-1.4-0.2-2.1-1.2-2.5-2.4c-0.3-0.8-0.4-1.7-0.4-2.6c0-7.5,0-15,0-22.5c0-3-2.2-5.3-5.3-5.3c-6.1,0-12.3,0-18.4,0
					c-3.2,0-5.4,2.2-5.4,5.4c0,4.4,0,8.8,0,13.3c0,4.6,0,9.3,0,13.9c0,2.9,2.4,5.3,5.3,5.3c7,0,13.9,0,20.9,0c1.5,0,3-0.2,4.5-0.5
					c3.1-0.8,5.3-2.6,6.2-5.7c0.2-0.6,0.4-1.2,0.6-1.8c0.3-1,1-1.5,2-1.5c0.2,0,0.5,0,0.7,0C47.3,35.9,49,34.1,48.8,32.4z
					 M29.3,42.5L29.3,42.5c-6.2,0-12.4,0-18.6,0c-1.5,0-2.4-1.1-2.4-2.9c0-1.6,0-3.1,0-4.7c0-7.2,0-14.4,0-21.6c0-0.1,0-0.2,0-0.3
					c0-1.7,0.7-2.5,2.4-2.7c0.2,0,0.5,0,0.7,0c5.7,0,11.4,0,17.1,0c0.2,0,0.5,0,0.7,0.1c-1.9,0.2-3.9,0.5-5.8,0.7
					c-2.6,0.3-5.2,0.6-7.9,0.9c-1.1,0.1-2.2,0.3-3.3,0.4c-1,0.1-1.4,0.6-1.4,1.6c0,8.2,0,16.3,0,24.5c0,1.3,0.6,2,1.8,2.1
					c2.7,0.3,5.4,0.6,8,0.9c2.7,0.3,5.3,0.6,8,0.9C28.9,42.4,29.1,42.4,29.3,42.5C29.3,42.4,29.3,42.4,29.3,42.5z M17,19.6
					c0,1.1-0.9,2-2,2s-2-0.9-2-2s0.9-2,2-2C16.1,17.5,17,18.5,17,19.6z"/>
			</g>
		</g>
		<g id="XMLID_12_">
			<g id="XMLID_13_">
				<path id="XMLID_14_" class="st0" d="M29.3,42.5C29.3,42.5,29.3,42.4,29.3,42.5c0.2-0.1,0.3-0.1,0.6-0.1
					C29.6,42.5,29.4,42.5,29.3,42.5z"/>
			</g>
		</g>
	</g>
	<g id="XMLID_47_">
		<path id="XMLID_10_" class="st0" d="M52.6,38.7c0,0.6,0,1.2-0.1,1.8h3.6v0.2c-0.2,2.7-0.3,3.6-0.6,3.9c-0.1,0.2-0.3,0.2-0.6,0.2
			c-0.3,0-0.8,0-1.4,0c0-0.1-0.1-0.3-0.1-0.4c0.6,0.1,1.2,0.1,1.4,0.1c0.2,0,0.3,0,0.4-0.1c0.3-0.2,0.4-1.2,0.5-3.5h-3.2
			c-0.2,1.6-0.8,3.2-2.4,4.1c-0.1-0.1-0.2-0.2-0.3-0.3c2.3-1.2,2.5-3.9,2.5-6H50v-0.4h6.9v0.4H52.6z"/>
		<path id="XMLID_9_" class="st0" d="M68,41.6c-0.4,0.1-0.7,0.2-1.1,0.4v3h-0.4v-2.8l-1.4,0.4L65,42.2c0.4-0.1,0.9-0.3,1.5-0.5v-2
			h-0.8c-0.1,0.5-0.2,0.9-0.4,1.3c-0.1,0-0.2-0.1-0.3-0.2c0.3-0.7,0.5-1.7,0.6-2.7l0.4,0.1c0,0.4-0.1,0.8-0.2,1.2h0.8v-1.7H67v1.7
			h0.9v0.4H67v1.8l1-0.3V41.6z"/>
		<path id="XMLID_8_" class="st0" d="M72.2,39.1v0.2c-0.2,3.7-0.4,4.9-0.7,5.3c-0.2,0.2-0.3,0.2-0.5,0.2s-0.6,0-0.9,0
			c0-0.1,0-0.3-0.1-0.4c0.4,0,0.8,0,0.9,0c0.1,0,0.2,0,0.3-0.1c0.3-0.3,0.5-1.5,0.7-4.9h-0.7c-0.4,2.2-1.3,4.3-2.7,5.4
			c-0.1-0.1-0.2-0.2-0.3-0.2c1.3-1,2.2-3,2.7-5.1h-0.8c-0.4,1.4-1.2,2.9-2.1,3.7c-0.1-0.1-0.2-0.2-0.3-0.2c0.9-0.7,1.6-2.1,2-3.5
			h-0.9c-0.3,0.6-0.6,1.2-1,1.6c-0.1-0.1-0.2-0.2-0.3-0.2c0.7-0.7,1.2-1.9,1.5-3.1l0.4,0.1c-0.1,0.5-0.2,0.9-0.4,1.3h3.2V39.1z"/>
		<path id="XMLID_7_" class="st0" d="M84.5,37.8c-0.1,0.1-0.1,0.2-0.2,0.3c0.9,1.2,2.1,2,3.5,2.6c-0.1,0.1-0.2,0.2-0.3,0.3
			c-1.3-0.7-2.4-1.5-3.4-2.7c-0.9,1.1-2.1,2.1-3.4,2.8c-0.1-0.1-0.2-0.2-0.3-0.3c1.5-0.7,2.9-1.9,3.7-3.2L84.5,37.8z"/>
		<path id="XMLID_6_" class="st0" d="M85.8,44.3c0.6,0,0.7-0.2,0.8-1.3c0.1,0.1,0.3,0.1,0.4,0.2c-0.1,1.2-0.3,1.5-1.2,1.5h-2.5
			c-0.9,0-1.2-0.2-1.2-0.8v-3.3h4.1c0,0,0,0.1,0,0.2c-0.1,1.4-0.1,1.9-0.3,2.1c-0.1,0.1-0.3,0.2-0.5,0.2s-0.6,0-1.1,0
			c0-0.1,0-0.2-0.1-0.4c0.5,0,0.9,0,1,0c0.2,0,0.2,0,0.3-0.1s0.2-0.6,0.2-1.7h-3.3v3c0,0.4,0.1,0.4,0.8,0.4L85.8,44.3L85.8,44.3z"/>
		<path id="XMLID_5_" class="st0" d="M98.8,39.1c-0.3,0.7-0.6,1.3-1.1,1.9v3.9h-0.4v-3.4c-0.3,0.4-0.7,0.7-1.1,1
			c0-0.1-0.2-0.2-0.2-0.3c1-0.8,1.8-1.9,2.3-3.1h-2.1v-0.4h2.3c0.1-0.4,0.3-0.7,0.4-1l0.4,0.1c-0.1,0.3-0.2,0.6-0.3,1h4.2v0.4
			L98.8,39.1L98.8,39.1z"/>
		<path id="XMLID_4_" class="st0" d="M103.3,42.6H101v1.8c0,0.3-0.1,0.4-0.3,0.5S100,45,99.3,45c0-0.1-0.1-0.2-0.1-0.4
			c0.6,0,1.1,0,1.2,0c0.1,0,0.2,0,0.2-0.2v-1.8h-2.3v-0.4h2.3v-0.7c0.5-0.3,1-0.6,1.4-1h-3v-0.4h3.4h0.1l0.3,0.2
			c-0.4,0.5-1.1,1-1.7,1.3v0.6h2.3L103.3,42.6L103.3,42.6z"/>
		<path id="XMLID_3_" class="st0" d="M114.4,38.7c0,0.6,0,1.2-0.1,1.8h3.6v0.2c-0.2,2.7-0.3,3.6-0.6,3.9c-0.1,0.2-0.3,0.2-0.6,0.2
			s-0.8,0-1.4,0c0-0.1-0.1-0.3-0.1-0.4c0.6,0.1,1.2,0.1,1.4,0.1s0.3,0,0.4-0.1c0.3-0.2,0.4-1.2,0.5-3.5h-3.3
			c-0.2,1.6-0.8,3.2-2.4,4.1c-0.1-0.1-0.2-0.2-0.3-0.3c2.3-1.2,2.5-3.9,2.5-6h-2.3v-0.4h6.9v0.4H114.4z"/>
		<path id="XMLID_2_" class="st0" d="M129.8,41.6c-0.4,0.1-0.7,0.2-1.1,0.4v3h-0.4v-2.8l-1.4,0.4l-0.1-0.4c0.4-0.1,0.9-0.3,1.5-0.5
			v-2h-0.8c-0.1,0.5-0.2,0.9-0.4,1.3c-0.1,0-0.2-0.1-0.3-0.2c0.3-0.7,0.5-1.7,0.6-2.7l0.4,0.1c0,0.4-0.1,0.8-0.2,1.2h0.8v-1.7h0.4
			v1.7h0.9v0.4h-0.9v1.8l1-0.3V41.6z"/>
		<path id="XMLID_1_" class="st0" d="M134,39.1v0.2c-0.2,3.7-0.4,4.9-0.7,5.3c-0.2,0.2-0.3,0.2-0.5,0.2c-0.2,0-0.6,0-0.9,0
			c0-0.1,0-0.3-0.1-0.4c0.4,0,0.8,0,0.9,0s0.2,0,0.3-0.1c0.3-0.3,0.5-1.5,0.7-4.9h-0.6c-0.4,2.2-1.3,4.3-2.7,5.4
			c-0.1-0.1-0.2-0.2-0.3-0.2c1.3-1,2.2-3,2.7-5.1H132c-0.4,1.4-1.2,2.9-2.1,3.7c-0.1-0.1-0.2-0.2-0.3-0.2c0.9-0.7,1.6-2.1,2-3.5
			h-0.9c-0.3,0.6-0.6,1.2-1,1.6c-0.1-0.1-0.2-0.2-0.3-0.2c0.7-0.7,1.2-1.9,1.5-3.1l0.4,0.1c-0.1,0.5-0.2,0.9-0.4,1.3h3.1V39.1z"/>
	</g>
</g>
<rect id="_x3C_切片_x3E_" x="1.5" class="st1" width="139" height="52"/>
</svg>
