<svg id="图层_1" xmlns="http://www.w3.org/2000/svg" viewBox="0 0 200 200"><style>.st0{fill:#f5d01f}.st1{fill:none;stroke:#f5d01f;stroke-miterlimit:10}.st2{fill-rule:evenodd;clip-rule:evenodd;fill:#191919}</style><circle class="st0" cx="98.8" cy="100" r="79"/><circle class="st1" cx="98.8" cy="100" r="83.5"/><g id="XMLID_87_"><g id="XMLID_91_"><g id="XMLID_92_"><path id="XMLID_93_" class="st2" d="M143 110.1c-2 2-4.2 2.1-6.7 1.2-1-.4-1.8.2-2.6.8-.2.2-.4.5-.7.9 0-2.6-.1-2.8-2.3-3.6-1.8-.7-3.6-1.4-4.5-3.4-.8 2.5-.3 5.7 1.7 7.2 2.8 2.1 3.2 5 1.2 7.6-1.4 1.8-3.2 3-5.5 2.7-2.3-.3-3.5-2-4.3-4-.5-1.4-.7-2.9-.7-4.4V76.7c0-5.2-3.8-9.1-9-9.1H78.1c-5.4 0-9.2 3.8-9.2 9.3v46.5c0 5 4.1 9.1 9 9.1h35.8c2.6 0 5.2-.3 7.7-.9 5.3-1.3 9-4.4 10.6-9.7.3-1.1.7-2.1 1.1-3.1.6-1.7 1.7-2.5 3.5-2.5h1.2c2.7-.3 5.5-3.4 5.2-6.2zm-33.2 17.2c-.1 0-.1 0 0 0-10.6.1-21.2.1-31.8.1-2.5 0-4.1-1.9-4.2-4.9-.1-2.7 0-5.4 0-8.1V76.9c0-2.9 1.3-4.3 4.2-4.6h30.4c.4 0 .8 0 1.2.1l-9.9 1.2c-4.5.5-9 1.1-13.5 1.6-1.9.2-3.8.5-5.6.7-1.7.2-2.5 1.1-2.5 2.8v41.8c0 2.2 1 3.4 3.1 3.6 4.6.5 9.2 1 13.7 1.5 4.6.5 9.1 1 13.7 1.5.5 0 .8.1 1.2.2 0-.1 0-.1 0 0zM88.7 88.1c0 1.9-1.5 3.4-3.5 3.4-1.9 0-3.4-1.5-3.3-3.4 0-1.8 1.6-3.4 3.4-3.4 1.9 0 3.4 1.5 3.4 3.4z"/></g></g><g id="XMLID_88_"><g id="XMLID_89_"><path id="XMLID_90_" class="st2" d="M109.7 127.3v-.1h1c-.5.2-.7.2-1 .1z"/></g></g></g></svg>