<svg id="图层_1" xmlns="http://www.w3.org/2000/svg" viewBox="0 0 140 50"><style>.st0{fill:#fff}.st1{fill:none}</style><g id="XMLID_46_"><g id="XMLID_21_"><g id="XMLID_22_"><g id="XMLID_24_"><g id="XMLID_42_"><g id="XMLID_43_"><path id="XMLID_44_" class="st0" d="M49.7 9.4h5.6c-.7 11.4-3 18.5-5.6 25.1h2.4c2-5 3.6-10.3 4.6-16.9h14.2c1.1 0 1.9.8 1.9 1.9v11c0 1-.8 1.9-1.9 1.9h-7.5l-1.3 2.1h8.8c2.3 0 4.1-1.9 4.1-4.1V19.5c0-2.3-1.9-4.1-4.1-4.1H57c.2-2 .4-3.7.6-6H75V7.2H49.8l-.1 2.2z"/></g></g><g id="XMLID_39_"><g id="XMLID_40_"><path id="XMLID_41_" class="st0" d="M84.5 6.1h-2.1v6.3h-2.7.1l1.9-3.9h-2.2l-3.3 6h6.2v8.1l-6.2 2.5v2.4l6.2-2.5v9.5h2.1V24.1l2.2-1v-2.3l-2.2.9v-7.2h2.2v-2.1h-2.2z"/></g></g><g id="XMLID_36_"><g id="XMLID_37_"><path id="XMLID_38_" class="st0" d="M100.7 9.9h-9.3l2.2-3.8h-2.5l-3.1 6h4.1c-1.1 9.3-3 16.7-4.9 22.6h2.2c2-6.1 3.8-13.1 4.8-22.6h3.4c-.8 9.3-2.5 16.6-4.2 22.6h2.3c1.8-6.1 3.4-13 4.1-22.6h.8c1 0 1.8.8 1.8 1.8v17c0 1-.8 1.8-1.8 1.8h-1.7l-1.3 2.2h3c2.2 0 4-1.8 4-4v-17c.1-2.2-1.7-4-3.9-4z"/></g></g><g id="XMLID_30_"><g id="XMLID_31_"><path id="XMLID_34_" class="st0" d="M115.2 8.6h10.2c1.4 0 2.3.9 3.1 2.1l4.2 6.6 1.8-1.1-4.2-6.6c-1.2-1.9-2.3-3.1-4.8-3.1h-10.3c-2.5 0-3.6 1.2-4.8 3.1l-4.2 6.6 1.8 1.1 4.2-6.6c.8-1.1 1.6-2.1 3-2.1z"/></g></g><g id="XMLID_27_"><g id="XMLID_28_"><path id="XMLID_29_" class="st0" d="M111.3 31.3V20.7c0-1 .8-1.8 1.8-1.8h15.2c.4 0 .7.3.7.7v4.9c0 .4-.3.7-.7.7h-9.7v2.1h9.7c1.5 0 2.8-1.3 2.8-2.8v-4.9c0-1.5-1.3-2.8-2.8-2.8h-15.2c-2.2 0-4 1.8-4 4v10.6c0 2.2 1.8 3.2 4 3.2h18.6l1.2-2.1h-19.8c-1-.1-1.8-.2-1.8-1.2z"/></g></g></g></g></g><g id="XMLID_11_"><g id="XMLID_15_"><g id="XMLID_16_"><path id="XMLID_17_" class="st0" d="M48.8 32.4c-1.2 1.1-2.5 1.2-3.9.7-.6-.2-1.1.1-1.5.5-.1.1-.2.3-.4.5 0-1.5-.1-1.7-1.4-2.1-1.1-.4-2.1-.8-2.6-2-.5 1.4-.2 3.3 1 4.2 1.6 1.2 1.9 2.9.7 4.5-.8 1-1.9 1.7-3.2 1.6-1.4-.2-2.1-1.2-2.5-2.4-.3-.8-.4-1.7-.4-2.6V12.8c0-3-2.2-5.3-5.3-5.3H10.9c-3.2 0-5.4 2.2-5.4 5.4v27.2c0 2.9 2.4 5.3 5.3 5.3h20.9c1.5 0 3-.2 4.5-.5 3.1-.8 5.3-2.6 6.2-5.7l.6-1.8c.3-1 1-1.5 2-1.5h.7c1.6 0 3.3-1.8 3.1-3.5zM29.3 42.5H10.7c-1.5 0-2.4-1.1-2.4-2.9V13c0-1.7.7-2.5 2.4-2.7h17.8c.2 0 .5 0 .7.1-1.9.2-3.9.5-5.8.7-2.6.3-5.2.6-7.9.9-1.1.1-2.2.3-3.3.4-1 .1-1.4.6-1.4 1.6v24.5c0 1.3.6 2 1.8 2.1 2.7.3 5.4.6 8 .9 2.7.3 5.3.6 8 .9.3 0 .5 0 .7.1 0-.1 0-.1 0 0zM17 19.6c0 1.1-.9 2-2 2s-2-.9-2-2 .9-2 2-2c1.1-.1 2 .9 2 2z"/></g></g><g id="XMLID_12_"><g id="XMLID_13_"><path id="XMLID_14_" class="st0" d="M29.3 42.5s0-.1 0 0c.2-.1.3-.1.6-.1-.3.1-.5.1-.6.1z"/></g></g></g><g id="XMLID_47_"><path id="XMLID_10_" class="st0" d="M52.6 38.7c0 .6 0 1.2-.1 1.8h3.6v.2c-.2 2.7-.3 3.6-.6 3.9-.1.2-.3.2-.6.2h-1.4c0-.1-.1-.3-.1-.4.6.1 1.2.1 1.4.1.2 0 .3 0 .4-.1.3-.2.4-1.2.5-3.5h-3.2c-.2 1.6-.8 3.2-2.4 4.1l-.3-.3c2.3-1.2 2.5-3.9 2.5-6H50v-.4h6.9v.4h-4.3z"/><path id="XMLID_9_" class="st0" d="M68 41.6c-.4.1-.7.2-1.1.4v3h-.4v-2.8l-1.4.4-.1-.4c.4-.1.9-.3 1.5-.5v-2h-.8c-.1.5-.2.9-.4 1.3-.1 0-.2-.1-.3-.2.3-.7.5-1.7.6-2.7l.4.1c0 .4-.1.8-.2 1.2h.8v-1.7h.4v1.7h.9v.4H67v1.8l1-.3v.3z"/><path id="XMLID_8_" class="st0" d="M72.2 39.1v.2c-.2 3.7-.4 4.9-.7 5.3-.2.2-.3.2-.5.2h-.9c0-.1 0-.3-.1-.4h.9c.1 0 .2 0 .3-.1.3-.3.5-1.5.7-4.9h-.7c-.4 2.2-1.3 4.3-2.7 5.4-.1-.1-.2-.2-.3-.2 1.3-1 2.2-3 2.7-5.1h-.8c-.4 1.4-1.2 2.9-2.1 3.7-.1-.1-.2-.2-.3-.2.9-.7 1.6-2.1 2-3.5h-.9c-.3.6-.6 1.2-1 1.6-.1-.1-.2-.2-.3-.2.7-.7 1.2-1.9 1.5-3.1l.4.1c-.1.5-.2.9-.4 1.3h3.2v-.1z"/><path id="XMLID_7_" class="st0" d="M84.5 37.8c-.1.1-.1.2-.2.3.9 1.2 2.1 2 3.5 2.6l-.3.3c-1.3-.7-2.4-1.5-3.4-2.7-.9 1.1-2.1 2.1-3.4 2.8l-.3-.3c1.5-.7 2.9-1.9 3.7-3.2l.4.2z"/><path id="XMLID_6_" class="st0" d="M85.8 44.3c.6 0 .7-.2.8-1.3.1.1.3.1.4.2-.1 1.2-.3 1.5-1.2 1.5h-2.5c-.9 0-1.2-.2-1.2-.8v-3.3h4.1v.2c-.1 1.4-.1 1.9-.3 2.1-.1.1-.3.2-.5.2h-1.1c0-.1 0-.2-.1-.4h1c.2 0 .2 0 .3-.1s.2-.6.2-1.7h-3.3v3c0 .4.1.4.8.4h2.6z"/><path id="XMLID_5_" class="st0" d="M98.8 39.1c-.3.7-.6 1.3-1.1 1.9v3.9h-.4v-3.4c-.3.4-.7.7-1.1 1 0-.1-.2-.2-.2-.3 1-.8 1.8-1.9 2.3-3.1h-2.1v-.4h2.3c.1-.4.3-.7.4-1l.4.1c-.1.3-.2.6-.3 1h4.2v.4l-4.4-.1z"/><path id="XMLID_4_" class="st0" d="M103.3 42.6H101v1.8c0 .3-.1.4-.3.5s-.7.1-1.4.1c0-.1-.1-.2-.1-.4h1.2c.1 0 .2 0 .2-.2v-1.8h-2.3v-.4h2.3v-.7c.5-.3 1-.6 1.4-1h-3v-.4h3.5l.3.2c-.4.5-1.1 1-1.7 1.3v.6h2.3l-.1.4z"/><path id="XMLID_3_" class="st0" d="M114.4 38.7c0 .6 0 1.2-.1 1.8h3.6v.2c-.2 2.7-.3 3.6-.6 3.9-.1.2-.3.2-.6.2h-1.4c0-.1-.1-.3-.1-.4.6.1 1.2.1 1.4.1s.3 0 .4-.1c.3-.2.4-1.2.5-3.5h-3.3c-.2 1.6-.8 3.2-2.4 4.1l-.3-.3c2.3-1.2 2.5-3.9 2.5-6h-2.3v-.4h6.9v.4h-4.2z"/><path id="XMLID_2_" class="st0" d="M129.8 41.6c-.4.1-.7.2-1.1.4v3h-.4v-2.8l-1.4.4-.1-.4c.4-.1.9-.3 1.5-.5v-2h-.8c-.1.5-.2.9-.4 1.3-.1 0-.2-.1-.3-.2.3-.7.5-1.7.6-2.7l.4.1c0 .4-.1.8-.2 1.2h.8v-1.7h.4v1.7h.9v.4h-.9v1.8l1-.3v.3z"/><path id="XMLID_1_" class="st0" d="M134 39.1v.2c-.2 3.7-.4 4.9-.7 5.3-.2.2-.3.2-.5.2h-.9c0-.1 0-.3-.1-.4h.9c.1 0 .2 0 .3-.1.3-.3.5-1.5.7-4.9h-.6c-.4 2.2-1.3 4.3-2.7 5.4-.1-.1-.2-.2-.3-.2 1.3-1 2.2-3 2.7-5.1h-.8c-.4 1.4-1.2 2.9-2.1 3.7-.1-.1-.2-.2-.3-.2.9-.7 1.6-2.1 2-3.5h-.9c-.3.6-.6 1.2-1 1.6-.1-.1-.2-.2-.3-.2.7-.7 1.2-1.9 1.5-3.1l.4.1c-.1.5-.2.9-.4 1.3h3.1v-.1z"/></g></g><path id="_x3C_切片_x3E_" class="st1" d="M1.5 0h139v52H1.5z"/></svg>