<?xml version="1.0" encoding="utf-8"?>
<!-- Generator: Adobe Illustrator 19.0.0, SVG Export Plug-In . SVG Version: 6.00 Build 0)  -->
<svg version="1.1" id="图层_1" xmlns="http://www.w3.org/2000/svg" xmlns:xlink="http://www.w3.org/1999/xlink" x="0px" y="0px"
	 viewBox="0 0 200 200" style="enable-background:new 0 0 200 200;" xml:space="preserve">
<style type="text/css">
	.st0{fill:#F5D01F;}
	.st1{fill:none;stroke:#F5D01F;stroke-miterlimit:10;}
	.st2{fill-rule:evenodd;clip-rule:evenodd;fill:#191919;}
</style>
<g>
	<circle class="st0" cx="98.8" cy="100" r="79"/>
	<circle class="st1" cx="98.8" cy="100" r="83.5"/>
	<g id="XMLID_87_">
		<g id="XMLID_91_">
			<g id="XMLID_92_">
				<path id="XMLID_93_" class="st2" d="M143,110.1c-2,2-4.2,2.1-6.7,1.2c-1-0.4-1.8,0.2-2.6,0.8c-0.2,0.2-0.4,0.5-0.7,0.9
					c0-2.6-0.1-2.8-2.3-3.6c-1.8-0.7-3.6-1.4-4.5-3.4c-0.8,2.5-0.3,5.7,1.7,7.2c2.8,2.1,3.2,5,1.2,7.6c-1.4,1.8-3.2,3-5.5,2.7
					c-2.3-0.3-3.5-2-4.3-4c-0.5-1.4-0.7-2.9-0.7-4.4c0-12.8,0-25.6,0-38.4c0-5.2-3.8-9.1-9-9.1c-10.5,0-21,0-31.5,0
					c-5.4,0-9.2,3.8-9.2,9.3c0,7.6,0,15.1,0,22.7c0,7.9,0,15.9,0,23.8c0,5,4.1,9.1,9,9.1c11.9,0,23.9,0,35.8,0
					c2.6,0,5.2-0.3,7.7-0.9c5.3-1.3,9-4.4,10.6-9.7c0.3-1.1,0.7-2.1,1.1-3.1c0.6-1.7,1.7-2.5,3.5-2.5c0.4,0,0.8,0,1.2,0
					C140.5,116,143.3,112.9,143,110.1z M109.8,127.3C109.7,127.3,109.7,127.3,109.8,127.3c-10.6,0.1-21.2,0.1-31.8,0.1
					c-2.5,0-4.1-1.9-4.2-4.9c-0.1-2.7,0-5.4,0-8.1c0-12.3,0-24.6,0-36.9c0-0.2,0-0.4,0-0.6c0-2.9,1.3-4.3,4.2-4.6c0.4,0,0.8,0,1.2,0
					c9.7,0,19.5,0,29.2,0c0.4,0,0.8,0,1.2,0.1c-3.3,0.4-6.6,0.8-9.9,1.2c-4.5,0.5-9,1.1-13.5,1.6c-1.9,0.2-3.8,0.5-5.6,0.7
					c-1.7,0.2-2.5,1.1-2.5,2.8c0,13.9,0,27.9,0,41.8c0,2.2,1,3.4,3.1,3.6c4.6,0.5,9.2,1,13.7,1.5c4.6,0.5,9.1,1,13.7,1.5
					C109.1,127.1,109.4,127.2,109.8,127.3C109.8,127.2,109.8,127.2,109.8,127.3z M88.7,88.1c0,1.9-1.5,3.4-3.5,3.4
					c-1.9,0-3.4-1.5-3.3-3.4c0-1.8,1.6-3.4,3.4-3.4C87.2,84.7,88.7,86.2,88.7,88.1z"/>
			</g>
		</g>
		<g id="XMLID_88_">
			<g id="XMLID_89_">
				<path id="XMLID_90_" class="st2" d="M109.7,127.3c0,0,0-0.1,0-0.1c0.3,0,0.5,0,1,0C110.2,127.4,110,127.4,109.7,127.3z"/>
			</g>
		</g>
	</g>
</g>
</svg>
