<?xml version="1.0" encoding="utf-8"?>
<!-- Generator: Adobe Illustrator 19.0.0, SVG Export Plug-In . SVG Version: 6.00 Build 0)  -->
<svg version="1.1" id="图层_1" xmlns="http://www.w3.org/2000/svg" xmlns:xlink="http://www.w3.org/1999/xlink" x="0px" y="0px"
	 viewBox="0 0 100 100" style="enable-background:new 0 0 100 100;" xml:space="preserve">
<style type="text/css">
	.st0{fill:#FFFFFF;}
</style>
<g id="XMLID_2_">
	<path id="XMLID_16_" class="st0" d="M39.1,59.4v8.8c0,2.9,2.3,5.2,5.2,5.2h11.4c2.9,0,5.2-2.3,5.2-5.2v-8.8
		c-3.2,2.4-6.9,3.8-10.9,3.8C46,63.2,42.3,61.8,39.1,59.4z"/>
	<path id="XMLID_13_" class="st0" d="M67.2,58.5l0,14.8c1.3,0,2.4,1.1,2.4,2.4v18.5h8.4c2.4,0,4.3-2,4.3-4.3v-12
		C82.3,68.7,76.1,60.7,67.2,58.5z"/>
	<path id="XMLID_10_" class="st0" d="M17.7,77.9v12c0,2.4,1.9,4.3,4.3,4.3h8.4V75.8c0-1.4,1.1-2.4,2.4-2.4l0-14.8
		C23.9,60.7,17.7,68.7,17.7,77.9z"/>
	<path id="XMLID_3_" class="st0" d="M72.6,38.8c0.3-4.1-1-5.9-2.7-6.6c0-0.7,0.3-3.5,0.3-4.2c0-9.4-8.7-18.3-16.8-20.3
		c0.1-0.1,0.1-0.3,0.1-0.4c0-1-1.4-1.8-3.2-1.8S47,6.3,47,7.2c0,0.2,0,0.3,0.1,0.5c-7.6,2.1-16.8,10.9-16.8,20.2
		c0,0.6,0,1.1,0.1,1.7c-0.1,0.8-0.1,1.7-0.2,2.7c-1.6,0.8-2.8,2.6-2.5,6.5c0.3,4.1,2.4,6,4.6,6.6c3.2,8.2,9.8,14.8,17.7,14.8
		c7.9,0,14.5-6.6,17.7-14.8C70.1,45,72.2,43,72.6,38.8z M50,56.2c-8.8,0-15.9-12-15.9-21.9c0-0.6,0-1.3,0-1.9l2.6,2.5
		c1.1,1.1,2.9,1.2,4.1,0.2c1.9-1.5,5.4-2.6,9.3-2.6c3.9,0,7.4,1,9.3,2.6c1.2,1,3,0.9,4.1-0.2l2.3-2.2c0,0.5,0,1,0,1.6
		C65.9,44.2,58.8,56.2,50,56.2z"/>
</g>
</svg>
