<svg id="图层_1" xmlns="http://www.w3.org/2000/svg" viewBox="0 0 100 100"><style>.st0{fill:#fff}</style><g id="XMLID_2_"><path id="XMLID_16_" class="st0" d="M39.1 59.4v8.8c0 2.9 2.3 5.2 5.2 5.2h11.4c2.9 0 5.2-2.3 5.2-5.2v-8.8c-3.2 2.4-6.9 3.8-10.9 3.8s-7.7-1.4-10.9-3.8z"/><path id="XMLID_13_" class="st0" d="M67.2 58.5v14.8c1.3 0 2.4 1.1 2.4 2.4v18.5H78c2.4 0 4.3-2 4.3-4.3v-12c0-9.2-6.2-17.2-15.1-19.4z"/><path id="XMLID_10_" class="st0" d="M17.7 77.9v12c0 2.4 1.9 4.3 4.3 4.3h8.4V75.8c0-1.4 1.1-2.4 2.4-2.4V58.6c-8.9 2.1-15.1 10.1-15.1 19.3z"/><path id="XMLID_3_" class="st0" d="M72.6 38.8c.3-4.1-1-5.9-2.7-6.6 0-.7.3-3.5.3-4.2 0-9.4-8.7-18.3-16.8-20.3.1-.1.1-.3.1-.4 0-1-1.4-1.8-3.2-1.8S47 6.3 47 7.2c0 .2 0 .3.1.5-7.6 2.1-16.8 10.9-16.8 20.2 0 .6 0 1.1.1 1.7-.1.8-.1 1.7-.2 2.7-1.6.8-2.8 2.6-2.5 6.5.3 4.1 2.4 6 4.6 6.6 3.2 8.2 9.8 14.8 17.7 14.8 7.9 0 14.5-6.6 17.7-14.8 2.4-.4 4.5-2.4 4.9-6.6zM50 56.2c-8.8 0-15.9-12-15.9-21.9v-1.9l2.6 2.5c1.1 1.1 2.9 1.2 4.1.2 1.9-1.5 5.4-2.6 9.3-2.6 3.9 0 7.4 1 9.3 2.6 1.2 1 3 .9 4.1-.2l2.3-2.2v1.6c.1 9.9-7 21.9-15.8 21.9z"/></g></svg>