<svg xmlns="http://www.w3.org/2000/svg" preserveAspectRatio="xMidYMid" width="32" height="36" viewBox="0 0 32 36"><defs><style>.cls-1{fill:#d3d3d3;fill-rule:evenodd}</style></defs><path d="M27.983 36.003H3.982a4 4 0 0 1-4-4V3.952a4 4 0 0 1 4-4h24.001a4 4 0 0 1 4 4v28.051a4 4 0 0 1-4 4zM8.891 18.75A2.101 2.101 0 0 0 11 16.656a2.102 2.102 0 0 0-2.109-2.094c-1.165 0-2.11.938-2.11 2.094 0 1.157.945 2.094 2.11 2.094zM23.028 2.951H3.048v.013h-.034l.012 19.981h.278L4.875 4.847l18.153-1.285v-.611z" class="cls-1"/></svg>