<?xml version="1.0" encoding="utf-8"?>
<!-- Generator: Adobe Illustrator 19.0.0, SVG Export Plug-In . SVG Version: 6.00 Build 0)  -->
<svg version="1.1" id="图层_1" xmlns="http://www.w3.org/2000/svg" xmlns:xlink="http://www.w3.org/1999/xlink" x="0px" y="0px"
	 viewBox="-221 405.9 152 30" style="enable-background:new -221 405.9 152 30;" xml:space="preserve">
<style type="text/css">
	.st0{fill:#ffffff;}
</style>
<g>
	<g>
		<path class="st0" d="M-190.1,409.7h2.8v13.9h1.4v2.3h-1.4v6h-2.8v-6.1h-6.1v-2.6L-190.1,409.7z M-190.1,423.5v-9.3l-3.7,9.4h3.7
			V423.5z"/>
		<path class="st0" d="M-173.8,421c0,4-0.4,6.9-1.1,8.7c-0.8,1.7-2,2.6-3.9,2.6c-1.8,0-3.1-0.9-3.9-2.6s-1.1-4.6-1.1-8.8
			c0-4.2,0.4-7.1,1.1-8.8c0.8-1.7,2-2.6,3.9-2.6c1.7,0,2.9,0.8,3.7,2.3C-174.2,413.3-173.8,416.4-173.8,421z M-176.8,421
			c0-3.4-0.1-5.7-0.4-7c-0.3-1.3-0.8-1.9-1.6-1.9s-1.3,0.6-1.6,1.9c-0.3,1.3-0.4,3.6-0.4,6.9c0,3.3,0.1,5.6,0.4,6.9
			c0.3,1.3,0.8,1.9,1.6,1.9c0.7,0,1.3-0.6,1.6-1.9C-177,426.5-176.8,424.3-176.8,421z"/>
		<path class="st0" d="M-161.6,421c0,4-0.4,6.9-1.1,8.7c-0.8,1.7-2,2.6-3.9,2.6c-1.8,0-3.1-0.9-3.9-2.6s-1.1-4.6-1.1-8.8
			c0-4.2,0.4-7.1,1.1-8.8c0.8-1.7,2-2.6,3.9-2.6c1.7,0,2.9,0.8,3.7,2.3C-162,413.3-161.6,416.4-161.6,421z M-164.7,421
			c0-3.4-0.1-5.7-0.4-7c-0.3-1.3-0.8-1.9-1.6-1.9s-1.3,0.6-1.6,1.9c-0.3,1.3-0.4,3.6-0.4,6.9c0,3.3,0.1,5.6,0.4,6.9
			c0.3,1.3,0.8,1.9,1.6,1.9c0.7,0,1.3-0.6,1.6-1.9C-164.8,426.5-164.7,424.3-164.7,421z"/>
		<path class="st0" d="M-160.5,423.2h5.2v2.3h-5.2C-160.5,425.5-160.5,423.2-160.5,423.2z"/>
		<path class="st0" d="M-147,419.8c1,0.4,1.7,0.9,2.1,1.7c0.4,0.8,0.6,2.1,0.6,3.9c0,2.3-0.4,4-1.2,5.1c-0.8,1.1-2,1.6-3.6,1.6
			c-1.7,0-2.9-0.5-3.6-1.6c-0.8-1.1-1.2-2.8-1.2-5.1c0-1.8,0.2-3.1,0.6-3.9c0.4-0.8,1.1-1.4,2.1-1.7c-0.9-0.4-1.5-1-1.9-1.7
			c-0.4-0.8-0.5-1.9-0.5-3.3c0-1,0.1-1.8,0.3-2.5c0.2-0.7,0.5-1.3,0.8-1.7c0.4-0.4,0.8-0.8,1.4-1c0.6-0.2,1.3-0.3,2.1-0.3
			c0.8,0,1.5,0.1,2.1,0.3c0.6,0.2,1,0.5,1.4,1c0.4,0.4,0.6,1,0.8,1.7c0,0.8,0.1,1.6,0.1,2.6c0,1.4-0.2,2.5-0.5,3.3
			C-145.5,418.9-146.2,419.5-147,419.8z M-147.4,425.8c0-0.8,0-1.4-0.1-2s-0.2-1-0.3-1.4c-0.2-0.3-0.3-0.6-0.6-0.8
			c-0.2-0.2-0.5-0.2-0.8-0.2c-0.6,0-1.1,0.3-1.4,1c-0.3,0.7-0.4,1.7-0.4,3.2c0,2.6,0.6,3.9,1.9,3.9
			C-148,429.6-147.4,428.3-147.4,425.8z M-147.6,415.1c0-2.1-0.6-3.1-1.7-3.1c-1.1,0-1.6,1-1.6,3.1c0,2.3,0.6,3.5,1.7,3.5
			C-148.1,418.5-147.6,417.4-147.6,415.1z"/>
		<path class="st0" d="M-134.9,419.8c1,0.4,1.7,0.9,2.1,1.7c0.4,0.8,0.6,2.1,0.6,3.9c0,2.3-0.4,4-1.2,5.1c-0.8,1.1-2,1.6-3.6,1.6
			c-1.7,0-2.9-0.5-3.6-1.6c-0.8-1.1-1.2-2.8-1.2-5.1c0-1.8,0.2-3.1,0.6-3.9c0.4-0.8,1.1-1.4,2.1-1.7c-0.9-0.4-1.5-1-1.9-1.7
			c-0.4-0.8-0.5-1.9-0.5-3.3c0-1,0.1-1.8,0.3-2.5c0.2-0.7,0.5-1.3,0.8-1.7c0.4-0.4,0.8-0.8,1.4-1c0.6-0.2,1.3-0.3,2.1-0.3
			s1.5,0.1,2.1,0.3c0.6,0.2,1,0.5,1.4,1c0.4,0.4,0.6,1,0.8,1.7c0.1,0.8,0.1,1.6,0.1,2.6c0,1.4-0.2,2.5-0.5,3.3
			C-133.4,418.9-134,419.5-134.9,419.8z M-135.2,425.8c0-0.8,0-1.4-0.1-2c-0.1-0.6-0.2-1-0.3-1.4c-0.2-0.3-0.3-0.6-0.6-0.8
			c-0.2-0.2-0.5-0.2-0.8-0.2c-0.6,0-1.1,0.3-1.4,1c-0.3,0.7-0.4,1.7-0.4,3.2c0,2.6,0.6,3.9,1.9,3.9
			C-135.8,429.6-135.2,428.3-135.2,425.8z M-135.4,415.1c0-2.1-0.6-3.1-1.7-3.1c-1.1,0-1.6,1-1.6,3.1c0,2.3,0.6,3.5,1.7,3.5
			C-135.9,418.5-135.4,417.4-135.4,415.1z"/>
		<path class="st0" d="M-122.7,419.8c1,0.4,1.7,0.9,2.1,1.7c0.4,0.8,0.6,2.1,0.6,3.9c0,2.3-0.4,4-1.2,5.1c-0.8,1.1-2,1.6-3.6,1.6
			c-1.7,0-2.9-0.5-3.6-1.6c-0.8-1.1-1.2-2.8-1.2-5.1c0-1.8,0.2-3.1,0.6-3.9c0.4-0.8,1.1-1.4,2.1-1.7c-0.9-0.4-1.5-1-1.9-1.7
			c-0.4-0.8-0.5-1.9-0.5-3.3c0-1,0.1-1.8,0.3-2.5c0.2-0.7,0.5-1.3,0.8-1.7c0.4-0.4,0.8-0.8,1.4-1c0.6-0.2,1.3-0.3,2.1-0.3
			c0.8,0,1.5,0.1,2.1,0.3c0.6,0.2,1,0.5,1.4,1c0.4,0.4,0.6,1,0.8,1.7c0.2,0.7,0.3,1.5,0.3,2.5c0,1.4-0.2,2.5-0.5,3.3
			C-121.2,418.9-121.8,419.5-122.7,419.8z M-123,425.8c0-0.8,0-1.4-0.1-2s-0.2-1-0.3-1.4c-0.2-0.3-0.3-0.6-0.6-0.8
			c-0.2-0.2-0.5-0.2-0.8-0.2c-0.6,0-1.1,0.3-1.4,1c-0.3,0.7-0.4,1.7-0.4,3.2c0,2.6,0.6,3.9,1.9,3.9
			C-123.6,429.6-123,428.3-123,425.8z M-123.2,415.1c0-2.1-0.6-3.1-1.7-3.1s-1.6,1-1.6,3.1c0,2.3,0.6,3.5,1.7,3.5
			C-123.8,418.5-123.2,417.4-123.2,415.1z"/>
		<path class="st0" d="M-118.8,423.2h5.2v2.3h-5.2V423.2z"/>
		<path class="st0" d="M-107.3,431.9h-3.2l2.1-4.3c0.4-0.8,0.8-1.6,1.1-2.4c0.4-0.8,0.7-1.7,1.1-2.6c-0.7,0.6-1.5,0.9-2.3,0.9
			c-1.3,0-2.3-0.5-2.9-1.6c-0.6-1.1-0.9-2.7-0.9-5c0-2.7,0.4-4.6,1.1-5.8c0.7-1.2,1.9-1.7,3.6-1.7s2.9,0.6,3.7,1.8s1.1,3.1,1.1,5.9
			c0,2-0.2,3.9-0.7,5.6c-0.2,0.8-0.5,1.8-0.9,2.8s-0.9,2.2-1.5,3.5l-1.2,2.4L-107.3,431.9z M-105.6,416.5c0-2.9-0.6-4.4-1.9-4.4
			c-1.2,0-1.9,1.4-1.9,4.3c0,1.5,0.1,2.6,0.4,3.3s0.8,1,1.4,1c0.7,0,1.1-0.3,1.4-1C-105.8,419.1-105.6,418-105.6,416.5z"/>
		<path class="st0" d="M-99.9,409.7h5.1v22.2h-2.9v-19.7h-2.2V409.7z"/>
		<path class="st0" d="M-86,431.9h-3.2l2.1-4.3c0.4-0.8,0.8-1.6,1.1-2.4c0.4-0.8,0.7-1.7,1.1-2.6c-0.7,0.6-1.5,0.9-2.3,0.9
			c-1.3,0-2.3-0.5-2.9-1.6c-0.6-1.1-0.9-2.7-0.9-5c0-2.7,0.4-4.6,1.1-5.8c0.7-1.2,1.9-1.7,3.6-1.7c1.7,0,2.9,0.6,3.7,1.8
			c0.7,1.2,1.1,3.1,1.1,5.9c0,2-0.2,3.9-0.7,5.6c-0.2,0.8-0.5,1.8-0.9,2.8s-0.9,2.2-1.5,3.5l-1.2,2.4L-86,431.9z M-84.3,416.5
			c0-2.9-0.6-4.4-1.9-4.4c-1.2,0-1.9,1.4-1.9,4.3c0,1.5,0.1,2.6,0.4,3.3c0.3,0.7,0.8,1,1.4,1c0.7,0,1.1-0.3,1.4-1
			C-84.5,419.1-84.3,418-84.3,416.5z"/>
		<path class="st0" d="M-75.7,416.9h-2.9V416c0-2.4,0.4-4.1,1.1-5.1c0.7-1,2-1.5,3.7-1.5c3.3,0,4.9,1.8,4.9,5.5
			c0,2.5-1.2,6-3.7,10.6l-1.8,3.3c0,0,0,0.1-0.1,0.2c0,0.1-0.1,0.2-0.2,0.4h5.5v2.5H-79c0.2-0.4,0.5-1.1,1-2.2s1.2-2.6,2.1-4.4
			c0.8-1.6,1.4-3,1.9-4.1s0.9-2.1,1.1-2.8c0.5-1.4,0.8-2.7,0.8-3.7c0-1.8-0.6-2.8-1.9-2.8c-1.2,0-1.8,1.1-1.8,3.4v1.3L-75.7,416.9z"
			/>
	</g>
	<path id="XMLID_1_" class="st0" d="M-219.9,411l2.8-2.1c0,0,1.9-1.3,3.3,0.7c1.6,2.3,2.7,4.2,2.7,4.2s0.9,1.3-0.4,2.4
		s-1.1,0.8-1.5,1.2c-0.3,0.3-0.5,0.8,0.1,1.8c0.6,1.1,4.4,5.3,4.4,5.3s0.7,0.7,1.5,0.2c1-0.7,1.3-0.9,1.3-0.9s1.2-1,2.5,0.3
		c1.3,1.2,3.2,3.2,3.2,3.2s1.7,1.3,0.2,3.1c-1.7,2.1-2.1,2.3-2.1,2.3s-2.2,1.7-4.7,0.1c-2.5-1.5-10.4-8.7-13.6-16.1
		C-221.9,412.6-220.6,411.9-219.9,411z"/>
</g>
</svg>
