<svg id="图层_1" xmlns="http://www.w3.org/2000/svg" viewBox="-221 405.9 152 30"><style>.st0{fill:#fff}</style><path class="st0" d="M-190.1 409.7h2.8v13.9h1.4v2.3h-1.4v6h-2.8v-6.1h-6.1v-2.6l6.1-13.5zm0 13.8v-9.3l-3.7 9.4h3.7v-.1zm16.3-2.5c0 4-.4 6.9-1.1 8.7-.8 1.7-2 2.6-3.9 2.6-1.8 0-3.1-.9-3.9-2.6s-1.1-4.6-1.1-8.8c0-4.2.4-7.1 1.1-8.8.8-1.7 2-2.6 3.9-2.6 1.7 0 2.9.8 3.7 2.3.9 1.5 1.3 4.6 1.3 9.2zm-3 0c0-3.4-.1-5.7-.4-7-.3-1.3-.8-1.9-1.6-1.9s-1.3.6-1.6 1.9c-.3 1.3-.4 3.6-.4 6.9 0 3.3.1 5.6.4 6.9.3 1.3.8 1.9 1.6 1.9.7 0 1.3-.6 1.6-1.9.2-1.3.4-3.5.4-6.8zm15.2 0c0 4-.4 6.9-1.1 8.7-.8 1.7-2 2.6-3.9 2.6-1.8 0-3.1-.9-3.9-2.6s-1.1-4.6-1.1-8.8c0-4.2.4-7.1 1.1-8.8.8-1.7 2-2.6 3.9-2.6 1.7 0 2.9.8 3.7 2.3.9 1.5 1.3 4.6 1.3 9.2zm-3.1 0c0-3.4-.1-5.7-.4-7-.3-1.3-.8-1.9-1.6-1.9s-1.3.6-1.6 1.9c-.3 1.3-.4 3.6-.4 6.9 0 3.3.1 5.6.4 6.9.3 1.3.8 1.9 1.6 1.9.7 0 1.3-.6 1.6-1.9.3-1.3.4-3.5.4-6.8zm4.2 2.2h5.2v2.3h-5.2v-2.3zm13.5-3.4c1 .4 1.7.9 2.1 1.7.4.8.6 2.1.6 3.9 0 2.3-.4 4-1.2 5.1-.8 1.1-2 1.6-3.6 1.6-1.7 0-2.9-.5-3.6-1.6-.8-1.1-1.2-2.8-1.2-5.1 0-1.8.2-3.1.6-3.9.4-.8 1.1-1.4 2.1-1.7-.9-.4-1.5-1-1.9-1.7-.4-.8-.5-1.9-.5-3.3 0-1 .1-1.8.3-2.5.2-.7.5-1.3.8-1.7.4-.4.8-.8 1.4-1 .6-.2 1.3-.3 2.1-.3s1.5.1 2.1.3c.6.2 1 .5 1.4 1 .4.4.6 1 .8 1.7 0 .8.1 1.6.1 2.6 0 1.4-.2 2.5-.5 3.3-.4.7-1.1 1.3-1.9 1.6zm-.4 6c0-.8 0-1.4-.1-2s-.2-1-.3-1.4c-.2-.3-.3-.6-.6-.8-.2-.2-.5-.2-.8-.2-.6 0-1.1.3-1.4 1-.3.7-.4 1.7-.4 3.2 0 2.6.6 3.9 1.9 3.9 1.1.1 1.7-1.2 1.7-3.7zm-.2-10.7c0-2.1-.6-3.1-1.7-3.1s-1.6 1-1.6 3.1c0 2.3.6 3.5 1.7 3.5 1.1-.1 1.6-1.2 1.6-3.5zm12.7 4.7c1 .4 1.7.9 2.1 1.7.4.8.6 2.1.6 3.9 0 2.3-.4 4-1.2 5.1-.8 1.1-2 1.6-3.6 1.6-1.7 0-2.9-.5-3.6-1.6-.8-1.1-1.2-2.8-1.2-5.1 0-1.8.2-3.1.6-3.9.4-.8 1.1-1.4 2.1-1.7-.9-.4-1.5-1-1.9-1.7-.4-.8-.5-1.9-.5-3.3 0-1 .1-1.8.3-2.5.2-.7.5-1.3.8-1.7.4-.4.8-.8 1.4-1 .6-.2 1.3-.3 2.1-.3s1.5.1 2.1.3c.6.2 1 .5 1.4 1 .4.4.6 1 .8 1.7.1.8.1 1.6.1 2.6 0 1.4-.2 2.5-.5 3.3-.4.7-1 1.3-1.9 1.6zm-.3 6c0-.8 0-1.4-.1-2-.1-.6-.2-1-.3-1.4-.2-.3-.3-.6-.6-.8-.2-.2-.5-.2-.8-.2-.6 0-1.1.3-1.4 1-.3.7-.4 1.7-.4 3.2 0 2.6.6 3.9 1.9 3.9 1.1.1 1.7-1.2 1.7-3.7zm-.2-10.7c0-2.1-.6-3.1-1.7-3.1s-1.6 1-1.6 3.1c0 2.3.6 3.5 1.7 3.5 1.1-.1 1.6-1.2 1.6-3.5zm12.7 4.7c1 .4 1.7.9 2.1 1.7.4.8.6 2.1.6 3.9 0 2.3-.4 4-1.2 5.1-.8 1.1-2 1.6-3.6 1.6-1.7 0-2.9-.5-3.6-1.6-.8-1.1-1.2-2.8-1.2-5.1 0-1.8.2-3.1.6-3.9.4-.8 1.1-1.4 2.1-1.7-.9-.4-1.5-1-1.9-1.7-.4-.8-.5-1.9-.5-3.3 0-1 .1-1.8.3-2.5.2-.7.5-1.3.8-1.7.4-.4.8-.8 1.4-1 .6-.2 1.3-.3 2.1-.3s1.5.1 2.1.3c.6.2 1 .5 1.4 1 .4.4.6 1 .8 1.7.2.7.3 1.5.3 2.5 0 1.4-.2 2.5-.5 3.3-.6.8-1.2 1.4-2.1 1.7zm-.3 6c0-.8 0-1.4-.1-2s-.2-1-.3-1.4c-.2-.3-.3-.6-.6-.8-.2-.2-.5-.2-.8-.2-.6 0-1.1.3-1.4 1-.3.7-.4 1.7-.4 3.2 0 2.6.6 3.9 1.9 3.9 1.1.1 1.7-1.2 1.7-3.7zm-.2-10.7c0-2.1-.6-3.1-1.7-3.1s-1.6 1-1.6 3.1c0 2.3.6 3.5 1.7 3.5 1-.1 1.6-1.2 1.6-3.5zm4.4 8.1h5.2v2.3h-5.2v-2.3zm11.5 8.7h-3.2l2.1-4.3c.4-.8.8-1.6 1.1-2.4.4-.8.7-1.7 1.1-2.6-.7.6-1.5.9-2.3.9-1.3 0-2.3-.5-2.9-1.6-.6-1.1-.9-2.7-.9-5 0-2.7.4-4.6 1.1-5.8.7-1.2 1.9-1.7 3.6-1.7s2.9.6 3.7 1.8 1.1 3.1 1.1 5.9c0 2-.2 3.9-.7 5.6-.2.8-.5 1.8-.9 2.8s-.9 2.2-1.5 3.5l-1.2 2.4-.2.5zm1.7-15.4c0-2.9-.6-4.4-1.9-4.4-1.2 0-1.9 1.4-1.9 4.3 0 1.5.1 2.6.4 3.3s.8 1 1.4 1c.7 0 1.1-.3 1.4-1 .4-.6.6-1.7.6-3.2zm5.7-6.8h5.1v22.2h-2.9v-19.7h-2.2v-2.5zm13.9 22.2h-3.2l2.1-4.3c.4-.8.8-1.6 1.1-2.4.4-.8.7-1.7 1.1-2.6-.7.6-1.5.9-2.3.9-1.3 0-2.3-.5-2.9-1.6-.6-1.1-.9-2.7-.9-5 0-2.7.4-4.6 1.1-5.8.7-1.2 1.9-1.7 3.6-1.7 1.7 0 2.9.6 3.7 1.8.7 1.2 1.1 3.1 1.1 5.9 0 2-.2 3.9-.7 5.6-.2.8-.5 1.8-.9 2.8s-.9 2.2-1.5 3.5l-1.2 2.4-.2.5zm1.7-15.4c0-2.9-.6-4.4-1.9-4.4-1.2 0-1.9 1.4-1.9 4.3 0 1.5.1 2.6.4 3.3.3.7.8 1 1.4 1 .7 0 1.1-.3 1.4-1 .4-.6.6-1.7.6-3.2zm8.6.4h-2.9v-.9c0-2.4.4-4.1 1.1-5.1.7-1 2-1.5 3.7-1.5 3.3 0 4.9 1.8 4.9 5.5 0 2.5-1.2 6-3.7 10.6l-1.8 3.3s0 .1-.1.2c0 .1-.1.2-.2.4h5.5v2.5H-79c.2-.4.5-1.1 1-2.2s1.2-2.6 2.1-4.4c.8-1.6 1.4-3 1.9-4.1s.9-2.1 1.1-2.8c.5-1.4.8-2.7.8-3.7 0-1.8-.6-2.8-1.9-2.8-1.2 0-1.8 1.1-1.8 3.4v1.3l.1.3z"/><path id="XMLID_1_" class="st0" d="M-219.9 411l2.8-2.1s1.9-1.3 3.3.7c1.6 2.3 2.7 4.2 2.7 4.2s.9 1.3-.4 2.4-1.1.8-1.5 1.2c-.3.3-.5.8.1 1.8.6 1.1 4.4 5.3 4.4 5.3s.7.7 1.5.2c1-.7 1.3-.9 1.3-.9s1.2-1 2.5.3c1.3 1.2 3.2 3.2 3.2 3.2s1.7 1.3.2 3.1c-1.7 2.1-2.1 2.3-2.1 2.3s-2.2 1.7-4.7.1c-2.5-1.5-10.4-8.7-13.6-16.1-1.7-4.1-.4-4.8.3-5.7z"/></svg>