<?xml version="1.0" encoding="utf-8"?>
<!-- Generator: Adobe Illustrator 19.0.0, SVG Export Plug-In . SVG Version: 6.00 Build 0)  -->
<svg version="1.1" id="图层_1" xmlns="http://www.w3.org/2000/svg" xmlns:xlink="http://www.w3.org/1999/xlink" x="0px" y="0px"
	 viewBox="0 0 152 30" style="enable-background:new 0 0 152 30;" xml:space="preserve">
<style type="text/css">
	.st0{fill:#140604;}
</style>
<g>
	<g>
		<path class="st0" d="M30.9,3.8h2.8v13.9h1.4v2.3h-1.4V26h-2.8v-6.1h-6.1v-2.6L30.9,3.8z M30.9,17.6V8.3l-3.7,9.4H30.9z"/>
		<path class="st0" d="M47.2,15.1c0,4-0.4,6.9-1.1,8.7c-0.8,1.7-2,2.6-3.9,2.6c-1.8,0-3.1-0.9-3.9-2.6c-0.8-1.7-1.1-4.6-1.1-8.8
			c0-4.2,0.4-7.1,1.1-8.8c0.8-1.7,2-2.6,3.9-2.6c1.7,0,2.9,0.8,3.7,2.3C46.8,7.4,47.2,10.5,47.2,15.1z M44.2,15.1
			c0-3.4-0.1-5.7-0.4-7c-0.3-1.3-0.8-1.9-1.6-1.9c-0.8,0-1.3,0.6-1.6,1.9c-0.3,1.3-0.4,3.6-0.4,6.9c0,3.3,0.1,5.6,0.4,6.9
			c0.3,1.3,0.8,1.9,1.6,1.9c0.7,0,1.3-0.6,1.6-1.9C44,20.6,44.2,18.4,44.2,15.1z"/>
		<path class="st0" d="M59.4,15.1c0,4-0.4,6.9-1.1,8.7c-0.8,1.7-2,2.6-3.9,2.6c-1.8,0-3.1-0.9-3.9-2.6c-0.8-1.7-1.1-4.6-1.1-8.8
			c0-4.2,0.4-7.1,1.1-8.8c0.8-1.7,2-2.6,3.9-2.6c1.7,0,2.9,0.8,3.7,2.3C59,7.4,59.4,10.5,59.4,15.1z M56.3,15.1c0-3.4-0.1-5.7-0.4-7
			c-0.3-1.3-0.8-1.9-1.6-1.9s-1.3,0.6-1.6,1.9c-0.3,1.3-0.4,3.6-0.4,6.9c0,3.3,0.1,5.6,0.4,6.9c0.3,1.3,0.8,1.9,1.6,1.9
			c0.7,0,1.3-0.6,1.6-1.9C56.2,20.6,56.3,18.4,56.3,15.1z"/>
		<path class="st0" d="M60.5,17.3h5.2v2.3h-5.2V17.3z"/>
		<path class="st0" d="M74,13.9c1,0.4,1.7,0.9,2.1,1.7s0.6,2.1,0.6,3.9c0,2.3-0.4,4-1.2,5.1c-0.8,1.1-2,1.6-3.6,1.6
			c-1.7,0-2.9-0.5-3.6-1.6c-0.8-1.1-1.2-2.8-1.2-5.1c0-1.8,0.2-3.1,0.6-3.9c0.4-0.8,1.1-1.4,2.1-1.7c-0.9-0.4-1.5-1-1.9-1.7
			c-0.4-0.8-0.5-1.9-0.5-3.3c0-1,0.1-1.8,0.3-2.5c0.2-0.7,0.5-1.3,0.8-1.7c0.4-0.4,0.8-0.8,1.4-1c0.6-0.2,1.3-0.3,2.1-0.3
			s1.5,0.1,2.1,0.3s1,0.5,1.4,1c0.4,0.4,0.6,1,0.8,1.7C76.3,7.2,76.4,8,76.4,9c0,1.4-0.2,2.5-0.5,3.3C75.5,13,74.8,13.6,74,13.9z
			 M73.6,19.9c0-0.8,0-1.4-0.1-2c-0.1-0.6-0.2-1-0.3-1.4c-0.2-0.3-0.3-0.6-0.6-0.8c-0.2-0.2-0.5-0.2-0.8-0.2c-0.6,0-1.1,0.3-1.4,1
			c-0.3,0.7-0.4,1.7-0.4,3.2c0,2.6,0.6,3.9,1.9,3.9C73,23.7,73.6,22.4,73.6,19.9z M73.4,9.2c0-2.1-0.6-3.1-1.7-3.1
			c-1.1,0-1.6,1-1.6,3.1c0,2.3,0.6,3.5,1.7,3.5C72.9,12.6,73.4,11.5,73.4,9.2z"/>
		<path class="st0" d="M86.1,13.9c1,0.4,1.7,0.9,2.1,1.7c0.4,0.8,0.6,2.1,0.6,3.9c0,2.3-0.4,4-1.2,5.1c-0.8,1.1-2,1.6-3.6,1.6
			c-1.7,0-2.9-0.5-3.6-1.6c-0.8-1.1-1.2-2.8-1.2-5.1c0-1.8,0.2-3.1,0.6-3.9s1.1-1.4,2.1-1.7c-0.9-0.4-1.5-1-1.9-1.7
			c-0.4-0.8-0.5-1.9-0.5-3.3c0-1,0.1-1.8,0.3-2.5s0.5-1.3,0.8-1.7c0.4-0.4,0.8-0.8,1.4-1c0.6-0.2,1.3-0.3,2.1-0.3s1.5,0.1,2.1,0.3
			s1,0.5,1.4,1c0.4,0.4,0.6,1,0.8,1.7C88.5,7.2,88.5,8,88.5,9c0,1.4-0.2,2.5-0.5,3.3C87.6,13,87,13.6,86.1,13.9z M85.8,19.9
			c0-0.8,0-1.4-0.1-2c-0.1-0.6-0.2-1-0.3-1.4c-0.2-0.3-0.3-0.6-0.6-0.8c-0.2-0.2-0.5-0.2-0.8-0.2c-0.6,0-1.1,0.3-1.4,1
			c-0.3,0.7-0.4,1.7-0.4,3.2c0,2.6,0.6,3.9,1.9,3.9C85.2,23.7,85.8,22.4,85.8,19.9z M85.6,9.2c0-2.1-0.6-3.1-1.7-3.1
			c-1.1,0-1.6,1-1.6,3.1c0,2.3,0.6,3.5,1.7,3.5C85.1,12.6,85.6,11.5,85.6,9.2z"/>
		<path class="st0" d="M98.3,13.9c1,0.4,1.7,0.9,2.1,1.7c0.4,0.8,0.6,2.1,0.6,3.9c0,2.3-0.4,4-1.2,5.1c-0.8,1.1-2,1.6-3.6,1.6
			c-1.7,0-2.9-0.5-3.6-1.6c-0.8-1.1-1.2-2.8-1.2-5.1c0-1.8,0.2-3.1,0.6-3.9s1.1-1.4,2.1-1.7c-0.9-0.4-1.5-1-1.9-1.7
			c-0.4-0.8-0.5-1.9-0.5-3.3c0-1,0.1-1.8,0.3-2.5c0.2-0.7,0.5-1.3,0.8-1.7c0.4-0.4,0.8-0.8,1.4-1c0.6-0.2,1.3-0.3,2.1-0.3
			c0.8,0,1.5,0.1,2.1,0.3c0.6,0.2,1,0.5,1.4,1c0.4,0.4,0.6,1,0.8,1.7c0.2,0.7,0.3,1.5,0.3,2.5c0,1.4-0.2,2.5-0.5,3.3
			C99.8,13,99.2,13.6,98.3,13.9z M98,19.9c0-0.8,0-1.4-0.1-2c-0.1-0.6-0.2-1-0.3-1.4c-0.2-0.3-0.3-0.6-0.6-0.8
			c-0.2-0.2-0.5-0.2-0.8-0.2c-0.6,0-1.1,0.3-1.4,1c-0.3,0.7-0.4,1.7-0.4,3.2c0,2.6,0.6,3.9,1.9,3.9C97.4,23.7,98,22.4,98,19.9z
			 M97.8,9.2c0-2.1-0.6-3.1-1.7-3.1c-1.1,0-1.6,1-1.6,3.1c0,2.3,0.6,3.5,1.7,3.5C97.2,12.6,97.8,11.5,97.8,9.2z"/>
		<path class="st0" d="M102.2,17.3h5.2v2.3h-5.2V17.3z"/>
		<path class="st0" d="M113.7,26h-3.2l2.1-4.3c0.4-0.8,0.8-1.6,1.1-2.4c0.4-0.8,0.7-1.7,1.1-2.6c-0.7,0.6-1.5,0.9-2.3,0.9
			c-1.3,0-2.3-0.5-2.9-1.6c-0.6-1.1-0.9-2.7-0.9-5c0-2.7,0.4-4.6,1.1-5.8c0.7-1.2,1.9-1.7,3.6-1.7c1.7,0,2.9,0.6,3.7,1.8
			s1.1,3.1,1.1,5.9c0,2-0.2,3.9-0.7,5.6c-0.2,0.8-0.5,1.8-0.9,2.8c-0.4,1-0.9,2.2-1.5,3.5l-1.2,2.4L113.7,26z M115.4,10.6
			c0-2.9-0.6-4.4-1.9-4.4c-1.2,0-1.9,1.4-1.9,4.3c0,1.5,0.1,2.6,0.4,3.3c0.3,0.7,0.8,1,1.4,1c0.7,0,1.1-0.3,1.4-1
			C115.2,13.2,115.4,12.1,115.4,10.6z"/>
		<path class="st0" d="M121.1,3.8h5.1V26h-2.9V6.3h-2.2V3.8z"/>
		<path class="st0" d="M135,26h-3.2l2.1-4.3c0.4-0.8,0.8-1.6,1.1-2.4c0.4-0.8,0.7-1.7,1.1-2.6c-0.7,0.6-1.5,0.9-2.3,0.9
			c-1.3,0-2.3-0.5-2.9-1.6c-0.6-1.1-0.9-2.7-0.9-5c0-2.7,0.4-4.6,1.1-5.8s1.9-1.7,3.6-1.7c1.7,0,2.9,0.6,3.7,1.8
			c0.7,1.2,1.1,3.1,1.1,5.9c0,2-0.2,3.9-0.7,5.6c-0.2,0.8-0.5,1.8-0.9,2.8c-0.4,1-0.9,2.2-1.5,3.5l-1.2,2.4L135,26z M136.7,10.6
			c0-2.9-0.6-4.4-1.9-4.4c-1.2,0-1.9,1.4-1.9,4.3c0,1.5,0.1,2.6,0.4,3.3c0.3,0.7,0.8,1,1.4,1c0.7,0,1.1-0.3,1.4-1
			C136.5,13.2,136.7,12.1,136.7,10.6z"/>
		<path class="st0" d="M145.3,11h-2.9l0-0.9c0-2.4,0.4-4.1,1.1-5.1c0.7-1,2-1.5,3.7-1.5c3.3,0,4.9,1.8,4.9,5.5c0,2.5-1.2,6-3.7,10.6
			l-1.8,3.3c0,0,0,0.1-0.1,0.2c0,0.1-0.1,0.2-0.2,0.4h5.5V26H142c0.2-0.4,0.5-1.1,1-2.2c0.5-1.1,1.2-2.6,2.1-4.4
			c0.8-1.6,1.4-3,1.9-4.1c0.5-1.1,0.9-2.1,1.1-2.8c0.5-1.4,0.8-2.7,0.8-3.7c0-1.8-0.6-2.8-1.9-2.8c-1.2,0-1.8,1.1-1.8,3.4l0,1.3
			L145.3,11z"/>
	</g>
	<path id="XMLID_1_" class="st0" d="M1.1,5.1L3.9,3c0,0,1.9-1.3,3.3,0.7C8.8,6,9.9,7.9,9.9,7.9s0.9,1.3-0.4,2.4s-1.1,0.8-1.5,1.2
		c-0.3,0.3-0.5,0.8,0.1,1.8c0.6,1.1,4.4,5.3,4.4,5.3s0.7,0.7,1.5,0.2c1-0.7,1.3-0.9,1.3-0.9s1.2-1,2.5,0.3c1.3,1.2,3.2,3.2,3.2,3.2
		s1.7,1.3,0.2,3.1c-1.7,2.1-2.1,2.3-2.1,2.3s-2.2,1.7-4.7,0.1C11.9,25.4,4,18.2,0.8,10.8C-0.9,6.7,0.4,6,1.1,5.1z"/>
</g>
</svg>
