<svg id="图层_1" xmlns="http://www.w3.org/2000/svg" viewBox="0 0 152 30"><style>.st0{fill:#eac926}</style><g id="XMLID_2_"><path id="XMLID_35_" class="st0" d="M21.1 5.1h2.5v12.3h1.3v2h-1.3v5.4h-2.5v-5.4h-5.4v-2.3l5.4-12zm0 12.3V9.1l-3.3 8.3h3.3z"/><path id="XMLID_32_" class="st0" d="M35.6 15.2c0 3.6-.3 6.1-1 7.7-.7 1.5-1.8 2.3-3.4 2.3s-2.8-.8-3.5-2.3c-.7-1.5-1-4.1-1-7.8s.3-6.3 1-7.8S29.5 5 31.1 5c1.5 0 2.6.7 3.3 2 .9 1.3 1.2 4.1 1.2 8.2zm-2.7 0c0-3-.1-5.1-.4-6.2-.3-1.1-.7-1.7-1.4-1.7S30 7.9 29.7 9c-.3 1.1-.4 3.2-.4 6.1 0 2.9.1 5 .4 6.1.3 1.1.7 1.7 1.4 1.7s1.1-.6 1.4-1.7c.3-1.1.4-3.1.4-6z"/><path id="XMLID_29_" class="st0" d="M46.5 15.2c0 3.6-.3 6.1-1 7.7-.7 1.5-1.8 2.3-3.4 2.3s-2.8-.8-3.5-2.3c-.7-1.5-1-4.1-1-7.8s.3-6.3 1-7.8S40.4 5 42 5c1.5 0 2.6.7 3.3 2 .8 1.3 1.2 4.1 1.2 8.2zm-2.7 0c0-3-.1-5.1-.4-6.2-.3-1.1-.7-1.7-1.4-1.7s-1.1.6-1.4 1.7c-.3 1.1-.4 3.2-.4 6.1 0 2.9.1 5 .4 6.1.3 1.1.7 1.7 1.4 1.7s1.1-.6 1.4-1.7c.3-1.1.4-3.1.4-6z"/><path id="XMLID_27_" class="st0" d="M47.5 17.1h4.7v2h-4.7v-2z"/><path id="XMLID_23_" class="st0" d="M59.5 14.2c.9.3 1.5.8 1.8 1.6.3.7.5 1.9.5 3.4 0 2.1-.3 3.6-1 4.5s-1.8 1.4-3.2 1.4c-1.5 0-2.6-.5-3.2-1.4-.7-1-1-2.5-1-4.5 0-1.6.2-2.7.5-3.4.3-.7.9-1.2 1.8-1.6-.8-.3-1.3-.8-1.7-1.5-.3-.7-.5-1.7-.5-2.9 0-.8.1-1.6.2-2.2.2-.6.4-1.1.7-1.5s.8-.7 1.3-.9c.5-.2 1.1-.3 1.9-.3.7 0 1.3.1 1.8.3.6.1 1 .4 1.3.8.3.4.6.9.7 1.5.2.6.2 1.3.2 2.2 0 1.2-.2 2.2-.5 2.9-.2.7-.8 1.2-1.6 1.6zm-.3 5.3c0-.7 0-1.3-.1-1.8s-.2-.9-.3-1.2-.3-.5-.5-.7-.5-.2-.8-.2c-.6 0-1 .3-1.2.9s-.4 1.5-.4 2.9c0 2.3.6 3.4 1.7 3.4s1.6-1.1 1.6-3.3zm-.1-9.5c0-1.9-.5-2.8-1.5-2.8s-1.5.9-1.5 2.8c0 2.1.5 3.1 1.5 3.1 1-.1 1.5-1.1 1.5-3.1z"/><path id="XMLID_19_" class="st0" d="M70.4 14.2c.9.3 1.5.8 1.8 1.6.3.7.5 1.9.5 3.4 0 2.1-.3 3.6-1 4.5s-1.8 1.4-3.2 1.4c-1.5 0-2.6-.5-3.2-1.4-.7-1-1-2.5-1-4.5 0-1.6.2-2.7.5-3.4.3-.7.9-1.2 1.8-1.6-.8-.3-1.3-.8-1.7-1.5-.3-.7-.5-1.7-.5-2.9 0-.8.1-1.6.2-2.2.2-.7.4-1.2.7-1.6s.8-.7 1.3-.9c.5-.2 1.1-.3 1.9-.3.7 0 1.3.1 1.8.3.5.2.9.5 1.3.9.3.4.6.9.7 1.5.2.6.2 1.3.2 2.2 0 1.2-.2 2.2-.5 2.9-.3.7-.8 1.2-1.6 1.6zm-.3 5.3c0-.7 0-1.3-.1-1.8s-.2-.9-.3-1.2-.3-.5-.5-.7-.5-.2-.8-.2c-.6 0-1 .3-1.2.9s-.4 1.5-.4 2.9c0 2.3.6 3.4 1.7 3.4s1.6-1.1 1.6-3.3zm-.2-9.5c0-1.9-.5-2.8-1.5-2.8s-1.5.9-1.5 2.8c0 2.1.5 3.1 1.5 3.1 1-.1 1.5-1.1 1.5-3.1z"/><path id="XMLID_15_" class="st0" d="M81.3 14.2c.9.3 1.5.8 1.8 1.6.3.7.5 1.9.5 3.4 0 2.1-.3 3.6-1 4.5s-1.8 1.4-3.2 1.4c-1.5 0-2.6-.5-3.2-1.4-.7-1-1-2.5-1-4.5 0-1.6.2-2.7.5-3.4.3-.7.9-1.2 1.8-1.6-.8-.3-1.3-.8-1.7-1.5-.3-.7-.5-1.7-.5-2.9 0-.8.1-1.6.2-2.2.2-.6.4-1.1.7-1.5s.8-.7 1.3-.9c.5-.2 1.1-.3 1.8-.3s1.3.1 1.8.3c.5.2.9.5 1.3.9.3.4.6.9.7 1.5.2.6.2 1.3.2 2.2 0 1.2-.2 2.2-.5 2.9-.2.6-.7 1.1-1.5 1.5zm-.3 5.3c0-.7 0-1.3-.1-1.8s-.2-.9-.3-1.2-.3-.5-.5-.7-.5-.2-.8-.2c-.6 0-1 .3-1.2.9s-.4 1.5-.4 2.9c0 2.3.6 3.4 1.7 3.4 1 0 1.6-1.1 1.6-3.3zm-.2-9.5c0-1.9-.5-2.8-1.5-2.8s-1.5.9-1.5 2.8c0 2.1.5 3.1 1.5 3.1 1-.1 1.5-1.1 1.5-3.1z"/><path id="XMLID_13_" class="st0" d="M84.8 17.1h4.7v2h-4.7v-2z"/><path id="XMLID_10_" class="st0" d="M95 24.9h-2.8l1.9-3.8c.3-.7.7-1.4 1-2.2.3-.7.7-1.5 1-2.3-.7.5-1.3.8-2 .8-1.2 0-2-.5-2.6-1.4s-.8-2.4-.8-4.4c0-2.4.3-4.1 1-5.1s1.7-1.6 3.2-1.6c1.5 0 2.6.5 3.3 1.6s1 2.8 1 5.2c0 1.8-.2 3.5-.6 5-.2.8-.5 1.6-.8 2.5-.4.9-.8 2-1.4 3.1l-1 2.2-.4.4zm1.5-13.7c0-2.6-.6-3.9-1.7-3.9s-1.7 1.3-1.7 3.9c0 1.4.1 2.3.4 2.9.3.6.7.9 1.3.9s1-.3 1.3-.9c.3-.6.4-1.6.4-2.9z"/><path id="XMLID_8_" class="st0" d="M101.6 5.1h4.5v19.8h-2.6V7.4h-2V5.1z"/><path id="XMLID_5_" class="st0" d="M114.1 24.9h-2.8l1.9-3.8c.3-.7.7-1.4 1-2.2.3-.7.7-1.5 1-2.3-.7.5-1.3.8-2 .8-1.2 0-2-.5-2.6-1.4s-.8-2.4-.8-4.4c0-2.4.3-4.1 1-5.1s1.7-1.6 3.2-1.6c1.5 0 2.6.5 3.3 1.6s1 2.8 1 5.2c0 1.8-.2 3.5-.6 5-.2.8-.5 1.6-.8 2.5-.4.9-.8 2-1.4 3.1l-1 2.2-.4.4zm1.5-13.7c0-2.6-.6-3.9-1.7-3.9s-1.7 1.3-1.7 3.9c0 1.4.1 2.3.4 2.9.3.6.7.9 1.3.9s1-.3 1.3-.9c.2-.6.4-1.6.4-2.9z"/><path id="XMLID_3_" class="st0" d="M123.2 11.5h-2.6v-.8c0-2.2.3-3.7 1-4.6.7-.9 1.8-1.3 3.3-1.3 2.9 0 4.4 1.6 4.4 4.8 0 2.2-1.1 5.3-3.3 9.4l-1.6 3s0 .1-.1.2c0 .1-.1.2-.2.4h4.9v2.3h-8.7c.1-.3.4-1 .9-1.9.5-1 1.1-2.3 1.9-3.9.7-1.4 1.2-2.7 1.7-3.7s.8-1.8 1-2.5c.5-1.3.7-2.4.7-3.3 0-1.6-.6-2.5-1.7-2.5s-1.6 1-1.6 3.1v1.3z"/></g></svg>