<?xml version="1.0" encoding="utf-8"?>
<!-- Generator: Adobe Illustrator 19.0.0, SVG Export Plug-In . SVG Version: 6.00 Build 0)  -->
<svg version="1.1" id="图层_1" xmlns="http://www.w3.org/2000/svg" xmlns:xlink="http://www.w3.org/1999/xlink" x="0px" y="0px"
	 viewBox="-233 -26 100 100" style="enable-background:new -233 -26 100 100;" xml:space="preserve">
<style type="text/css">
	.st0{fill:#FFFFFF;}
</style>
<path id="XMLID_5_" class="st0" d="M-183-5.9c-16,0-29,13-29,29s13,29,29,29s29-13,29-29S-167-5.9-183-5.9z M-183,50.2
	c-15,0-27.1-12.1-27.1-27.1S-198-4-183-4s27.1,12.1,27.1,27.1S-168,50.2-183,50.2z"/>
<path id="XMLID_2_" class="st0" d="M-183.3,19.4c0,0-2-5.4-8.2-5.4c-5.5,0-8.8,7-5.1,12.9c3.1,5.1,13.3,11.5,13.3,11.5h0
	c0,0,10.2-6.4,13.3-11.5c3.7-5.9,0.4-12.9-5.1-12.9C-181.3,14-183.3,19.4-183.3,19.4L-183.3,19.4z"/>
</svg>
