<svg xmlns="http://www.w3.org/2000/svg" preserveAspectRatio="xMidYMid" width="120" height="30" viewBox="0 0 120 30"><defs><style>.cls-1{fill:#0d0d0d;fill-rule:evenodd}</style></defs><path d="M115.641 9.531l1.757 1.758c.156.158.156.275 0 .352l-5.859.117c-1.329 1.406-2.891 2.735-4.687 3.984l.703.352 4.336-.117 1.054-1.407 2.344 1.407c.156.234.156.391 0 .468l-.586.938v7.5c0 1.327-.665 2.655-1.992 3.984a1.062 1.062 0 0 1-.469.117c-.079-.078-.117-.196-.117-.351-.313-1.33-.586-2.15-.82-2.461l-3.75.117c-.079 1.249-.548 2.227-1.407 2.93-.157.234-.313.351-.468.351-.079 0-.117-.078-.117-.234l.117-12.656c-.313.157-.744.468-1.289.937-.938.626-1.641 1.095-2.11 1.406-.157.079-.234.041-.234-.117-.079-.077-.04-.155.117-.234a192.9 192.9 0 0 0 3.399-2.813l.117-.117v-.586l.351.235a37.357 37.357 0 0 0 3.516-3.516h-2.227c-1.25.079-2.226.196-2.929.352l-.938-.821 4.453-.117V6.602h-.117c-.703.078-1.485.157-2.344.234a1.032 1.032 0 0 1-.468.117l-.938-.82 3.867-.117-.117-4.922 3.047.82c.156.234.156.392 0 .469-.234.234-.43.626-.586 1.172v2.461l.352-.118 1.289-1.289 1.406 1.641c.156.157.117.234-.117.234l-2.93.118-.234 4.57h.117c1.875-2.265 3.592-4.765 5.156-7.5l1.875 1.64c.156.079.077.196-.234.352l-.469.586c-1.641 1.954-3.087 3.594-4.336 4.922l2.109-.117 1.407-1.524zm-8.086 11.25l3.398-.234c.156 0 .234.117.234.351 0 .158-.117.235-.351.235l-3.281.234v4.688l4.336-.118c.077-.155.117-.272.117-.351v-9.023l-4.453.117v4.101zm-5.625-8.672l-.352 10.196 2.578-2.227c.156-.077.194 0 .117.235L101.461 25a14.77 14.77 0 0 0-1.523 2.578c-.079.235-.235.311-.469.235l-1.992-1.758c-.158-.077-.196-.156-.118-.235.077-.077.235-.194.469-.351a56.212 56.212 0 0 0 1.875-1.407V11.641H99c-.547.078-1.133.196-1.758.351l-.937-.82 3.164-.234 1.054-1.407 2.11 1.289c.155.079.155.196 0 .352l-.703.937zm-1.875-4.921c-.235-1.876-.703-3.165-1.407-3.868-.078-.155-.04-.194.118-.117 2.03.861 3.202 1.641 3.515 2.344.077.782-.351 1.485-1.289 2.109-.392.158-.703 0-.937-.468zm-1.641-4.336c-.157.234-.352.664-.586 1.289-.392.781-1.055 2.032-1.992 3.75v17.695a6.144 6.144 0 0 1-1.406 3.164c-.469.39-.703.39-.703 0l.117-7.852V10.703c-1.72 2.578-3.477 4.922-5.274 7.031-.313.079-.392 0-.234-.234 3.281-4.764 6.015-10.312 8.203-16.641l2.227 1.172c.155.079.155.196 0 .352l-.352.469zm-18.82 15.586v2.578l.117 3.515c-.079 2.11-1.251 3.71-3.516 4.805-.157.077-.274.077-.351 0-.079-.079-.079-.196 0-.352.077-1.171-.392-1.953-1.407-2.343-.157-.235-.117-.392.118-.469 1.952.311 2.812.077 2.578-.703l-.117-6.094v-.703h-2.93c-1.406.079-2.461.234-3.164.469l-1.055-.938 7.149-.234a59.415 59.415 0 0 1-.118-3.75c-.078-.235-.04-.312.118-.235l1.757.703 2.579-3.867-4.922.352c-1.33.157-2.344.351-3.047.586l-1.055-.938 9.375-.468 1.289-1.407 2.344 2.227c.077.079.117.157.117.234 0 .079-.079.117-.234.117-1.172.235-3.164 1.368-5.977 3.399l.821.351c.155.158.155.275 0 .352-.235.234-.392.547-.469.938v1.289l4.57-.118 1.523-1.875 2.227 1.875c.156.235.117.392-.117.469l-8.203.235zm7.734-12.071l-13.711.352c-1.798 2.657-3.321 4.649-4.57 5.976.077.079.117.235.117.469l-.117 2.227v5.039l.117 5.039c-.234 1.483-.782 2.734-1.641 3.75-.391.39-.664.351-.82-.117l.117-7.5v-6.446a66.304 66.304 0 0 1-7.617 6.563c-.079.078-.157.078-.234 0-.079-.156-.079-.273 0-.352 2.344-1.952 4.922-4.764 7.734-8.437 0-.235-.04-.508-.117-.821v-.703l.82.469c1.328-1.718 2.461-3.398 3.399-5.039l-5.743.117c-1.329.079-2.384.235-3.164.469l-.82-1.055 10.078-.234c1.328-2.031 2.265-3.827 2.813-5.391l2.461 1.641c.311.234.311.43 0 .586l-.586.586a51.48 51.48 0 0 0-.821 1.289c-.391.547-.703.978-.937 1.289l9.258-.235 1.992-1.875 2.109 1.993.117.234c-.078.079-.157.117-.234.117zM55.734 9.414c-2.422 4.611-4.766 8.516-7.031 11.719l-.117 5.508 6.094-.118 1.758-1.64 2.578 1.875c.077.155.038.273-.118.351l-24.492.352c-1.329.077-2.461.194-3.398.352l-.938-.938 10.196-.117.117-20.391-.117-5.273 3.046.937c.235.079.273.235.118.469-.235.234-.431.626-.586 1.172l-.117 22.969h3.281l.117-20.157-.117-5.273 3.398.937c.235 0 .235.158 0 .469-.234.079-.43.469-.586 1.172l-.117 15.938c2.109-4.844 3.593-9.258 4.453-13.243l3.399 1.993c.155.157.155.274 0 .351l-.821.586zM35.93 19.375c-.158-4.374-1.095-8.28-2.813-11.719 0-.155.077-.194.235-.117 3.671 4.376 5.663 7.734 5.976 10.078-.234 1.172-1.055 1.992-2.461 2.461-.703.158-1.016-.077-.937-.703zm-22.102-7.148l-.469 2.578-.351 1.406 7.617-.117 1.172-1.289 2.812 2.109c.156.079.156.196 0 .352l-1.054.703c-1.72 1.64-4.025 3.594-6.914 5.859 1.562.703 2.655 1.329 3.281 1.875.546.546.469 1.6-.234 3.164-.392.703-.9.625-1.524-.234-2.032-2.501-4.611-4.688-7.734-6.563-.079-.155-.041-.273.117-.351.156.078.351.157.586.234 2.186.703 3.827 1.289 4.922 1.758a88.368 88.368 0 0 0 4.453-7.031l-7.617.117c-.703.86-1.603 1.485-2.696 1.875-.392.079-.586 0-.586-.234l1.289-4.688.235-1.523-5.274.234c-1.485 0-2.578.079-3.281.234l-.937-.82 9.609-.117.938-4.57-3.399.117c-1.172 0-2.267.078-3.281.234l-.938-.82 7.735-.117.586-2.344.586-3.399 3.046 1.172c.235.158.235.352 0 .586-.468.313-.743.861-.82 1.641l-.586 2.344h7.149l1.523-1.524 1.875 1.641.117.234c-.078.079-.157.117-.234.117L15 7.188l-.937 4.453 11.484-.118 1.875-1.875 1.992 1.993c.156.157.117.234-.117.234l-15.469.352z" class="cls-1"/></svg>