<svg xmlns="http://www.w3.org/2000/svg" preserveAspectRatio="xMidYMid" width="60" height="32" viewBox="0 0 60 32"><defs><style>.cls-1{fill:#d3d3d3;fill-rule:evenodd}</style></defs><path d="M57.972 26.988h-3.785a4.71 4.71 0 0 1-4.718 4.699 4.711 4.711 0 0 1-4.719-4.699H22.949a2 2 0 0 1-2-2V3.02a2 2 0 0 1 2-2h35.023a2 2 0 0 1 2 2v21.968a2 2 0 0 1-2 2zm-42.443-.043h-1.347c.001.017.005.033.005.05a4.71 4.71 0 0 1-4.718 4.703c-2.606 0-4.719-2.106-4.719-4.703 0-.017.005-.033.005-.05H.91v-2.821l1.283-.29L6.114 6.98h11.859v18.65s-.092 1.315-2.444 1.315zm.376-18.088l-8.167.087-1.161 6.105 9.409-.043-.081-6.149z" class="cls-1"/></svg>