<svg xmlns="http://www.w3.org/2000/svg" preserveAspectRatio="xMidYMid" width="854" height="84" viewBox="0 0 854 84"><defs><style>.cls-1{fill:#fff;fill-rule:evenodd}</style></defs><path d="M800.834 20.693c-.08 3.198-.32 8.636-.799 16.234l-.16 1.999h33.587c0 12.795-.32 21.592-.96 26.39-1.119 7.757-4.798 11.836-11.195 12.156-2.559 0-5.598-.08-9.277-.16l-.56-1.6c3.839.08 7.118.16 9.677.16 5.598-.24 8.876-4.078 9.836-11.436.48-4.718.72-12.635.72-23.831h-32.068c-.96 7.118-2.879 13.515-5.758 19.193-3.999 6.558-9.437 12.635-16.234 18.233l-1.28-1.119c8.477-7.278 14.315-14.155 17.354-20.553 2.719-6.397 4.318-13.435 4.798-21.192.32-7.037.48-11.835.56-14.474h-23.191v-1.68h35.906c-1.759-4.478-3.998-8.716-6.717-12.555l1.679-.56c2.559 3.519 4.798 7.917 6.878 13.115h30.388v1.68h-43.184zm-87.053 54.459c-1.28.64-3.199 1.04-5.918 1.04h-7.437c-3.999 0-5.918-1.919-5.918-5.598V12.536h-29.429v21.112c0 10.236-1.2 18.393-3.439 24.391-2.479 7.037-6.957 13.755-13.435 20.072l-1.12-1.199c6.478-6.478 10.956-13.515 13.435-21.032 1.92-6.398 2.879-13.835 2.879-22.232V10.776h32.868v59.978c0 2.479 1.28 3.759 3.999 3.759h7.837c1.759 0 3.199-.24 4.238-.64 1.28-.64 2.159-1.999 2.559-4.239.4-2.798.64-7.917.64-15.274l1.599.56c0 5.998-.159 10.636-.479 13.995-.32 3.119-1.28 5.198-2.879 6.237zm-189.896 1.28l-.639-1.759c13.515-.16 25.11-2.16 34.707-5.918-3.279-4.559-6.638-8.557-10.157-12.076l1.6-.719a92.193 92.193 0 0 1 10.156 12.075c10.956-4.638 19.273-11.676 24.951-21.032h-26.95c-7.277 3.679-15.994 6.238-26.23 7.517l-1.12-1.519c17.434-1.92 30.469-7.518 39.106-16.794l1.519.88c-2.879 3.118-6.238 5.837-10.076 8.157h25.91v1.519c-11.116 19.193-32.068 29.109-62.777 29.669zm4.639-35.107l-.88-1.599c8.477-.56 15.914-2 22.392-4.319-3.039-3.838-6.238-7.277-9.597-10.156l1.6-.72c3.518 3.199 6.797 6.558 9.676 10.156 10.076-3.998 17.594-10.316 22.712-18.793h-27.19c-6.238 3.839-13.755 6.718-22.472 8.637l-1.04-1.519c14.395-2.959 25.271-8.557 32.548-16.874l1.52.8a48.06 48.06 0 0 1-7.917 7.197h26.71v1.599c-8.717 15.355-24.711 23.912-48.062 25.591zm-76.978 36.386h-7.037l-.4-1.679 7.038.08c3.038 0 4.638-1.999 4.638-5.838V12.696h-32.868v-1.76h34.627v59.738c0 4.638-1.999 7.037-5.998 7.037zM403.404 6.138l1.68-.64c3.758 4.479 7.037 9.437 9.916 14.795l-1.519.8c-3.039-5.598-6.398-10.637-10.077-14.955zm-5.998 13.115h1.76v59.018h-1.76V19.253zm-130.557 54.38h32.548V49.802h-25.91v-1.76h53.74v1.76h-26.071v23.831h32.708v1.759h-67.015v-1.759zm62.297-32.628c-7.597-6.398-15.434-11.436-23.431-15.114l1.039-1.36c8.477 4.079 16.314 9.117 23.352 15.035l-.96 1.439zM293.079 26.53c-5.917 5.758-13.595 10.557-23.191 14.395l-.88-1.599c9.197-3.519 16.874-8.237 22.952-14.075l1.119 1.279zm38.306-9.596h-62.137v12.315h-1.759V15.175h33.028c-1.12-3.439-2.32-6.478-3.599-9.117l1.759-.32c1.2 2.719 2.399 5.918 3.519 9.437h30.948v14.154h-1.759V16.934zM184.514 49.002h18.793v29.109h-1.76v-4.958h-35.746v5.358h-1.76V49.002h18.713V32.128h-24.31v-1.759h24.31V13.815c-6.637.8-13.914 1.2-21.751 1.2l-.64-1.6c17.913-.08 32.228-2.159 43.104-6.237l.879 1.599c-5.677 2.159-12.315 3.759-19.832 4.798v16.794h24.551v1.759h-24.551v16.874zm-18.713 1.68v20.712h35.746V50.682h-35.746zM140.69 9.017l1.2-1.2c5.438 3.599 9.916 7.198 13.515 10.716l-1.2 1.28c-3.439-3.519-7.917-7.117-13.515-10.796zm11.756 31.268c-3.439-3.918-7.997-7.997-13.675-12.155l1.279-1.2c5.438 3.999 9.997 8.077 13.675 12.076l-1.279 1.279zM11.572 73.633h34.707V48.922h-25.03v-1.759h25.03V24.291H23.328c-3.199 7.597-7.357 13.915-12.316 19.033l-1.039-1.279c8.157-8.397 13.675-19.833 16.554-34.228l1.679.32c-1.12 5.278-2.479 10.157-4.238 14.475h22.311V6.538h1.68v16.074h27.909v1.679H47.959v22.872h26.23v1.759h-26.23v24.711h32.947v1.759H11.572v-1.759zm142.953-25.351c-3.839 10.317-7.997 19.993-12.635 29.03l-1.6-.64a250.53 250.53 0 0 0 12.716-28.949l1.519.559zM440.83 62.917h-27.19V28.53h27.19v34.387zm-1.679-32.628H415.4v14.555h23.751V30.289zm0 16.314H415.4v14.555h23.751V46.603z" class="cls-1"/></svg>