<svg xmlns="http://www.w3.org/2000/svg" preserveAspectRatio="xMidYMid" width="116" height="116" viewBox="0 0 116 116"><defs><style>.cls-1,.cls-2{fill:#fff}.cls-1{stroke:#fff;stroke-linejoin:round;stroke-width:3px;opacity:.9;fill-opacity:.2}.cls-2{fill-rule:evenodd}</style></defs><circle cx="58.5" cy="58.203" r="54.5" class="cls-1"/><path d="M84.586 53.207l-38.984 22.61c-1.676.973-3.906.26-4.98-1.592l-10.11-17.431c-1.074-1.852-.585-4.142 1.091-5.114l38.984-22.61c1.677-.973 3.907-.259 4.981 1.592l10.11 17.431c1.074 1.852.585 4.142-1.092 5.114zM73.185 34.451c-.486-.838-1.495-1.16-2.254-.72L34.407 54.914c-.759.44-.98 1.476-.494 2.314.486.838 1.495 1.161 2.254.721l36.524-21.184c.759-.44.98-1.476.494-2.314zm-36.85 35.576l-2.701 1.66s1.825 2.611.311 4.851c-3.967 3.656-5.231 3.699-5.231 3.699l-9.696-16.105s3.019-2.292 5.246-2.577c2.226-.284 4.393 2.133 4.393 2.133l2.776-1.754 4.902 8.093zM71.588 66.2c.352 3.577-2.409 5.216-2.409 5.216l-.036 8.514 13.878.024-.002 5.062s-13.253-.024-16.029-.024c-2.777 0-3.039-2.848-3.039-2.848s.049-5.36.052-9.371c-3.131.912-5.795-3.053-5.795-3.053l12.088-7.051s1.102 1.597 1.292 3.531z" class="cls-2"/></svg>