<svg id="图层_1" xmlns="http://www.w3.org/2000/svg" viewBox="0 0 200 200"><style>.st0{fill:#f3f4f8}.st1{fill:#f5d01f}</style><g id="XMLID_2_"><circle id="XMLID_8_" class="st0" cx="101.9" cy="94.9" r="43.9"/><path id="XMLID_3_" class="st1" d="M113.8 73.7H90.1c-.8 0-1.5.7-1.5 1.5v39.5c0 .8.7 1.5 1.5 1.5h23.7c.8 0 1.5-.7 1.5-1.5V75.2c0-.8-.7-1.5-1.5-1.5zM99.7 77h4.5c.3 0 .5.2.5.5s-.2.5-.5.5h-4.5c-.3 0-.5-.2-.5-.5s.2-.5.5-.5zm2.2 38c-1.1 0-2.1-.9-2.1-2.1s.9-2.1 2.1-2.1 2.1.9 2.1 2.1-.9 2.1-2.1 2.1zm12-5.8h-24V80.8h24v28.4z"/></g></svg>