<?xml version="1.0" encoding="utf-8"?>
<!-- Generator: Adobe Illustrator 19.0.0, SVG Export Plug-In . SVG Version: 6.00 Build 0)  -->
<svg version="1.1" id="图层_1" xmlns="http://www.w3.org/2000/svg" xmlns:xlink="http://www.w3.org/1999/xlink" x="0px" y="0px"
	 viewBox="0 0 100 100" style="enable-background:new 0 0 100 100;" xml:space="preserve">
<style type="text/css">
	.st0{fill:#FFFFFF;}
</style>
<g id="XMLID_17_">
	<path id="XMLID_26_" class="st0" d="M43.7,36.3c2.8,0,5.2-2,5.7-4.8h2.2c0.5,2.8,2.8,4.8,5.7,4.8c3.2,0,5.8-2.6,5.8-5.8
		c0-3.2-2.6-5.8-5.8-5.8c-2.8,0-5.2,2.1-5.7,4.8h-2.2c-0.5-2.7-2.8-4.8-5.7-4.8c-3.2,0-5.8,2.6-5.8,5.8C38,33.7,40.5,36.3,43.7,36.3
		z M57.3,26.7c2.1,0,3.8,1.7,3.8,3.8c0,2.1-1.7,3.8-3.8,3.8c-2.1,0-3.8-1.7-3.8-3.8C53.5,28.4,55.2,26.7,57.3,26.7z M43.7,26.7
		c2.1,0,3.8,1.7,3.8,3.8c0,2.1-1.7,3.8-3.8,3.8c-2.1,0-3.8-1.7-3.8-3.8C39.9,28.4,41.6,26.7,43.7,26.7z"/>
	<path id="XMLID_23_" class="st0" d="M26.9,34.3c0.4,4.5,2.7,6.6,5.1,7.1c3.5,8.5,10.3,15.5,18.5,15.5c8.1,0,15-7,18.5-15.5
		c2.5-0.5,4.8-2.5,5.2-7.1c0.3-3.8-0.7-5.7-2.2-6.6c5.8-8-2.6-12.4-3.1-12.6c-3.8-8.2-11.3-9.1-18.4-9.1C43,5.9,35.8,7.2,32.1,15
		c0,0,0,0,0,0c0,0-9.1,4.5-3.1,12.6C27.6,28.6,26.5,30.5,26.9,34.3z M35.1,17.9c2.7-7.4,8.7-8.2,15.4-8.2c7,0,12.8,0.8,15.5,8.2
		c-3.5,5.7-0.3,15,0.8,17.8C64.6,44.5,58.1,53,50.5,53c-7.6,0-14.1-8.4-16.3-17.2C35.3,33,38.6,23.7,35.1,17.9z"/>
	<path id="XMLID_22_" class="st0" d="M54.4,37.4h-7.9c-2.1,0-3.8,1.7-3.8,3.8c0,1.1,0.9,2,2,2h11.5c1.1,0,2-0.9,2-2
		C58.2,39.1,56.5,37.4,54.4,37.4z"/>
	<path id="XMLID_19_" class="st0" d="M68.8,56.2l-2.2-0.6l-16,35.2l-16-35.2l-2.2,0.6c-9.4,2.4-16,10.8-16,20.6v12.8
		c0,2.5,2,4.6,4.5,4.6h59.5c2.5,0,4.5-2,4.5-4.6V76.7C84.8,67,78.2,58.5,68.8,56.2z M63.2,80.6c0.2-2.5,2.4-4.7,5-4.7
		c2.7,0,4.8,2.2,5,4.7H63.2z"/>
	<path id="XMLID_18_" class="st0" d="M57,59.9L53,61.1c-0.1,0-0.1,0-0.2,0c-0.6-0.6-1.5-0.9-2.4-0.9c-0.9,0-1.7,0.4-2.4,0.9
		c-0.1,0-0.1,0-0.2,0L44,59.9c-1.2-0.3-2.3,0.5-2.3,1.8v4.5c0,1.2,1.1,2.1,2.3,1.8l4.1-1.2c0.6,0.6,1.5,0.9,2.4,0.9
		c0.9,0,1.7-0.4,2.4-0.9L57,68c1.2,0.3,2.3-0.5,2.3-1.8v-4.5C59.3,60.5,58.2,59.6,57,59.9z"/>
</g>
</svg>
