<svg id="图层_1" xmlns="http://www.w3.org/2000/svg" xmlns:xlink="http://www.w3.org/1999/xlink" viewBox="-5605 4187.9 128 128"><style>.st0{fill:#f5d01f}.st1{clip-path:url(#SVGID_2_)}.st2{fill:#ba6435}.st3{fill:#5a4337}.st4{fill:#ba6436}</style><path class="st0" d="M-5540.8 4188.7c34.6 0 62.7 28.1 62.7 62.7s-28.1 62.7-62.7 62.7-62.7-28.1-62.7-62.7c-.1-34.6 28-62.7 62.7-62.7z"/><defs><path id="SVGID_1_" d="M-5540.8 4188.7c34.6 0 62.7 28.1 62.7 62.7s-28.1 62.7-62.7 62.7-62.7-28.1-62.7-62.7c-.1-34.6 28-62.7 62.7-62.7z"/></defs><clipPath id="SVGID_2_"><use xlink:href="#SVGID_1_" overflow="visible"/></clipPath><g class="st1"><path class="st2" d="M-5579.7 4243.6h68.1v79.7h-68.1v-79.7z"/><path class="st3" d="M-5511.6 4331.3v-87.5h-63.1l.1 87.5h-.1c-3.3 0-6-2.7-6-6v-95.5c0-3.3 2.7-6 6-6h63.1c3.3 0 6 2.7 6 6v95.5c0 3.4-2.6 6-6 6z"/><path class="st4" d="M-5552.2 4231.8h16.4c1.1 0 2 .9 2 2s-.9 2-2 2h-16.4c-1.1 0-2-.9-2-2s.9-2 2-2z"/><path class="st3" d="M-5544 4262.3c12 0 21.7 9.7 21.7 21.7s-9.7 21.7-21.7 21.7-21.7-9.7-21.7-21.7 9.7-21.7 21.7-21.7z"/><path class="st4" d="M-5546.7 4283.8h-3.9v2.9h5v2h-5v3h5v3h3v-3h5v-3h-5v-2h5v-2.9h-3.7l5.3-6.9-3-2.3-5.1 6.9-5.6-6.7-2.9 2.2 5.9 6.8z"/></g></svg>