<?xml version="1.0" encoding="utf-8"?>
<!-- Generator: Adobe Illustrator 19.0.0, SVG Export Plug-In . SVG Version: 6.00 Build 0)  -->
<svg version="1.1" id="图层_1" xmlns="http://www.w3.org/2000/svg" xmlns:xlink="http://www.w3.org/1999/xlink" x="0px" y="0px"
	 viewBox="0 0 200 200" style="enable-background:new 0 0 200 200;" xml:space="preserve">
<style type="text/css">
	.st0{fill:#F3F4F8;}
	.st1{fill:#F5D01F;}
</style>
<g id="XMLID_2_">
	<circle id="XMLID_8_" class="st0" cx="101.9" cy="94.9" r="43.9"/>
	<path id="XMLID_3_" class="st1" d="M113.8,73.7H90.1c-0.8,0-1.5,0.7-1.5,1.5v39.5c0,0.8,0.7,1.5,1.5,1.5h23.7
		c0.8,0,1.5-0.7,1.5-1.5V75.2C115.3,74.4,114.6,73.7,113.8,73.7z M99.7,77h4.5c0.3,0,0.5,0.2,0.5,0.5s-0.2,0.5-0.5,0.5h-4.5
		c-0.3,0-0.5-0.2-0.5-0.5S99.4,77,99.7,77z M101.9,115c-1.1,0-2.1-0.9-2.1-2.1s0.9-2.1,2.1-2.1s2.1,0.9,2.1,2.1S103.1,115,101.9,115
		z M113.9,109.2h-24V80.8h24V109.2z"/>
</g>
</svg>
