<?xml version="1.0" encoding="utf-8"?>
<!-- Generator: Adobe Illustrator 19.0.0, SVG Export Plug-In . SVG Version: 6.00 Build 0)  -->
<svg version="1.1" id="图层_1" xmlns="http://www.w3.org/2000/svg" xmlns:xlink="http://www.w3.org/1999/xlink" x="0px" y="0px"
	 viewBox="-5605 4187.9 128 128" style="enable-background:new -5605 4187.9 128 128;" xml:space="preserve">
<style type="text/css">
	.st0{fill:#F5D01F;}
	.st1{clip-path:url(#SVGID_2_);}
	.st2{fill:#BA6435;}
	.st3{fill:#5A4337;}
	.st4{fill:#BA6436;}
</style>
<path class="st0" d="M-5540.8,4188.7c34.6,0,62.7,28.1,62.7,62.7c0,34.6-28.1,62.7-62.7,62.7c-34.6,0-62.7-28.1-62.7-62.7
	C-5603.6,4216.8-5575.5,4188.7-5540.8,4188.7z"/>
<g>
	<defs>
		<path id="SVGID_1_" d="M-5540.8,4188.7c34.6,0,62.7,28.1,62.7,62.7c0,34.6-28.1,62.7-62.7,62.7c-34.6,0-62.7-28.1-62.7-62.7
			C-5603.6,4216.8-5575.5,4188.7-5540.8,4188.7z"/>
	</defs>
	<clipPath id="SVGID_2_">
		<use xlink:href="#SVGID_1_"  style="overflow:visible;"/>
	</clipPath>
	<g class="st1">
		<path class="st2" d="M-5579.7,4243.6h68.1v79.7h-68.1V4243.6z"/>
		<path class="st3" d="M-5511.6,4331.3L-5511.6,4331.3l0-87.5h-63.1l0.1,87.5h-0.1c-3.3,0-6-2.7-6-6v-95.5c0-3.3,2.7-6,6-6h63.1
			c3.3,0,6,2.7,6,6v95.5C-5505.6,4328.7-5508.2,4331.3-5511.6,4331.3z"/>
		<path class="st4" d="M-5552.2,4231.8h16.4c1.1,0,2,0.9,2,2c0,1.1-0.9,2-2,2h-16.4c-1.1,0-2-0.9-2-2
			C-5554.2,4232.7-5553.3,4231.8-5552.2,4231.8z"/>
		<path class="st3" d="M-5544,4262.3c12,0,21.7,9.7,21.7,21.7c0,12-9.7,21.7-21.7,21.7c-12,0-21.7-9.7-21.7-21.7
			C-5565.7,4272-5556,4262.3-5544,4262.3z"/>
		<path class="st4" d="M-5546.7,4283.8h-3.9v2.9h5l0,0v2h-5v3h5v3h3v-3h5v-3h-5v-2l0,0h5v-2.9h-3.7l5.3-6.9l-3-2.3l-5.1,6.9
			l-5.6-6.7l-2.9,2.2L-5546.7,4283.8z"/>
	</g>
</g>
</svg>
