<svg id="图层_1" xmlns="http://www.w3.org/2000/svg" viewBox="0 0 100 100"><style>.st0{fill:#fff}</style><g id="XMLID_17_"><path id="XMLID_26_" class="st0" d="M43.7 36.3c2.8 0 5.2-2 5.7-4.8h2.2c.5 2.8 2.8 4.8 5.7 4.8 3.2 0 5.8-2.6 5.8-5.8 0-3.2-2.6-5.8-5.8-5.8-2.8 0-5.2 2.1-5.7 4.8h-2.2c-.5-2.7-2.8-4.8-5.7-4.8-3.2 0-5.8 2.6-5.8 5.8.1 3.2 2.6 5.8 5.8 5.8zm13.6-9.6c2.1 0 3.8 1.7 3.8 3.8 0 2.1-1.7 3.8-3.8 3.8-2.1 0-3.8-1.7-3.8-3.8 0-2.1 1.7-3.8 3.8-3.8zm-13.6 0c2.1 0 3.8 1.7 3.8 3.8 0 2.1-1.7 3.8-3.8 3.8-2.1 0-3.8-1.7-3.8-3.8 0-2.1 1.7-3.8 3.8-3.8z"/><path id="XMLID_23_" class="st0" d="M26.9 34.3c.4 4.5 2.7 6.6 5.1 7.1 3.5 8.5 10.3 15.5 18.5 15.5 8.1 0 15-7 18.5-15.5 2.5-.5 4.8-2.5 5.2-7.1.3-3.8-.7-5.7-2.2-6.6 5.8-8-2.6-12.4-3.1-12.6C65.1 6.9 57.6 6 50.5 6c-7.5-.1-14.7 1.2-18.4 9 0 0-9.1 4.5-3.1 12.6-1.4 1-2.5 2.9-2.1 6.7zm8.2-16.4c2.7-7.4 8.7-8.2 15.4-8.2 7 0 12.8.8 15.5 8.2-3.5 5.7-.3 15 .8 17.8C64.6 44.5 58.1 53 50.5 53c-7.6 0-14.1-8.4-16.3-17.2 1.1-2.8 4.4-12.1.9-17.9z"/><path id="XMLID_22_" class="st0" d="M54.4 37.4h-7.9c-2.1 0-3.8 1.7-3.8 3.8 0 1.1.9 2 2 2h11.5c1.1 0 2-.9 2-2 0-2.1-1.7-3.8-3.8-3.8z"/><path id="XMLID_19_" class="st0" d="M68.8 56.2l-2.2-.6-16 35.2-16-35.2-2.2.6a21.2 21.2 0 0 0-16 20.6v12.8c0 2.5 2 4.6 4.5 4.6h59.5c2.5 0 4.5-2 4.5-4.6V76.7c-.1-9.7-6.7-18.2-16.1-20.5zm-5.6 24.4c.2-2.5 2.4-4.7 5-4.7 2.7 0 4.8 2.2 5 4.7h-10z"/><path id="XMLID_18_" class="st0" d="M57 59.9l-4 1.2h-.2c-.6-.6-1.5-.9-2.4-.9-.9 0-1.7.4-2.4.9h-.2L44 59.9c-1.2-.3-2.3.5-2.3 1.8v4.5c0 1.2 1.1 2.1 2.3 1.8l4.1-1.2c.6.6 1.5.9 2.4.9.9 0 1.7-.4 2.4-.9L57 68c1.2.3 2.3-.5 2.3-1.8v-4.5c0-1.2-1.1-2.1-2.3-1.8z"/></g></svg>