<svg xmlns="http://www.w3.org/2000/svg" preserveAspectRatio="xMidYMid" width="116" height="116" viewBox="0 0 116 116"><defs><style>.cls-1,.cls-2{fill:#fff;fill-rule:evenodd}.cls-1{stroke:#fff;stroke-linejoin:round;stroke-width:3px;opacity:.9;fill-opacity:.2}</style></defs><path d="M58.333 3.719c30.007 0 54.333 24.319 54.333 54.318s-24.326 54.318-54.333 54.318C28.326 112.355 4 88.036 4 58.037S28.326 3.719 58.333 3.719z" class="cls-1"/><path d="M77 86H39.938a2 2 0 0 1-2-2V29a2 2 0 0 1 2-2H77a2 2 0 0 1 2 2v55a2 2 0 0 1-2 2zm-18.625-3a3.383 3.383 0 0 0 3.375-3.391 3.383 3.383 0 0 0-3.375-3.39A3.383 3.383 0 0 0 55 79.609 3.383 3.383 0 0 0 58.375 83zm3.719-51.328a.703.703 0 0 0-.703-.703h-7.25a.703.703 0 0 0-.703.703v.625c0 .388.314.703.703.703h7.25a.703.703 0 0 0 .703-.703v-.625zM74.854 37H42.031v37.031h32.823V37z" class="cls-2"/></svg>