<svg id="图层_1" xmlns="http://www.w3.org/2000/svg" viewBox="0 0 100 100"><style>.st0{opacity:.8;fill:#fff}</style><path class="st0" d="M51.1 16c-10.5 0-19 8.5-19 19v23.5c0 8.1 5.1 15 12.3 17.7v-3.6c-5.3-2.8-9-8.8-9-15V35.7c0-8.7 7.1-16.2 15.8-16.2C59.9 19.5 67 27 67 35.7v21.9c0 6.1-3.6 12-8.7 14.8V76c7-2.8 11.9-9.7 11.9-17.6V35c-.1-10.4-8.6-19-19.1-19z"/><path class="st0" d="M53.8 78.4v-5.1h-5.6v5h-3.3l5.9 6.9 6.3-6.8zM53.3 68.3h-4.6c-.5 0-.5 0-.5-.5v-1.9c0-.6-.1-.5.5-.5h4.6c.5 0 .5 0 .5.5v1.9c0 .5 0 .5-.5.5zM53.3 72.3h-4.6c-.5 0-.5 0-.5-.5v-1.9c0-.6-.1-.5.5-.5h4.6c.5 0 .5 0 .5.5v1.9c0 .5 0 .5-.5.5zM49.6 37.5v-8.7c0-.5 0-.5.5-.5H52c.5 0 .5-.1.5.5v8.7c0 .5 0 .5-.5.5h-1.9c-.5 0-.5 0-.5-.5z"/></svg>