<?xml version="1.0" encoding="utf-8"?>
<!-- Generator: Adobe Illustrator 19.0.0, SVG Export Plug-In . SVG Version: 6.00 Build 0)  -->
<svg version="1.1" id="图层_1" xmlns="http://www.w3.org/2000/svg" xmlns:xlink="http://www.w3.org/1999/xlink" x="0px" y="0px"
	 viewBox="0 0 100 100" style="enable-background:new 0 0 100 100;" xml:space="preserve">
<style type="text/css">
	.st0{opacity:0.8;fill:#FFFFFF;}
</style>
<g>
	<path class="st0" d="M51.1,16L51.1,16c-10.5,0-19,8.5-19,19v23.5c0,8.1,5.1,15,12.3,17.7v-3.6c-5.3-2.8-9-8.8-9-15V35.7
		c0-8.7,7.1-16.2,15.8-16.2h0c8.7,0,15.8,7.5,15.8,16.2v21.9c0,6.1-3.6,12-8.7,14.8v3.6c7-2.8,11.9-9.7,11.9-17.6V35
		C70.1,24.6,61.6,16,51.1,16z"/>
	<polygon class="st0" points="53.8,78.4 53.8,73.3 48.2,73.3 48.2,78.3 44.9,78.3 50.8,85.2 57.1,78.4 	"/>
	<path class="st0" d="M53.3,68.3h-4.6c-0.5,0-0.5,0-0.5-0.5v-1.9c0-0.6-0.1-0.5,0.5-0.5h4.6c0.5,0,0.5,0,0.5,0.5v1.9
		C53.8,68.3,53.8,68.3,53.3,68.3z"/>
	<path class="st0" d="M53.3,72.3h-4.6c-0.5,0-0.5,0-0.5-0.5v-1.9c0-0.6-0.1-0.5,0.5-0.5h4.6c0.5,0,0.5,0,0.5,0.5v1.9
		C53.8,72.3,53.8,72.3,53.3,72.3z"/>
	<path class="st0" d="M49.6,37.5v-8.7c0-0.5,0-0.5,0.5-0.5h1.9c0.5,0,0.5-0.1,0.5,0.5v8.7c0,0.5,0,0.5-0.5,0.5h-1.9
		C49.6,38,49.6,38,49.6,37.5z"/>
</g>
</svg>
