<svg xmlns="http://www.w3.org/2000/svg" xmlns:xlink="http://www.w3.org/1999/xlink" preserveAspectRatio="xMidYMid" width="660" height="120" viewBox="0 0 660 120">
  <defs>
    <style>
      .cls-1 {
        fill: #171717;
      }

      .cls-1, .cls-2 {
        fill-rule: evenodd;
      }

      .cls-2 {
        fill: #413030;
      }
    </style>
  </defs>
  <path d="M208.533,32.550 C207.133,30.404 205.173,28.864 202.653,27.930 L202.653,27.790 C204.893,26.857 206.573,25.410 207.693,23.450 C208.813,21.490 209.373,19.180 209.373,16.520 C209.373,14.794 209.116,13.160 208.603,11.620 C208.089,10.080 207.331,8.739 206.328,7.595 C205.324,6.452 204.088,5.554 202.618,4.900 C201.148,4.247 199.433,3.920 197.473,3.920 C195.513,3.920 193.798,4.247 192.328,4.900 C190.858,5.554 189.621,6.452 188.618,7.595 C187.614,8.739 186.868,10.080 186.378,11.620 C185.888,13.160 185.643,14.794 185.643,16.520 C185.643,19.180 186.214,21.490 187.358,23.450 C188.501,25.410 190.193,26.857 192.433,27.790 L192.433,27.930 C189.913,28.770 187.953,30.287 186.553,32.480 C185.153,34.674 184.453,37.450 184.453,40.810 C184.453,42.957 184.756,44.905 185.363,46.655 C185.969,48.405 186.833,49.910 187.953,51.170 C189.073,52.430 190.438,53.410 192.048,54.110 C193.658,54.810 195.466,55.160 197.473,55.160 C199.479,55.160 201.299,54.810 202.933,54.110 C204.566,53.410 205.954,52.430 207.098,51.170 C208.241,49.910 209.116,48.405 209.723,46.655 C210.329,44.905 210.633,42.957 210.633,40.810 C210.633,37.450 209.933,34.697 208.533,32.550 ZM204.053,20.370 C203.726,21.490 203.259,22.470 202.653,23.310 C202.046,24.150 201.299,24.827 200.413,25.340 C199.526,25.854 198.546,26.110 197.473,26.110 C196.399,26.110 195.431,25.854 194.568,25.340 C193.704,24.827 192.969,24.150 192.363,23.310 C191.756,22.470 191.289,21.490 190.963,20.370 C190.636,19.250 190.473,18.060 190.473,16.800 C190.473,14.140 191.068,11.947 192.258,10.220 C193.448,8.494 195.186,7.630 197.473,7.630 C199.713,7.630 201.451,8.494 202.688,10.220 C203.924,11.947 204.543,14.140 204.543,16.800 C204.543,18.060 204.379,19.250 204.053,20.370 ZM205.068,44.800 C204.718,46.107 204.193,47.239 203.493,48.195 C202.793,49.152 201.941,49.899 200.938,50.435 C199.934,50.972 198.779,51.240 197.473,51.240 C196.213,51.240 195.081,50.972 194.078,50.435 C193.074,49.899 192.223,49.152 191.523,48.195 C190.823,47.239 190.286,46.107 189.913,44.800 C189.539,43.494 189.353,42.094 189.353,40.600 C189.353,37.427 190.099,34.849 191.593,32.865 C193.086,30.882 195.046,29.890 197.473,29.890 C199.899,29.890 201.859,30.882 203.353,32.865 C204.846,34.849 205.593,37.427 205.593,40.600 C205.593,42.094 205.418,43.494 205.068,44.800 Z" class="cls-1"/>
  <path d="M418.752,39.430 C418.402,42.464 417.737,45.217 416.757,47.690 C415.777,50.164 414.423,52.194 412.697,53.780 C410.970,55.366 408.730,56.160 405.977,56.160 C403.223,56.160 400.983,55.366 399.257,53.780 C397.530,52.194 396.177,50.164 395.197,47.690 C394.217,45.217 393.540,42.464 393.167,39.430 C392.793,36.397 392.607,33.434 392.607,30.540 C392.607,27.647 392.793,24.684 393.167,21.650 C393.540,18.617 394.217,15.864 395.197,13.390 C396.177,10.917 397.530,8.887 399.257,7.300 C400.983,5.714 403.223,4.920 405.977,4.920 C408.730,4.920 410.970,5.714 412.697,7.300 C414.423,8.887 415.777,10.917 416.757,13.390 C417.737,15.864 418.402,18.617 418.752,21.650 C419.102,24.684 419.277,27.647 419.277,30.540 C419.277,33.434 419.102,36.397 418.752,39.430 ZM414.202,26.502 C414.132,24.981 414.003,23.424 413.817,21.832 C413.630,20.240 413.350,18.684 412.977,17.162 C412.603,15.640 412.113,14.283 411.507,13.088 C410.900,11.895 410.142,10.936 409.232,10.210 C408.322,9.483 407.237,9.120 405.977,9.120 C404.717,9.120 403.632,9.483 402.722,10.210 C401.812,10.936 401.053,11.895 400.447,13.088 C399.840,14.283 399.338,15.640 398.942,17.162 C398.545,18.684 398.253,20.240 398.067,21.832 C397.880,23.424 397.752,24.981 397.682,26.502 C397.612,28.025 397.577,29.370 397.577,30.540 C397.577,31.758 397.612,33.127 397.682,34.648 C397.752,36.171 397.880,37.715 398.067,39.284 C398.253,40.852 398.545,42.398 398.942,43.919 C399.338,45.442 399.840,46.799 400.447,47.992 C401.053,49.187 401.812,50.146 402.722,50.872 C403.632,51.598 404.717,51.960 405.977,51.960 C407.237,51.960 408.322,51.598 409.232,50.872 C410.142,50.146 410.900,49.187 411.507,47.992 C412.113,46.799 412.603,45.442 412.977,43.919 C413.350,42.398 413.630,40.852 413.817,39.284 C414.003,37.715 414.132,36.171 414.202,34.648 C414.272,33.127 414.307,31.758 414.307,30.540 C414.307,29.370 414.272,28.025 414.202,26.502 ZM385.958,33.550 C387.358,35.697 388.058,38.450 388.058,41.810 C388.058,43.957 387.754,45.905 387.148,47.655 C386.541,49.405 385.666,50.910 384.523,52.170 C383.379,53.430 381.991,54.410 380.358,55.110 C378.724,55.810 376.904,56.160 374.898,56.160 C372.891,56.160 371.083,55.810 369.473,55.110 C367.863,54.410 366.498,53.430 365.378,52.170 C364.258,50.910 363.394,49.405 362.788,47.655 C362.181,45.905 361.878,43.957 361.878,41.810 C361.878,38.450 362.578,35.674 363.978,33.480 C365.378,31.287 367.338,29.770 369.858,28.930 L369.858,28.790 C367.618,27.857 365.926,26.410 364.783,24.450 C363.639,22.490 363.068,20.180 363.068,17.520 C363.068,15.794 363.313,14.160 363.803,12.620 C364.293,11.080 365.039,9.739 366.043,8.595 C367.046,7.452 368.283,6.554 369.753,5.900 C371.223,5.247 372.938,4.920 374.898,4.920 C376.858,4.920 378.573,5.247 380.043,5.900 C381.513,6.554 382.749,7.452 383.753,8.595 C384.756,9.739 385.514,11.080 386.028,12.620 C386.541,14.160 386.798,15.794 386.798,17.520 C386.798,20.180 386.238,22.490 385.118,24.450 C383.998,26.410 382.318,27.857 380.078,28.790 L380.078,28.930 C382.598,29.864 384.558,31.404 385.958,33.550 ZM381.478,21.370 C381.804,20.250 381.968,19.060 381.968,17.800 C381.968,15.140 381.349,12.947 380.113,11.220 C378.876,9.494 377.138,8.630 374.898,8.630 C372.611,8.630 370.873,9.494 369.683,11.220 C368.493,12.947 367.898,15.140 367.898,17.800 C367.898,19.060 368.061,20.250 368.388,21.370 C368.714,22.490 369.181,23.470 369.788,24.310 C370.394,25.150 371.129,25.827 371.993,26.340 C372.856,26.854 373.824,27.110 374.898,27.110 C375.971,27.110 376.951,26.854 377.838,26.340 C378.724,25.827 379.471,25.150 380.078,24.310 C380.684,23.470 381.151,22.490 381.478,21.370 ZM374.898,30.890 C372.471,30.890 370.511,31.882 369.018,33.865 C367.524,35.849 366.778,38.427 366.778,41.600 C366.778,43.094 366.964,44.494 367.338,45.800 C367.711,47.107 368.248,48.239 368.948,49.195 C369.648,50.152 370.499,50.899 371.503,51.435 C372.506,51.972 373.638,52.240 374.898,52.240 C376.204,52.240 377.359,51.972 378.363,51.435 C379.366,50.899 380.218,50.152 380.918,49.195 C381.618,48.239 382.143,47.107 382.493,45.800 C382.843,44.494 383.018,43.094 383.018,41.600 C383.018,38.427 382.271,35.849 380.778,33.865 C379.284,31.882 377.324,30.890 374.898,30.890 Z" class="cls-1"/>
  <path d="M648.675,30.220 L648.675,32.380 L647.655,32.380 L647.655,30.220 L638.535,30.220 L638.535,32.380 L637.515,32.380 L637.515,30.220 L630.345,30.220 L630.345,29.290 L637.515,29.290 L637.515,26.950 L638.535,26.950 L638.535,29.290 L647.655,29.290 L647.655,26.950 L648.675,26.950 L648.675,29.290 L655.845,29.290 L655.845,30.220 L648.675,30.220 ZM626.625,40.870 C624.765,39.070 622.425,37.231 619.605,35.350 C617.265,37.510 614.375,39.271 610.935,40.630 L610.305,39.790 C616.285,37.411 620.425,34.021 622.725,29.620 L611.685,29.620 L611.685,28.600 L623.955,28.600 L623.955,29.440 C623.015,31.381 621.785,33.141 620.265,34.720 C623.025,36.481 625.385,38.281 627.345,40.120 L626.625,40.870 ZM610.065,43.300 L610.065,44.290 C607.045,45.211 604.145,45.861 601.365,46.240 L601.065,45.250 C601.305,45.130 601.475,45.031 601.575,44.950 C603.135,43.431 604.945,40.930 607.005,37.450 C604.845,37.791 602.825,38.061 600.945,38.260 L600.675,37.300 C600.875,37.201 601.025,37.071 601.125,36.910 C602.965,34.191 604.565,30.910 605.925,27.070 L606.915,27.430 C605.215,31.711 603.555,34.971 601.935,37.210 C603.875,37.051 605.755,36.801 607.575,36.460 C608.015,35.701 608.655,34.540 609.495,32.980 L610.455,33.340 C607.215,39.160 604.605,43.090 602.625,45.130 C605.045,44.731 607.525,44.121 610.065,43.300 ZM610.005,49.150 C607.245,50.551 604.105,51.690 600.585,52.570 L600.435,51.550 C603.995,50.731 607.185,49.611 610.005,48.190 L610.005,49.150 ZM591.165,48.880 L591.675,48.100 C594.115,49.521 596.365,51.280 598.425,53.380 L597.855,54.280 C595.655,51.980 593.425,50.181 591.165,48.880 ZM593.475,33.010 C594.735,31.210 595.765,29.361 596.565,27.460 L597.465,27.880 C596.685,29.781 595.655,31.651 594.375,33.490 L593.475,33.010 ZM596.505,47.560 L595.485,47.560 L595.485,36.250 L584.895,36.250 L584.895,47.800 L583.875,47.800 L583.875,35.290 L589.725,35.290 L589.725,26.770 L590.715,26.770 L590.715,35.290 L596.505,35.290 L596.505,47.560 ZM583.125,28.270 L584.025,27.820 C585.045,29.380 586.005,31.090 586.905,32.950 L586.035,33.400 C585.075,31.420 584.105,29.710 583.125,28.270 ZM589.575,41.560 L589.575,38.410 L590.565,38.410 L590.565,41.560 C590.525,44.920 589.885,47.601 588.645,49.600 C587.385,51.460 585.325,52.930 582.465,54.010 L581.865,53.140 C584.625,52.120 586.635,50.680 587.895,48.820 C588.995,46.941 589.555,44.521 589.575,41.560 ZM575.475,52.210 C575.875,52.090 576.075,51.860 576.075,51.520 L576.075,43.390 L571.755,43.390 L571.755,42.400 L576.075,42.400 L576.075,37.630 L573.765,37.630 L573.765,36.700 L580.395,36.700 L580.395,37.630 L577.065,37.630 L577.065,42.400 L581.385,42.400 L581.385,43.390 L577.065,43.390 L577.065,51.760 C578.565,51.241 580.095,50.491 581.655,49.510 L581.835,50.440 C580.095,51.540 578.125,52.430 575.925,53.110 L575.475,52.210 ZM571.935,37.540 L571.095,37.000 C572.815,34.120 574.115,30.760 574.995,26.920 L575.985,27.130 C575.745,28.131 575.405,29.331 574.965,30.730 L581.145,30.730 L581.145,31.720 L574.635,31.720 C573.855,33.880 572.955,35.821 571.935,37.540 ZM561.645,53.530 C560.645,53.530 558.885,53.510 556.365,53.470 C554.365,53.410 552.845,53.210 551.805,52.870 C550.605,52.510 549.525,51.740 548.565,50.560 C548.185,50.041 547.805,49.780 547.425,49.780 C546.545,49.780 545.175,51.201 543.315,54.040 L542.505,53.350 C544.265,50.631 545.755,49.120 546.975,48.820 L546.975,38.650 L542.325,38.650 L542.325,37.630 L547.965,37.630 L547.965,48.850 C548.325,48.991 548.725,49.311 549.165,49.810 C549.885,50.731 550.745,51.410 551.745,51.850 C552.725,52.210 554.095,52.420 555.855,52.480 C557.735,52.520 559.615,52.540 561.495,52.540 L568.695,52.450 L568.455,53.530 L561.645,53.530 ZM560.145,50.620 L559.155,50.620 L559.155,44.350 L550.515,44.350 L550.515,43.360 L559.155,43.360 L559.155,38.680 L551.715,38.680 L551.475,37.690 C552.915,36.010 554.225,33.891 555.405,31.330 L550.695,31.330 L550.695,30.340 L555.825,30.340 C556.185,29.500 556.625,28.311 557.145,26.770 L558.165,26.980 C557.765,28.101 557.345,29.221 556.905,30.340 L568.005,30.340 L568.005,31.330 L556.485,31.330 C555.445,33.670 554.205,35.800 552.765,37.720 L559.155,37.720 L559.155,33.520 L560.145,33.520 L560.145,37.720 L567.105,37.720 L567.105,38.680 L560.145,38.680 L560.145,43.360 L568.485,43.360 L568.485,44.350 L560.145,44.350 L560.145,50.620 ZM543.075,28.330 L543.765,27.640 C545.825,29.200 547.545,30.741 548.925,32.260 L548.205,32.980 C546.865,31.480 545.155,29.931 543.075,28.330 ZM516.675,38.350 C516.555,44.851 515.445,50.050 513.345,53.950 L512.595,53.260 C514.555,49.681 515.565,44.710 515.625,38.350 L515.625,30.220 L527.055,30.220 C526.555,28.921 526.005,27.820 525.405,26.920 L526.455,26.740 C527.055,27.741 527.605,28.900 528.105,30.220 L539.295,30.220 L539.295,31.240 L516.675,31.240 L516.675,38.350 ZM519.066,91.247 L511.926,91.247 L511.926,95.957 L520.296,95.957 L520.296,96.977 L502.776,96.977 L502.776,95.957 L510.936,95.957 L510.936,91.247 L503.826,91.247 L503.826,90.257 L510.936,90.257 L510.936,86.627 L511.926,86.627 L511.926,90.257 L519.066,90.257 L519.066,91.247 ZM505.935,53.920 L503.235,53.920 L502.965,52.930 L505.725,52.960 C506.745,52.960 507.255,52.340 507.255,51.100 L507.255,29.800 L495.345,29.800 L495.345,28.780 L508.275,28.780 L508.275,51.370 C508.275,53.070 507.495,53.920 505.935,53.920 ZM500.976,86.987 C499.296,90.447 496.756,93.447 493.356,95.987 L493.056,94.967 C496.316,92.467 498.646,89.657 500.046,86.537 L500.976,86.987 ZM487.635,27.100 L488.595,26.680 C490.055,28.381 491.335,30.231 492.435,32.230 L491.535,32.710 C490.275,30.511 488.975,28.641 487.635,27.100 ZM485.355,31.870 L486.375,31.870 L486.375,54.130 L485.355,54.130 L485.355,31.870 ZM472.575,41.980 C471.755,42.280 470.825,42.561 469.785,42.820 C470.345,44.361 470.655,46.030 470.715,47.830 C470.715,50.131 470.415,51.730 469.815,52.630 C469.215,53.590 467.715,54.070 465.315,54.070 L464.205,54.070 L463.875,53.200 L465.165,53.200 C467.105,53.140 468.325,52.820 468.825,52.240 C469.405,51.500 469.695,50.031 469.695,47.830 C469.655,46.911 469.565,46.060 469.425,45.280 C466.025,48.181 461.385,50.511 455.505,52.270 L454.995,51.370 C461.215,49.531 465.945,47.151 469.185,44.230 C468.885,43.131 468.465,42.121 467.925,41.200 C465.085,43.561 461.065,45.501 455.865,47.020 L455.355,46.120 C460.615,44.641 464.645,42.741 467.445,40.420 C466.845,39.520 466.255,38.781 465.675,38.200 C465.235,38.440 464.815,38.650 464.415,38.830 C462.115,39.871 459.445,40.791 456.405,41.590 L455.835,40.750 C458.835,40.051 461.455,39.201 463.695,38.200 C465.375,37.441 466.865,36.631 468.165,35.770 L458.505,35.770 L458.505,34.780 L476.715,34.780 L476.715,35.770 L469.605,35.770 C468.625,36.451 467.575,37.120 466.455,37.780 C467.755,39.021 468.755,40.431 469.455,42.010 C472.475,41.230 475.345,39.921 478.065,38.080 L478.785,38.770 C477.085,39.931 475.295,40.891 473.415,41.650 C474.855,45.871 477.255,49.191 480.615,51.610 L479.925,52.420 C476.425,49.701 473.975,46.221 472.575,41.980 ZM478.935,30.910 L456.255,30.910 L456.255,34.570 L455.235,34.570 L455.235,29.920 L467.595,29.920 C467.215,28.780 466.825,27.771 466.425,26.890 L467.445,26.680 C467.865,27.640 468.255,28.720 468.615,29.920 L479.925,29.920 L479.925,34.570 L478.935,34.570 L478.935,30.910 ZM461.016,89.927 L453.216,89.927 L453.216,92.777 L459.906,92.777 L459.906,93.677 L453.216,93.677 L453.216,96.557 L461.826,96.557 L461.826,97.487 L443.706,97.487 L443.706,96.557 L452.226,96.557 L452.226,93.677 L445.686,93.677 L445.686,92.777 L452.226,92.777 L452.226,89.927 L444.516,89.927 L444.516,89.027 L452.226,89.027 L452.226,86.687 L453.216,86.687 L453.216,89.027 L461.016,89.027 L461.016,89.927 ZM426.825,53.470 L426.405,52.450 C431.325,52.390 435.595,51.690 439.215,50.350 C438.075,48.771 436.865,47.341 435.585,46.060 L436.515,45.610 C437.715,46.831 438.925,48.280 440.145,49.960 C444.045,48.321 447.045,45.841 449.145,42.520 L439.335,42.520 C436.655,43.861 433.415,44.800 429.615,45.340 L429.015,44.440 C435.555,43.720 440.425,41.641 443.625,38.200 L444.495,38.710 C443.555,39.711 442.425,40.651 441.105,41.530 L450.435,41.530 L450.435,42.370 C446.235,49.570 438.365,53.270 426.825,53.470 ZM428.595,40.360 L428.115,39.400 C431.115,39.201 433.825,38.701 436.245,37.900 C435.185,36.561 434.045,35.350 432.825,34.270 L433.725,33.820 C434.965,34.941 436.125,36.181 437.205,37.540 C440.825,36.061 443.565,33.820 445.425,30.820 L435.585,30.820 C433.285,32.241 430.485,33.310 427.185,34.030 L426.585,33.130 C431.985,32.050 436.035,29.980 438.735,26.920 L439.635,27.400 C438.795,28.341 437.905,29.161 436.965,29.860 L446.625,29.860 L446.625,30.730 C443.385,36.490 437.375,39.700 428.595,40.360 ZM432.366,91.697 L432.366,92.687 L429.966,92.687 C429.886,97.907 428.956,102.317 427.176,105.917 C428.776,108.937 430.696,111.266 432.936,112.907 L432.336,113.807 C430.116,112.127 428.226,109.837 426.666,106.937 C425.146,109.697 423.136,111.977 420.636,113.777 L420.066,112.907 C422.626,111.086 424.646,108.757 426.126,105.917 C424.746,103.157 423.636,99.897 422.796,96.137 C422.156,97.857 421.396,99.407 420.516,100.787 L419.856,100.007 C421.916,96.667 423.306,92.187 424.026,86.567 L425.016,86.777 C424.776,88.537 424.476,90.177 424.116,91.697 L432.366,91.697 ZM423.876,92.687 L423.366,94.457 C424.186,98.537 425.276,101.987 426.636,104.807 C428.156,101.347 428.946,97.307 429.006,92.687 L423.876,92.687 ZM417.126,93.647 L416.106,93.647 L416.106,90.527 L410.796,90.527 L410.796,93.197 L409.776,93.197 L409.776,90.527 L405.726,90.527 L405.726,89.507 L409.776,89.507 L409.776,86.477 L410.796,86.477 L410.796,89.507 L416.106,89.507 L416.106,86.567 L417.126,86.567 L417.126,89.507 L420.816,89.507 L420.816,90.527 L417.126,90.527 L417.126,93.647 ZM410.436,93.647 C410.136,94.487 409.856,95.217 409.596,95.837 L418.746,95.837 C418.746,103.537 418.616,108.397 418.356,110.417 C418.116,112.577 416.976,113.657 414.936,113.657 L412.086,113.597 L411.846,112.667 C413.406,112.706 414.426,112.727 414.906,112.727 C416.306,112.727 417.126,111.906 417.366,110.267 C417.586,108.767 417.726,104.297 417.786,96.857 L409.116,96.857 C408.216,98.717 407.136,100.367 405.876,101.807 L405.216,101.027 C407.076,98.927 408.496,96.387 409.476,93.407 L410.436,93.647 ZM378.396,114.527 C379.696,113.627 380.376,112.466 380.436,111.047 L380.046,111.077 C379.686,111.077 379.386,110.977 379.146,110.777 C378.926,110.577 378.816,110.287 378.816,109.907 C378.816,109.507 378.916,109.207 379.116,109.007 C379.336,108.807 379.636,108.707 380.016,108.707 C380.976,108.707 381.456,109.357 381.456,110.657 C381.456,112.817 380.606,114.366 378.906,115.307 L378.396,114.527 ZM347.376,111.377 L356.766,111.377 L356.766,87.137 L357.756,87.137 L357.756,111.377 L363.216,111.377 L363.216,87.137 L364.206,87.137 L364.206,111.377 L373.656,111.377 L373.656,112.397 L347.376,112.397 L347.376,111.377 ZM366.876,106.247 C368.716,102.607 370.306,97.977 371.646,92.357 L372.576,92.627 C371.356,97.927 369.766,102.587 367.806,106.607 L366.876,106.247 ZM348.336,92.597 L349.236,92.297 C350.816,96.357 352.266,101.117 353.586,106.577 L352.626,106.817 C351.446,101.757 350.016,97.017 348.336,92.597 ZM337.416,113.777 L336.396,113.777 L336.396,100.007 L326.616,100.007 C326.416,103.187 325.856,105.847 324.936,107.987 C323.796,110.467 321.946,112.416 319.386,113.837 L318.786,112.937 C321.246,111.576 323.046,109.647 324.186,107.147 C324.946,105.167 325.416,102.787 325.596,100.007 L318.156,100.007 L318.156,99.017 L325.656,99.017 L325.686,98.177 L325.686,89.867 L319.836,89.867 L319.836,88.847 L342.786,88.847 L342.786,89.867 L337.416,89.867 L337.416,99.017 L344.406,99.017 L344.406,100.007 L337.416,100.007 L337.416,113.777 ZM336.396,89.867 L326.706,89.867 L326.706,98.207 L326.676,99.017 L336.396,99.017 L336.396,89.867 ZM305.136,110.387 C304.196,108.867 302.856,107.117 301.116,105.137 L301.866,104.627 C303.626,106.587 304.986,108.307 305.946,109.787 L305.136,110.387 ZM311.556,111.617 C311.556,113.096 310.776,113.837 309.216,113.837 L305.226,113.837 L305.046,112.847 C306.366,112.907 307.636,112.937 308.856,112.937 C309.976,112.937 310.536,112.416 310.536,111.377 L310.536,102.647 L298.716,102.647 L298.716,101.657 L310.536,101.657 L310.536,98.237 L311.556,98.237 L311.556,101.657 L315.606,101.657 L315.606,102.647 L311.556,102.647 L311.556,111.617 ZM299.526,98.807 C302.246,98.147 304.566,97.327 306.486,96.347 C305.286,95.147 304.116,94.177 302.976,93.437 L303.756,92.867 C304.936,93.707 306.136,94.707 307.356,95.867 C310.036,94.307 311.936,92.437 313.056,90.257 L304.236,90.257 C302.776,92.017 300.956,93.457 298.776,94.577 L298.116,93.797 C301.556,92.077 303.886,89.717 305.106,86.717 L306.186,86.927 C305.806,87.827 305.386,88.617 304.926,89.297 L314.196,89.297 L314.196,90.167 C312.216,94.667 307.516,97.847 300.096,99.707 L299.526,98.807 ZM289.702,36.730 L299.482,36.730 L299.482,47.230 C299.482,48.871 298.732,49.690 297.232,49.690 L294.292,49.690 L294.022,48.640 L296.902,48.700 C297.942,48.700 298.462,48.141 298.462,47.020 L298.462,37.720 L289.702,37.720 L289.702,54.010 L288.682,54.010 L288.682,37.720 L280.282,37.720 L280.282,49.870 L279.292,49.870 L279.292,36.730 L288.682,36.730 L288.682,31.720 L276.052,31.720 L276.052,30.730 L288.952,30.730 C288.412,29.211 287.812,27.871 287.152,26.710 L288.232,26.530 C288.832,27.651 289.412,29.050 289.972,30.730 L302.332,30.730 L302.332,31.720 L289.702,31.720 L289.702,36.730 ZM284.886,107.687 C284.886,109.047 284.276,109.727 283.056,109.727 L279.816,109.727 L279.546,108.707 L282.696,108.737 C283.496,108.737 283.896,108.317 283.896,107.477 L283.896,89.147 L276.996,89.147 L276.996,113.837 L275.946,113.837 L275.946,88.187 L284.886,88.187 L284.886,107.687 ZM271.296,109.487 C268.336,110.807 264.886,111.947 260.946,112.907 L260.616,111.977 C261.016,111.816 261.216,111.587 261.216,111.287 L261.216,88.187 L271.716,88.187 L271.716,101.327 L262.236,101.327 L262.236,111.527 C265.376,110.667 268.236,109.697 270.816,108.617 C270.136,107.417 269.306,106.067 268.326,104.567 L269.136,104.057 C271.116,107.097 272.606,109.737 273.606,111.977 L272.796,112.547 C272.396,111.647 271.896,110.627 271.296,109.487 ZM270.726,89.147 L262.236,89.147 L262.236,94.157 L270.726,94.157 L270.726,89.147 ZM270.726,100.337 L270.726,95.087 L262.236,95.087 L262.236,100.337 L270.726,100.337 ZM270.892,52.150 C271.552,52.130 272.092,50.461 272.512,47.140 L273.382,47.620 C272.842,51.520 272.102,53.470 271.162,53.470 C270.242,53.470 269.252,52.560 268.192,50.740 C267.592,49.681 267.132,48.610 266.812,47.530 C264.972,50.211 262.762,52.240 260.182,53.620 L259.552,52.840 C262.332,51.400 264.632,49.240 266.452,46.360 C266.092,45.220 265.792,43.990 265.552,42.670 C265.032,39.970 264.712,36.681 264.592,32.800 L256.852,32.800 L256.852,38.020 L262.252,38.020 C262.252,43.180 262.072,46.330 261.712,47.470 C261.312,48.550 260.642,49.120 259.702,49.180 L257.602,49.180 L257.362,48.280 L259.432,48.280 C260.232,48.181 260.732,47.601 260.932,46.540 C261.112,45.460 261.232,42.931 261.292,38.950 L256.852,38.950 L256.852,39.490 C256.732,45.411 255.372,50.170 252.772,53.770 L251.992,53.110 C254.432,49.870 255.712,45.331 255.832,39.490 L255.832,31.810 L264.562,31.810 C264.502,30.250 264.472,28.621 264.472,26.920 L265.492,26.920 C265.492,29.181 265.512,30.811 265.552,31.810 L272.662,31.810 L272.662,32.800 L265.582,32.800 C265.702,36.760 266.002,39.970 266.482,42.430 C266.662,43.431 266.872,44.371 267.112,45.250 C268.512,42.771 269.612,39.721 270.412,36.100 L271.312,36.460 C270.392,40.381 269.112,43.720 267.472,46.480 C267.832,47.701 268.272,48.820 268.792,49.840 C269.632,51.380 270.332,52.150 270.892,52.150 ZM268.222,26.920 L269.062,26.590 C269.962,27.891 270.712,29.230 271.312,30.610 L270.472,30.970 C269.792,29.410 269.042,28.060 268.222,26.920 ZM246.082,48.190 C247.362,47.791 248.502,47.391 249.502,46.990 L249.502,36.010 L246.412,36.010 L246.412,34.990 L249.502,34.990 L249.502,27.010 L250.522,27.010 L250.522,34.990 L253.582,34.990 L253.582,36.010 L250.522,36.010 L250.522,46.540 C251.662,45.981 252.682,45.430 253.582,44.890 L253.582,45.910 C251.382,47.230 248.962,48.310 246.322,49.150 L246.082,48.190 ZM256.716,91.067 L234.096,91.067 L234.096,98.177 C233.976,104.677 232.866,109.877 230.766,113.777 L230.016,113.087 C231.976,109.507 232.986,104.537 233.046,98.177 L233.046,90.047 L244.476,90.047 C243.976,88.747 243.426,87.647 242.826,86.747 L243.876,86.567 C244.476,87.567 245.026,88.727 245.526,90.047 L256.716,90.047 L256.716,91.067 ZM243.562,53.950 C236.962,49.911 232.612,44.041 230.512,36.340 C228.952,44.560 224.702,50.470 217.762,54.070 L217.132,53.230 C223.892,49.870 228.022,44.191 229.522,36.190 L217.672,36.190 L217.672,35.170 L229.702,35.170 C229.982,33.291 230.142,31.261 230.182,29.080 L230.182,26.950 L231.202,26.950 L231.202,28.840 C231.202,30.940 231.042,33.051 230.722,35.170 L243.712,35.170 L243.712,36.190 L231.382,36.190 C233.462,43.570 237.722,49.210 244.162,53.110 L243.562,53.950 ZM225.696,111.197 C225.696,112.896 224.916,113.747 223.356,113.747 L220.656,113.747 L220.386,112.757 L223.146,112.787 C224.166,112.787 224.676,112.166 224.676,110.927 L224.676,89.627 L212.766,89.627 L212.766,88.607 L225.696,88.607 L225.696,111.197 ZM205.056,86.927 L206.016,86.507 C207.476,88.207 208.756,90.057 209.856,92.057 L208.956,92.537 C207.696,90.337 206.396,88.467 205.056,86.927 ZM202.776,91.697 L203.796,91.697 L203.796,113.957 L202.776,113.957 L202.776,91.697 ZM173.496,113.297 L173.076,112.277 C177.996,112.217 182.266,111.516 185.886,110.177 C184.746,108.597 183.536,107.167 182.256,105.887 L183.186,105.437 C184.386,106.657 185.596,108.107 186.816,109.787 C190.716,108.147 193.716,105.667 195.816,102.347 L186.006,102.347 C183.326,103.687 180.086,104.627 176.286,105.167 L175.686,104.267 C182.226,103.547 187.096,101.467 190.296,98.027 L191.166,98.537 C190.226,99.537 189.096,100.477 187.776,101.357 L197.106,101.357 L197.106,102.197 C192.906,109.397 185.036,113.096 173.496,113.297 ZM175.266,100.187 L174.786,99.227 C177.786,99.027 180.496,98.527 182.916,97.727 C181.856,96.387 180.716,95.177 179.496,94.097 L180.396,93.647 C181.636,94.767 182.796,96.007 183.876,97.367 C187.496,95.887 190.236,93.647 192.096,90.647 L182.256,90.647 C179.956,92.067 177.156,93.137 173.856,93.857 L173.256,92.957 C178.656,91.877 182.706,89.807 185.406,86.747 L186.306,87.227 C185.466,88.167 184.576,88.987 183.636,89.687 L193.296,89.687 L193.296,90.557 C190.056,96.317 184.046,99.527 175.266,100.187 ZM169.476,112.787 L169.206,113.747 C163.026,113.507 157.706,112.286 153.246,110.087 C151.286,111.986 147.806,113.237 142.806,113.837 L142.356,112.907 C147.156,112.386 150.476,111.296 152.316,109.637 C150.256,108.517 148.416,107.237 146.796,105.797 L147.606,105.227 C149.246,106.687 151.036,107.917 152.976,108.917 C153.976,107.637 154.656,105.927 155.016,103.787 L145.866,103.787 L145.866,92.627 L155.286,92.627 L155.286,89.177 L143.196,89.177 L143.196,88.187 L168.366,88.187 L168.366,89.177 L156.306,89.177 L156.306,92.627 L165.786,92.627 L165.786,103.787 L156.036,103.787 C155.676,106.147 154.966,108.007 153.906,109.367 C158.266,111.407 163.456,112.547 169.476,112.787 ZM164.796,93.587 L156.306,93.587 L156.306,97.697 L164.796,97.697 L164.796,93.587 ZM164.796,102.857 L164.796,98.627 L156.306,98.627 L156.306,100.247 C156.286,100.947 156.236,101.817 156.156,102.857 L164.796,102.857 ZM155.286,93.587 L146.886,93.587 L146.886,97.697 L155.286,97.697 L155.286,93.587 ZM155.286,100.247 L155.286,98.627 L146.886,98.627 L146.886,102.857 L155.136,102.857 C155.236,101.917 155.286,101.047 155.286,100.247 ZM92.309,53.213 L57.706,53.213 L57.706,55.701 L56.031,55.701 L56.031,15.211 L93.984,15.211 L93.984,55.701 L92.309,55.701 L92.309,53.213 ZM92.309,16.838 L57.706,16.838 L57.706,51.681 L92.309,51.681 L92.309,16.838 ZM81.493,36.126 C82.769,37.881 83.934,39.796 84.987,41.870 L83.694,42.492 C82.609,40.290 81.428,38.328 80.153,36.605 L81.493,36.126 ZM74.218,34.355 L64.694,34.355 L64.694,32.824 L74.218,32.824 L74.218,24.257 L63.162,24.257 L63.162,22.725 L86.853,22.725 L86.853,24.257 L75.845,24.257 L75.845,32.824 L85.370,32.824 L85.370,34.355 L75.845,34.355 L75.845,43.545 L88.241,43.545 L88.241,45.124 L61.870,45.124 L61.870,43.545 L74.218,43.545 L74.218,34.355 ZM28.367,14.349 C23.007,20.444 16.002,25.677 7.356,30.048 L6.590,28.612 C15.077,24.400 22.145,19.136 27.793,12.818 L28.941,12.818 C35.131,19.423 42.151,24.560 50.000,28.229 L49.187,29.617 C41.114,25.725 34.174,20.636 28.367,14.349 ZM27.553,41.582 L12.956,41.582 L12.956,40.003 L27.553,40.003 L27.553,29.856 L15.062,29.856 L15.062,28.277 L41.768,28.277 L41.768,29.856 L29.181,29.856 L29.181,40.003 L43.730,40.003 L43.730,41.582 L29.181,41.582 L29.181,52.543 L48.086,52.543 L48.086,54.170 L8.696,54.170 L8.696,52.543 L27.553,52.543 L27.553,41.582 ZM244.806,92.837 L245.796,92.837 L245.796,96.947 L256.296,96.947 L256.296,97.967 L245.796,97.967 L245.796,103.277 L253.776,103.277 L253.776,113.897 L252.756,113.897 L252.756,112.127 L238.746,112.127 L238.746,113.897 L237.726,113.897 L237.726,103.277 L244.806,103.277 L244.806,92.837 ZM238.746,104.267 L238.746,111.107 L252.756,111.107 L252.756,104.267 L238.746,104.267 ZM293.436,96.707 L292.506,97.127 C291.226,94.627 289.866,92.497 288.426,90.737 L289.326,90.377 C290.966,92.417 292.336,94.527 293.436,96.707 ZM295.146,86.717 L296.196,86.717 L296.196,113.897 L295.146,113.897 L295.146,102.857 C292.866,104.977 290.786,106.627 288.906,107.807 L288.426,106.847 C290.246,105.767 292.486,104.037 295.146,101.657 L295.146,86.717 ZM414.126,108.707 L407.796,108.707 L407.796,100.727 L414.126,100.727 L414.126,108.707 ZM413.166,101.687 L408.726,101.687 L408.726,107.777 L413.166,107.777 L413.166,101.687 ZM437.616,87.167 C439.776,88.787 441.566,90.377 442.986,91.937 L442.296,92.687 C440.896,91.127 439.096,89.517 436.896,87.857 L437.616,87.167 ZM440.346,110.507 C441.486,109.547 442.686,108.377 443.946,106.997 L444.216,108.107 C442.696,109.727 441.036,111.227 439.236,112.607 L438.786,111.707 C439.166,111.326 439.356,110.997 439.356,110.717 L439.356,97.277 L434.706,97.277 L434.706,96.257 L440.346,96.257 L440.346,110.507 ZM459.276,111.887 C459.276,113.147 458.576,113.777 457.176,113.777 L454.656,113.777 L454.386,112.787 L456.876,112.847 C457.816,112.847 458.286,112.457 458.286,111.677 L458.286,108.977 L447.276,108.977 L447.276,113.927 L446.286,113.927 L446.286,100.187 L459.276,100.187 L459.276,111.887 ZM458.286,101.117 L447.276,101.117 L447.276,104.177 L458.286,104.177 L458.286,101.117 ZM458.286,105.047 L447.276,105.047 L447.276,108.077 L458.286,108.077 L458.286,105.047 ZM469.206,108.047 C468.026,110.207 466.606,112.116 464.946,113.777 L464.166,113.207 C465.766,111.666 467.156,109.807 468.336,107.627 L469.206,108.047 ZM476.556,112.847 L475.686,113.447 C474.866,111.887 473.726,110.167 472.266,108.287 L473.076,107.777 C474.576,109.697 475.736,111.386 476.556,112.847 ZM478.146,105.317 L478.146,106.277 L464.226,106.277 L464.226,105.317 L466.806,105.317 L466.806,91.457 L464.526,91.457 L464.526,90.497 L466.806,90.497 L466.806,86.717 L467.826,86.717 L467.826,90.497 L474.756,90.497 L474.756,86.777 L475.776,86.777 L475.776,90.497 L477.996,90.497 L477.996,91.457 L475.776,91.457 L475.776,105.317 L478.146,105.317 ZM474.756,91.457 L467.826,91.457 L467.826,95.507 L474.756,95.507 L474.756,91.457 ZM474.756,96.437 L467.826,96.437 L467.826,100.367 L474.756,100.367 L474.756,96.437 ZM474.756,101.327 L467.826,101.327 L467.826,105.317 L474.756,105.317 L474.756,101.327 ZM480.546,88.127 L489.486,88.127 L489.486,111.227 C489.486,112.847 488.756,113.657 487.296,113.657 L484.056,113.657 L483.756,112.667 L486.966,112.697 C487.946,112.697 488.436,112.086 488.436,110.867 L488.436,103.907 L481.476,103.907 C481.096,107.907 479.876,111.206 477.816,113.807 L477.036,113.117 C479.316,110.117 480.486,106.297 480.546,101.657 L480.546,88.127 ZM488.436,89.087 L481.596,89.087 L481.596,95.417 L488.436,95.417 L488.436,89.087 ZM488.436,102.947 L488.436,96.377 L481.596,96.377 L481.596,102.287 L481.566,102.947 L488.436,102.947 ZM501.906,93.887 C501.046,95.727 500.046,97.407 498.906,98.927 L498.906,113.957 L497.916,113.957 L497.916,100.157 C496.676,101.597 495.246,102.957 493.626,104.237 L493.326,103.217 C496.886,100.317 499.446,97.067 501.006,93.467 L501.906,93.887 ZM514.926,99.077 L515.946,99.077 L515.946,101.627 L519.906,101.627 L519.906,102.617 L515.946,102.617 L515.946,111.497 C515.946,112.956 515.196,113.687 513.696,113.687 L509.316,113.687 L509.106,112.697 C510.606,112.757 512.016,112.787 513.336,112.787 C514.396,112.787 514.926,112.277 514.926,111.257 L514.926,102.617 L502.866,102.617 L502.866,101.627 L514.926,101.627 L514.926,99.077 ZM509.736,109.337 L508.896,109.907 C507.816,108.407 506.376,106.797 504.576,105.077 L505.356,104.567 C507.216,106.307 508.676,107.897 509.736,109.337 ZM527.385,33.010 L528.375,33.010 L528.375,37.120 L538.875,37.120 L538.875,38.140 L528.375,38.140 L528.375,43.450 L536.355,43.450 L536.355,54.070 L535.335,54.070 L535.335,52.300 L521.325,52.300 L521.325,54.070 L520.305,54.070 L520.305,43.450 L527.385,43.450 L527.385,33.010 ZM521.325,44.440 L521.325,51.280 L535.335,51.280 L535.335,44.440 L521.325,44.440 ZM618.255,43.900 L611.805,43.900 L611.805,42.910 L625.755,42.910 L625.755,43.900 L619.275,43.900 L619.275,52.030 L627.135,52.030 L627.135,53.050 L610.455,53.050 L610.455,52.030 L618.255,52.030 L618.255,43.900 ZM654.675,39.190 L653.655,39.190 L653.655,35.080 L632.535,35.080 L632.535,39.340 L631.515,39.340 L631.515,34.150 L654.675,34.150 L654.675,39.190 ZM650.085,37.990 L650.085,43.510 L636.195,43.510 L636.195,37.990 L650.085,37.990 ZM637.185,42.640 L649.095,42.640 L649.095,38.860 L637.185,38.860 L637.185,42.640 ZM652.875,54.130 L651.885,54.130 L651.885,52.780 L634.395,52.780 L634.395,54.130 L633.375,54.130 L633.375,46.240 L652.875,46.240 L652.875,54.130 ZM651.885,47.200 L634.395,47.200 L634.395,51.880 L651.885,51.880 L651.885,47.200 Z" class="cls-1"/>
  <path d="M329.984,39.250 C327.594,39.250 325.656,37.312 325.656,34.922 C325.656,32.531 327.594,30.594 329.984,30.594 C332.375,30.594 334.312,32.531 334.312,34.922 C334.312,37.312 332.375,39.250 329.984,39.250 ZM140.479,39.258 C138.085,39.258 136.145,37.318 136.145,34.924 C136.145,32.530 138.085,30.590 140.479,30.590 C142.872,30.590 144.812,32.530 144.812,34.924 C144.812,37.318 142.872,39.258 140.479,39.258 Z" class="cls-2"/>
</svg>
