<svg xmlns="http://www.w3.org/2000/svg" preserveAspectRatio="xMidYMid" width="660" height="120" viewBox="0 0 660 120"><defs><style>.cls-1,.cls-2{fill:#171717;fill-rule:evenodd}.cls-2{fill:#413030}</style></defs><path d="M208.533 32.55c-1.4-2.146-3.36-3.686-5.88-4.62v-.14c2.24-.933 3.92-2.38 5.04-4.34s1.68-4.27 1.68-6.93c0-1.726-.257-3.36-.77-4.9-.514-1.54-1.272-2.881-2.275-4.025-1.004-1.143-2.24-2.041-3.71-2.695-1.47-.653-3.185-.98-5.145-.98-1.96 0-3.675.327-5.145.98-1.47.654-2.707 1.552-3.71 2.695-1.004 1.144-1.75 2.485-2.24 4.025-.49 1.54-.735 3.174-.735 4.9 0 2.66.571 4.97 1.715 6.93 1.143 1.96 2.835 3.407 5.075 4.34v.14c-2.52.84-4.48 2.357-5.88 4.55-1.4 2.194-2.1 4.97-2.1 8.33 0 2.147.303 4.095.91 5.845.606 1.75 1.47 3.255 2.59 4.515 1.12 1.26 2.485 2.24 4.095 2.94 1.61.7 3.418 1.05 5.425 1.05 2.006 0 3.826-.35 5.46-1.05 1.633-.7 3.021-1.68 4.165-2.94 1.143-1.26 2.018-2.765 2.625-4.515.606-1.75.91-3.698.91-5.845 0-3.36-.7-6.113-2.1-8.26zm-4.48-12.18c-.327 1.12-.794 2.1-1.4 2.94a7.17 7.17 0 0 1-2.24 2.03c-.887.514-1.867.77-2.94.77-1.074 0-2.042-.256-2.905-.77a7.287 7.287 0 0 1-2.205-2.03c-.607-.84-1.074-1.82-1.4-2.94-.327-1.12-.49-2.31-.49-3.57 0-2.66.595-4.853 1.785-6.58 1.19-1.726 2.928-2.59 5.215-2.59 2.24 0 3.978.864 5.215 2.59 1.236 1.727 1.855 3.92 1.855 6.58 0 1.26-.164 2.45-.49 3.57zm1.015 24.43c-.35 1.307-.875 2.439-1.575 3.395a7.55 7.55 0 0 1-2.555 2.24c-1.004.537-2.159.805-3.465.805-1.26 0-2.392-.268-3.395-.805a7.54 7.54 0 0 1-2.555-2.24c-.7-.956-1.237-2.088-1.61-3.395-.374-1.306-.56-2.706-.56-4.2 0-3.173.746-5.751 2.24-7.735 1.493-1.983 3.453-2.975 5.88-2.975 2.426 0 4.386.992 5.88 2.975 1.493 1.984 2.24 4.562 2.24 7.735 0 1.494-.175 2.894-.525 4.2zm213.684-5.37c-.35 3.034-1.015 5.787-1.995 8.26-.98 2.474-2.334 4.504-4.06 6.09-1.727 1.586-3.967 2.38-6.72 2.38-2.754 0-4.994-.794-6.72-2.38-1.727-1.586-3.08-3.616-4.06-6.09-.98-2.473-1.657-5.226-2.03-8.26a72.612 72.612 0 0 1-.56-8.89c0-2.893.186-5.856.56-8.89.373-3.033 1.05-5.786 2.03-8.26.98-2.473 2.333-4.503 4.06-6.09 1.726-1.586 3.966-2.38 6.72-2.38 2.753 0 4.993.794 6.72 2.38 1.726 1.587 3.08 3.617 4.06 6.09.98 2.474 1.645 5.227 1.995 8.26.35 3.034.525 5.997.525 8.89a77.53 77.53 0 0 1-.525 8.89zm-4.55-12.928a66.683 66.683 0 0 0-.385-4.67 38.432 38.432 0 0 0-.84-4.67c-.374-1.522-.864-2.879-1.47-4.074-.607-1.193-1.365-2.152-2.275-2.878-.91-.727-1.995-1.09-3.255-1.09-1.26 0-2.345.363-3.255 1.09-.91.726-1.669 1.685-2.275 2.878-.607 1.195-1.109 2.552-1.505 4.074a34.2 34.2 0 0 0-.875 4.67 66.084 66.084 0 0 0-.385 4.67 89.077 89.077 0 0 0-.105 4.038c0 1.218.035 2.587.105 4.108a63.97 63.97 0 0 0 .385 4.636c.186 1.568.478 3.114.875 4.635.396 1.523.898 2.88 1.505 4.073.606 1.195 1.365 2.154 2.275 2.88.91.726 1.995 1.088 3.255 1.088 1.26 0 2.345-.362 3.255-1.088.91-.726 1.668-1.685 2.275-2.88.606-1.193 1.096-2.55 1.47-4.073.373-1.521.653-3.067.84-4.635a64.54 64.54 0 0 0 .385-4.636c.07-1.521.105-2.89.105-4.108 0-1.17-.035-2.515-.105-4.038zm-28.244 7.048c1.4 2.147 2.1 4.9 2.1 8.26 0 2.147-.304 4.095-.91 5.845-.607 1.75-1.482 3.255-2.625 4.515-1.144 1.26-2.532 2.24-4.165 2.94-1.634.7-3.454 1.05-5.46 1.05-2.007 0-3.815-.35-5.425-1.05-1.61-.7-2.975-1.68-4.095-2.94-1.12-1.26-1.984-2.765-2.59-4.515-.607-1.75-.91-3.698-.91-5.845 0-3.36.7-6.136 2.1-8.33 1.4-2.193 3.36-3.71 5.88-4.55v-.14c-2.24-.933-3.932-2.38-5.075-4.34-1.144-1.96-1.715-4.27-1.715-6.93 0-1.726.245-3.36.735-4.9.49-1.54 1.236-2.881 2.24-4.025 1.003-1.143 2.24-2.041 3.71-2.695 1.47-.653 3.185-.98 5.145-.98 1.96 0 3.675.327 5.145.98 1.47.654 2.706 1.552 3.71 2.695 1.003 1.144 1.761 2.485 2.275 4.025.513 1.54.77 3.174.77 4.9 0 2.66-.56 4.97-1.68 6.93-1.12 1.96-2.8 3.407-5.04 4.34v.14c2.52.934 4.48 2.474 5.88 4.62zm-4.48-12.18c.326-1.12.49-2.31.49-3.57 0-2.66-.619-4.853-1.855-6.58-1.237-1.726-2.975-2.59-5.215-2.59-2.287 0-4.025.864-5.215 2.59-1.19 1.727-1.785 3.92-1.785 6.58 0 1.26.163 2.45.49 3.57.326 1.12.793 2.1 1.4 2.94a7.287 7.287 0 0 0 2.205 2.03c.863.514 1.831.77 2.905.77 1.073 0 2.053-.256 2.94-.77a7.17 7.17 0 0 0 2.24-2.03c.606-.84 1.073-1.82 1.4-2.94zm-6.58 9.52c-2.427 0-4.387.992-5.88 2.975-1.494 1.984-2.24 4.562-2.24 7.735 0 1.494.186 2.894.56 4.2.373 1.307.91 2.439 1.61 3.395a7.54 7.54 0 0 0 2.555 2.24c1.003.537 2.135.805 3.395.805 1.306 0 2.461-.268 3.465-.805a7.55 7.55 0 0 0 2.555-2.24c.7-.956 1.225-2.088 1.575-3.395.35-1.306.525-2.706.525-4.2 0-3.173-.747-5.751-2.24-7.735-1.494-1.983-3.454-2.975-5.88-2.975zm273.777-.67v2.16h-1.02v-2.16h-9.12v2.16h-1.02v-2.16h-7.17v-.93h7.17v-2.34h1.02v2.34h9.12v-2.34h1.02v2.34h7.17v.93h-7.17zm-22.05 10.65c-1.86-1.8-4.2-3.639-7.02-5.52-2.34 2.16-5.23 3.921-8.67 5.28l-.63-.84c5.98-2.379 10.12-5.769 12.42-10.17h-11.04V28.6h12.27v.84a20.385 20.385 0 0 1-3.69 5.28c2.76 1.761 5.12 3.561 7.08 5.4l-.72.75zm-16.56 2.43v.99c-3.02.921-5.92 1.571-8.7 1.95l-.3-.99c.24-.12.41-.219.51-.3 1.56-1.519 3.37-4.02 5.43-7.5-2.16.341-4.18.611-6.06.81l-.27-.96c.2-.099.35-.229.45-.39 1.84-2.719 3.44-6 4.8-9.84l.99.36c-1.7 4.281-3.36 7.541-4.98 9.78 1.94-.159 3.82-.409 5.64-.75.44-.759 1.08-1.92 1.92-3.48l.96.36c-3.24 5.82-5.85 9.75-7.83 11.79a51.39 51.39 0 0 0 7.44-1.83zm-.06 5.85c-2.76 1.401-5.9 2.54-9.42 3.42l-.15-1.02c3.56-.819 6.75-1.939 9.57-3.36v.96zm-18.84-.27l.51-.78a31.977 31.977 0 0 1 6.75 5.28l-.57.9c-2.2-2.3-4.43-4.099-6.69-5.4zm2.31-15.87c1.26-1.8 2.29-3.649 3.09-5.55l.9.42c-.78 1.901-1.81 3.771-3.09 5.61l-.9-.48zm3.03 14.55h-1.02V36.25h-10.59V47.8h-1.02V35.29h5.85v-8.52h.99v8.52h5.79v12.27zm-13.38-19.29l.9-.45a45.89 45.89 0 0 1 2.88 5.13l-.87.45c-.96-1.98-1.93-3.69-2.91-5.13zm6.45 13.29v-3.15h.99v3.15c-.04 3.36-.68 6.041-1.92 8.04-1.26 1.86-3.32 3.33-6.18 4.41l-.6-.87c2.76-1.02 4.77-2.46 6.03-4.32 1.1-1.879 1.66-4.299 1.68-7.26zm-14.1 10.65c.4-.12.6-.35.6-.69v-8.13h-4.32v-.99h4.32v-4.77h-2.31v-.93h6.63v.93h-3.33v4.77h4.32v.99h-4.32v8.37c1.5-.519 3.03-1.269 4.59-2.25l.18.93c-1.74 1.1-3.71 1.99-5.91 2.67l-.45-.9zm-3.54-14.67l-.84-.54c1.72-2.88 3.02-6.24 3.9-10.08l.99.21a55.192 55.192 0 0 1-1.02 3.6h6.18v.99h-6.51c-.78 2.16-1.68 4.101-2.7 5.82zm-10.29 15.99c-1 0-2.76-.02-5.28-.06-2-.06-3.52-.26-4.56-.6-1.2-.36-2.28-1.13-3.24-2.31-.38-.519-.76-.78-1.14-.78-.88 0-2.25 1.421-4.11 4.26l-.81-.69c1.76-2.719 3.25-4.23 4.47-4.53V38.65h-4.65v-1.02h5.64v11.22c.36.141.76.461 1.2.96.72.921 1.58 1.6 2.58 2.04.98.36 2.35.57 4.11.63 1.88.04 3.76.06 5.64.06l7.2-.09-.24 1.08h-6.81zm-1.5-2.91h-.99v-6.27h-8.64v-.99h8.64v-4.68h-7.44l-.24-.99c1.44-1.68 2.75-3.799 3.93-6.36h-4.71v-.99h5.13c.36-.84.8-2.029 1.32-3.57l1.02.21c-.4 1.121-.82 2.241-1.26 3.36h11.1v.99h-11.52c-1.04 2.34-2.28 4.47-3.72 6.39h6.39v-4.2h.99v4.2h6.96v.96h-6.96v4.68h8.34v.99h-8.34v6.27zm-17.07-22.29l.69-.69c2.06 1.56 3.78 3.101 5.16 4.62l-.72.72c-1.34-1.5-3.05-3.049-5.13-4.65zm-26.4 10.02c-.12 6.501-1.23 11.7-3.33 15.6l-.75-.69c1.96-3.579 2.97-8.55 3.03-14.91v-8.13h11.43c-.5-1.299-1.05-2.4-1.65-3.3l1.05-.18c.6 1.001 1.15 2.16 1.65 3.48h11.19v1.02h-22.62v7.11zm2.391 52.897h-7.14v4.71h8.37v1.02h-17.52v-1.02h8.16v-4.71h-7.11v-.99h7.11v-3.63h.99v3.63h7.14v.99zM505.935 53.92h-2.7l-.27-.99 2.76.03c1.02 0 1.53-.62 1.53-1.86V29.8h-11.91v-1.02h12.93v22.59c0 1.7-.78 2.55-2.34 2.55zm-4.959 33.067c-1.68 3.46-4.22 6.46-7.62 9l-.3-1.02c3.26-2.5 5.59-5.31 6.99-8.43l.93.45zM487.635 27.1l.96-.42a32.695 32.695 0 0 1 3.84 5.55l-.9.48c-1.26-2.199-2.56-4.069-3.9-5.61zm-2.28 4.77h1.02v22.26h-1.02V31.87zm-12.78 10.11c-.82.3-1.75.581-2.79.84.56 1.541.87 3.21.93 5.01 0 2.301-.3 3.9-.9 4.8-.6.96-2.1 1.44-4.5 1.44h-1.11l-.33-.87h1.29c1.94-.06 3.16-.38 3.66-.96.58-.74.87-2.209.87-4.41-.04-.919-.13-1.77-.27-2.55-3.4 2.901-8.04 5.231-13.92 6.99l-.51-.9c6.22-1.839 10.95-4.219 14.19-7.14a12.43 12.43 0 0 0-1.26-3.03c-2.84 2.361-6.86 4.301-12.06 5.82l-.51-.9c5.26-1.479 9.29-3.379 12.09-5.7-.6-.9-1.19-1.639-1.77-2.22-.44.24-.86.45-1.26.63-2.3 1.041-4.97 1.961-8.01 2.76l-.57-.84c3-.699 5.62-1.549 7.86-2.55 1.68-.759 3.17-1.569 4.47-2.43h-9.66v-.99h18.21v.99h-7.11c-.98.681-2.03 1.35-3.15 2.01 1.3 1.241 2.3 2.651 3 4.23 3.02-.78 5.89-2.089 8.61-3.93l.72.69a28.254 28.254 0 0 1-5.37 2.88c1.44 4.221 3.84 7.541 7.2 9.96l-.69.81c-3.5-2.719-5.95-6.199-7.35-10.44zm6.36-11.07h-22.68v3.66h-1.02v-4.65h12.36a31.34 31.34 0 0 0-1.17-3.03l1.02-.21c.42.96.81 2.04 1.17 3.24h11.31v4.65h-.99v-3.66zm-17.919 59.017h-7.8v2.85h6.69v.9h-6.69v2.88h8.61v.93h-18.12v-.93h8.52v-2.88h-6.54v-.9h6.54v-2.85h-7.71v-.9h7.71v-2.34h.99v2.34h7.8v.9zM426.825 53.47l-.42-1.02c4.92-.06 9.19-.76 12.81-2.1a35.209 35.209 0 0 0-3.63-4.29l.93-.45c1.2 1.221 2.41 2.67 3.63 4.35 3.9-1.639 6.9-4.119 9-7.44h-9.81c-2.68 1.341-5.92 2.28-9.72 2.82l-.6-.9c6.54-.72 11.41-2.799 14.61-6.24l.87.51c-.94 1.001-2.07 1.941-3.39 2.82h9.33v.84c-4.2 7.2-12.07 10.9-23.61 11.1zm1.77-13.11l-.48-.96c3-.199 5.71-.699 8.13-1.5a28.246 28.246 0 0 0-3.42-3.63l.9-.45a31.004 31.004 0 0 1 3.48 3.72c3.62-1.479 6.36-3.72 8.22-6.72h-9.84c-2.3 1.421-5.1 2.49-8.4 3.21l-.6-.9c5.4-1.08 9.45-3.15 12.15-6.21l.9.48c-.84.941-1.73 1.761-2.67 2.46h9.66v.87c-3.24 5.76-9.25 8.97-18.03 9.63zm3.771 51.337v.99h-2.4c-.08 5.22-1.01 9.63-2.79 13.23 1.6 3.02 3.52 5.349 5.76 6.99l-.6.9c-2.22-1.68-4.11-3.97-5.67-6.87-1.52 2.76-3.53 5.04-6.03 6.84l-.57-.87c2.56-1.821 4.58-4.15 6.06-6.99-1.38-2.76-2.49-6.02-3.33-9.78-.64 1.72-1.4 3.27-2.28 4.65l-.66-.78c2.06-3.34 3.45-7.82 4.17-13.44l.99.21c-.24 1.76-.54 3.4-.9 4.92h8.25zm-8.49.99l-.51 1.77c.82 4.08 1.91 7.53 3.27 10.35 1.52-3.46 2.31-7.5 2.37-12.12h-5.13zm-6.75.96h-1.02v-3.12h-5.31v2.67h-1.02v-2.67h-4.05v-1.02h4.05v-3.03h1.02v3.03h5.31v-2.94h1.02v2.94h3.69v1.02h-3.69v3.12zm-6.69 0c-.3.84-.58 1.57-.84 2.19h9.15c0 7.7-.13 12.56-.39 14.58-.24 2.16-1.38 3.24-3.42 3.24l-2.85-.06-.24-.93c1.56.039 2.58.06 3.06.06 1.4 0 2.22-.821 2.46-2.46.22-1.5.36-5.97.42-13.41h-8.67c-.9 1.86-1.98 3.51-3.24 4.95l-.66-.78c1.86-2.1 3.28-4.64 4.26-7.62l.96.24zm-32.04 20.88c1.3-.9 1.98-2.061 2.04-3.48l-.39.03c-.36 0-.66-.1-.9-.3-.22-.2-.33-.49-.33-.87 0-.4.1-.7.3-.9.22-.2.52-.3.9-.3.96 0 1.44.65 1.44 1.95 0 2.16-.85 3.709-2.55 4.65l-.51-.78zm-31.02-3.15h9.39v-24.24h.99v24.24h5.46v-24.24h.99v24.24h9.45v1.02h-26.28v-1.02zm19.5-5.13c1.84-3.64 3.43-8.27 4.77-13.89l.93.27c-1.22 5.3-2.81 9.96-4.77 13.98l-.93-.36zm-18.54-13.65l.9-.3c1.58 4.06 3.03 8.82 4.35 14.28l-.96.24c-1.18-5.06-2.61-9.8-4.29-14.22zm-10.92 21.18h-1.02v-13.77h-9.78c-.2 3.18-.76 5.84-1.68 7.98-1.14 2.48-2.99 4.429-5.55 5.85l-.6-.9c2.46-1.361 4.26-3.29 5.4-5.79.76-1.98 1.23-4.36 1.41-7.14h-7.44v-.99h7.5l.03-.84v-8.31h-5.85v-1.02h22.95v1.02h-5.37v9.15h6.99v.99h-6.99v13.77zm-1.02-23.91h-9.69v8.34l-.03.81h9.72v-9.15zm-31.26 20.52c-.94-1.52-2.28-3.27-4.02-5.25l.75-.51c1.76 1.96 3.12 3.68 4.08 5.16l-.81.6zm6.42 1.23c0 1.479-.78 2.22-2.34 2.22h-3.99l-.18-.99c1.32.06 2.59.09 3.81.09 1.12 0 1.68-.521 1.68-1.56v-8.73h-11.82v-.99h11.82v-3.42h1.02v3.42h4.05v.99h-4.05v8.97zm-12.03-12.81c2.72-.66 5.04-1.48 6.96-2.46-1.2-1.2-2.37-2.17-3.51-2.91l.78-.57c1.18.84 2.38 1.84 3.6 3 2.68-1.56 4.58-3.43 5.7-5.61h-8.82c-1.46 1.76-3.28 3.2-5.46 4.32l-.66-.78c3.44-1.72 5.77-4.08 6.99-7.08l1.08.21c-.38.9-.8 1.69-1.26 2.37h9.27v.87c-1.98 4.5-6.68 7.68-14.1 9.54l-.57-.9zm-9.824-62.077h9.78v10.5c0 1.641-.75 2.46-2.25 2.46h-2.94l-.27-1.05 2.88.06c1.04 0 1.56-.559 1.56-1.68v-9.3h-8.76v16.29h-1.02V37.72h-8.4v12.15h-.99V36.73h9.39v-5.01h-12.63v-.99h12.9c-.54-1.519-1.14-2.859-1.8-4.02l1.08-.18c.6 1.121 1.18 2.52 1.74 4.2h12.36v.99h-12.63v5.01zm-4.816 70.957c0 1.36-.61 2.04-1.83 2.04h-3.24l-.27-1.02 3.15.03c.8 0 1.2-.42 1.2-1.26v-18.33h-6.9v24.69h-1.05v-25.65h8.94v19.5zm-13.59 1.8c-2.96 1.32-6.41 2.46-10.35 3.42l-.33-.93c.4-.161.6-.39.6-.69v-23.1h10.5v13.14h-9.48v10.2c3.14-.86 6-1.83 8.58-2.91-.68-1.2-1.51-2.55-2.49-4.05l.81-.51c1.98 3.04 3.47 5.68 4.47 7.92l-.81.57c-.4-.9-.9-1.92-1.5-3.06zm-.57-20.34h-8.49v5.01h8.49v-5.01zm0 11.19v-5.25h-8.49v5.25h8.49zm.166-48.187c.66-.02 1.2-1.689 1.62-5.01l.87.48c-.54 3.9-1.28 5.85-2.22 5.85-.92 0-1.91-.91-2.97-2.73a15.37 15.37 0 0 1-1.38-3.21c-1.84 2.681-4.05 4.71-6.63 6.09l-.63-.78c2.78-1.44 5.08-3.6 6.9-6.48-.36-1.14-.66-2.37-.9-3.69-.52-2.7-.84-5.989-.96-9.87h-7.74v5.22h5.4c0 5.16-.18 8.31-.54 9.45-.4 1.08-1.07 1.65-2.01 1.71h-2.1l-.24-.9h2.07c.8-.099 1.3-.679 1.5-1.74.18-1.08.3-3.609.36-7.59h-4.44v.54c-.12 5.921-1.48 10.68-4.08 14.28l-.78-.66c2.44-3.24 3.72-7.779 3.84-13.62v-7.68h8.73c-.06-1.56-.09-3.189-.09-4.89h1.02c0 2.261.02 3.891.06 4.89h7.11v.99h-7.08c.12 3.96.42 7.17.9 9.63.18 1.001.39 1.941.63 2.82 1.4-2.479 2.5-5.529 3.3-9.15l.9.36c-.92 3.921-2.2 7.26-3.84 10.02.36 1.221.8 2.34 1.32 3.36.84 1.54 1.54 2.31 2.1 2.31zm-2.67-25.23l.84-.33c.9 1.301 1.65 2.64 2.25 4.02l-.84.36c-.68-1.56-1.43-2.91-2.25-4.05zm-22.14 21.27c1.28-.399 2.42-.799 3.42-1.2V36.01h-3.09v-1.02h3.09v-7.98h1.02v7.98h3.06v1.02h-3.06v10.53a41.38 41.38 0 0 0 3.06-1.65v1.02c-2.2 1.32-4.62 2.4-7.26 3.24l-.24-.96zm10.634 42.877h-22.62v7.11c-.12 6.5-1.23 11.7-3.33 15.6l-.75-.69c1.96-3.58 2.97-8.55 3.03-14.91v-8.13h11.43c-.5-1.3-1.05-2.4-1.65-3.3l1.05-.18c.6 1 1.15 2.16 1.65 3.48h11.19v1.02zM243.562 53.95c-6.6-4.039-10.95-9.909-13.05-17.61-1.56 8.22-5.81 14.13-12.75 17.73l-.63-.84c6.76-3.36 10.89-9.039 12.39-17.04h-11.85v-1.02h12.03c.28-1.879.44-3.909.48-6.09v-2.13h1.02v1.89c0 2.1-.16 4.211-.48 6.33h12.99v1.02h-12.33c2.08 7.38 6.34 13.02 12.78 16.92l-.6.84zm-17.866 57.247c0 1.699-.78 2.55-2.34 2.55h-2.7l-.27-.99 2.76.03c1.02 0 1.53-.621 1.53-1.86v-21.3h-11.91v-1.02h12.93v22.59zm-20.64-24.27l.96-.42c1.46 1.7 2.74 3.55 3.84 5.55l-.9.48c-1.26-2.2-2.56-4.07-3.9-5.61zm-2.28 4.77h1.02v22.26h-1.02v-22.26zm-29.28 21.6l-.42-1.02c4.92-.06 9.19-.761 12.81-2.1a35.058 35.058 0 0 0-3.63-4.29l.93-.45c1.2 1.22 2.41 2.67 3.63 4.35 3.9-1.64 6.9-4.12 9-7.44h-9.81c-2.68 1.34-5.92 2.28-9.72 2.82l-.6-.9c6.54-.72 11.41-2.8 14.61-6.24l.87.51c-.94 1-2.07 1.94-3.39 2.82h9.33v.84c-4.2 7.2-12.07 10.899-23.61 11.1zm1.77-13.11l-.48-.96c3-.2 5.71-.7 8.13-1.5a28.18 28.18 0 0 0-3.42-3.63l.9-.45c1.24 1.12 2.4 2.36 3.48 3.72 3.62-1.48 6.36-3.72 8.22-6.72h-9.84c-2.3 1.42-5.1 2.49-8.4 3.21l-.6-.9c5.4-1.08 9.45-3.15 12.15-6.21l.9.48c-.84.94-1.73 1.76-2.67 2.46h9.66v.87c-3.24 5.76-9.25 8.97-18.03 9.63zm-5.79 12.6l-.27.96c-6.18-.24-11.5-1.461-15.96-3.66-1.96 1.899-5.44 3.15-10.44 3.75l-.45-.93c4.8-.521 8.12-1.611 9.96-3.27-2.06-1.12-3.9-2.4-5.52-3.84l.81-.57c1.64 1.46 3.43 2.69 5.37 3.69 1-1.28 1.68-2.99 2.04-5.13h-9.15v-11.16h9.42v-3.45h-12.09v-.99h25.17v.99h-12.06v3.45h9.48v11.16h-9.75c-.36 2.36-1.07 4.22-2.13 5.58 4.36 2.04 9.55 3.18 15.57 3.42zm-4.68-19.2h-8.49v4.11h8.49v-4.11zm0 9.27v-4.23h-8.49v1.62c-.02.7-.07 1.57-.15 2.61h8.64zm-9.51-9.27h-8.4v4.11h8.4v-4.11zm0 6.66v-1.62h-8.4v4.23h8.25c.1-.94.15-1.81.15-2.61zM92.309 53.213H57.706v2.488h-1.675v-40.49h37.953v40.49h-1.675v-2.488zm0-36.375H57.706v34.843h34.603V16.838zM81.493 36.126a42.342 42.342 0 0 1 3.494 5.744l-1.293.622c-1.085-2.202-2.266-4.164-3.541-5.887l1.34-.479zm-7.275-1.771h-9.524v-1.531h9.524v-8.567H63.162v-1.532h23.691v1.532H75.845v8.567h9.525v1.531h-9.525v9.19h12.396v1.579H61.87v-1.579h12.348v-9.19zM28.367 14.349c-5.36 6.095-12.365 11.328-21.011 15.699l-.766-1.436c8.487-4.212 15.555-9.476 21.203-15.794h1.148C35.131 19.423 42.151 24.56 50 28.229l-.813 1.388c-8.073-3.892-15.013-8.981-20.82-15.268zm-.814 27.233H12.956v-1.579h14.597V29.856H15.062v-1.579h26.706v1.579H29.181v10.147H43.73v1.579H29.181v10.961h18.905v1.627H8.696v-1.627h18.857V41.582zm217.253 51.255h.99v4.11h10.5v1.02h-10.5v5.31h7.98v10.62h-1.02v-1.77h-14.01v1.77h-1.02v-10.62h7.08v-10.44zm-6.06 11.43v6.84h14.01v-6.84h-14.01zm54.69-7.56l-.93.42c-1.28-2.5-2.64-4.63-4.08-6.39l.9-.36c1.64 2.04 3.01 4.15 4.11 6.33zm1.71-9.99h1.05v27.18h-1.05v-11.04c-2.28 2.12-4.36 3.77-6.24 4.95l-.48-.96c1.82-1.08 4.06-2.81 6.72-5.19v-14.94zm118.98 21.99h-6.33v-7.98h6.33v7.98zm-.96-7.02h-4.44v6.09h4.44v-6.09zm24.45-14.52c2.16 1.62 3.95 3.21 5.37 4.77l-.69.75c-1.4-1.56-3.2-3.17-5.4-4.83l.72-.69zm2.73 23.34c1.14-.96 2.34-2.13 3.6-3.51l.27 1.11a41.12 41.12 0 0 1-4.98 4.5l-.45-.9c.38-.381.57-.71.57-.99v-13.44h-4.65v-1.02h5.64v14.25zm18.93 1.38c0 1.26-.7 1.89-2.1 1.89h-2.52l-.27-.99 2.49.06c.94 0 1.41-.39 1.41-1.17v-2.7h-11.01v4.95h-.99v-13.74h12.99v11.7zm-.99-10.77h-11.01v3.06h11.01v-3.06zm0 3.93h-11.01v3.03h11.01v-3.03zm10.92 3a25.008 25.008 0 0 1-4.26 5.73l-.78-.57c1.6-1.541 2.99-3.4 4.17-5.58l.87.42zm7.35 4.8l-.87.6c-.82-1.56-1.96-3.28-3.42-5.16l.81-.51c1.5 1.92 2.66 3.609 3.48 5.07zm1.59-7.53v.96h-13.92v-.96h2.58v-13.86h-2.28v-.96h2.28v-3.78h1.02v3.78h6.93v-3.72h1.02v3.72h2.22v.96h-2.22v13.86h2.37zm-3.39-13.86h-6.93v4.05h6.93v-4.05zm0 4.98h-6.93v3.93h6.93v-3.93zm0 4.89h-6.93v3.99h6.93v-3.99zm5.79-13.2h8.94v23.1c0 1.62-.73 2.43-2.19 2.43h-3.24l-.3-.99 3.21.03c.98 0 1.47-.611 1.47-1.83v-6.96h-6.96c-.38 4-1.6 7.299-3.66 9.9l-.78-.69c2.28-3 3.45-6.82 3.51-11.46v-13.53zm7.89.96h-6.84v6.33h6.84v-6.33zm0 13.86v-6.57h-6.84v5.91l-.03.66h6.87zm13.47-9.06c-.86 1.84-1.86 3.52-3 5.04v15.03h-.99v-13.8c-1.24 1.44-2.67 2.8-4.29 4.08l-.3-1.02c3.56-2.9 6.12-6.15 7.68-9.75l.9.42zm13.02 5.19h1.02v2.55h3.96v.99h-3.96v8.88c0 1.459-.75 2.19-2.25 2.19h-4.38l-.21-.99c1.5.06 2.91.09 4.23.09 1.06 0 1.59-.51 1.59-1.53v-8.64h-12.06v-.99h12.06v-2.55zm-5.19 10.26l-.84.57c-1.08-1.5-2.52-3.11-4.32-4.83l.78-.51c1.86 1.74 3.32 3.33 4.38 4.77zm17.649-76.327h.99v4.11h10.5v1.02h-10.5v5.31h7.98v10.62h-1.02V52.3h-14.01v1.77h-1.02V43.45h7.08V33.01zm-6.06 11.43v6.84h14.01v-6.84h-14.01zm96.93-.54h-6.45v-.99h13.95v.99h-6.48v8.13h7.86v1.02h-16.68v-1.02h7.8V43.9zm36.42-4.71h-1.02v-4.11h-21.12v4.26h-1.02v-5.19h23.16v5.04zm-4.59-1.2v5.52h-13.89v-5.52h13.89zm-12.9 4.65h11.91v-3.78h-11.91v3.78zm15.69 11.49h-.99v-1.35h-17.49v1.35h-1.02v-7.89h19.5v7.89zm-.99-6.93h-17.49v4.68h17.49V47.2z" class="cls-1"/><path d="M329.984 39.25a4.328 4.328 0 1 1 0-8.657 4.328 4.328 0 0 1 0 8.657zm-189.505.008a4.333 4.333 0 1 1-.001-8.667 4.333 4.333 0 0 1 .001 8.667z" class="cls-2"/></svg>