<svg xmlns="http://www.w3.org/2000/svg" preserveAspectRatio="xMidYMid" width="116" height="116" viewBox="0 0 116 116"><defs><style>.cls-1,.cls-2{fill:#fff}.cls-1{stroke:#fff;stroke-linejoin:round;stroke-width:3px;opacity:.9;fill-opacity:.2}.cls-2{fill-rule:evenodd}</style></defs><circle cx="58.047" cy="57.75" r="54.047" class="cls-1"/><path d="M56.891 83.562c-7.689 0-13.922-6.233-13.922-13.921 0-5.937 3.723-10.992 8.956-12.994v-24.23c0-3.027 2.016-5.481 5.043-5.481h.102c3.027 0 5.044 2.454 5.044 5.481v4.739h-1.946a1.949 1.949 0 0 0-1.949 1.949v.008c0 1.077.872 1.949 1.949 1.949h1.946v4.969h-1.946a1.949 1.949 0 0 0-1.949 1.949v.008a1.95 1.95 0 0 0 1.949 1.95h1.946v6.803c5.098 2.067 8.699 7.059 8.699 12.9 0 7.688-6.234 13.921-13.922 13.921z" class="cls-2"/></svg>