<?xml version="1.0" encoding="utf-8"?>
<!-- Generator: Adobe Illustrator 19.0.0, SVG Export Plug-In . SVG Version: 6.00 Build 0)  -->
<svg version="1.1" id="图层_1" xmlns="http://www.w3.org/2000/svg" xmlns:xlink="http://www.w3.org/1999/xlink" x="0px" y="0px"
	 viewBox="0 0 200 200" style="enable-background:new 0 0 200 200;" xml:space="preserve">
<style type="text/css">
	.st0{fill:#F3F4F8;}
	.st1{fill:#F5D01F;}
</style>
<g id="XMLID_2_">
	<circle id="XMLID_10_" class="st0" cx="100" cy="95.2" r="52.2"/>
	<g id="XMLID_3_">
		<path id="XMLID_9_" class="st1" d="M69.3,78.8h41v27.4H82.2c0,0-1.5-4.6-5.4-4.6c-4.7,0-5.5,4.6-5.5,4.6h-2V78.8z"/>
		<circle id="XMLID_8_" class="st1" cx="76.6" cy="107.1" r="4.6"/>
		<circle id="XMLID_7_" class="st1" cx="120.3" cy="107.1" r="4.6"/>
		<path id="XMLID_4_" class="st1" d="M130,102.2h-1.5L124,86h-11.8v20.1h2.9c0,0,0.9-4.3,4.9-4.3c4.6,0,5.4,4.3,5.4,4.3h5.2
			L130,102.2z M113.3,93.4V87h9.7l1.8,6.4H113.3z"/>
	</g>
</g>
</svg>
