<svg id="图层_1" xmlns="http://www.w3.org/2000/svg" viewBox="0 0 248 270"><style>.st0{fill:#f3f3f3}.st1{opacity:.3;fill:#eac926}.st2{fill:none;stroke-width:2}.st2,.st3{stroke:#eac926;stroke-miterlimit:10}.st3,.st4{fill:none}</style><g id="XMLID_2_"><path id="XMLID_22_" class="st0" d="M63.6 170l61-6.2 36.8 30.7-65.5 10.7z"/><path id="XMLID_21_" class="st1" d="M129.2 68.1l1 89.3 34.5 27.6V88.9z"/><path id="XMLID_20_" class="st2" d="M70.2 74v89.8l59.4-6.8-.8-88.9z"/><path id="XMLID_19_" class="st1" d="M70.2 74l1 89.7 58.4-6.7-1.4-88.9z"/><g id="XMLID_16_"><path id="XMLID_18_" class="st2" d="M70.2 75v89.4l29.5 30.5v-96z"/><path id="XMLID_17_" class="st1" d="M71.2 74.8v89.4l27.7 28.5V99.4z"/></g><path id="XMLID_15_" class="st2" d="M129.6 157l35.1 28 .4-96.1-35.8-21"/><path id="XMLID_14_" class="st2" d="M100.6 196.4l64.9-10.5"/><path id="XMLID_13_" class="st1" d="M71.2 164.4l29.4 32.8 64.1-11.5-35.4-28z"/><path id="XMLID_12_" class="st1" d="M71.2 121.2l29.4 21.2 64.1-8.1-35.4-18.4z"/><path id="XMLID_11_" class="st1" d="M70 73.8l29.7 25.1 65.8-9.5-36.2-21.5z"/><path id="XMLID_10_" class="st3" d="M100.6 142.4l64.1-8.1"/><path id="XMLID_9_" class="st3" d="M99.9 98.9l64.8-10"/></g></svg>