<?xml version="1.0" encoding="utf-8"?>
<!-- Generator: Adobe Illustrator 19.0.0, SVG Export Plug-In . SVG Version: 6.00 Build 0)  -->
<svg version="1.1" id="图层_1" xmlns="http://www.w3.org/2000/svg" xmlns:xlink="http://www.w3.org/1999/xlink" x="0px" y="0px"
	 viewBox="0 0 248 270" style="enable-background:new 0 0 248 270;" xml:space="preserve">
<style type="text/css">
	.st0{fill:#F3F3F3;}
	.st1{opacity:0.3;fill:#EAC926;}
	.st2{fill:none;stroke:#EAC926;stroke-width:2;stroke-miterlimit:10;}
	.st3{fill:none;stroke:#EAC926;stroke-miterlimit:10;}
	.st4{fill:none;}
</style>
<g id="XMLID_2_">
	<polygon id="XMLID_22_" class="st0" points="63.6,170 124.6,163.8 161.4,194.5 95.9,205.2 	"/>
	<polygon id="XMLID_21_" class="st1" points="129.2,68.1 130.2,157.4 164.7,185 164.7,88.9 	"/>
	<polygon id="XMLID_20_" class="st2" points="70.2,74 70.2,163.8 129.6,157 128.8,68.1 	"/>
	<polygon id="XMLID_19_" class="st1" points="70.2,74 71.2,163.7 129.6,157 128.2,68.1 	"/>
	<g id="XMLID_16_">
		<polygon id="XMLID_18_" class="st2" points="70.2,75 70.2,164.4 99.7,194.9 99.7,98.9 		"/>
		<polygon id="XMLID_17_" class="st1" points="71.2,74.8 71.2,164.2 98.9,192.7 98.9,99.4 		"/>
	</g>
	<polyline id="XMLID_15_" class="st2" points="129.6,157 164.7,185 165.1,88.9 129.3,67.9 	"/>
	<line id="XMLID_14_" class="st2" x1="100.6" y1="196.4" x2="165.5" y2="185.9"/>
	<polygon id="XMLID_13_" class="st1" points="71.2,164.4 100.6,197.2 164.7,185.7 129.3,157.7 	"/>
	<polygon id="XMLID_12_" class="st1" points="71.2,121.2 100.6,142.4 164.7,134.3 129.3,115.9 	"/>
	<polygon id="XMLID_11_" class="st1" points="70,73.8 99.7,98.9 165.5,89.4 129.3,67.9 	"/>
	<line id="XMLID_10_" class="st3" x1="100.6" y1="142.4" x2="164.7" y2="134.3"/>
	<line id="XMLID_9_" class="st3" x1="99.9" y1="98.9" x2="164.7" y2="88.9"/>
	<g id="XMLID_6_">
		<path id="XMLID_28_" class="st4" d="M186.9,210.6"/>
	</g>
	<g id="XMLID_3_">
		<path id="XMLID_25_" class="st4" d="M187.1,211.9"/>
	</g>
</g>
</svg>
