<?xml version="1.0" encoding="utf-8"?>
<!-- Generator: Adobe Illustrator 19.0.0, SVG Export Plug-In . SVG Version: 6.00 Build 0)  -->
<svg version="1.1" id="图层_1" xmlns="http://www.w3.org/2000/svg" xmlns:xlink="http://www.w3.org/1999/xlink" x="0px" y="0px"
	 viewBox="0 0 248 270" style="enable-background:new 0 0 248 270;" xml:space="preserve">
<style type="text/css">
	.st0{fill:#F3F3F3;}
	.st1{fill:none;stroke:#EAC926;stroke-width:2;stroke-miterlimit:10;}
	.st2{opacity:0.3;fill:#EAC926;stroke:#EAC926;stroke-width:2;stroke-miterlimit:10;}
	.st3{fill:none;stroke:#EAC926;stroke-width:2;stroke-miterlimit:10;stroke-dasharray:6.4416,6.4416;}
	.st4{fill:none;stroke:#EAC926;stroke-width:2;stroke-miterlimit:10;stroke-dasharray:5.3585,5.3585;}
	.st5{fill:none;stroke:#EAC926;stroke-width:2;stroke-miterlimit:10;stroke-dasharray:4.6879,4.6879;}
	.st6{fill:none;stroke:#EAC926;stroke-width:2;stroke-miterlimit:10;stroke-dasharray:5.9939,5.9939;}
	.st7{fill:none;stroke:#EAC926;stroke-width:2;stroke-miterlimit:10;stroke-dasharray:8.149,8.149;}
	.st8{fill:none;stroke:#EAC926;stroke-width:2;stroke-miterlimit:10;stroke-dasharray:7.8931,7.8931;}
	.st9{fill:none;stroke:#EAC926;stroke-width:2;stroke-miterlimit:10;stroke-dasharray:7.6454,7.6454;}
	.st10{fill:none;stroke:#EAC926;stroke-width:2;stroke-miterlimit:10;stroke-dasharray:7.6716,7.6716;}
</style>
<g id="XMLID_5_">
	<polygon id="XMLID_117_" class="st0" points="84.4,159.5 129.3,155.3 163.6,175.1 111.7,185.1 	"/>
	<polygon id="XMLID_116_" class="st1" points="160.5,168.3 111.7,175.6 88.2,154.5 130.5,151.1 	"/>
	<polygon id="XMLID_115_" class="st2" points="89.1,154.9 111.9,175.6 159.6,168 130.7,151.1 	"/>
	<g id="XMLID_109_">
		<g id="XMLID_226_">
			<line id="XMLID_230_" class="st1" x1="111.5" y1="111.4" x2="114.4" y2="111.1"/>
			<line id="XMLID_229_" class="st3" x1="120.9" y1="110.4" x2="156.1" y2="106.9"/>
			<line id="XMLID_228_" class="st1" x1="159.3" y1="106.6" x2="162.3" y2="106.3"/>
		</g>
	</g>
	<g id="XMLID_103_">
		<g id="XMLID_221_">
			<line id="XMLID_224_" class="st1" x1="86.8" y1="93.1" x2="89.7" y2="93"/>
			<line id="XMLID_223_" class="st4" x1="95.1" y1="92.6" x2="124.5" y2="90.8"/>
			<line id="XMLID_222_" class="st1" x1="127.2" y1="90.6" x2="130.2" y2="90.4"/>
		</g>
	</g>
	<g id="XMLID_97_">
		<g id="XMLID_216_">
			<line id="XMLID_219_" class="st1" x1="87.1" y1="93.9" x2="89.5" y2="95.7"/>
			<line id="XMLID_218_" class="st5" x1="93.3" y1="98.4" x2="106.6" y2="108.1"/>
			<line id="XMLID_217_" class="st1" x1="108.5" y1="109.4" x2="110.9" y2="111.2"/>
		</g>
	</g>
	<g id="XMLID_4_">
		<g id="XMLID_211_">
			<line id="XMLID_214_" class="st1" x1="131.5" y1="90.3" x2="134.1" y2="91.7"/>
			<line id="XMLID_213_" class="st6" x1="139.5" y1="94.4" x2="158.2" y2="103.8"/>
			<line id="XMLID_212_" class="st1" x1="160.9" y1="105.2" x2="163.6" y2="106.5"/>
		</g>
	</g>
	<g id="XMLID_85_">
		<g id="XMLID_206_">
			<line id="XMLID_209_" class="st1" x1="111.3" y1="110.6" x2="111.3" y2="114.6"/>
			<line id="XMLID_208_" class="st7" x1="111.3" y1="122.7" x2="111.6" y2="167.6"/>
			<line id="XMLID_207_" class="st1" x1="111.6" y1="171.6" x2="111.7" y2="175.6"/>
		</g>
	</g>
	<g id="XMLID_79_">
		<g id="XMLID_201_">
			<line id="XMLID_204_" class="st1" x1="162.1" y1="105.7" x2="162.1" y2="109.7"/>
			<line id="XMLID_203_" class="st8" x1="162.1" y1="117.5" x2="162.4" y2="161"/>
			<line id="XMLID_202_" class="st1" x1="162.5" y1="164.9" x2="162.5" y2="168.9"/>
		</g>
	</g>
	<g id="XMLID_73_">
		<g id="XMLID_196_">
			<line id="XMLID_199_" class="st1" x1="86.4" y1="92.1" x2="86.4" y2="96.1"/>
			<line id="XMLID_198_" class="st9" x1="86.5" y1="103.8" x2="86.7" y2="145.8"/>
			<line id="XMLID_197_" class="st1" x1="86.8" y1="149.6" x2="86.8" y2="153.6"/>
		</g>
	</g>
	<g id="XMLID_7_">
		<g id="XMLID_191_">
			<line id="XMLID_194_" class="st1" x1="130" y1="89.4" x2="130" y2="93.4"/>
			<line id="XMLID_193_" class="st10" x1="130.1" y1="101.1" x2="130.3" y2="143.3"/>
			<line id="XMLID_192_" class="st1" x1="130.4" y1="147.1" x2="130.4" y2="151.1"/>
		</g>
	</g>
</g>
</svg>
