<svg id="图层_1" xmlns="http://www.w3.org/2000/svg" viewBox="0 0 248 270"><style>.st0{fill:#f3f3f3}.st1{fill:none}.st1,.st10,.st2,.st3,.st4,.st5,.st6,.st7,.st8,.st9{stroke:#eac926;stroke-width:2;stroke-miterlimit:10}.st2{opacity:.3;fill:#eac926}.st10,.st3,.st4,.st5,.st6,.st7,.st8,.st9{fill:none;stroke-dasharray:6.4416,6.4416}.st10,.st4,.st5,.st6,.st7,.st8,.st9{stroke-dasharray:5.3585,5.3585}.st10,.st5,.st6,.st7,.st8,.st9{stroke-dasharray:4.6879,4.6879}.st10,.st6,.st7,.st8,.st9{stroke-dasharray:5.9939,5.9939}.st10,.st7,.st8,.st9{stroke-dasharray:8.149,8.149}.st10,.st8,.st9{stroke-dasharray:7.8931,7.8931}.st10,.st9{stroke-dasharray:7.6454,7.6454}.st10{stroke-dasharray:7.6716,7.6716}</style><g id="XMLID_5_"><path id="XMLID_117_" class="st0" d="M84.4 159.5l44.9-4.2 34.3 19.8-51.9 10z"/><path id="XMLID_116_" class="st1" d="M160.5 168.3l-48.8 7.3-23.5-21.1 42.3-3.4z"/><path id="XMLID_115_" class="st2" d="M89.1 154.9l22.8 20.7 47.7-7.6-28.9-16.9z"/><g id="XMLID_109_"><g id="XMLID_226_"><path id="XMLID_230_" class="st1" d="M111.5 111.4l2.9-.3"/><path id="XMLID_229_" class="st3" d="M120.9 110.4l35.2-3.5"/><path id="XMLID_228_" class="st1" d="M159.3 106.6l3-.3"/></g></g><g id="XMLID_103_"><g id="XMLID_221_"><path id="XMLID_224_" class="st1" d="M86.8 93.1l2.9-.1"/><path id="XMLID_223_" class="st4" d="M95.1 92.6l29.4-1.8"/><path id="XMLID_222_" class="st1" d="M127.2 90.6l3-.2"/></g></g><g id="XMLID_97_"><g id="XMLID_216_"><path id="XMLID_219_" class="st1" d="M87.1 93.9l2.4 1.8"/><path id="XMLID_218_" class="st5" d="M93.3 98.4l13.3 9.7"/><path id="XMLID_217_" class="st1" d="M108.5 109.4l2.4 1.8"/></g></g><g id="XMLID_4_"><g id="XMLID_211_"><path id="XMLID_214_" class="st1" d="M131.5 90.3l2.6 1.4"/><path id="XMLID_213_" class="st6" d="M139.5 94.4l18.7 9.4"/><path id="XMLID_212_" class="st1" d="M160.9 105.2l2.7 1.3"/></g></g><g id="XMLID_85_"><g id="XMLID_206_"><path id="XMLID_209_" class="st1" d="M111.3 110.6v4"/><path id="XMLID_208_" class="st7" d="M111.3 122.7l.3 44.9"/><path id="XMLID_207_" class="st1" d="M111.6 171.6l.1 4"/></g></g><g id="XMLID_79_"><g id="XMLID_201_"><path id="XMLID_204_" class="st1" d="M162.1 105.7v4"/><path id="XMLID_203_" class="st8" d="M162.1 117.5l.3 43.5"/><path id="XMLID_202_" class="st1" d="M162.5 164.9v4"/></g></g><g id="XMLID_73_"><g id="XMLID_196_"><path id="XMLID_199_" class="st1" d="M86.4 92.1v4"/><path id="XMLID_198_" class="st9" d="M86.5 103.8l.2 42"/><path id="XMLID_197_" class="st1" d="M86.8 149.6v4"/></g></g><g id="XMLID_7_"><g id="XMLID_191_"><path id="XMLID_194_" class="st1" d="M130 89.4v4"/><path id="XMLID_193_" class="st10" d="M130.1 101.1l.2 42.2"/><path id="XMLID_192_" class="st1" d="M130.4 147.1v4"/></g></g></g></svg>