<?xml version="1.0" encoding="utf-8"?>
<!-- Generator: Adobe Illustrator 19.0.0, SVG Export Plug-In . SVG Version: 6.00 Build 0)  -->
<svg version="1.1" id="图层_1" xmlns="http://www.w3.org/2000/svg" xmlns:xlink="http://www.w3.org/1999/xlink" x="0px" y="0px"
	 viewBox="-328 571.5 185 48" style="enable-background:new -328 571.5 185 48;" xml:space="preserve">
<style type="text/css">
	.st0{fill:url(#SVGID_1_);}
</style>
<linearGradient id="SVGID_1_" gradientUnits="userSpaceOnUse" x1="-325.562" y1="595.1729" x2="-143.306" y2="595.1729">
	<stop  offset="0.2119" style="stop-color:#FFF600"/>
	<stop  offset="1" style="stop-color:#4AE567"/>
	<stop  offset="1" style="stop-color:#4AE567"/>
</linearGradient>
<path class="st0" d="M-162.7,579.4v6h17v1.5h-35.5v-1.5h16.9v-6h-19.5v-1.5h19.5v-4.7h1.6v4.7h19.4v1.5H-162.7z M-179.4,591.7h32.5
	v10.8h-31.2c-0.7,5.5-2.5,10.4-5.5,14.6l-1.2-1.2c3.5-4.6,5.3-10.6,5.4-18V591.7z M-162.4,601h13.9v-7.8h-13.9V601z M-164.1,601
	v-7.8h-13.7v4.7c0,1.1,0,2.1-0.1,3.1H-164.1z M-199.1,587.9l1.7-0.6c3.5,6,6.5,12.4,9,19l-1.5,0.7
	C-192.7,599.8-195.8,593.4-199.1,587.9z M-200.5,613.6c-0.8,1.2-2.2,1.8-4,1.8h-10.8c-2.7,0-4-1.2-4-3.7v-28.2h1.7v27.8
	c0,1.6,0.9,2.4,2.8,2.4h10c1.5,0,2.5-0.4,3.1-1.3c0.8-1.3,1.3-5,1.6-11l1.5,0.5C-198.8,608-199.5,611.9-200.5,613.6z M-216.5,574.9
	l1.4-0.9c4.8,4.5,8.4,8.3,10.9,11.5l-1.4,1C-208.2,583-211.9,579.1-216.5,574.9z M-232.1,608.6c2.7-5.6,4.6-12.1,5.9-19.4l1.6,0.3
	c-1.4,7.7-3.5,14.4-6,20L-232.1,608.6z M-278.1,617.1l-1.2-1.1c4.4-5.7,6.5-13,6.6-22v-14.1h16c-0.9-2.4-1.9-4.5-3-6.3l1.7-0.3
	c1,1.7,2,3.9,3,6.6h15.1v14.7h-31.2C-271.2,603.3-273.5,610.8-278.1,617.1z M-241.6,581.5h-29.5V593h29.5V581.5z M-290.5,615.9h-5.5
	l-0.4-1.6l5.4,0c2.1,0,3.2-1.1,3.2-3.4v-10.2H-303v14.6h-1.6v-14.6h-14.3c-0.5,6.4-2.3,11.6-5.5,15.6l-1.2-1.1
	c3.3-4.5,5-10.2,5.1-17.2v-22.3h34.2v35.7C-286.2,614.4-287.7,615.9-290.5,615.9z M-304.6,577.4h-14.2v10.1h14.2V577.4z M-304.6,589
	h-14.2v9.6l0,0.6h14.2V589z M-287.9,577.4H-303v10.1h15.1V577.4z M-287.9,589H-303v10.1h15.1V589z"/>
</svg>
