<svg xmlns="http://www.w3.org/2000/svg" preserveAspectRatio="xMidYMid" width="254" height="300" viewBox="0 0 254 300"><defs><style>.cls-1{fill:#171717;fill-rule:evenodd}</style></defs><path d="M134.601 165.94v13.5h-3.6v-13.5h-13.5v-3.6h13.5v-13.5h3.6v13.5h13.5v3.6h-13.5zm-25.139 9.84c-.84 2.121-2 3.861-3.48 5.22-1.48 1.36-3.4 2.04-5.76 2.04s-4.28-.68-5.76-2.04c-1.48-1.359-2.64-3.099-3.48-5.22-.84-2.119-1.42-4.479-1.74-7.08a62.338 62.338 0 0 1-.48-7.62c0-2.479.16-5.019.48-7.62.32-2.599.9-4.959 1.74-7.08.84-2.119 2-3.859 3.48-5.22 1.48-1.359 3.4-2.04 5.76-2.04s4.28.681 5.76 2.04c1.48 1.361 2.64 3.101 3.48 5.22.84 2.121 1.41 4.481 1.71 7.08.3 2.601.45 5.141.45 7.62 0 2.481-.15 5.021-.45 7.62-.3 2.601-.87 4.961-1.71 7.08zm-2.19-18.161a56.824 56.824 0 0 0-.33-4.003c-.16-1.364-.4-2.698-.72-4.003-.32-1.304-.74-2.468-1.26-3.491-.52-1.023-1.17-1.845-1.95-2.468-.78-.622-1.71-.934-2.79-.934s-2.01.312-2.79.934c-.78.623-1.43 1.445-1.95 2.468s-.95 2.187-1.29 3.491a29.477 29.477 0 0 0-.75 4.003 56.824 56.824 0 0 0-.33 4.003 76.326 76.326 0 0 0-.09 3.461c0 1.044.03 2.218.09 3.522.06 1.305.17 2.628.33 3.973.16 1.344.41 2.669.75 3.973.34 1.305.77 2.468 1.29 3.491.52 1.024 1.17 1.846 1.95 2.469.78.622 1.71.932 2.79.932s2.01-.31 2.79-.932c.78-.623 1.43-1.445 1.95-2.469.52-1.023.94-2.186 1.26-3.491.32-1.304.56-2.629.72-3.973.16-1.345.27-2.668.33-3.973.06-1.304.09-2.478.09-3.522 0-1.003-.03-2.156-.09-3.461zM82.763 175.78c-.84 2.121-2.001 3.861-3.48 5.22-1.48 1.36-3.4 2.04-5.76 2.04-2.361 0-4.281-.68-5.76-2.04-1.48-1.359-2.64-3.099-3.48-5.22-.84-2.119-1.42-4.479-1.74-7.08a62.14 62.14 0 0 1-.48-7.62c0-2.479.159-5.019.48-7.62.32-2.599.9-4.959 1.74-7.08.84-2.119 2-3.859 3.48-5.22 1.479-1.359 3.399-2.04 5.76-2.04 2.36 0 4.28.681 5.76 2.04 1.479 1.361 2.64 3.101 3.48 5.22.84 2.121 1.41 4.481 1.71 7.08.3 2.601.45 5.141.45 7.62 0 2.481-.15 5.021-.45 7.62-.3 2.601-.87 4.961-1.71 7.08zm-2.19-18.161a57.429 57.429 0 0 0-.33-4.003c-.16-1.364-.4-2.698-.72-4.003-.321-1.304-.741-2.468-1.26-3.491-.52-1.023-1.17-1.845-1.95-2.468-.78-.622-1.71-.934-2.79-.934s-2.01.312-2.79.934c-.78.623-1.431 1.445-1.95 2.468-.52 1.023-.951 2.187-1.29 3.491a29.324 29.324 0 0 0-.75 4.003 56.824 56.824 0 0 0-.33 4.003 76.326 76.326 0 0 0-.09 3.461c0 1.044.03 2.218.09 3.522.06 1.305.17 2.628.33 3.973.159 1.344.41 2.669.75 3.973.339 1.305.77 2.468 1.29 3.491.519 1.024 1.17 1.846 1.95 2.469.78.622 1.71.932 2.79.932s2.01-.31 2.79-.932c.78-.623 1.43-1.445 1.95-2.469.519-1.023.939-2.186 1.26-3.491.32-1.304.56-2.629.72-3.973.159-1.345.27-2.668.33-3.973.06-1.304.09-2.478.09-3.522 0-1.003-.03-2.156-.09-3.461zM56.064 175.78c-.84 2.121-2.001 3.861-3.48 5.22-1.48 1.36-3.4 2.04-5.76 2.04-2.361 0-4.281-.68-5.76-2.04-1.48-1.359-2.64-3.099-3.48-5.22-.84-2.119-1.42-4.479-1.74-7.08a62.14 62.14 0 0 1-.48-7.62c0-2.479.159-5.019.48-7.62.32-2.599.9-4.959 1.74-7.08.84-2.119 2-3.859 3.48-5.22 1.479-1.359 3.399-2.04 5.76-2.04 2.36 0 4.28.681 5.76 2.04 1.479 1.361 2.64 3.101 3.48 5.22.84 2.121 1.41 4.481 1.71 7.08.3 2.601.45 5.141.45 7.62 0 2.481-.15 5.021-.45 7.62-.3 2.601-.87 4.961-1.71 7.08zm-2.19-18.161a57.429 57.429 0 0 0-.33-4.003c-.16-1.364-.4-2.698-.72-4.003-.321-1.304-.741-2.468-1.26-3.491-.52-1.023-1.17-1.845-1.95-2.468-.78-.622-1.71-.934-2.79-.934s-2.01.312-2.79.934c-.78.623-1.431 1.445-1.95 2.468-.52 1.023-.951 2.187-1.29 3.491a29.324 29.324 0 0 0-.75 4.003 56.824 56.824 0 0 0-.33 4.003 76.326 76.326 0 0 0-.09 3.461c0 1.044.03 2.218.09 3.522.06 1.305.17 2.628.33 3.973.159 1.344.41 2.669.75 3.973.339 1.305.77 2.468 1.29 3.491.519 1.024 1.17 1.846 1.95 2.469.78.622 1.71.932 2.79.932s2.01-.31 2.79-.932c.78-.623 1.43-1.445 1.95-2.469.519-1.023.939-2.186 1.26-3.491.32-1.304.56-2.629.72-3.973.159-1.345.27-2.668.33-3.973.06-1.304.09-2.478.09-3.522 0-1.003-.03-2.156-.09-3.461zM28.405 163.6c1.399 1.92 2.1 4.301 2.1 7.14 0 1.601-.24 3.141-.72 4.62a11.57 11.57 0 0 1-2.16 3.93 10.639 10.639 0 0 1-3.54 2.73c-1.401.68-3 1.02-4.8 1.02-2.801 0-5.151-.7-7.05-2.1-1.901-1.399-3.251-3.42-4.05-6.06l3.72-1.08c.559 1.68 1.449 3.041 2.67 4.08 1.219 1.041 2.73 1.56 4.53 1.56 1.239 0 2.319-.27 3.24-.81a7.167 7.167 0 0 0 2.28-2.1 9.562 9.562 0 0 0 1.35-2.85c.3-1.039.45-2.059.45-3.06 0-2.88-.771-5.07-2.31-6.57-1.541-1.5-3.531-2.25-5.97-2.25h-1.26v-3.36h1.32c2.16 0 3.9-.739 5.22-2.22 1.32-1.479 1.98-3.48 1.98-6 0-.879-.12-1.759-.36-2.64a7.408 7.408 0 0 0-1.14-2.4 6.387 6.387 0 0 0-1.95-1.77c-.78-.459-1.731-.69-2.85-.69-1.281 0-2.43.371-3.45 1.11-1.02.741-1.811 1.751-2.37 3.03l-3.6-1.2c.879-2.199 2.22-3.84 4.02-4.92 1.8-1.08 3.679-1.62 5.64-1.62 1.56 0 2.959.27 4.2.81 1.239.54 2.282 1.29 3.13 2.25.847.96 1.507 2.091 1.98 3.39.472 1.301.71 2.711.71 4.23a13.77 13.77 0 0 1-.417 3.39 11.658 11.658 0 0 1-1.218 3.03 8.599 8.599 0 0 1-2.022 2.37c-.812.66-1.773 1.11-2.883 1.35v.12c2.319.441 4.179 1.62 5.58 3.54zm203.201 6.952c-.096 4.944-.888 8.904-2.376 11.88l-.6-.552c1.392-2.72 2.112-6.495 2.16-11.328v-7.416h9.432c-.4-.944-.816-1.76-1.248-2.448l.84-.144c.432.768.84 1.632 1.224 2.592h9v.816h-18.432v6.6zm-11.52 2.352c-.656.24-1.4.465-2.232.672.448 1.233.696 2.568.744 4.008 0 1.84-.24 3.12-.72 3.84-.48.768-1.68 1.152-3.6 1.152h-.888l-.264-.696h1.032c1.552-.048 2.528-.304 2.928-.768.464-.592.696-1.767.696-3.528a15.37 15.37 0 0 0-.216-2.04c-2.72 2.32-6.432 4.185-11.136 5.592l-.408-.72c4.976-1.472 8.76-3.375 11.352-5.712a9.935 9.935 0 0 0-1.008-2.424c-2.272 1.888-5.488 3.441-9.648 4.656l-.408-.72c4.208-1.184 7.432-2.703 9.672-4.56-.48-.72-.952-1.311-1.416-1.776-.352.192-.688.36-1.008.504-1.84.832-3.976 1.569-6.408 2.208l-.456-.672c2.4-.56 4.496-1.239 6.288-2.04 1.344-.608 2.536-1.256 3.576-1.944h-7.728v-.792h14.568v.792h-5.688a40.393 40.393 0 0 1-2.52 1.608c1.04.993 1.84 2.121 2.4 3.384 2.416-.624 4.712-1.671 6.888-3.144l.576.552a22.694 22.694 0 0 1-4.296 2.304c1.152 3.376 3.072 6.033 5.76 7.968l-.552.648c-2.8-2.175-4.76-4.959-5.88-8.352zm5.088-8.856H207.03v2.928h-.816v-3.72h9.888a25.093 25.093 0 0 0-.936-2.424l.816-.168c.336.768.648 1.632.936 2.592h9.048v3.72h-.792v-2.928zm-42.984 16.896h10.104v-7.368h-8.136v-.768h8.136v-6.744h-9.264v-.816h19.368v.816h-9.264v6.744h8.112v.768h-8.112v7.368h10.104v.816H182.19v-.816zm8.832-19.872l.816-.24a30.353 30.353 0 0 1 1.392 3.48l-.744.288a30.677 30.677 0 0 0-1.464-3.528zM158.79 180.56h7.512v-19.392h.792v19.392h4.368v-19.392h.792v19.392h7.56v.816H158.79v-.816zm15.6-4.104c1.472-2.912 2.744-6.615 3.816-11.112l.744.216c-.976 4.24-2.248 7.968-3.816 11.184l-.744-.288zm-14.832-10.92l.72-.24c1.264 3.249 2.424 7.056 3.48 11.424l-.768.192c-.944-4.047-2.088-7.839-3.432-11.376zm90.144 11.976v.768h-9.744v-.768h4.536v-4.896h-3.888v-.768h3.888v-4.392a40.198 40.198 0 0 1-3.936.192l-.264-.72c3.44-.032 6.208-.423 8.304-1.176l.408.696c-1.12.4-2.36.705-3.72.912v4.488h3.888v.768h-3.888v4.896h4.416zm-16.416-2.592l.696-.288c.528 1.648 1.224 2.961 2.088 3.936 1.072-1.632 1.656-3.576 1.752-5.832h-3.96v-.6c1.376-1.44 2.656-3.087 3.84-4.944h-4.344v-.792h5.28v.696c-1.264 2.001-2.496 3.648-3.696 4.944h3.648v.456c-.096 2.656-.752 4.872-1.968 6.648.496.48 1.064.873 1.704 1.176 1.76.736 4.432 1.104 8.016 1.104.848 0 2.184-.016 4.008-.048l-.144.84h-3.48c-4.048 0-6.992-.424-8.832-1.272a6.983 6.983 0 0 1-1.728-1.2c-.912 1.104-2.08 2.024-3.504 2.76l-.408-.696c1.376-.688 2.496-1.56 3.36-2.616-.944-1.088-1.72-2.511-2.328-4.272zM30.982 29.6c-.414-1.639-1.054-3.049-1.921-4.23a9.098 9.098 0 0 0-3.249-2.76c-1.299-.66-2.849-.99-4.649-.99-.681 0-1.45.111-2.31.33-.861.221-1.63.491-2.31.81l.42-13.32h13.222v-3.6H13.363l-.48 21.12c.92-.6 2.03-1.089 3.33-1.47 1.299-.379 2.529-.57 3.69-.57 2.52 0 4.44.943 5.76 2.829 1.32 1.886 1.98 4.353 1.98 7.401 0 3.21-.66 5.728-1.98 7.553-1.32 1.825-3.021 2.737-5.1 2.737-1.6 0-2.961-.459-4.08-1.38-1.12-.919-2.001-2.199-2.64-3.84l-3.6 1.32c.8 2.4 2.07 4.251 3.81 5.55 1.74 1.3 3.93 1.95 6.57 1.95 1.599 0 3.08-.31 4.44-.93a9.506 9.506 0 0 0 3.492-2.73c.968-1.2 1.718-2.67 2.25-4.41.532-1.74.798-3.729.798-5.97 0-1.959-.207-3.759-.621-5.4zm81.996 18.856h-2.064l-.216-.792 2.112.024c.88 0 1.32-.56 1.32-1.68V29.04h-9.72v-.792h10.536v17.976c0 1.488-.656 2.232-1.968 2.232zM98.434 27l.768-.336c1.088 1.296 2.08 2.776 2.976 4.44l-.744.384c-.896-1.695-1.896-3.192-3-4.488zm-1.824 3.816h.816v17.808h-.816V30.816zm-11.496 11.52c-.864-1.824-2.04-3.84-3.528-6.048l.648-.408c1.536 2.241 2.72 4.233 3.552 5.976l-.672.48zm4.944 4.032c0 1.328-.656 1.992-1.968 1.992h-4.104l-.168-.792c1.856.032 3.192.048 4.008.048.928 0 1.392-.48 1.392-1.44V32.352h-8.832v-.792h8.832v-4.536h.84v4.536h3.336v.792h-3.336v14.016zm-11.856-2.064H73.57v2.352h-.816V28.848h6.24v17.256h-.792v-1.8zm0-14.688H73.57V36h4.632v-6.384zm0 7.176H73.57v6.72h4.632v-6.72zM60.778 48.696h-.792v-5.64H48.538v-.816h4.224V35.4h7.224v-4.752h-7.224a13.954 13.954 0 0 1-3.768 4.368l-.552-.672c2.496-1.904 4.176-4.472 5.04-7.704l.84.168a20.64 20.64 0 0 1-1.128 3.024H68.65v.816h-7.872V35.4h7.032v.792h-7.032v6.048h8.664v.816h-8.664v5.64zm-.792-12.504h-6.384v6.048h6.384v-6.048zm49.92 7.872h-8.4V33.552h8.4v10.512zm-.792-9.744h-6.792v4.104h6.792V34.32zm0 4.872h-6.792v4.104h6.792v-4.104zM30.943 93.66c-1.2-1.839-2.88-3.159-5.04-3.96v-.12c1.92-.799 3.36-2.04 4.32-3.72.96-1.68 1.44-3.66 1.44-5.94a13.2 13.2 0 0 0-.66-4.2c-.441-1.32-1.09-2.469-1.95-3.45-.861-.979-1.92-1.749-3.18-2.31-1.26-.559-2.73-.84-4.41-.84-1.68 0-3.15.281-4.41.84-1.26.561-2.32 1.331-3.18 2.31-.861.981-1.5 2.13-1.92 3.45-.42 1.32-.63 2.721-.63 4.2 0 2.28.489 4.26 1.47 5.94.98 1.68 2.43 2.921 4.35 3.72v.12c-2.16.72-3.84 2.021-5.04 3.9-1.2 1.881-1.8 4.26-1.8 7.14 0 1.841.26 3.51.78 5.01.519 1.5 1.26 2.79 2.22 3.87a9.92 9.92 0 0 0 3.51 2.52c1.38.6 2.93.9 4.65.9 1.719 0 3.279-.3 4.68-.9 1.4-.6 2.589-1.44 3.57-2.52.98-1.08 1.73-2.37 2.25-3.87.519-1.5.78-3.169.78-5.01 0-2.88-.6-5.239-1.8-7.08zm-3.84-10.44c-.28.96-.681 1.8-1.2 2.52a6.139 6.139 0 0 1-1.92 1.74c-.76.441-1.6.66-2.52.66-.921 0-1.75-.219-2.49-.66a6.227 6.227 0 0 1-1.89-1.74c-.52-.72-.921-1.56-1.2-2.52-.28-.96-.42-1.98-.42-3.06 0-2.28.51-4.159 1.53-5.64 1.02-1.479 2.51-2.22 4.47-2.22 1.92 0 3.41.741 4.47 2.22 1.059 1.481 1.59 3.36 1.59 5.64 0 1.08-.141 2.1-.42 3.06zm.87 20.94c-.3 1.121-.75 2.091-1.35 2.91a6.456 6.456 0 0 1-2.19 1.92c-.861.461-1.851.69-2.97.69-1.08 0-2.05-.229-2.91-.69a6.447 6.447 0 0 1-2.19-1.92c-.6-.819-1.06-1.789-1.38-2.91-.321-1.119-.48-2.319-.48-3.6 0-2.719.639-4.929 1.92-6.63 1.28-1.699 2.96-2.55 5.04-2.55 2.079 0 3.759.851 5.04 2.55 1.28 1.701 1.92 3.911 1.92 6.63 0 1.281-.15 2.481-.45 3.6zm77.237-11.464v4.008h7.824v8.4c0 1.312-.6 1.968-1.8 1.968h-2.352l-.216-.84 2.304.048c.832 0 1.248-.447 1.248-1.344v-7.44h-7.008v13.032h-.816V97.496h-6.72v9.72h-.792V96.704h7.512v-4.008H94.29v-.792h10.32c-.432-1.215-.912-2.288-1.44-3.216l.864-.144c.48.897.944 2.016 1.392 3.36h9.888v.792H105.21zM90.162 109.04c.528-.016.96-1.352 1.296-4.008l.696.384c-.432 3.12-1.024 4.68-1.776 4.68-.736 0-1.528-.728-2.376-2.184a12.314 12.314 0 0 1-1.104-2.568c-1.472 2.145-3.24 3.768-5.304 4.872l-.504-.624c2.224-1.152 4.064-2.88 5.52-5.184a24.163 24.163 0 0 1-.72-2.952c-.416-2.16-.672-4.791-.768-7.896H78.93v4.176h4.32c0 4.128-.144 6.648-.432 7.56-.32.864-.856 1.32-1.608 1.368h-1.68l-.192-.72h1.656c.64-.08 1.04-.543 1.2-1.392.144-.864.24-2.888.288-6.072H78.93v.432c-.096 4.737-1.184 8.544-3.264 11.424l-.624-.528c1.952-2.592 2.976-6.224 3.072-10.896v-6.144h6.984a101.915 101.915 0 0 1-.072-3.912h.816c0 1.809.016 3.112.048 3.912h5.688v.792h-5.664c.096 3.168.336 5.736.72 7.704.144.801.312 1.552.504 2.256 1.12-1.983 2-4.424 2.64-7.32l.72.288c-.736 3.136-1.76 5.808-3.072 8.016.288.976.64 1.872 1.056 2.688.672 1.232 1.232 1.848 1.68 1.848zm-2.136-20.184l.672-.264a18.891 18.891 0 0 1 1.8 3.216l-.672.288c-.544-1.248-1.144-2.328-1.8-3.24zm-17.712 17.016a37.215 37.215 0 0 0 2.736-.96v-8.784h-2.472v-.816h2.472v-6.384h.816v6.384h2.448v.816h-2.448v8.424a33.029 33.029 0 0 0 2.448-1.32v.816c-1.76 1.056-3.696 1.92-5.808 2.592l-.192-.768zm-19.08 3.192h8.088v-4.296h-6.768v-.792h6.768V93.608h.792v10.368h7.248v.792h-7.248v4.296h8.424v.792H51.234v-.792zm16.512-7.008c-1.2-1.68-2.312-3.08-3.336-4.2-.624 1.728-1.424 3.177-2.4 4.344l-.528-.624c1.568-1.935 2.632-4.551 3.192-7.848l.792.144c-.256 1.329-.536 2.433-.84 3.312a48.446 48.446 0 0 1 3.576 4.152l-.456.72zm-10.296-.192c-.848-1.599-1.736-2.912-2.664-3.936-.672 1.761-1.52 3.24-2.544 4.44l-.528-.6c1.68-1.968 2.808-4.632 3.384-7.992l.768.144a28.437 28.437 0 0 1-.864 3.36c1.088 1.104 2.056 2.392 2.904 3.864l-.456.72zm-7.032-3.72c-.096 5.2-1.032 9.36-2.808 12.48l-.624-.552c1.648-2.847 2.52-6.824 2.616-11.928v-7.032h9.024c-.32-.975-.664-1.815-1.032-2.52l.84-.144c.336.705.68 1.593 1.032 2.664h8.856v.816H50.418v6.216zM210.85 266.256l-1.464-.024-.216-.816 1.488.048c1.664-.048 2.712-.696 3.144-1.944.416-1.184.672-4.431.768-9.744h-6.144c-.272 5.745-2.152 9.96-5.64 12.648l-.648-.552c3.424-2.592 5.24-6.624 5.448-12.096h-4.944v-.792h4.968v-4.128h.84v4.128h6.96c-.048 6.369-.4 10.161-1.056 11.376-.688 1.264-1.856 1.896-3.504 1.896zm-4.152 3.024c1.568.032 3.152.048 4.752.048h3.024c.992-.016 1.768-.04 2.328-.072l-.216.888h-5.016c-.864 0-2.352-.016-4.464-.048-1.696-.048-2.992-.208-3.888-.48-.992-.304-1.896-.92-2.712-1.848-.32-.416-.648-.624-.984-.624-.704 0-1.824 1.137-3.36 3.408l-.648-.528c1.424-2.192 2.64-3.408 3.648-3.648v-8.136h-3.768v-.816h4.56v8.976c.368.129.712.376 1.032.744.64.768 1.376 1.32 2.208 1.656.768.272 1.936.432 3.504.48zm-10.656-19.296l.576-.552c1.696 1.281 3.08 2.512 4.152 3.696l-.576.6c-1.088-1.232-2.472-2.48-4.152-3.744zm-7.296 18.936c0 1.104-.576 1.656-1.728 1.656h-2.4l-.24-.816 2.376.048c.768 0 1.152-.36 1.152-1.08v-4.632a32.095 32.095 0 0 1-2.136 1.608c-3.136 1.92-7.312 3.336-12.528 4.248l-.36-.744c6.32-1.152 10.88-2.808 13.68-4.968.224-.176.608-.504 1.152-.984h-15.072v-.816h3.144v-11.328h4.752c.352-.735.632-1.56.84-2.472l.864.12c-.224.88-.52 1.665-.888 2.352h7.392v11.136c1.552-1.632 2.704-3.351 3.456-5.16l.72.432c-1.168 2.272-2.56 4.209-4.176 5.808v5.592zm-.84-17.016h-11.304v2.976h11.304v-2.976zm0 3.72h-11.304v2.904h11.304v-2.904zm0 3.648h-11.304v3.168h11.304v-3.168zm-22.32 3.96l.648-.408c1.664 2.145 2.912 3.984 3.744 5.52l-.672.504c-.944-1.776-2.184-3.648-3.72-5.616zm-.672-6.864l.744-.288a24.43 24.43 0 0 1 3.264 4.68l-.696.36c-1.008-1.776-2.112-3.36-3.312-4.752zm1.776-1.2c.528-.927.936-1.952 1.224-3.072h-9.6c-.944 1.377-1.992 2.568-3.144 3.576l-.528-.6a17.41 17.41 0 0 0 4.608-6.336l.768.216a22.075 22.075 0 0 1-1.2 2.376h9.96v.528a23.966 23.966 0 0 1-1.296 3.528l-.792-.216zm-14.112 6.72h-.816v-7.944a26.405 26.405 0 0 1-2.832 3.072l-.528-.648c2.352-2.096 4.168-4.632 5.448-7.608l.792.216a24.812 24.812 0 0 1-2.064 3.84v9.072zm-21.168 7.056h7.032v-7.8h-5.928v-.816h5.928v-4.848h.84v4.848h5.976v.816h-5.976v7.8h7.128v.816h-15v-.816zm-1.56-10.08v11.808h-.816v-10.824a33.387 33.387 0 0 1-3.744 3.6l-.504-.648c3.344-2.768 5.904-5.952 7.68-9.552h-6.864v-.816h7.248c.48-1.071.928-2.295 1.344-3.672l.84.072a39.743 39.743 0 0 1-1.296 3.6h12.6v.816h-12.984a27.701 27.701 0 0 1-3.504 5.616zm-27.984 10.176h3.624v-14.208h5.76c.192-.864.36-1.752.504-2.664h-9.408v-.792h9.528c.128-.864.224-1.728.288-2.592l.84.12c-.064.816-.16 1.641-.288 2.472h9.744v.792h-9.864c-.144.96-.312 1.848-.504 2.664h7.128v14.208h3.744v.792h-21.096v-.792zm4.44 0h12.096v-2.928h-12.096v2.928zm0-3.672h12.096v-2.784h-12.096v2.784zm0-3.504h12.096v-2.76h-12.096v2.76zm0-3.48h12.096V255.6h-12.096v2.784zm-27.984.72h21.336v.816H78.322v-.816zm-12.72-9.48c-2.672 3.537-6.184 6.585-10.536 9.144l-.384-.72c4.24-2.448 7.784-5.504 10.632-9.168h.576c3.04 3.84 6.56 6.864 10.56 9.072l-.408.744a34.376 34.376 0 0 1-10.44-9.072zM51.659 267.12c-.241 2.208-1.464 3.312-3.673 3.312l-1.752-.048-.215-.768c.991.032 1.639.048 1.944.048 1.663 0 2.631-.88 2.904-2.64.175-1.472.287-5.871.335-13.2h-2.52c-.528 4.224-1.28 7.528-2.256 9.912-1.103 2.448-2.736 4.656-4.895 6.624l-.528-.648c2.079-1.856 3.623-3.92 4.631-6.192 1.04-2.367 1.801-5.6 2.28-9.696h-2.64c-.96 5.392-2.816 9.28-5.568 11.664l-.552-.624c2.672-2.319 4.464-6 5.377-11.04h-2.449c-.64 1.632-1.4 2.992-2.28 4.08l-.6-.528c1.633-1.983 2.784-4.832 3.457-8.544l.816.216a31.581 31.581 0 0 1-1.08 3.96h9.599c0 7.536-.112 12.24-.335 14.112zm-14.88-5.256c.543-.255 1.327-.672 2.352-1.248v.792c-.657.384-1.441.801-2.352 1.248v7.944h-.816v-7.536a37.495 37.495 0 0 1-4.273 1.656l-.192-.816a31.37 31.37 0 0 0 4.465-1.632v-7.296h-2.64a20.993 20.993 0 0 1-1.369 3.792l-.72-.216a22.248 22.248 0 0 0 2.04-8.088l.72.048a25.376 25.376 0 0 1-.48 3.648h2.449v-5.304h.816v5.304h2.448v.816h-2.448v6.888zm-20.161-9.336c0 1.809-.096 3.48-.288 5.016h10.248c-.048 6.081-.36 9.72-.936 10.92-.592 1.2-1.624 1.8-3.096 1.8l-2.712-.024-.216-.816c1.104.048 2.008.072 2.712.072 1.456-.048 2.376-.664 2.76-1.848.352-1.167.576-4.263.672-9.288h-9.528c-.352 2.304-.872 4.248-1.56 5.832-1.232 2.721-3.256 4.856-6.072 6.408l-.456-.72c2.72-1.488 4.712-3.632 5.976-6.432 1.088-2.768 1.648-6.408 1.68-10.92v-.96H8.41v-.792h20.784v.792H16.618v.96zm54.528 10.488c0 1.296-.584 1.96-1.752 1.992-1.216 0-2.4-.024-3.552-.072l-.24-.816c1.632.064 2.832.096 3.6.096.752 0 1.128-.44 1.128-1.32v-4.392h-9.528v9.36c0 1.024.616 1.536 1.848 1.536h7.848c1.344 0 2.184-.256 2.52-.768.384-.624.648-1.784.792-3.48l.768.264c-.176 2.176-.56 3.552-1.152 4.128-.496.432-1.448.648-2.856.648h-8.088c-1.68 0-2.52-.72-2.52-2.16v-10.296h11.184v5.28zm81.144.504c-.72 2.32-1.728 4.329-3.024 6.024l-.672-.456c1.28-1.632 2.248-3.543 2.904-5.736l.792.168zm9 3.24c-.752-1.119-1.728-2.295-2.928-3.528l.624-.384c1.28 1.281 2.264 2.424 2.952 3.432l-.648.48zm-6.024-6.12c1.296-1.248 2.432-2.76 3.408-4.536l.696.312c-.992 1.84-2.152 3.4-3.48 4.68l-.624-.456zm7.272-6.72v6.48c0 1.041-.48 1.56-1.44 1.56h-1.872l-.168-.792c.832.033 1.424.048 1.776.048.592 0 .888-.344.888-1.032v-6.264h.816zm-6.984 14.496c0 .688.376 1.032 1.128 1.032h5.832c.688 0 1.152-.144 1.392-.432.368-.432.608-1.584.72-3.456l.792.24c-.144 2.064-.448 3.352-.912 3.864-.352.384-.96.576-1.824.576h-6.24c-1.152 0-1.728-.552-1.728-1.656v-5.664h.84v5.496zm-106.22-56.384a.921.921 0 0 1-.672.288.872.872 0 0 1-.672-.288.921.921 0 0 1-.288-.672c0-.288.096-.512.288-.672a.872.872 0 0 1 .672-.288c.272 0 .504.096.696.288.176.177.264.4.264.672 0 .256-.096.48-.288.672zm-6.096.288a.872.872 0 0 1-.672-.288.921.921 0 0 1-.288-.672c0-.288.096-.512.288-.672a.872.872 0 0 1 .672-.288c.272 0 .504.096.696.288.176.177.264.4.264.672 0 .256-.096.48-.288.672a.921.921 0 0 1-.672.288zm-5.424 0a.872.872 0 0 1-.672-.288.921.921 0 0 1-.288-.672c0-.288.096-.512.288-.672a.872.872 0 0 1 .672-.288c.272 0 .504.096.696.288.176.177.264.4.264.672 0 .256-.096.48-.288.672a.921.921 0 0 1-.672.288zm-5.423 0a.869.869 0 0 1-.672-.288.921.921 0 0 1-.288-.672c0-.288.096-.512.288-.672a.869.869 0 0 1 .672-.288.95.95 0 0 1 .696.288c.175.177.264.4.264.672 0 .256-.096.48-.288.672a.923.923 0 0 1-.672.288zm-5.424 0a.872.872 0 0 1-.672-.288.921.921 0 0 1-.288-.672c0-.288.096-.512.288-.672a.872.872 0 0 1 .672-.288c.272 0 .504.096.696.288.176.177.264.4.264.672 0 .256-.096.48-.288.672a.921.921 0 0 1-.672.288zm-5.424 0a.872.872 0 0 1-.672-.288.921.921 0 0 1-.288-.672c0-.288.096-.512.288-.672a.872.872 0 0 1 .672-.288c.272 0 .504.096.696.288.176.177.264.4.264.672 0 .256-.096.48-.288.672a.921.921 0 0 1-.672.288zm-5.424 0a.872.872 0 0 1-.672-.288.921.921 0 0 1-.288-.672c0-.288.096-.512.288-.672a.872.872 0 0 1 .672-.288c.272 0 .504.096.696.288.176.177.264.4.264.672 0 .256-.096.48-.288.672a.921.921 0 0 1-.672.288zm-8.111 73.67H76v7.002H8.008v-7.002z" class="cls-1"/></svg>