<svg id="图层_1" xmlns="http://www.w3.org/2000/svg" viewBox="-328 571.5 185 48"><style>.st0{fill:url(#SVGID_1_)}</style><linearGradient id="SVGID_1_" gradientUnits="userSpaceOnUse" x1="-325.562" y1="595.173" x2="-143.306" y2="595.173"><stop offset=".212" stop-color="#fff600"/><stop offset="1" stop-color="#4ae567"/><stop offset="1" stop-color="#4ae567"/></linearGradient><path class="st0" d="M-162.7 579.4v6h17v1.5h-35.5v-1.5h16.9v-6h-19.5v-1.5h19.5v-4.7h1.6v4.7h19.4v1.5h-19.4zm-16.7 12.3h32.5v10.8h-31.2c-.7 5.5-2.5 10.4-5.5 14.6l-1.2-1.2c3.5-4.6 5.3-10.6 5.4-18v-6.2zm17 9.3h13.9v-7.8h-13.9v7.8zm-1.7 0v-7.8h-13.7v4.7c0 1.1 0 2.1-.1 3.1h13.8zm-35-13.1l1.7-.6c3.5 6 6.5 12.4 9 19l-1.5.7c-2.8-7.2-5.9-13.6-9.2-19.1zm-1.4 25.7c-.8 1.2-2.2 1.8-4 1.8h-10.8c-2.7 0-4-1.2-4-3.7v-28.2h1.7v27.8c0 1.6.9 2.4 2.8 2.4h10c1.5 0 2.5-.4 3.1-1.3.8-1.3 1.3-5 1.6-11l1.5.5c-.2 6.1-.9 10-1.9 11.7zm-16-38.7l1.4-.9c4.8 4.5 8.4 8.3 10.9 11.5l-1.4 1c-2.6-3.5-6.3-7.4-10.9-11.6zm-15.6 33.7c2.7-5.6 4.6-12.1 5.9-19.4l1.6.3c-1.4 7.7-3.5 14.4-6 20l-1.5-.9zm-46 8.5l-1.2-1.1c4.4-5.7 6.5-13 6.6-22v-14.1h16c-.9-2.4-1.9-4.5-3-6.3l1.7-.3c1 1.7 2 3.9 3 6.6h15.1v14.7h-31.2c-.1 8.7-2.4 16.2-7 22.5zm36.5-35.6h-29.5V593h29.5v-11.5zm-48.9 34.4h-5.5l-.4-1.6h5.4c2.1 0 3.2-1.1 3.2-3.4v-10.2H-303v14.6h-1.6v-14.6h-14.3c-.5 6.4-2.3 11.6-5.5 15.6l-1.2-1.1c3.3-4.5 5-10.2 5.1-17.2v-22.3h34.2v35.7c.1 3-1.4 4.5-4.2 4.5zm-14.1-38.5h-14.2v10.1h14.2v-10.1zm0 11.6h-14.2v10.2h14.2V589zm16.7-11.6H-303v10.1h15.1v-10.1zm0 11.6H-303v10.1h15.1V589z"/></svg>