<svg xmlns="http://www.w3.org/2000/svg" xmlns:xlink="http://www.w3.org/1999/xlink" preserveAspectRatio="xMidYMid" width="254" height="300" viewBox="0 0 254 300">
  <defs>
    <style>
      .cls-1 {
        fill: #171717;
        fill-rule: evenodd;
      }
    </style>
  </defs>
  <path d="M134.601,165.940 L134.601,179.440 L131.001,179.440 L131.001,165.940 L117.501,165.940 L117.501,162.340 L131.001,162.340 L131.001,148.840 L134.601,148.840 L134.601,162.340 L148.101,162.340 L148.101,165.940 L134.601,165.940 ZM109.462,175.780 C108.622,177.901 107.462,179.641 105.982,181.000 C104.502,182.360 102.582,183.040 100.222,183.040 C97.862,183.040 95.942,182.360 94.462,181.000 C92.982,179.641 91.822,177.901 90.982,175.780 C90.142,173.661 89.562,171.301 89.242,168.700 C88.922,166.101 88.762,163.561 88.762,161.080 C88.762,158.601 88.922,156.061 89.242,153.460 C89.562,150.861 90.142,148.501 90.982,146.380 C91.822,144.261 92.982,142.521 94.462,141.160 C95.942,139.801 97.862,139.120 100.222,139.120 C102.582,139.120 104.502,139.801 105.982,141.160 C107.462,142.521 108.622,144.261 109.462,146.380 C110.302,148.501 110.872,150.861 111.172,153.460 C111.472,156.061 111.622,158.601 111.622,161.080 C111.622,163.561 111.472,166.101 111.172,168.700 C110.872,171.301 110.302,173.661 109.462,175.780 ZM107.272,157.619 C107.212,156.315 107.102,154.981 106.942,153.616 C106.782,152.252 106.542,150.918 106.222,149.613 C105.902,148.309 105.482,147.145 104.962,146.122 C104.442,145.099 103.792,144.277 103.012,143.654 C102.232,143.032 101.302,142.720 100.222,142.720 C99.142,142.720 98.212,143.032 97.432,143.654 C96.652,144.277 96.002,145.099 95.482,146.122 C94.962,147.145 94.532,148.309 94.192,149.613 C93.852,150.918 93.602,152.252 93.442,153.616 C93.282,154.981 93.172,156.315 93.112,157.619 C93.052,158.924 93.022,160.077 93.022,161.080 C93.022,162.124 93.052,163.298 93.112,164.602 C93.172,165.907 93.282,167.230 93.442,168.575 C93.602,169.919 93.852,171.244 94.192,172.548 C94.532,173.853 94.962,175.016 95.482,176.039 C96.002,177.063 96.652,177.885 97.432,178.508 C98.212,179.130 99.142,179.440 100.222,179.440 C101.302,179.440 102.232,179.130 103.012,178.508 C103.792,177.885 104.442,177.063 104.962,176.039 C105.482,175.016 105.902,173.853 106.222,172.548 C106.542,171.244 106.782,169.919 106.942,168.575 C107.102,167.230 107.212,165.907 107.272,164.602 C107.332,163.298 107.362,162.124 107.362,161.080 C107.362,160.077 107.332,158.924 107.272,157.619 ZM82.763,175.780 C81.923,177.901 80.762,179.641 79.283,181.000 C77.803,182.360 75.883,183.040 73.523,183.040 C71.162,183.040 69.242,182.360 67.763,181.000 C66.283,179.641 65.123,177.901 64.283,175.780 C63.443,173.661 62.863,171.301 62.543,168.700 C62.222,166.101 62.063,163.561 62.063,161.080 C62.063,158.601 62.222,156.061 62.543,153.460 C62.863,150.861 63.443,148.501 64.283,146.380 C65.123,144.261 66.283,142.521 67.763,141.160 C69.242,139.801 71.162,139.120 73.523,139.120 C75.883,139.120 77.803,139.801 79.283,141.160 C80.762,142.521 81.923,144.261 82.763,146.380 C83.603,148.501 84.173,150.861 84.473,153.460 C84.773,156.061 84.923,158.601 84.923,161.080 C84.923,163.561 84.773,166.101 84.473,168.700 C84.173,171.301 83.603,173.661 82.763,175.780 ZM80.573,157.619 C80.513,156.315 80.402,154.981 80.243,153.616 C80.083,152.252 79.843,150.918 79.523,149.613 C79.202,148.309 78.782,147.145 78.263,146.122 C77.743,145.099 77.093,144.277 76.313,143.654 C75.533,143.032 74.603,142.720 73.523,142.720 C72.443,142.720 71.513,143.032 70.733,143.654 C69.953,144.277 69.302,145.099 68.783,146.122 C68.263,147.145 67.832,148.309 67.493,149.613 C67.153,150.918 66.902,152.252 66.743,153.616 C66.583,154.981 66.473,156.315 66.413,157.619 C66.353,158.924 66.323,160.077 66.323,161.080 C66.323,162.124 66.353,163.298 66.413,164.602 C66.473,165.907 66.583,167.230 66.743,168.575 C66.902,169.919 67.153,171.244 67.493,172.548 C67.832,173.853 68.263,175.016 68.783,176.039 C69.302,177.063 69.953,177.885 70.733,178.508 C71.513,179.130 72.443,179.440 73.523,179.440 C74.603,179.440 75.533,179.130 76.313,178.508 C77.093,177.885 77.743,177.063 78.263,176.039 C78.782,175.016 79.202,173.853 79.523,172.548 C79.843,171.244 80.083,169.919 80.243,168.575 C80.402,167.230 80.513,165.907 80.573,164.602 C80.633,163.298 80.663,162.124 80.663,161.080 C80.663,160.077 80.633,158.924 80.573,157.619 ZM56.064,175.780 C55.224,177.901 54.063,179.641 52.584,181.000 C51.104,182.360 49.184,183.040 46.824,183.040 C44.463,183.040 42.543,182.360 41.064,181.000 C39.584,179.641 38.424,177.901 37.584,175.780 C36.744,173.661 36.164,171.301 35.844,168.700 C35.523,166.101 35.364,163.561 35.364,161.080 C35.364,158.601 35.523,156.061 35.844,153.460 C36.164,150.861 36.744,148.501 37.584,146.380 C38.424,144.261 39.584,142.521 41.064,141.160 C42.543,139.801 44.463,139.120 46.824,139.120 C49.184,139.120 51.104,139.801 52.584,141.160 C54.063,142.521 55.224,144.261 56.064,146.380 C56.904,148.501 57.474,150.861 57.774,153.460 C58.074,156.061 58.224,158.601 58.224,161.080 C58.224,163.561 58.074,166.101 57.774,168.700 C57.474,171.301 56.904,173.661 56.064,175.780 ZM53.874,157.619 C53.814,156.315 53.703,154.981 53.544,153.616 C53.384,152.252 53.144,150.918 52.824,149.613 C52.503,148.309 52.083,147.145 51.564,146.122 C51.044,145.099 50.394,144.277 49.614,143.654 C48.834,143.032 47.904,142.720 46.824,142.720 C45.744,142.720 44.814,143.032 44.034,143.654 C43.254,144.277 42.603,145.099 42.084,146.122 C41.564,147.145 41.133,148.309 40.794,149.613 C40.454,150.918 40.203,152.252 40.044,153.616 C39.884,154.981 39.774,156.315 39.714,157.619 C39.654,158.924 39.624,160.077 39.624,161.080 C39.624,162.124 39.654,163.298 39.714,164.602 C39.774,165.907 39.884,167.230 40.044,168.575 C40.203,169.919 40.454,171.244 40.794,172.548 C41.133,173.853 41.564,175.016 42.084,176.039 C42.603,177.063 43.254,177.885 44.034,178.508 C44.814,179.130 45.744,179.440 46.824,179.440 C47.904,179.440 48.834,179.130 49.614,178.508 C50.394,177.885 51.044,177.063 51.564,176.039 C52.083,175.016 52.503,173.853 52.824,172.548 C53.144,171.244 53.384,169.919 53.544,168.575 C53.703,167.230 53.814,165.907 53.874,164.602 C53.934,163.298 53.964,162.124 53.964,161.080 C53.964,160.077 53.934,158.924 53.874,157.619 ZM28.405,163.600 C29.804,165.520 30.505,167.901 30.505,170.740 C30.505,172.341 30.265,173.881 29.785,175.360 C29.305,176.841 28.585,178.150 27.625,179.290 C26.665,180.430 25.484,181.341 24.085,182.020 C22.684,182.700 21.085,183.040 19.285,183.040 C16.484,183.040 14.134,182.340 12.235,180.940 C10.334,179.541 8.984,177.520 8.185,174.880 L11.905,173.800 C12.464,175.480 13.354,176.841 14.575,177.880 C15.794,178.921 17.305,179.440 19.105,179.440 C20.344,179.440 21.424,179.170 22.345,178.630 C23.264,178.090 24.025,177.391 24.625,176.530 C25.225,175.671 25.675,174.721 25.975,173.680 C26.275,172.641 26.425,171.621 26.425,170.620 C26.425,167.740 25.654,165.550 24.115,164.050 C22.574,162.550 20.584,161.800 18.145,161.800 L16.885,161.800 L16.885,158.440 L18.205,158.440 C20.365,158.440 22.105,157.701 23.425,156.220 C24.745,154.741 25.405,152.740 25.405,150.220 C25.405,149.341 25.285,148.461 25.045,147.580 C24.805,146.701 24.424,145.900 23.905,145.180 C23.384,144.460 22.735,143.871 21.955,143.410 C21.175,142.951 20.224,142.720 19.105,142.720 C17.824,142.720 16.675,143.091 15.655,143.830 C14.635,144.571 13.844,145.581 13.285,146.860 L9.685,145.660 C10.564,143.461 11.905,141.820 13.705,140.740 C15.505,139.660 17.384,139.120 19.345,139.120 C20.905,139.120 22.304,139.390 23.545,139.930 C24.784,140.470 25.827,141.220 26.675,142.180 C27.522,143.140 28.182,144.271 28.655,145.570 C29.127,146.871 29.365,148.281 29.365,149.800 C29.365,150.961 29.226,152.091 28.948,153.190 C28.671,154.291 28.264,155.301 27.730,156.220 C27.194,157.141 26.520,157.930 25.708,158.590 C24.896,159.250 23.935,159.700 22.825,159.940 L22.825,160.060 C25.144,160.501 27.004,161.680 28.405,163.600 Z" class="cls-1"/>
  <path d="M231.606,170.552 C231.510,175.496 230.718,179.456 229.230,182.432 L228.630,181.880 C230.022,179.160 230.742,175.385 230.790,170.552 L230.790,163.136 L240.222,163.136 C239.822,162.192 239.406,161.376 238.974,160.688 L239.814,160.544 C240.246,161.312 240.654,162.176 241.038,163.136 L250.038,163.136 L250.038,163.952 L231.606,163.952 L231.606,170.552 ZM220.086,172.904 C219.430,173.144 218.686,173.369 217.854,173.576 C218.302,174.809 218.550,176.144 218.598,177.584 C218.598,179.424 218.358,180.704 217.878,181.424 C217.398,182.192 216.198,182.576 214.278,182.576 L213.390,182.576 L213.126,181.880 L214.158,181.880 C215.710,181.832 216.686,181.576 217.086,181.112 C217.550,180.520 217.782,179.345 217.782,177.584 C217.750,176.849 217.678,176.168 217.566,175.544 C214.846,177.864 211.134,179.729 206.430,181.136 L206.022,180.416 C210.998,178.944 214.782,177.041 217.374,174.704 C217.134,173.825 216.798,173.016 216.366,172.280 C214.094,174.168 210.878,175.721 206.718,176.936 L206.310,176.216 C210.518,175.032 213.742,173.513 215.982,171.656 C215.502,170.936 215.030,170.345 214.566,169.880 C214.214,170.072 213.878,170.240 213.558,170.384 C211.718,171.216 209.582,171.953 207.150,172.592 L206.694,171.920 C209.094,171.360 211.190,170.681 212.982,169.880 C214.326,169.272 215.518,168.624 216.558,167.936 L208.830,167.936 L208.830,167.144 L223.398,167.144 L223.398,167.936 L217.710,167.936 C216.926,168.480 216.086,169.016 215.190,169.544 C216.230,170.537 217.030,171.665 217.590,172.928 C220.006,172.304 222.302,171.257 224.478,169.784 L225.054,170.336 C223.694,171.264 222.262,172.032 220.758,172.640 C221.910,176.016 223.830,178.673 226.518,180.608 L225.966,181.256 C223.166,179.081 221.206,176.297 220.086,172.904 ZM225.174,164.048 L207.030,164.048 L207.030,166.976 L206.214,166.976 L206.214,163.256 L216.102,163.256 C215.798,162.344 215.486,161.537 215.166,160.832 L215.982,160.664 C216.318,161.432 216.630,162.296 216.918,163.256 L225.966,163.256 L225.966,166.976 L225.174,166.976 L225.174,164.048 ZM182.190,180.944 L192.294,180.944 L192.294,173.576 L184.158,173.576 L184.158,172.808 L192.294,172.808 L192.294,166.064 L183.030,166.064 L183.030,165.248 L202.398,165.248 L202.398,166.064 L193.134,166.064 L193.134,172.808 L201.246,172.808 L201.246,173.576 L193.134,173.576 L193.134,180.944 L203.238,180.944 L203.238,181.760 L182.190,181.760 L182.190,180.944 ZM191.022,161.072 L191.838,160.832 C192.414,162.065 192.878,163.224 193.230,164.312 L192.486,164.600 C192.054,163.352 191.566,162.176 191.022,161.072 ZM158.790,180.560 L166.302,180.560 L166.302,161.168 L167.094,161.168 L167.094,180.560 L171.462,180.560 L171.462,161.168 L172.254,161.168 L172.254,180.560 L179.814,180.560 L179.814,181.376 L158.790,181.376 L158.790,180.560 ZM174.390,176.456 C175.862,173.544 177.134,169.841 178.206,165.344 L178.950,165.560 C177.974,169.800 176.702,173.528 175.134,176.744 L174.390,176.456 ZM159.558,165.536 L160.278,165.296 C161.542,168.545 162.702,172.352 163.758,176.720 L162.990,176.912 C162.046,172.865 160.902,169.073 159.558,165.536 ZM249.702,177.512 L249.702,178.280 L239.958,178.280 L239.958,177.512 L244.494,177.512 L244.494,172.616 L240.606,172.616 L240.606,171.848 L244.494,171.848 L244.494,167.456 C243.182,167.585 241.870,167.648 240.558,167.648 L240.294,166.928 C243.734,166.896 246.502,166.505 248.598,165.752 L249.006,166.448 C247.886,166.848 246.646,167.153 245.286,167.360 L245.286,171.848 L249.174,171.848 L249.174,172.616 L245.286,172.616 L245.286,177.512 L249.702,177.512 ZM233.286,174.920 L233.982,174.632 C234.510,176.280 235.206,177.593 236.070,178.568 C237.142,176.936 237.726,174.992 237.822,172.736 L233.862,172.736 L233.862,172.136 C235.238,170.696 236.518,169.049 237.702,167.192 L233.358,167.192 L233.358,166.400 L238.638,166.400 L238.638,167.096 C237.374,169.097 236.142,170.744 234.942,172.040 L238.590,172.040 L238.590,172.496 C238.494,175.152 237.838,177.368 236.622,179.144 C237.118,179.624 237.686,180.017 238.326,180.320 C240.086,181.056 242.758,181.424 246.342,181.424 C247.190,181.424 248.526,181.408 250.350,181.376 L250.206,182.216 L246.726,182.216 C242.678,182.216 239.734,181.792 237.894,180.944 C237.270,180.640 236.694,180.240 236.166,179.744 C235.254,180.848 234.086,181.768 232.662,182.504 L232.254,181.808 C233.630,181.120 234.750,180.248 235.614,179.192 C234.670,178.104 233.894,176.681 233.286,174.920 Z" class="cls-1"/>
  <path d="M30.982,29.600 C30.568,27.961 29.928,26.551 29.061,25.370 C28.194,24.191 27.111,23.270 25.812,22.610 C24.513,21.950 22.963,21.620 21.163,21.620 C20.482,21.620 19.713,21.731 18.853,21.950 C17.992,22.171 17.223,22.441 16.543,22.760 L16.963,9.440 L30.185,9.440 L30.185,5.840 L13.363,5.840 L12.883,26.960 C13.803,26.360 14.913,25.871 16.213,25.490 C17.512,25.111 18.742,24.920 19.903,24.920 C22.423,24.920 24.343,25.863 25.663,27.749 C26.983,29.635 27.643,32.102 27.643,35.150 C27.643,38.360 26.983,40.878 25.663,42.703 C24.343,44.528 22.642,45.440 20.563,45.440 C18.963,45.440 17.602,44.981 16.483,44.060 C15.363,43.141 14.482,41.861 13.843,40.220 L10.243,41.540 C11.043,43.940 12.313,45.791 14.053,47.090 C15.793,48.390 17.983,49.040 20.623,49.040 C22.222,49.040 23.703,48.730 25.063,48.110 C26.422,47.491 27.587,46.580 28.555,45.380 C29.523,44.180 30.273,42.710 30.805,40.970 C31.337,39.230 31.603,37.241 31.603,35.000 C31.603,33.041 31.396,31.241 30.982,29.600 Z" class="cls-1"/>
  <path d="M112.978,48.456 L110.914,48.456 L110.698,47.664 L112.810,47.688 C113.690,47.688 114.130,47.128 114.130,46.008 L114.130,29.040 L104.410,29.040 L104.410,28.248 L114.946,28.248 L114.946,46.224 C114.946,47.712 114.290,48.456 112.978,48.456 ZM98.434,27.000 L99.202,26.664 C100.290,27.960 101.282,29.440 102.178,31.104 L101.434,31.488 C100.538,29.793 99.538,28.296 98.434,27.000 ZM96.610,30.816 L97.426,30.816 L97.426,48.624 L96.610,48.624 L96.610,30.816 ZM85.114,42.336 C84.250,40.512 83.074,38.496 81.586,36.288 L82.234,35.880 C83.770,38.121 84.954,40.113 85.786,41.856 L85.114,42.336 ZM90.058,46.368 C90.058,47.696 89.402,48.360 88.090,48.360 L83.986,48.360 L83.818,47.568 C85.674,47.600 87.010,47.616 87.826,47.616 C88.754,47.616 89.218,47.136 89.218,46.176 L89.218,32.352 L80.386,32.352 L80.386,31.560 L89.218,31.560 L89.218,27.024 L90.058,27.024 L90.058,31.560 L93.394,31.560 L93.394,32.352 L90.058,32.352 L90.058,46.368 ZM78.202,44.304 L73.570,44.304 L73.570,46.656 L72.754,46.656 L72.754,28.848 L78.994,28.848 L78.994,46.104 L78.202,46.104 L78.202,44.304 ZM78.202,29.616 L73.570,29.616 L73.570,36.000 L78.202,36.000 L78.202,29.616 ZM78.202,36.792 L73.570,36.792 L73.570,43.512 L78.202,43.512 L78.202,36.792 ZM60.778,48.696 L59.986,48.696 L59.986,43.056 L48.538,43.056 L48.538,42.240 L52.762,42.240 L52.762,35.400 L59.986,35.400 L59.986,30.648 L52.762,30.648 C51.802,32.376 50.546,33.832 48.994,35.016 L48.442,34.344 C50.938,32.440 52.618,29.872 53.482,26.640 L54.322,26.808 C54.018,27.864 53.642,28.872 53.194,29.832 L68.650,29.832 L68.650,30.648 L60.778,30.648 L60.778,35.400 L67.810,35.400 L67.810,36.192 L60.778,36.192 L60.778,42.240 L69.442,42.240 L69.442,43.056 L60.778,43.056 L60.778,48.696 ZM59.986,36.192 L53.602,36.192 L53.602,42.240 L59.986,42.240 L59.986,36.192 ZM109.906,44.064 L101.506,44.064 L101.506,33.552 L109.906,33.552 L109.906,44.064 ZM109.114,34.320 L102.322,34.320 L102.322,38.424 L109.114,38.424 L109.114,34.320 ZM109.114,39.192 L102.322,39.192 L102.322,43.296 L109.114,43.296 L109.114,39.192 Z" class="cls-1"/>
  <path d="M30.943,93.660 C29.743,91.821 28.063,90.501 25.903,89.700 L25.903,89.580 C27.823,88.781 29.263,87.540 30.223,85.860 C31.183,84.180 31.663,82.200 31.663,79.920 C31.663,78.441 31.443,77.040 31.003,75.720 C30.562,74.400 29.913,73.251 29.053,72.270 C28.192,71.291 27.133,70.521 25.873,69.960 C24.613,69.401 23.143,69.120 21.463,69.120 C19.783,69.120 18.313,69.401 17.053,69.960 C15.793,70.521 14.733,71.291 13.873,72.270 C13.012,73.251 12.373,74.400 11.953,75.720 C11.533,77.040 11.323,78.441 11.323,79.920 C11.323,82.200 11.812,84.180 12.793,85.860 C13.773,87.540 15.223,88.781 17.143,89.580 L17.143,89.700 C14.983,90.420 13.303,91.721 12.103,93.600 C10.903,95.481 10.303,97.860 10.303,100.740 C10.303,102.581 10.563,104.250 11.083,105.750 C11.602,107.250 12.343,108.540 13.303,109.620 C14.263,110.700 15.433,111.540 16.813,112.140 C18.193,112.740 19.743,113.040 21.463,113.040 C23.182,113.040 24.742,112.740 26.143,112.140 C27.543,111.540 28.732,110.700 29.713,109.620 C30.693,108.540 31.443,107.250 31.963,105.750 C32.482,104.250 32.743,102.581 32.743,100.740 C32.743,97.860 32.143,95.501 30.943,93.660 ZM27.103,83.220 C26.823,84.180 26.422,85.020 25.903,85.740 C25.383,86.460 24.742,87.041 23.983,87.480 C23.223,87.921 22.383,88.140 21.463,88.140 C20.542,88.140 19.713,87.921 18.973,87.480 C18.232,87.041 17.602,86.460 17.083,85.740 C16.563,85.020 16.162,84.180 15.883,83.220 C15.603,82.260 15.463,81.240 15.463,80.160 C15.463,77.880 15.973,76.001 16.993,74.520 C18.013,73.041 19.503,72.300 21.463,72.300 C23.383,72.300 24.873,73.041 25.933,74.520 C26.992,76.001 27.523,77.880 27.523,80.160 C27.523,81.240 27.382,82.260 27.103,83.220 ZM27.973,104.160 C27.673,105.281 27.223,106.251 26.623,107.070 C26.023,107.891 25.293,108.531 24.433,108.990 C23.572,109.451 22.582,109.680 21.463,109.680 C20.383,109.680 19.413,109.451 18.553,108.990 C17.692,108.531 16.963,107.891 16.363,107.070 C15.763,106.251 15.303,105.281 14.983,104.160 C14.662,103.041 14.503,101.841 14.503,100.560 C14.503,97.841 15.142,95.631 16.423,93.930 C17.703,92.231 19.383,91.380 21.463,91.380 C23.542,91.380 25.222,92.231 26.503,93.930 C27.783,95.631 28.423,97.841 28.423,100.560 C28.423,101.841 28.273,103.041 27.973,104.160 Z" class="cls-1"/>
  <path d="M105.210,92.696 L105.210,96.704 L113.034,96.704 L113.034,105.104 C113.034,106.416 112.434,107.072 111.234,107.072 L108.882,107.072 L108.666,106.232 L110.970,106.280 C111.802,106.280 112.218,105.833 112.218,104.936 L112.218,97.496 L105.210,97.496 L105.210,110.528 L104.394,110.528 L104.394,97.496 L97.674,97.496 L97.674,107.216 L96.882,107.216 L96.882,96.704 L104.394,96.704 L104.394,92.696 L94.290,92.696 L94.290,91.904 L104.610,91.904 C104.178,90.689 103.698,89.616 103.170,88.688 L104.034,88.544 C104.514,89.441 104.978,90.560 105.426,91.904 L115.314,91.904 L115.314,92.696 L105.210,92.696 ZM90.162,109.040 C90.690,109.024 91.122,107.688 91.458,105.032 L92.154,105.416 C91.722,108.536 91.130,110.096 90.378,110.096 C89.642,110.096 88.850,109.368 88.002,107.912 C87.522,107.064 87.154,106.208 86.898,105.344 C85.426,107.489 83.658,109.112 81.594,110.216 L81.090,109.592 C83.314,108.440 85.154,106.712 86.610,104.408 C86.322,103.496 86.082,102.512 85.890,101.456 C85.474,99.296 85.218,96.665 85.122,93.560 L78.930,93.560 L78.930,97.736 L83.250,97.736 C83.250,101.864 83.106,104.384 82.818,105.296 C82.498,106.160 81.962,106.616 81.210,106.664 L79.530,106.664 L79.338,105.944 L80.994,105.944 C81.634,105.864 82.034,105.401 82.194,104.552 C82.338,103.688 82.434,101.664 82.482,98.480 L78.930,98.480 L78.930,98.912 C78.834,103.649 77.746,107.456 75.666,110.336 L75.042,109.808 C76.994,107.216 78.018,103.584 78.114,98.912 L78.114,92.768 L85.098,92.768 C85.050,91.520 85.026,90.216 85.026,88.856 L85.842,88.856 C85.842,90.665 85.858,91.968 85.890,92.768 L91.578,92.768 L91.578,93.560 L85.914,93.560 C86.010,96.728 86.250,99.296 86.634,101.264 C86.778,102.065 86.946,102.816 87.138,103.520 C88.258,101.537 89.138,99.096 89.778,96.200 L90.498,96.488 C89.762,99.624 88.738,102.296 87.426,104.504 C87.714,105.480 88.066,106.376 88.482,107.192 C89.154,108.424 89.714,109.040 90.162,109.040 ZM88.026,88.856 L88.698,88.592 C89.418,89.633 90.018,90.704 90.498,91.808 L89.826,92.096 C89.282,90.848 88.682,89.768 88.026,88.856 ZM70.314,105.872 C71.338,105.552 72.250,105.233 73.050,104.912 L73.050,96.128 L70.578,96.128 L70.578,95.312 L73.050,95.312 L73.050,88.928 L73.866,88.928 L73.866,95.312 L76.314,95.312 L76.314,96.128 L73.866,96.128 L73.866,104.552 C74.778,104.105 75.594,103.664 76.314,103.232 L76.314,104.048 C74.554,105.104 72.618,105.968 70.506,106.640 L70.314,105.872 ZM51.234,109.064 L59.322,109.064 L59.322,104.768 L52.554,104.768 L52.554,103.976 L59.322,103.976 L59.322,93.608 L60.114,93.608 L60.114,103.976 L67.362,103.976 L67.362,104.768 L60.114,104.768 L60.114,109.064 L68.538,109.064 L68.538,109.856 L51.234,109.856 L51.234,109.064 ZM67.746,102.056 C66.546,100.376 65.434,98.976 64.410,97.856 C63.786,99.584 62.986,101.033 62.010,102.200 L61.482,101.576 C63.050,99.641 64.114,97.025 64.674,93.728 L65.466,93.872 C65.210,95.201 64.930,96.305 64.626,97.184 C65.810,98.400 67.002,99.785 68.202,101.336 L67.746,102.056 ZM57.450,101.864 C56.602,100.265 55.714,98.952 54.786,97.928 C54.114,99.689 53.266,101.168 52.242,102.368 L51.714,101.768 C53.394,99.800 54.522,97.136 55.098,93.776 L55.866,93.920 C55.626,95.136 55.338,96.257 55.002,97.280 C56.090,98.384 57.058,99.672 57.906,101.144 L57.450,101.864 ZM50.418,98.144 C50.322,103.344 49.386,107.504 47.610,110.624 L46.986,110.072 C48.634,107.225 49.506,103.248 49.602,98.144 L49.602,91.112 L58.626,91.112 C58.306,90.137 57.962,89.297 57.594,88.592 L58.434,88.448 C58.770,89.153 59.114,90.041 59.466,91.112 L68.322,91.112 L68.322,91.928 L50.418,91.928 L50.418,98.144 Z" class="cls-1"/>
  <path d="M210.850,266.256 L209.386,266.232 L209.170,265.416 L210.658,265.464 C212.322,265.416 213.370,264.768 213.802,263.520 C214.218,262.336 214.474,259.089 214.570,253.776 L208.426,253.776 C208.154,259.521 206.274,263.736 202.786,266.424 L202.138,265.872 C205.562,263.280 207.378,259.248 207.586,253.776 L202.642,253.776 L202.642,252.984 L207.610,252.984 L207.610,248.856 L208.450,248.856 L208.450,252.984 L215.410,252.984 C215.362,259.353 215.010,263.145 214.354,264.360 C213.666,265.624 212.498,266.256 210.850,266.256 ZM206.698,269.280 C208.266,269.312 209.850,269.328 211.450,269.328 L214.474,269.328 C215.466,269.312 216.242,269.288 216.802,269.256 L216.586,270.144 L211.570,270.144 C210.706,270.144 209.218,270.128 207.106,270.096 C205.410,270.048 204.114,269.888 203.218,269.616 C202.226,269.312 201.322,268.696 200.506,267.768 C200.186,267.352 199.858,267.144 199.522,267.144 C198.818,267.144 197.698,268.281 196.162,270.552 L195.514,270.024 C196.938,267.832 198.154,266.616 199.162,266.376 L199.162,258.240 L195.394,258.240 L195.394,257.424 L199.954,257.424 L199.954,266.400 C200.322,266.529 200.666,266.776 200.986,267.144 C201.626,267.912 202.362,268.464 203.194,268.800 C203.962,269.072 205.130,269.232 206.698,269.280 ZM196.042,249.984 L196.618,249.432 C198.314,250.713 199.698,251.944 200.770,253.128 L200.194,253.728 C199.106,252.496 197.722,251.248 196.042,249.984 ZM188.746,268.920 C188.746,270.024 188.170,270.576 187.018,270.576 L184.618,270.576 L184.378,269.760 L186.754,269.808 C187.522,269.808 187.906,269.448 187.906,268.728 L187.906,264.096 C187.138,264.720 186.426,265.257 185.770,265.704 C182.634,267.624 178.458,269.040 173.242,269.952 L172.882,269.208 C179.202,268.056 183.762,266.400 186.562,264.240 C186.786,264.064 187.170,263.736 187.714,263.256 L172.642,263.256 L172.642,262.440 L175.786,262.440 L175.786,251.112 L180.538,251.112 C180.890,250.377 181.170,249.552 181.378,248.640 L182.242,248.760 C182.018,249.640 181.722,250.425 181.354,251.112 L188.746,251.112 L188.746,262.248 C190.298,260.616 191.450,258.897 192.202,257.088 L192.922,257.520 C191.754,259.792 190.362,261.729 188.746,263.328 L188.746,268.920 ZM187.906,251.904 L176.602,251.904 L176.602,254.880 L187.906,254.880 L187.906,251.904 ZM187.906,255.624 L176.602,255.624 L176.602,258.528 L187.906,258.528 L187.906,255.624 ZM187.906,259.272 L176.602,259.272 L176.602,262.440 L187.906,262.440 L187.906,259.272 ZM165.586,263.232 L166.234,262.824 C167.898,264.969 169.146,266.808 169.978,268.344 L169.306,268.848 C168.362,267.072 167.122,265.200 165.586,263.232 ZM164.914,256.368 L165.658,256.080 C166.890,257.457 167.978,259.017 168.922,260.760 L168.226,261.120 C167.218,259.344 166.114,257.760 164.914,256.368 ZM166.690,255.168 C167.218,254.241 167.626,253.216 167.914,252.096 L158.314,252.096 C157.370,253.473 156.322,254.664 155.170,255.672 L154.642,255.072 C156.658,253.312 158.194,251.200 159.250,248.736 L160.018,248.952 C159.682,249.736 159.282,250.528 158.818,251.328 L168.778,251.328 L168.778,251.856 C168.442,253.056 168.010,254.232 167.482,255.384 L166.690,255.168 ZM152.578,261.888 L151.762,261.888 L151.762,253.944 C150.850,255.096 149.906,256.120 148.930,257.016 L148.402,256.368 C150.754,254.272 152.570,251.736 153.850,248.760 L154.642,248.976 C154.082,250.288 153.394,251.568 152.578,252.816 L152.578,261.888 ZM131.410,268.944 L138.442,268.944 L138.442,261.144 L132.514,261.144 L132.514,260.328 L138.442,260.328 L138.442,255.480 L139.282,255.480 L139.282,260.328 L145.258,260.328 L145.258,261.144 L139.282,261.144 L139.282,268.944 L146.410,268.944 L146.410,269.760 L131.410,269.760 L131.410,268.944 ZM129.850,258.864 L129.850,270.672 L129.034,270.672 L129.034,259.848 C127.914,261.112 126.666,262.312 125.290,263.448 L124.786,262.800 C128.130,260.032 130.690,256.848 132.466,253.248 L125.602,253.248 L125.602,252.432 L132.850,252.432 C133.330,251.361 133.778,250.137 134.194,248.760 L135.034,248.832 C134.650,250.080 134.218,251.280 133.738,252.432 L146.338,252.432 L146.338,253.248 L133.354,253.248 C132.378,255.312 131.210,257.184 129.850,258.864 ZM101.866,269.040 L105.490,269.040 L105.490,254.832 L111.250,254.832 C111.442,253.968 111.610,253.080 111.754,252.168 L102.346,252.168 L102.346,251.376 L111.874,251.376 C112.002,250.512 112.098,249.648 112.162,248.784 L113.002,248.904 C112.938,249.720 112.842,250.545 112.714,251.376 L122.458,251.376 L122.458,252.168 L112.594,252.168 C112.450,253.128 112.282,254.016 112.090,254.832 L119.218,254.832 L119.218,269.040 L122.962,269.040 L122.962,269.832 L101.866,269.832 L101.866,269.040 ZM106.306,269.040 L118.402,269.040 L118.402,266.112 L106.306,266.112 L106.306,269.040 ZM106.306,265.368 L118.402,265.368 L118.402,262.584 L106.306,262.584 L106.306,265.368 ZM106.306,261.864 L118.402,261.864 L118.402,259.104 L106.306,259.104 L106.306,261.864 ZM106.306,258.384 L118.402,258.384 L118.402,255.600 L106.306,255.600 L106.306,258.384 ZM78.322,259.104 L99.658,259.104 L99.658,259.920 L78.322,259.920 L78.322,259.104 ZM65.602,249.624 C62.930,253.161 59.418,256.209 55.066,258.768 L54.682,258.048 C58.922,255.600 62.466,252.544 65.314,248.880 L65.890,248.880 C68.930,252.720 72.450,255.744 76.450,257.952 L76.042,258.696 C71.962,256.392 68.482,253.368 65.602,249.624 ZM51.659,267.120 C51.418,269.328 50.195,270.432 47.986,270.432 L46.234,270.384 L46.019,269.616 C47.010,269.648 47.658,269.664 47.963,269.664 C49.626,269.664 50.594,268.784 50.867,267.024 C51.042,265.552 51.154,261.153 51.202,253.824 L48.682,253.824 C48.154,258.048 47.402,261.352 46.426,263.736 C45.323,266.184 43.690,268.392 41.531,270.360 L41.003,269.712 C43.082,267.856 44.626,265.792 45.634,263.520 C46.674,261.153 47.435,257.920 47.914,253.824 L45.274,253.824 C44.314,259.216 42.458,263.104 39.706,265.488 L39.154,264.864 C41.826,262.545 43.618,258.864 44.531,253.824 L42.082,253.824 C41.442,255.456 40.682,256.816 39.802,257.904 L39.202,257.376 C40.835,255.393 41.986,252.544 42.659,248.832 L43.475,249.048 C43.170,250.504 42.810,251.824 42.395,253.008 L51.994,253.008 C51.994,260.544 51.882,265.248 51.659,267.120 ZM36.779,261.864 C37.322,261.609 38.106,261.192 39.131,260.616 L39.131,261.408 C38.474,261.792 37.690,262.209 36.779,262.656 L36.779,270.600 L35.963,270.600 L35.963,263.064 C34.570,263.704 33.146,264.256 31.690,264.720 L31.498,263.904 C32.986,263.488 34.475,262.944 35.963,262.272 L35.963,254.976 L33.323,254.976 C32.986,256.288 32.531,257.553 31.954,258.768 L31.234,258.552 C32.418,256.008 33.098,253.312 33.274,250.464 L33.994,250.512 C33.930,251.680 33.770,252.897 33.514,254.160 L35.963,254.160 L35.963,248.856 L36.779,248.856 L36.779,254.160 L39.227,254.160 L39.227,254.976 L36.779,254.976 L36.779,261.864 ZM16.618,252.528 C16.618,254.337 16.522,256.008 16.330,257.544 L26.578,257.544 C26.530,263.625 26.218,267.264 25.642,268.464 C25.050,269.664 24.018,270.264 22.546,270.264 L19.834,270.240 L19.618,269.424 C20.722,269.472 21.626,269.496 22.330,269.496 C23.786,269.448 24.706,268.832 25.090,267.648 C25.442,266.481 25.666,263.385 25.762,258.360 L16.234,258.360 C15.882,260.664 15.362,262.608 14.674,264.192 C13.442,266.913 11.418,269.048 8.602,270.600 L8.146,269.880 C10.866,268.392 12.858,266.248 14.122,263.448 C15.210,260.680 15.770,257.040 15.802,252.528 L15.802,251.568 L8.410,251.568 L8.410,250.776 L29.194,250.776 L29.194,251.568 L16.618,251.568 L16.618,252.528 ZM71.146,263.016 C71.146,264.312 70.562,264.976 69.394,265.008 C68.178,265.008 66.994,264.984 65.842,264.936 L65.602,264.120 C67.234,264.184 68.434,264.216 69.202,264.216 C69.954,264.216 70.330,263.776 70.330,262.896 L70.330,258.504 L60.802,258.504 L60.802,267.864 C60.802,268.888 61.418,269.400 62.650,269.400 L70.498,269.400 C71.842,269.400 72.682,269.144 73.018,268.632 C73.402,268.008 73.666,266.848 73.810,265.152 L74.578,265.416 C74.402,267.592 74.018,268.968 73.426,269.544 C72.930,269.976 71.978,270.192 70.570,270.192 L62.482,270.192 C60.802,270.192 59.962,269.472 59.962,268.032 L59.962,257.736 L71.146,257.736 L71.146,263.016 ZM152.290,263.520 C151.570,265.840 150.562,267.849 149.266,269.544 L148.594,269.088 C149.874,267.456 150.842,265.545 151.498,263.352 L152.290,263.520 ZM161.290,266.760 C160.538,265.641 159.562,264.465 158.362,263.232 L158.986,262.848 C160.266,264.129 161.250,265.272 161.938,266.280 L161.290,266.760 ZM155.266,260.640 C156.562,259.392 157.698,257.880 158.674,256.104 L159.370,256.416 C158.378,258.256 157.218,259.816 155.890,261.096 L155.266,260.640 ZM162.538,253.920 L162.538,260.400 C162.538,261.441 162.058,261.960 161.098,261.960 L159.226,261.960 L159.058,261.168 C159.890,261.201 160.482,261.216 160.834,261.216 C161.426,261.216 161.722,260.872 161.722,260.184 L161.722,253.920 L162.538,253.920 ZM155.554,268.416 C155.554,269.104 155.930,269.448 156.682,269.448 L162.514,269.448 C163.202,269.448 163.666,269.304 163.906,269.016 C164.274,268.584 164.514,267.432 164.626,265.560 L165.418,265.800 C165.274,267.864 164.970,269.152 164.506,269.664 C164.154,270.048 163.546,270.240 162.682,270.240 L156.442,270.240 C155.290,270.240 154.714,269.688 154.714,268.584 L154.714,262.920 L155.554,262.920 L155.554,268.416 Z" class="cls-1"/>
  <path d="M49.334,212.032 C49.142,212.224 48.918,212.320 48.662,212.320 C48.390,212.320 48.166,212.224 47.990,212.032 C47.798,211.840 47.702,211.616 47.702,211.360 C47.702,211.072 47.798,210.848 47.990,210.688 C48.166,210.496 48.390,210.400 48.662,210.400 C48.934,210.400 49.166,210.496 49.358,210.688 C49.534,210.865 49.622,211.088 49.622,211.360 C49.622,211.616 49.526,211.840 49.334,212.032 ZM43.238,212.320 C42.966,212.320 42.742,212.224 42.566,212.032 C42.374,211.840 42.278,211.616 42.278,211.360 C42.278,211.072 42.374,210.848 42.566,210.688 C42.742,210.496 42.966,210.400 43.238,210.400 C43.510,210.400 43.742,210.496 43.934,210.688 C44.110,210.865 44.198,211.088 44.198,211.360 C44.198,211.616 44.102,211.840 43.910,212.032 C43.718,212.224 43.494,212.320 43.238,212.320 ZM37.814,212.320 C37.542,212.320 37.318,212.224 37.142,212.032 C36.950,211.840 36.854,211.616 36.854,211.360 C36.854,211.072 36.950,210.848 37.142,210.688 C37.318,210.496 37.542,210.400 37.814,210.400 C38.086,210.400 38.318,210.496 38.510,210.688 C38.686,210.865 38.774,211.088 38.774,211.360 C38.774,211.616 38.678,211.840 38.486,212.032 C38.294,212.224 38.070,212.320 37.814,212.320 ZM32.391,212.320 C32.118,212.320 31.894,212.224 31.719,212.032 C31.527,211.840 31.431,211.616 31.431,211.360 C31.431,211.072 31.527,210.848 31.719,210.688 C31.894,210.496 32.118,210.400 32.391,210.400 C32.662,210.400 32.895,210.496 33.087,210.688 C33.262,210.865 33.351,211.088 33.351,211.360 C33.351,211.616 33.255,211.840 33.063,212.032 C32.871,212.224 32.646,212.320 32.391,212.320 ZM26.967,212.320 C26.695,212.320 26.471,212.224 26.295,212.032 C26.103,211.840 26.007,211.616 26.007,211.360 C26.007,211.072 26.103,210.848 26.295,210.688 C26.471,210.496 26.695,210.400 26.967,210.400 C27.239,210.400 27.471,210.496 27.663,210.688 C27.839,210.865 27.927,211.088 27.927,211.360 C27.927,211.616 27.831,211.840 27.639,212.032 C27.447,212.224 27.223,212.320 26.967,212.320 ZM21.543,212.320 C21.271,212.320 21.047,212.224 20.871,212.032 C20.679,211.840 20.583,211.616 20.583,211.360 C20.583,211.072 20.679,210.848 20.871,210.688 C21.047,210.496 21.271,210.400 21.543,210.400 C21.815,210.400 22.047,210.496 22.239,210.688 C22.415,210.865 22.503,211.088 22.503,211.360 C22.503,211.616 22.407,211.840 22.215,212.032 C22.023,212.224 21.799,212.320 21.543,212.320 ZM16.119,212.320 C15.847,212.320 15.623,212.224 15.447,212.032 C15.255,211.840 15.159,211.616 15.159,211.360 C15.159,211.072 15.255,210.848 15.447,210.688 C15.623,210.496 15.847,210.400 16.119,210.400 C16.391,210.400 16.623,210.496 16.815,210.688 C16.991,210.865 17.079,211.088 17.079,211.360 C17.079,211.616 16.983,211.840 16.791,212.032 C16.599,212.224 16.375,212.320 16.119,212.320 Z" class="cls-1"/>
  <path d="M8.008,285.990 L76.000,285.990 L76.000,292.992 L8.008,292.992 L8.008,285.990 Z" class="cls-1"/>
</svg>
