<svg id="图层_1" xmlns="http://www.w3.org/2000/svg" viewBox="0 0 100 100"><style>.st0{fill:#fff}</style><path id="XMLID_7_" class="st0" d="M50 21.4c-16 0-29 13-29 29s13 29 29 29 29-13 29-29c0-16.1-13-29-29-29zm0 56.1c-15 0-27.1-12.1-27.1-27.1 0-15 12.1-27.1 27.1-27.1s27.1 12.1 27.1 27.1C77.1 65.3 65 77.5 50 77.5z"/><path id="XMLID_2_" class="st0" d="M50 35.5c-8 0-14.5 6.5-14.5 14.5S42 64.6 50 64.6s14.5-6.5 14.5-14.5S58 35.5 50 35.5zm4.3 9.7c1.1 0 2.1.9 2.1 2.1s-.9 2.1-2.1 2.1-2.1-.9-2.1-2.1 1-2.1 2.1-2.1zm-8.9 0c1.1 0 2.1.9 2.1 2.1s-.9 2.1-2.1 2.1-2.1-.9-2.1-2.1.9-2.1 2.1-2.1zm13.2 8.1s-2.5 6.2-8.4 6.3c-5.9-.1-8.4-6.3-8.4-6.3s-.2-.7.4-1c.9-.5 1.3.6 1.3.6s2.6 5.1 6.6 5.1c4.1 0 6.7-5.1 6.7-5.1s.4-1 1.3-.6c.7.3.5 1 .5 1z"/></svg>