<svg xmlns="http://www.w3.org/2000/svg" preserveAspectRatio="xMidYMid" width="436" height="460" viewBox="0 0 436 460"><defs><style>.cls-1{fill:#257ca5}.cls-1,.cls-2,.cls-3,.cls-4,.cls-5,.cls-6{fill-rule:evenodd}.cls-2{fill:#22af9b}.cls-3{fill:#d0dd3c}.cls-4{fill:#f39818}.cls-5{fill:#f5d123}.cls-6{fill:#f8fbfd}</style></defs><path d="M42.804 335.392l38.617.744c29.965 34.255 73.992 55.895 123.079 55.895 13.336 0 26.294-1.608 38.704-4.622l93.785 29.768c-37.124 26.109-82.372 41.448-131.208 41.448-74.942 0-141.451-36.102-183.085-91.861l20.108-31.372z" class="cls-1"/><path d="M370.844 72.53a229.59 229.59 0 0 1 19.837 23.786L370.844 72.53zM215.762 423.077l21.877-33.821.775-.757c61.303-12.935 109.932-60.219 124.822-120.777l27.786 31.524 39.295-27.272c-16.601 89.992-85.969 161.483-174.832 181.21l-39.723-30.107z" class="cls-2"/><path d="M395.987 303.66l-31.366-41.165a165.136 165.136 0 0 0 3.316-33.011c0-47.599-20.236-90.466-52.566-120.491l29.407-59.842c54.323 41.739 89.347 107.348 89.347 181.146 0 19.642-2.482 38.703-7.147 56.89l-30.991 16.473z" class="cls-3"/><path d="M354.795 93.338l-47.12 8.499c-28.07-22.387-63.635-35.774-102.331-35.774-53.436 0-100.905 25.521-130.9 65.032l-10.069.463-48.797-21.114-3.661-.82C52.242 44.987 123.982 1.969 205.781 1.969c57.611 0 110.23 21.342 150.404 56.539l-1.39 34.83z" class="cls-4"/><path d="M162.973 28.053l-13.788 48.946c-38.527 14.323-70.045 43.042-88.024 79.621l-20.012-28.897-41.082 3.358C26.753 75.86 75.024 33.029 133.924 13.518l29.049 14.535z" class="cls-5"/><path d="M136.321 12.345l38.257 21.075-16.066 40.084-13.973 6.044 13.789-39.369-42.027-22.069 20.02-5.765z" class="cls-6"/><path d="M112.001 21.589l40.35 20.983-14.737 39.373-8.398 4.694 16.137-42.175-39.055-20.116 5.703-2.759zm244.823 36.598l1.657 43.497-42.742 7.841-12.398-10.163 41.551-8.052-2.143-44.823 14.075 11.7z" class="cls-6"/><path d="M338.315 43.888l1.657 43.561-42.497 7.202-7.053-4.631 44.554-7.534-1.738-42.214 5.077 3.616zm89.729 242.851L387.59 311.08l-26.774-35.027 3.989-17.759 26.156 34.014 40.328-22.683-3.245 17.114z" class="cls-6"/><path d="M432.514 260.772l-40.227 24.686-25.475-36.057.594-10.115 27.26 38.686 38.538-24.608-.69 7.408zM251.672 454.714l-40.027-33.369 19.484-31.898 18.524-4.235-19.363 32.575 39.514 32.557-18.132 4.37z" class="cls-6"/><path d="M275.679 448.607l-38.551-32.03 22.366-34.247 9.382-3.481-23.942 37.271 37.991 29.775-7.246 2.712z" class="cls-6"/></svg>