<svg xmlns="http://www.w3.org/2000/svg" xmlns:xlink="http://www.w3.org/1999/xlink" preserveAspectRatio="xMidYMid" width="436" height="460" viewBox="0 0 436 460">
  <defs>
    <style>
      .cls-1 {
        fill: #257ca5;
      }

      .cls-1, .cls-2, .cls-3, .cls-4, .cls-5, .cls-6 {
        fill-rule: evenodd;
      }

      .cls-2 {
        fill: #22af9b;
      }

      .cls-3 {
        fill: #d0dd3c;
      }

      .cls-4 {
        fill: #f39818;
      }

      .cls-5 {
        fill: #f5d123;
      }

      .cls-6 {
        fill: #f8fbfd;
      }
    </style>
  </defs>
  <path d="M42.804,335.392 L81.421,336.136 C111.386,370.391 155.413,392.031 204.500,392.031 C217.836,392.031 230.794,390.423 243.204,387.409 L336.989,417.177 C299.865,443.286 254.617,458.625 205.781,458.625 C130.839,458.625 64.330,422.523 22.696,366.764 L42.804,335.392 Z" class="cls-1"/>
  <path d="M370.844,72.530 C377.978,79.991 384.602,87.943 390.681,96.316 L370.844,72.530 ZM215.762,423.077 L237.639,389.256 L238.414,388.499 C299.717,375.564 348.346,328.280 363.236,267.722 L391.022,299.246 L430.317,271.974 C413.716,361.966 344.348,433.457 255.485,453.184 L215.762,423.077 Z" class="cls-2"/>
  <path d="M395.987,303.660 L364.621,262.495 C366.795,251.830 367.937,240.791 367.937,229.484 C367.937,181.885 347.701,139.018 315.371,108.993 L344.778,49.151 C399.101,90.890 434.125,156.499 434.125,230.297 C434.125,249.939 431.643,269.000 426.978,287.187 L395.987,303.660 Z" class="cls-3"/>
  <path d="M354.795,93.338 L307.675,101.837 C279.605,79.450 244.040,66.063 205.344,66.063 C151.908,66.063 104.439,91.584 74.444,131.095 L64.375,131.558 L15.578,110.444 L11.917,109.624 C52.242,44.987 123.982,1.969 205.781,1.969 C263.392,1.969 316.011,23.311 356.185,58.508 L354.795,93.338 Z" class="cls-4"/>
  <path d="M162.973,28.053 L149.185,76.999 C110.658,91.322 79.140,120.041 61.161,156.620 L41.149,127.723 L0.067,131.081 C26.753,75.860 75.024,33.029 133.924,13.518 L162.973,28.053 Z" class="cls-5"/>
  <path d="M136.321,12.345 L174.578,33.420 L158.512,73.504 L144.539,79.548 L158.328,40.179 L116.301,18.110 L136.321,12.345 Z" class="cls-6"/>
  <path d="M112.001,21.589 L152.351,42.572 L137.614,81.945 L129.216,86.639 L145.353,44.464 L106.298,24.348 L112.001,21.589 Z" class="cls-6"/>
  <path d="M356.824,58.187 L358.481,101.684 L315.739,109.525 L303.341,99.362 L344.892,91.310 L342.749,46.487 L356.824,58.187 Z" class="cls-6"/>
  <path d="M338.315,43.888 L339.972,87.449 L297.475,94.651 L290.422,90.020 L334.976,82.486 L333.238,40.272 L338.315,43.888 Z" class="cls-6"/>
  <path d="M428.044,286.739 L387.590,311.080 L360.816,276.053 L364.805,258.294 L390.961,292.308 L431.289,269.625 L428.044,286.739 Z" class="cls-6"/>
  <path d="M432.514,260.772 L392.287,285.458 L366.812,249.401 L367.406,239.286 L394.666,277.972 L433.204,253.364 L432.514,260.772 Z" class="cls-6"/>
  <path d="M251.672,454.714 L211.645,421.345 L231.129,389.447 L249.653,385.212 L230.290,417.787 L269.804,450.344 L251.672,454.714 Z" class="cls-6"/>
  <path d="M275.679,448.607 L237.128,416.577 L259.494,382.330 L268.876,378.849 L244.934,416.120 L282.925,445.895 L275.679,448.607 Z" class="cls-6"/>
</svg>
