<svg id="图层_1" xmlns="http://www.w3.org/2000/svg" viewBox="0 0 100 100"><style>.st0{fill:#fff}</style><g id="XMLID_53_"><path id="XMLID_58_" class="st0" d="M33.3 45.7c3.1 7.7 9.2 14 16.7 14s13.6-6.3 16.7-13.9c2.2-.4 4.3-2.2 4.6-6.3.3-3.9-.9-5.6-2.6-6.2-.5-13.8-6.2-17.8-13.1-18.9V9.9c0-2-1.6-3.5-3.6-3.5h-4.1c-2 0-3.6 1.5-3.6 3.5v4.5c-7.1 1.2-12.7 5.4-13.1 18.9-1.5.8-2.6 2.4-2.3 6.1.4 3.9 2.3 5.7 4.4 6.3zm11.1-27.5c0 1.7 1.4 3.2 3.1 3.2h5c1.7 0 3.1-1.4 3.1-3.2 5.5 1.1 9.3 4.7 9.3 17.1 0 9.4-6.7 20.7-15 20.7S34.8 44.7 34.8 35.3c.1-12.4 4-16 9.6-17.1z"/><path id="XMLID_54_" class="st0" d="M66.7 56.8l-3.9-1-5.3 7.7c-1.7 2.4-4.5 3.9-7.5 3.9s-5.8-1.5-7.5-3.9l-5.4-7.7-4 1C24 59.2 17.5 67.4 17.5 77v11.4c0 3.3 2.7 6.1 6 6.1h53c3.3 0 6-2.8 6-6.1V77c0-9.6-6.5-17.8-15.8-20.2zM29.9 90.5h-6.4c-1.2 0-2.3-.9-2.3-2.1V77c0-6.2 3.4-11.8 8.7-14.7v28.2zm48.9-2.2c0 1.2-1.1 2.1-2.3 2.1h-6.4V62.2c5.3 3 8.7 8.5 8.7 14.7v11.4z"/></g></svg>