<?xml version="1.0" encoding="utf-8"?>
<!-- Generator: Adobe Illustrator 19.0.0, SVG Export Plug-In . SVG Version: 6.00 Build 0)  -->
<svg version="1.1" id="图层_1" xmlns="http://www.w3.org/2000/svg" xmlns:xlink="http://www.w3.org/1999/xlink" x="0px" y="0px"
	 viewBox="0 0 100 100" style="enable-background:new 0 0 100 100;" xml:space="preserve">
<style type="text/css">
	.st0{fill:#FFFFFF;}
</style>
<g id="XMLID_53_">
	<path id="XMLID_58_" class="st0" d="M33.3,45.7c3.1,7.7,9.2,14,16.7,14c7.5,0,13.6-6.3,16.7-13.9c2.2-0.4,4.3-2.2,4.6-6.3
		c0.3-3.9-0.9-5.6-2.6-6.2c-0.5-13.8-6.2-17.8-13.1-18.9V9.9c0-2-1.6-3.5-3.6-3.5h-4.1c-2,0-3.6,1.5-3.6,3.5v4.5
		c-7.1,1.2-12.7,5.4-13.1,18.9c-1.5,0.8-2.6,2.4-2.3,6.1C29.3,43.3,31.2,45.1,33.3,45.7z M44.4,18.2c0,1.7,1.4,3.2,3.1,3.2h5
		c1.7,0,3.1-1.4,3.1-3.2c5.5,1.1,9.3,4.7,9.3,17.1c0,9.4-6.7,20.7-15,20.7c-8.3,0-15.1-11.3-15.1-20.7
		C34.9,22.9,38.8,19.3,44.4,18.2z"/>
	<path id="XMLID_54_" class="st0" d="M66.7,56.8l-3.9-1l-5.3,7.7c-1.7,2.4-4.5,3.9-7.5,3.9c-3,0-5.8-1.5-7.5-3.9l-5.4-7.7l-4,1
		C24,59.2,17.5,67.4,17.5,77v11.4c0,3.3,2.7,6.1,6,6.1h53c3.3,0,6-2.8,6-6.1V77C82.5,67.4,76,59.2,66.7,56.8z M29.9,90.5h-6.4
		c-1.2,0-2.3-0.9-2.3-2.1V77c0-6.2,3.4-11.8,8.7-14.7V90.5z M78.8,88.3c0,1.2-1.1,2.1-2.3,2.1h-6.4V62.2c5.3,3,8.7,8.5,8.7,14.7
		V88.3z"/>
</g>
</svg>
