<svg id="图层_1" xmlns="http://www.w3.org/2000/svg" viewBox="0 0 100 100"><style>.st0{fill:#fff}</style><g id="XMLID_2_"><path id="XMLID_9_" class="st0" d="M50.8 21.4c-16 0-29 13-29 29s13 29 29 29 29-13 29-29c0-16.1-13-29-29-29zm0 56.1c-15 0-27.1-12.1-27.1-27.1 0-15 12.1-27.1 27.1-27.1S78 35.4 78 50.3c0 15-12.2 27.2-27.2 27.2z"/><path id="XMLID_8_" class="st0" d="M44.5 60h-4.7c-.5 0-1-.5-1-1v-8.2h5.7c.5 0 1 .4 1 1V59c0 .6-.4 1-1 1z"/><path id="XMLID_7_" class="st0" d="M62.8 60h-4.7c-.5 0-1-.5-1-1v-7.2c0-.6.5-1 1-1h5.7V59c0 .6-.5 1-1 1z"/><path id="XMLID_5_" class="st0" d="M51.2 37.8c-6.9 0-12.4 5.7-12.4 12.6v1H40v-1.6c0-5.9 5.4-10.9 11.3-10.9 6.5 0 11.3 5.4 11.3 10.9v1.5h1.1v-.9c.1-7.4-5.5-12.6-12.5-12.6z"/><path id="XMLID_4_" class="st0" d="M54.8 62.6s2.1 0 3.3-.5c1.7-.7 3.6-2.1 3.6-2.1h-1.9s-.8.7-2.2 1.2c-1 .4-2.8.4-2.8.4"/><path id="XMLID_3_" class="st0" d="M54.3 63.7h-4c-.3 0-.5-.2-.5-.5v-2.1c0-.3.2-.5.5-.5h4c.3 0 .5.2.5.5v2.1c0 .3-.3.5-.5.5z"/></g></svg>