<?xml version="1.0" encoding="utf-8"?>
<!-- Generator: Adobe Illustrator 19.0.0, SVG Export Plug-In . SVG Version: 6.00 Build 0)  -->
<svg version="1.1" id="图层_1" xmlns="http://www.w3.org/2000/svg" xmlns:xlink="http://www.w3.org/1999/xlink" x="0px" y="0px"
	 viewBox="0 0 100 100" style="enable-background:new 0 0 100 100;" xml:space="preserve">
<style type="text/css">
	.st0{fill:#FFFFFF;}
</style>
<g id="XMLID_2_">
	<path id="XMLID_9_" class="st0" d="M50.8,21.4c-16,0-29,13-29,29c0,16,13,29,29,29s29-13,29-29C79.8,34.3,66.8,21.4,50.8,21.4z
		 M50.8,77.5c-15,0-27.1-12.1-27.1-27.1c0-15,12.1-27.1,27.1-27.1S78,35.4,78,50.3C78,65.3,65.8,77.5,50.8,77.5z"/>
	<path id="XMLID_8_" class="st0" d="M44.5,60h-4.7c-0.5,0-1-0.5-1-1v-8.2h5.7c0.5,0,1,0.4,1,1V59C45.5,59.6,45.1,60,44.5,60z"/>
	<path id="XMLID_7_" class="st0" d="M62.8,60h-4.7c-0.5,0-1-0.5-1-1v-7.2c0-0.6,0.5-1,1-1h5.7V59C63.8,59.6,63.3,60,62.8,60z"/>
	<path id="XMLID_6_" class="st0" d="M51.4,70.4"/>
	<path id="XMLID_5_" class="st0" d="M51.2,37.8c-6.9,0-12.4,5.7-12.4,12.6v1l1.2,0v-1.6c0-5.9,5.4-10.9,11.3-10.9
		c6.5,0,11.3,5.4,11.3,10.9v1.5l1.1,0v-0.9C63.8,43,58.2,37.8,51.2,37.8z"/>
	<path id="XMLID_4_" class="st0" d="M54.8,62.6c0,0,2.1,0,3.3-0.5c1.7-0.7,3.6-2.1,3.6-2.1h-1.9c0,0-0.8,0.7-2.2,1.2
		c-1,0.4-2.8,0.4-2.8,0.4"/>
	<path id="XMLID_3_" class="st0" d="M54.3,63.7h-4c-0.3,0-0.5-0.2-0.5-0.5v-2.1c0-0.3,0.2-0.5,0.5-0.5h4c0.3,0,0.5,0.2,0.5,0.5v2.1
		C54.8,63.5,54.5,63.7,54.3,63.7z"/>
</g>
</svg>
