<svg xmlns="http://www.w3.org/2000/svg" preserveAspectRatio="xMidYMid" width="120" height="30" viewBox="0 0 120 30"><defs><style>.cls-1{fill:#0d0d0d;fill-rule:evenodd}</style></defs><path d="M116.703 19.492c-.782.548-1.289.392-1.523-.469-.938-3.358-2.227-5.78-3.867-7.265-.158-.235-.118-.311.117-.235 4.14 1.641 6.405 3.282 6.797 4.922-.079 1.251-.586 2.267-1.524 3.047zm-5.273 3.633l-.117-3.281c0-.156.076-.273.234-.352.077 0 .156.079.234.235l.821 2.343c.468 1.095 1.131 1.993 1.992 2.696 1.249.937 1.093 1.796-.469 2.578-2.736.859-6.368.976-10.898.351-2.579-.468-3.829-2.303-3.75-5.508l.234-9.023c0-2.344-.04-3.75-.117-4.219 0-.155.077-.194.234-.117l3.164 1.406c.156 0 .156.118 0 .352l-.351.703-.938 11.367c-.157 1.564.586 2.344 2.227 2.344 2.499.313 4.804.117 6.914-.586.469-.156.663-.586.586-1.289zm-5.157-15.586c-1.016-2.655-2.343-4.453-3.984-5.391-.157-.155-.079-.234.234-.234 3.985 1.095 6.094 2.15 6.329 3.164 0 1.251-.392 2.188-1.172 2.813-.782.468-1.251.351-1.407-.352zM92.914 21.484c-.861-.155-.937-.858-.234-2.109 1.327-1.718 2.03-4.374 2.109-7.969 0-.155.117-.234.352-.234.077 0 .155.079.234.234 1.014 3.439 1.132 6.251.352 8.438-.704 1.016-1.641 1.563-2.813 1.64zm-3.82-11.836l-7.5.235-.235 7.734 2.227-.117 1.289-1.641 2.695 1.758c.156.079.156.196 0 .352l-.586.82.118 6.797.234.586c.156.234.038.351-.352.351-2.343-.234-5.703-.351-10.078-.351v.117l.117 1.289c-.781 1.328-1.602 1.796-2.46 1.406l-.118-12.07c0-.39.118-.507.352-.351l2.109 1.171h2.11l.117-12.656V.859l3.398.938c.156.079.156.196 0 .351l-.82 1.055-.117 5.859h3.867l1.641-1.992 2.109 2.227c.156.234.117.351-.117.351zm-12.188 8.907v7.031h6.914v-7.383l-6.914.352zm-5.156 8.32c-.782-2.344-1.758-3.867-2.93-4.57-.078-.235 0-.352.235-.352 2.578 1.095 4.14 2.071 4.687 2.93.235.547 0 1.289-.703 2.226-.626.469-1.055.39-1.289-.234zm1.055-21.914V18.32c-.235 1.172-.782 2.15-1.641 2.93-.234.079-.43-.038-.586-.352l.117-16.64-4.336.234-.468.703-.352 13.828c-.157 1.33-.509 2.344-1.055 3.047-.157.235-.313.352-.468.352-.158 0-.235-.117-.235-.352l.235-13.945c0-3.203-.041-5.039-.118-5.508-.078-.234 0-.311.235-.234l2.344 1.523 4.218-.117.821-1.172 1.875 1.055c.155.079.155.196 0 .351l-.586.938zM67.18 7.656c0-.311.077-.469.234-.469l1.758.704c.311 0 .351.274.117.82.077 6.72-.313 11.25-1.172 13.594-.782 2.501-2.853 4.998-6.211 7.5-.313.155-.392.077-.234-.235 2.578-2.422 4.178-4.998 4.805-7.734.703-2.734.937-7.46.703-14.18zM51.875 27.813c-2.812-.314-4.219-1.758-4.219-4.336v-8.321c0-.234.077-.273.235-.117l2.343 1.055c.156.078.156.196 0 .351l-.468.821-.118 4.218c2.5-1.093 4.336-2.343 5.508-3.75.156-.155.273-.155.352 0l1.406 1.407.234.234-.234.117c-2.578 1.016-5.001 1.798-7.266 2.344l-.117 2.227c0 1.094.507 1.64 1.524 1.64 1.64.235 3.281.196 4.922-.117.937-.39 1.6-1.289 1.992-2.695.077-.156.155-.194.234-.118.077 0 .156.079.235.235-.158 1.016 0 1.758.468 2.226.625.938.429 1.641-.586 2.11-1.798.703-3.946.859-6.445.469zm-1.055-13.36c-2.501-.39-3.673-1.835-3.515-4.336l.234-8.555c0-.234.039-.272.117-.117l2.461 1.172c.156.079.156.196 0 .352l-.469.82-.468 7.148c-.079.704.39 1.095 1.406 1.172 1.483.235 3.047.196 4.687-.117.78-.155 1.445-.82 1.993-1.992.077-.077.155-.117.234-.117.077 0 .117.079.117.234-.157.938.039 1.564.586 1.875.625.626.469 1.212-.469 1.758-1.953.861-4.259 1.095-6.914.703zm5.391-7.266c-.861.392-2.54.938-5.039 1.641-.079 0-.158-.038-.234-.117l.117-.234c1.562-.938 2.772-1.952 3.632-3.047.077-.077.156-.117.235-.117l1.523 1.523c.077.079.077.157 0 .234 0 .079-.078.117-.234.117zm-11.25 3.75c-.703.548-1.172.431-1.406-.351v-.234a5.289 5.289 0 0 0-.469-1.29c-3.36.627-6.017 1.134-7.969 1.524-.392.157-.586.117-.586-.117l-.234-1.172c-.079-.235 0-.352.234-.352.703-.234 1.211-.586 1.524-1.054 2.03-2.031 3.475-4.14 4.336-6.329 0-.155.038-.234.117-.234 0-.077.077-.038.234.117l2.11 1.875c.234.235.155.469-.235.703-.234.158-.547.431-.937.821-1.875 1.719-3.36 3.087-4.453 4.101l5.859-.117a28 28 0 0 0-1.055-2.695c-.078-.235 0-.311.235-.235 1.796 1.095 2.929 2.033 3.398 2.813.156.234.156.547 0 .937-.234.548-.469.978-.703 1.289zM29.656 6.25v4.687l.117.352c.077 0 .039.04-.117.117-1.329 0-3.556.079-6.679.235v.937c.076.782-.392 1.564-1.407 2.344-.234.157-.392.196-.468.117-.079 0-.118-.077-.118-.234V6.836c0-.39-.04-1.055-.117-1.992v-.938c0-.077.039-.155.117-.234l.235.117 1.758 1.055 4.218-.117.938-1.055 2.109 1.523c.156.079.156.158 0 .235l-.586.82zm-2.461-1.172l-4.218.117v5.86l4.335-.235-.117-5.742zM15.359 10c-.157.234-.313.665-.468 1.289v.234c2.186.627 3.398 1.251 3.632 1.875.156.704-.157 1.368-.937 1.993-.392.234-.703.117-.938-.352a7.084 7.084 0 0 0-1.992-3.164c-.626 1.485-1.523 2.695-2.695 3.633l1.875.937h8.906l1.524-1.406 2.343 1.875c.156.079.156.196 0 .352l-.703.937V25c0 1.328-.664 2.538-1.992 3.633-.313.39-.586.351-.82-.117-.548-1.172-.938-1.875-1.172-2.11l-8.32.235c-.314.624-.821 1.289-1.524 1.992-.313.234-.547.155-.703-.235l.117-10.429-.117-1.992c-1.485 1.171-4.259 2.422-8.32 3.75-.158.078-.275.04-.352-.118 0-.155.077-.272.235-.351 6.093-2.11 9.492-5.195 10.195-9.258l-3.633.117c-1.406.079-2.461.235-3.164.469l-.82-.82 7.734-.352c.311-1.172.469-2.538.469-4.101h-2.227a23.473 23.473 0 0 1-4.336 3.984c-.234.079-.313 0-.234-.235 2.344-2.343 3.906-4.998 4.687-7.968l1.875 1.289c.156.079.156.196 0 .351l-.468.352a6.252 6.252 0 0 1-1.172 1.641H17l1.172-1.407 1.64 1.641c.156 0 .118.079-.117.234h-3.867c0 1.641-.117 3.047-.351 4.219l1.875-.117 1.171-1.289 1.641 1.523c.156.158.156.235 0 .235L15.359 10zm7.618 15.938l.117-8.204c0-.545-.469-.82-1.406-.82l-7.969.117v3.867l7.265-.234c.235 0 .352.079.352.234 0 .235-.117.352-.352.352l-7.265.117-.117 4.688 9.375-.117zm13.312-13.477l1.992.937 3.985-.351 1.171-1.172 1.875 1.406c.156.158.156.313 0 .469l-.468.586-.117 11.953c-.079 1.172-.821 2.227-2.227 3.164-.157.156-.313.077-.469-.234-.078-.861-.351-1.406-.82-1.641-.158-.157-.117-.234.117-.234 1.093.077 1.562-.158 1.406-.703l-.117-12.305c0-.311-.157-.546-.469-.703l-3.867.351-.117 3.985 3.516-.352c.234 0 .351.079.351.235 0 .157-.117.274-.351.351l-3.516.352-.117 3.984 3.633-.352c.234 0 .351.079.351.235 0 .234-.117.351-.351.351l-3.633.352v3.281c.077 1.328-.352 2.382-1.289 3.164-.235.156-.392.235-.469.235-.157-.079-.234-.196-.234-.352l.117-13.359c0-.625-.04-1.445-.117-2.461v-.938c0-.234.077-.311.234-.234z" class="cls-1"/></svg>