<?xml version="1.0" encoding="utf-8"?>
<!-- Generator: Adobe Illustrator 19.0.0, SVG Export Plug-In . SVG Version: 6.00 Build 0)  -->
<svg version="1.1" id="图层_1" xmlns="http://www.w3.org/2000/svg" xmlns:xlink="http://www.w3.org/1999/xlink" x="0px" y="0px"
	 viewBox="0 0 248 270" style="enable-background:new 0 0 248 270;" xml:space="preserve">
<style type="text/css">
	.st0{fill:#F3F3F3;}
	.st1{fill:none;stroke:#EAC926;stroke-width:2;stroke-miterlimit:10;}
	.st2{opacity:0.3;fill:#EAC926;stroke:#EAC926;stroke-width:2;stroke-miterlimit:10;}
	.st3{fill:none;stroke:#EAC926;stroke-width:2;stroke-miterlimit:10;stroke-dasharray:8.026,8.026;}
	.st4{fill:none;stroke:#EAC926;stroke-width:2;stroke-miterlimit:10;stroke-dasharray:7.6716,7.6716;}
	.st5{fill:none;stroke:#EAC926;stroke-width:2;stroke-miterlimit:10;stroke-dasharray:8.2458,8.2458;}
	.st6{fill:none;stroke:#EAC926;stroke-width:2;stroke-miterlimit:10;stroke-dasharray:7.8137,7.8137;}
	.st7{fill:none;stroke:#EAC926;stroke-width:2;stroke-miterlimit:10;stroke-dasharray:7.7351,7.7351;}
	.st8{fill:none;stroke:#EAC926;stroke-width:2;stroke-miterlimit:10;stroke-dasharray:7.8931,7.8931;}
	.st9{fill:none;stroke:#EAC926;stroke-width:2;stroke-miterlimit:10;stroke-dasharray:7.1223,7.1223;}
	.st10{fill:none;stroke:#EAC926;stroke-width:2;stroke-miterlimit:10;stroke-dasharray:7.9228,7.9228;}
	.st11{fill:none;stroke:#EAC926;stroke-width:2;stroke-miterlimit:10;stroke-dasharray:6.2579,6.2579;}
	.st12{fill:none;stroke:#EAC926;stroke-width:2;stroke-miterlimit:10;stroke-dasharray:7.4074,7.4074;}
	.st13{fill:none;stroke:#EAC926;stroke-width:2;stroke-miterlimit:10;stroke-dasharray:7.6413,7.6413;}
	.st14{fill:none;stroke:#EAC926;stroke-miterlimit:10;}
</style>
<g id="XMLID_8_">
	<polygon id="XMLID_147_" class="st0" points="54.2,166.9 144.3,156.8 176.5,175 73.6,191 	"/>
	<polygon id="XMLID_146_" class="st1" points="177.7,167.4 77.1,181.7 58.4,160.6 147.9,151.1 	"/>
	<polygon id="XMLID_145_" class="st2" points="60.1,161.1 76.4,181.1 176,167.5 147,151.7 	"/>
	<g id="XMLID_139_">
		<g id="XMLID_182_">
			<line id="XMLID_185_" class="st1" x1="57.1" y1="95.9" x2="57.1" y2="99.9"/>
			<line id="XMLID_184_" class="st3" x1="57.2" y1="107.9" x2="57.5" y2="152"/>
			<line id="XMLID_183_" class="st1" x1="57.5" y1="156" x2="57.5" y2="160"/>
		</g>
	</g>
	<g id="XMLID_133_">
		<g id="XMLID_177_">
			<line id="XMLID_180_" class="st1" x1="147.5" y1="89" x2="147.6" y2="93"/>
			<line id="XMLID_179_" class="st4" x1="147.6" y1="100.7" x2="147.9" y2="142.9"/>
			<line id="XMLID_178_" class="st1" x1="147.9" y1="146.7" x2="147.9" y2="150.7"/>
		</g>
	</g>
	<g id="XMLID_127_">
		<g id="XMLID_172_">
			<line id="XMLID_175_" class="st1" x1="76.8" y1="116" x2="76.8" y2="120"/>
			<line id="XMLID_174_" class="st5" x1="76.9" y1="128.2" x2="77.1" y2="173.6"/>
			<line id="XMLID_173_" class="st1" x1="77.2" y1="177.7" x2="77.2" y2="181.7"/>
		</g>
	</g>
	<g id="XMLID_121_">
		<g id="XMLID_167_">
			<line id="XMLID_170_" class="st1" x1="105" y1="93" x2="105" y2="97"/>
			<line id="XMLID_169_" class="st6" x1="105.1" y1="104.8" x2="105.4" y2="147.8"/>
			<line id="XMLID_168_" class="st1" x1="105.4" y1="151.7" x2="105.4" y2="155.7"/>
		</g>
	</g>
	<g id="XMLID_112_">
		<g id="XMLID_162_">
			<line id="XMLID_165_" class="st1" x1="179.7" y1="105.8" x2="179.7" y2="109.8"/>
			<line id="XMLID_164_" class="st7" x1="179.7" y1="117.6" x2="179.9" y2="160.1"/>
			<line id="XMLID_163_" class="st1" x1="179.9" y1="164" x2="179.9" y2="168"/>
		</g>
	</g>
	<g id="XMLID_105_">
		<g id="XMLID_157_">
			<line id="XMLID_160_" class="st1" x1="128.8" y1="111.1" x2="128.8" y2="115.1"/>
			<line id="XMLID_159_" class="st8" x1="128.8" y1="123" x2="129.1" y2="166.4"/>
			<line id="XMLID_158_" class="st1" x1="129.2" y1="170.3" x2="129.2" y2="174.3"/>
		</g>
	</g>
	<g id="XMLID_98_">
		<g id="XMLID_152_">
			<line id="XMLID_155_" class="st1" x1="57.3" y1="97.2" x2="59.4" y2="99.3"/>
			<line id="XMLID_154_" class="st9" x1="64.4" y1="104.3" x2="72" y2="111.9"/>
			<line id="XMLID_153_" class="st1" x1="74.5" y1="114.5" x2="76.6" y2="116.6"/>
		</g>
	</g>
	<g id="XMLID_91_">
		<g id="XMLID_144_">
			<line id="XMLID_150_" class="st1" x1="104.2" y1="92.2" x2="107.3" y2="94.7"/>
			<line id="XMLID_149_" class="st10" x1="113.6" y1="99.6" x2="122.9" y2="106.9"/>
			<line id="XMLID_148_" class="st1" x1="126" y1="109.4" x2="129.2" y2="111.8"/>
		</g>
	</g>
	<g id="XMLID_84_">
		<g id="XMLID_138_">
			<line id="XMLID_142_" class="st1" x1="147.3" y1="89.1" x2="149.9" y2="90.5"/>
			<line id="XMLID_141_" class="st11" x1="155.5" y1="93.5" x2="174.8" y2="103.8"/>
			<line id="XMLID_140_" class="st1" x1="177.5" y1="105.3" x2="180.2" y2="106.7"/>
		</g>
	</g>
	<g id="XMLID_77_">
		<g id="XMLID_132_">
			<line id="XMLID_136_" class="st1" x1="76.8" y1="116.8" x2="80.8" y2="116.4"/>
			<line id="XMLID_135_" class="st12" x1="88.1" y1="115.7" x2="172.9" y2="107.7"/>
			<line id="XMLID_134_" class="st1" x1="176.6" y1="107.3" x2="180.6" y2="107"/>
		</g>
	</g>
	<g id="XMLID_30_">
		<g id="XMLID_126_">
			<line id="XMLID_130_" class="st1" x1="56.1" y1="96.2" x2="60.1" y2="95.9"/>
			<line id="XMLID_129_" class="st13" x1="67.8" y1="95.3" x2="140.1" y2="89.8"/>
			<line id="XMLID_128_" class="st1" x1="144" y1="89.5" x2="147.9" y2="89.2"/>
		</g>
	</g>
	<line id="XMLID_29_" class="st14" x1="105.4" y1="155.1" x2="128.8" y2="173.5"/>
</g>
</svg>
