<svg id="图层_1" xmlns="http://www.w3.org/2000/svg" viewBox="0 0 248 270"><style>.st0{fill:#f3f3f3}.st1{fill:none;stroke-width:2}.st1,.st2,.st3{stroke:#eac926;stroke-miterlimit:10}.st2{opacity:.3;stroke-width:2;fill:#eac926}.st3{fill:none;stroke-dasharray:8.026,8.026}.st3,.st4,.st5{stroke-width:2}.st4{fill:none;stroke:#eac926;stroke-miterlimit:10;stroke-dasharray:7.6716,7.6716}.st5{stroke-dasharray:8.2458,8.2458}.st5,.st6,.st7{fill:none;stroke:#eac926;stroke-miterlimit:10}.st6{stroke-width:2;stroke-dasharray:7.8137,7.8137}.st7{stroke-dasharray:7.7351,7.7351}.st7,.st8,.st9{stroke-width:2}.st8{fill:none;stroke:#eac926;stroke-miterlimit:10;stroke-dasharray:7.8931,7.8931}.st9{stroke-dasharray:7.1223,7.1223}.st10,.st11,.st9{fill:none;stroke:#eac926;stroke-miterlimit:10}.st10{stroke-width:2;stroke-dasharray:7.9228,7.9228}.st11{stroke-dasharray:6.2579,6.2579}.st11,.st12,.st13{stroke-width:2}.st12{fill:none;stroke:#eac926;stroke-miterlimit:10;stroke-dasharray:7.4074,7.4074}.st13{stroke-dasharray:7.6413,7.6413}.st13,.st14{fill:none;stroke:#eac926;stroke-miterlimit:10}</style><g id="XMLID_8_"><path id="XMLID_147_" class="st0" d="M54.2 166.9l90.1-10.1 32.2 18.2-102.9 16z"/><path id="XMLID_146_" class="st1" d="M177.7 167.4L77.1 181.7l-18.7-21.1 89.5-9.5z"/><path id="XMLID_145_" class="st2" d="M60.1 161.1l16.3 20 99.6-13.6-29-15.8z"/><g id="XMLID_139_"><g id="XMLID_182_"><path id="XMLID_185_" class="st1" d="M57.1 95.9v4"/><path id="XMLID_184_" class="st3" d="M57.2 107.9l.3 44.1"/><path id="XMLID_183_" class="st1" d="M57.5 156v4"/></g></g><g id="XMLID_133_"><g id="XMLID_177_"><path id="XMLID_180_" class="st1" d="M147.5 89l.1 4"/><path id="XMLID_179_" class="st4" d="M147.6 100.7l.3 42.2"/><path id="XMLID_178_" class="st1" d="M147.9 146.7v4"/></g></g><g id="XMLID_127_"><g id="XMLID_172_"><path id="XMLID_175_" class="st1" d="M76.8 116v4"/><path id="XMLID_174_" class="st5" d="M76.9 128.2l.2 45.4"/><path id="XMLID_173_" class="st1" d="M77.2 177.7v4"/></g></g><g id="XMLID_121_"><g id="XMLID_167_"><path id="XMLID_170_" class="st1" d="M105 93v4"/><path id="XMLID_169_" class="st6" d="M105.1 104.8l.3 43"/><path id="XMLID_168_" class="st1" d="M105.4 151.7v4"/></g></g><g id="XMLID_112_"><g id="XMLID_162_"><path id="XMLID_165_" class="st1" d="M179.7 105.8v4"/><path id="XMLID_164_" class="st7" d="M179.7 117.6l.2 42.5"/><path id="XMLID_163_" class="st1" d="M179.9 164v4"/></g></g><g id="XMLID_105_"><g id="XMLID_157_"><path id="XMLID_160_" class="st1" d="M128.8 111.1v4"/><path id="XMLID_159_" class="st8" d="M128.8 123l.3 43.4"/><path id="XMLID_158_" class="st1" d="M129.2 170.3v4"/></g></g><g id="XMLID_98_"><g id="XMLID_152_"><path id="XMLID_155_" class="st1" d="M57.3 97.2l2.1 2.1"/><path id="XMLID_154_" class="st9" d="M64.4 104.3l7.6 7.6"/><path id="XMLID_153_" class="st1" d="M74.5 114.5l2.1 2.1"/></g></g><g id="XMLID_91_"><g id="XMLID_144_"><path id="XMLID_150_" class="st1" d="M104.2 92.2l3.1 2.5"/><path id="XMLID_149_" class="st10" d="M113.6 99.6l9.3 7.3"/><path id="XMLID_148_" class="st1" d="M126 109.4l3.2 2.4"/></g></g><g id="XMLID_84_"><g id="XMLID_138_"><path id="XMLID_142_" class="st1" d="M147.3 89.1l2.6 1.4"/><path id="XMLID_141_" class="st11" d="M155.5 93.5l19.3 10.3"/><path id="XMLID_140_" class="st1" d="M177.5 105.3l2.7 1.4"/></g></g><g id="XMLID_77_"><g id="XMLID_132_"><path id="XMLID_136_" class="st1" d="M76.8 116.8l4-.4"/><path id="XMLID_135_" class="st12" d="M88.1 115.7l84.8-8"/><path id="XMLID_134_" class="st1" d="M176.6 107.3l4-.3"/></g></g><g id="XMLID_30_"><g id="XMLID_126_"><path id="XMLID_130_" class="st1" d="M56.1 96.2l4-.3"/><path id="XMLID_129_" class="st13" d="M67.8 95.3l72.3-5.5"/><path id="XMLID_128_" class="st1" d="M144 89.5l3.9-.3"/></g></g><path id="XMLID_29_" class="st14" d="M105.4 155.1l23.4 18.4"/></g></svg>