<svg xmlns="http://www.w3.org/2000/svg" preserveAspectRatio="xMidYMid" width="198" height="46" viewBox="0 0 198 46"><defs><style>.cls-1{fill:#171717;fill-rule:evenodd}</style></defs><path d="M189.75 42.255c-.384 1.088-.832 1.632-1.344 1.632-1.376 0-2.688-1.104-3.936-3.312-2.208-4.512-3.312-12.127-3.312-22.848V5.343h-10.656v14.976h7.344v1.584h-7.344v22.608h-1.584V21.903h-7.92v-1.584h7.92V5.343h-7.104V3.759h20.976v13.968c0 10.368.992 17.681 2.976 21.936.832 1.664 1.6 2.496 2.304 2.496.288 0 .528-.496.72-1.488.256-1.44.432-4.032.528-7.776l1.392.72c-.192 4.608-.512 7.488-.96 8.64zM149.958 2.607l1.152-1.104c3.232 2.496 6.048 5.121 8.448 7.872l-1.152 1.152c-2.112-2.463-4.928-5.103-8.448-7.92zm5.712 36.432c2.048-1.663 4.096-3.552 6.144-5.664l.432 1.776c-2.624 2.721-5.392 5.088-8.304 7.104l-.672-1.488c.512-.512.768-.991.768-1.44V17.775h-7.248v-1.632h8.88v22.896zm-13.296-20.256l-.576 1.44c-7.552-1.536-12.704-4.431-15.456-8.688-.736 1.377-1.616 2.577-2.64 3.6-2.4 2.145-6.208 3.825-11.424 5.04l-.672-1.488c5.024-1.119 8.656-2.655 10.896-4.608 2.08-1.951 3.408-4.591 3.984-7.92h-7.824c-1.344 1.889-3.008 3.585-4.992 5.088l-1.008-1.344c3.456-2.496 5.776-5.535 6.96-9.12l1.584.192a22.896 22.896 0 0 1-1.584 3.696h20.208v1.056a48.777 48.777 0 0 1-2.544 7.008l-1.584-.48a26.823 26.823 0 0 0 2.4-6.096H128.07c-.256 1.505-.608 2.801-1.056 3.888 2.496 4.289 7.616 7.2 15.36 8.736zm-40.992-.336c3.616-2.208 6.64-4.608 9.072-7.2l.96 1.104c-2.464 2.688-5.44 5.153-8.928 7.392l-1.104-1.296zm.72-14.736l.816-1.248c2.944.929 5.6 2.033 7.968 3.312l-.864 1.344c-2.656-1.471-5.296-2.607-7.92-3.408zM91.014 44.703H89.43v-26.4h-9.408v7.056c-.224 7.937-2 14.289-5.328 19.056l-1.2-1.248c3.008-4.255 4.64-10.191 4.896-17.808V5.151c5.696-.159 10.864-1.359 15.504-3.6l.816 1.488c-4.32 2.016-9.216 3.168-14.688 3.456v10.224H97.11v1.584h-6.096v26.4zm-25.44-19.584h9.072v1.536h-9.072v14.4c0 2.4-1.088 3.6-3.264 3.6h-2.688l-.336-1.584a50.89 50.89 0 0 0 2.496.096c1.44 0 2.16-.848 2.16-2.544V26.655h-9.744v-1.536h9.744v-7.056H53.526v-1.584h6.192a27.051 27.051 0 0 0-3.168-6.48l1.536-.528c1.152 1.857 2.224 4.193 3.216 7.008h6.24c1.28-2.175 2.416-4.591 3.408-7.248l1.536.528c-.992 2.465-2.128 4.704-3.408 6.72h6.432v1.584h-9.936v7.056zM53.958 5.583h10.368C63.398 3.696 62.342 2 61.158.495L62.79.207c1.12 1.473 2.176 3.264 3.168 5.376h9.216v1.632H53.958V5.583zm6.048 24.816c-1.376 4.833-3.344 9.057-5.904 12.672l-1.392-.912c2.56-3.487 4.464-7.519 5.712-12.096l1.584.336zM27.03 38.127c.768-.127 1.856-.288 3.264-.48v1.44l-3.264.432v4.944h-1.632v-4.752c-4.8.544-10.72.992-17.76 1.344l-.24-1.536c2.176-.063 3.808-.127 4.896-.192V21.471H7.11v-1.44h41.952v1.44H27.03v16.656zm-1.632-16.656h-11.52v4.848h11.52v-4.848zm0 6.288h-11.52v4.752h11.52v-4.752zm0 6.144h-11.52v5.328c4.48-.255 8.32-.559 11.52-.912v-4.416zM13.878 3.039h28.608v12.624H13.878V3.039zm1.584 11.184h25.392V9.951H15.462v4.272zm0-5.616h25.392V4.431H15.462v4.176zm16.464 18.816H30.39v-1.536h15.744v1.44c-1.088 4.065-3.008 7.536-5.76 10.416 2.464 2.016 5.328 3.728 8.592 5.136l-.864 1.344c-3.488-1.664-6.4-3.488-8.736-5.472-2.336 2.176-5.184 4.016-8.544 5.52l-.912-1.296c3.264-1.408 6.016-3.168 8.256-5.28-3.104-3.007-5.184-6.432-6.24-10.272zm12.576 0h-11.04c.992 3.521 2.896 6.609 5.712 9.264 2.528-2.688 4.304-5.775 5.328-9.264zm29.712 11.184l-1.392.528c-1.216-3.264-2.592-6.288-4.128-9.072l1.44-.384c1.728 3.168 3.088 6.144 4.08 8.928zm42.816-.384c2.24-2.304 3.584-6.175 4.032-11.616l1.68.192c-.672 6.017-2.144 10.161-4.416 12.432-2.56 2.656-7.936 4.32-16.128 4.992l-.672-1.44c7.776-.48 12.944-2 15.504-4.56zm-10.464-1.536V22.335h29.904v14.208h-1.632V23.919h-26.592v12.768h-1.68zm34.656 6.384l-.864 1.392a89.52 89.52 0 0 0-17.088-6.528l.864-1.248c6.112 1.697 11.808 3.824 17.088 6.384z" class="cls-1"/></svg>