<?xml version="1.0" encoding="utf-8"?>
<!-- Generator: Adobe Illustrator 19.0.0, SVG Export Plug-In . SVG Version: 6.00 Build 0)  -->
<svg version="1.1" id="图层_1" xmlns="http://www.w3.org/2000/svg" xmlns:xlink="http://www.w3.org/1999/xlink" x="0px" y="0px"
	 viewBox="0 0 130 40" style="enable-background:new 0 0 130 40;" xml:space="preserve">
<style type="text/css">
	.st0{fill:#191919;}
	.st1{fill-rule:evenodd;clip-rule:evenodd;fill:#191919;}
</style>
<g>
	<g id="XMLID_1336_">
		<g id="XMLID_1337_">
			<g id="XMLID_1338_">
				<g id="XMLID_1354_">
					<g id="XMLID_1355_">
						<path id="XMLID_1356_" class="st0" d="M44.5,3.3h5.6c-0.7,11.4-3,18.5-5.6,25.1h2.4c2-5,3.6-10.3,4.6-16.9h14.2
							c1.1,0,1.9,0.8,1.9,1.9v11c0,1-0.8,1.9-1.9,1.9h-7.5l-1.3,2.1h8.8c2.3,0,4.1-1.9,4.1-4.1V13.3c0-2.3-1.9-4.1-4.1-4.1H51.8
							c0.2-2,0.4-3.7,0.6-6h17.4V1H44.5V3.3z"/>
					</g>
				</g>
				<g id="XMLID_1351_">
					<g id="XMLID_1352_">
						<polygon id="XMLID_1353_" class="st0" points="79.3,-0.1 77.2,-0.1 77.2,6.2 74.5,6.2 74.6,6.2 76.5,2.4 74.3,2.4 71,8.4 
							71,8.4 71,8.4 71,8.4 71,8.4 77.2,8.4 77.2,16.5 71,19 71,21.3 77.2,18.8 77.2,28.3 79.3,28.3 79.3,17.9 81.5,17 81.5,14.6 
							79.3,15.5 79.3,8.4 81.5,8.4 81.5,6.2 79.3,6.2 						"/>
					</g>
				</g>
				<g id="XMLID_1348_">
					<g id="XMLID_1349_">
						<path id="XMLID_1350_" class="st0" d="M95.5,3.7h-9.3l2.2-3.8h-2.5l-3.1,6h4.1c-1.1,9.3-3,16.7-4.9,22.6h2.2
							c2-6.1,3.8-13.1,4.8-22.6h3.4c-0.8,9.3-2.5,16.6-4.2,22.6h2.3c1.8-6.1,3.4-13,4.1-22.6h0.8c1,0,1.8,0.8,1.8,1.8v17
							c0,1-0.8,1.8-1.8,1.8h-1.7l-1.3,2.2h3c2.2,0,4-1.8,4-4v-17C99.5,5.6,97.7,3.7,95.5,3.7z"/>
					</g>
				</g>
				<g id="XMLID_1344_">
					<g id="XMLID_1345_">
						<path id="XMLID_1346_" class="st0" d="M110,2.5h10.2c1.4,0,2.3,0.9,3.1,2.1l4.2,6.6l1.8-1.1l-4.2-6.6
							c-1.2-1.9-2.3-3.1-4.8-3.1H110c-2.5,0-3.6,1.2-4.8,3.1L101,10l1.8,1.1l4.2-6.6C107.8,3.4,108.6,2.5,110,2.5z"/>
					</g>
				</g>
				<g id="XMLID_1339_">
					<g id="XMLID_1340_">
						<path id="XMLID_1342_" class="st0" d="M106.1,25.2V14.6c0-1,0.8-1.8,1.8-1.8h15.2c0.4,0,0.7,0.3,0.7,0.7v4.9
							c0,0.4-0.3,0.7-0.7,0.7h-9.7v2.1h9.7c1.5,0,2.8-1.3,2.8-2.8v-4.9c0-1.5-1.3-2.8-2.8-2.8h-15.2c-2.2,0-4,1.8-4,4v10.6
							c0,2.2,1.8,3.2,4,3.2h18.6l1.2-2.1h-19.8C106.9,26.2,106.1,26.1,106.1,25.2z"/>
					</g>
				</g>
			</g>
		</g>
	</g>
	<g id="XMLID_1288_">
		<g id="XMLID_1292_">
			<g id="XMLID_1293_">
				<path id="XMLID_1319_" class="st1" d="M43.6,26.3c-1.2,1.1-2.5,1.2-3.9,0.7c-0.6-0.2-1.1,0.1-1.5,0.5c-0.1,0.1-0.2,0.3-0.4,0.5
					c0-1.5-0.1-1.7-1.4-2.1c-1.1-0.4-2.1-0.8-2.6-2c-0.5,1.4-0.2,3.3,1,4.2c1.6,1.2,1.9,2.9,0.7,4.5c-0.8,1-1.9,1.7-3.2,1.6
					c-1.4-0.2-2.1-1.2-2.5-2.4c-0.3-0.8-0.4-1.7-0.4-2.6c0-7.5,0-15,0-22.5c0-3-2.2-5.3-5.3-5.3c-6.1,0-12.3,0-18.4,0
					c-3.2,0-5.4,2.2-5.4,5.4c0,4.4,0,8.8,0,13.3c0,4.6,0,9.3,0,13.9c0,2.9,2.4,5.3,5.3,5.3c7,0,13.9,0,20.9,0c1.5,0,3-0.2,4.5-0.5
					c3.1-0.8,5.3-2.6,6.2-5.7c0.2-0.6,0.4-1.2,0.6-1.8c0.3-1,1-1.5,2-1.5c0.2,0,0.5,0,0.7,0C42.1,29.7,43.8,27.9,43.6,26.3z
					 M24.1,36.3C24.1,36.3,24.1,36.3,24.1,36.3c-6.2,0-12.4,0-18.6,0c-1.5,0-2.4-1.1-2.4-2.9c0-1.6,0-3.1,0-4.7c0-7.2,0-14.4,0-21.6
					c0-0.1,0-0.2,0-0.3c0-1.7,0.7-2.5,2.4-2.7c0.2,0,0.5,0,0.7,0c5.7,0,11.4,0,17.1,0c0.2,0,0.5,0,0.7,0.1c-1.9,0.2-3.9,0.5-5.8,0.7
					c-2.6,0.3-5.2,0.6-7.9,0.9C9.3,6,8.2,6.1,7.1,6.3c-1,0.1-1.4,0.6-1.4,1.6c0,8.2,0,16.3,0,24.5c0,1.3,0.6,2,1.8,2.1
					c2.7,0.3,5.4,0.6,8,0.9c2.7,0.3,5.3,0.6,8,0.9C23.7,36.2,23.9,36.2,24.1,36.3C24.1,36.3,24.1,36.3,24.1,36.3z M11.8,13.4
					c0,1.1-0.9,2-2,2c-1.1,0-2-0.9-2-2c0-1.1,0.9-2,2-2C10.9,11.4,11.8,12.3,11.8,13.4z"/>
			</g>
		</g>
		<g id="XMLID_1289_">
			<g id="XMLID_1290_">
				<path id="XMLID_1291_" class="st1" d="M24.1,36.3C24.1,36.3,24.1,36.3,24.1,36.3c0.2-0.1,0.3-0.1,0.6-0.1
					C24.4,36.4,24.2,36.4,24.1,36.3z"/>
			</g>
		</g>
	</g>
	<g>
		<path id="XMLID_896_" class="st0" d="M47.4,32.5c0,0.6,0,1.2-0.1,1.8h3.6c0,0,0,0.2,0,0.2c-0.2,2.7-0.3,3.6-0.6,3.9
			c-0.1,0.2-0.3,0.2-0.6,0.2c-0.3,0-0.8,0-1.4,0c0-0.1-0.1-0.3-0.1-0.4c0.6,0.1,1.2,0.1,1.4,0.1c0.2,0,0.3,0,0.4-0.1
			c0.3-0.2,0.4-1.2,0.5-3.5h-3.2c-0.2,1.6-0.8,3.2-2.4,4.1c-0.1-0.1-0.2-0.2-0.3-0.3c2.3-1.2,2.5-3.9,2.5-6h-2.3v-0.4h6.9v0.4H47.4z
			"/>
		<path id="XMLID_894_" class="st0" d="M62.8,35.4c-0.4,0.1-0.7,0.2-1.1,0.4v3h-0.4v-2.8l-1.4,0.4L59.8,36c0.4-0.1,0.9-0.3,1.5-0.5
			v-2h-0.8c-0.1,0.5-0.2,0.9-0.4,1.3c-0.1,0-0.2-0.1-0.3-0.2c0.3-0.7,0.5-1.7,0.6-2.7l0.4,0.1c0,0.4-0.1,0.8-0.2,1.2h0.8v-1.7h0.4
			v1.7h0.9v0.4h-0.9v1.8l1-0.3L62.8,35.4z"/>
		<path id="XMLID_893_" class="st0" d="M67,32.9c0,0,0,0.2,0,0.2c-0.2,3.7-0.4,4.9-0.7,5.3c-0.2,0.2-0.3,0.2-0.5,0.2
			c-0.2,0-0.6,0-0.9,0c0-0.1,0-0.3-0.1-0.4c0.4,0,0.8,0,0.9,0c0.1,0,0.2,0,0.3-0.1c0.3-0.3,0.5-1.5,0.7-4.9H66
			c-0.4,2.2-1.3,4.3-2.7,5.4c-0.1-0.1-0.2-0.2-0.3-0.2c1.3-1,2.2-3,2.7-5.1h-0.8c-0.4,1.4-1.2,2.9-2.1,3.7c-0.1-0.1-0.2-0.2-0.3-0.2
			c0.9-0.7,1.6-2.1,2-3.5h-0.9c-0.3,0.6-0.6,1.2-1,1.6c-0.1-0.1-0.2-0.2-0.3-0.2c0.7-0.7,1.2-1.9,1.5-3.1l0.4,0.1
			c-0.1,0.5-0.2,0.9-0.4,1.3H67z"/>
		<path id="XMLID_891_" class="st0" d="M79.3,31.7c-0.1,0.1-0.1,0.2-0.2,0.3c0.9,1.2,2.1,2,3.5,2.6c-0.1,0.1-0.2,0.2-0.3,0.3
			c-1.3-0.7-2.4-1.5-3.4-2.7c-0.9,1.1-2.1,2.1-3.4,2.8c-0.1-0.1-0.2-0.2-0.3-0.3c1.5-0.7,2.9-1.9,3.7-3.2L79.3,31.7z"/>
		<path id="XMLID_890_" class="st0" d="M80.6,38.1c0.6,0,0.7-0.2,0.8-1.3c0.1,0.1,0.3,0.1,0.4,0.2c-0.1,1.2-0.3,1.5-1.2,1.5h-2.5
			c-0.9,0-1.2-0.2-1.2-0.8v-3.3h4.1c0,0,0,0.1,0,0.2c-0.1,1.4-0.1,1.9-0.3,2.1c-0.1,0.1-0.3,0.2-0.5,0.2c-0.2,0-0.6,0-1.1,0
			c0-0.1,0-0.2-0.1-0.4c0.5,0,0.9,0,1,0c0.2,0,0.2,0,0.3-0.1c0.1-0.1,0.2-0.6,0.2-1.7h-3.3v3c0,0.4,0.1,0.4,0.8,0.4H80.6z"/>
		<path id="XMLID_888_" class="st0" d="M93.6,32.9c-0.3,0.7-0.6,1.3-1.1,1.9v3.9h-0.4v-3.4c-0.3,0.4-0.7,0.7-1.1,1
			c0-0.1-0.2-0.2-0.2-0.3c1-0.8,1.8-1.9,2.3-3.1H91v-0.4h2.3c0.1-0.4,0.3-0.7,0.4-1l0.4,0.1c-0.1,0.3-0.2,0.6-0.3,1h4.2v0.4H93.6z"
			/>
		<path id="XMLID_887_" class="st0" d="M98.1,36.5h-2.3v1.8c0,0.3-0.1,0.4-0.3,0.5c-0.2,0.1-0.7,0.1-1.4,0.1c0-0.1-0.1-0.2-0.1-0.4
			c0.6,0,1.1,0,1.2,0c0.1,0,0.2,0,0.2-0.2v-1.8h-2.3v-0.4h2.3v-0.7c0.5-0.3,1-0.6,1.4-1h-3V34h3.4l0.1,0l0.3,0.2
			c-0.4,0.5-1.1,1-1.7,1.3v0.6h2.3V36.5z"/>
		<path id="XMLID_885_" class="st0" d="M109.2,32.5c0,0.6,0,1.2-0.1,1.8h3.6c0,0,0,0.2,0,0.2c-0.2,2.7-0.3,3.6-0.6,3.9
			c-0.1,0.2-0.3,0.2-0.6,0.2c-0.3,0-0.8,0-1.4,0c0-0.1-0.1-0.3-0.1-0.4c0.6,0.1,1.2,0.1,1.4,0.1c0.2,0,0.3,0,0.4-0.1
			c0.3-0.2,0.4-1.2,0.5-3.5H109c-0.2,1.6-0.8,3.2-2.4,4.1c-0.1-0.1-0.2-0.2-0.3-0.3c2.3-1.2,2.5-3.9,2.5-6h-2.3v-0.4h6.9v0.4H109.2z
			"/>
		<path id="XMLID_883_" class="st0" d="M124.6,35.4c-0.4,0.1-0.7,0.2-1.1,0.4v3h-0.4v-2.8l-1.4,0.4l-0.1-0.4
			c0.4-0.1,0.9-0.3,1.5-0.5v-2h-0.8c-0.1,0.5-0.2,0.9-0.4,1.3c-0.1,0-0.2-0.1-0.3-0.2c0.3-0.7,0.5-1.7,0.6-2.7l0.4,0.1
			c0,0.4-0.1,0.8-0.2,1.2h0.8v-1.7h0.4v1.7h0.9v0.4h-0.9v1.8l1-0.3L124.6,35.4z"/>
		<path id="XMLID_882_" class="st0" d="M128.8,32.9c0,0,0,0.2,0,0.2c-0.2,3.7-0.4,4.9-0.7,5.3c-0.2,0.2-0.3,0.2-0.5,0.2
			c-0.2,0-0.6,0-0.9,0c0-0.1,0-0.3-0.1-0.4c0.4,0,0.8,0,0.9,0c0.1,0,0.2,0,0.3-0.1c0.3-0.3,0.5-1.5,0.7-4.9h-0.6
			c-0.4,2.2-1.3,4.3-2.7,5.4c-0.1-0.1-0.2-0.2-0.3-0.2c1.3-1,2.2-3,2.7-5.1h-0.8c-0.4,1.4-1.2,2.9-2.1,3.7c-0.1-0.1-0.2-0.2-0.3-0.2
			c0.9-0.7,1.6-2.1,2-3.5h-0.9c-0.3,0.6-0.6,1.2-1,1.6c-0.1-0.1-0.2-0.2-0.3-0.2c0.7-0.7,1.2-1.9,1.5-3.1l0.4,0.1
			c-0.1,0.5-0.2,0.9-0.4,1.3H128.8z"/>
	</g>
</g>
</svg>
