<?xml version="1.0" encoding="utf-8"?>
<!-- Generator: Adobe Illustrator 19.0.0, SVG Export Plug-In . SVG Version: 6.00 Build 0)  -->
<svg version="1.1" id="图层_1" xmlns="http://www.w3.org/2000/svg" xmlns:xlink="http://www.w3.org/1999/xlink" x="0px" y="0px"
	 viewBox="0 0 152 30" style="enable-background:new 0 0 152 30;" xml:space="preserve">
<style type="text/css">
	.st0{fill:#FFFFFF;}
	.st1{fill-rule:evenodd;clip-rule:evenodd;fill:#FFFFFF;}
</style>
<g id="XMLID_2_">
	<g id="XMLID_59_">
		<g id="XMLID_60_">
			<g id="XMLID_61_">
				<g id="XMLID_74_">
					<g id="XMLID_75_">
						<path id="XMLID_76_" class="st0" d="M55.2-3.2h5.9c-0.8,12.1-3.1,19.6-6,26.6h2.6c2.1-5.3,3.8-10.9,4.8-17.9h15.1
							c1.1,0,2,0.9,2,2v11.6c0,1.1-0.9,2-2,2h-8l-1.4,2.3h9.3c2.4,0,4.4-2,4.4-4.4V7.5c0-2.4-2-4.4-4.4-4.4H62.8
							c0.2-2.1,0.5-4,0.6-6.3h18.5v-2.4H55.2V-3.2z"/>
					</g>
				</g>
				<g id="XMLID_71_">
					<g id="XMLID_72_">
						<polygon id="XMLID_73_" class="st0" points="92,-6.8 89.8,-6.8 89.8,-0.1 87,-0.1 87,-0.1 89.1,-4.1 86.7,-4.1 83.2,2.2 
							83.2,2.2 83.2,2.2 83.2,2.2 83.3,2.2 89.8,2.2 89.8,10.8 83.2,13.4 83.2,15.9 89.8,13.3 89.8,23.4 92,23.4 92,12.3 94.3,11.3 
							94.3,8.8 92,9.8 92,2.2 94.3,2.2 94.3,-0.1 92,-0.1 						"/>
					</g>
				</g>
				<g id="XMLID_68_">
					<g id="XMLID_69_">
						<path id="XMLID_70_" class="st0" d="M109.2-2.7h-9.9l2.3-4H99l-3.3,6.3h4.4c-1.1,9.9-3.2,17.7-5.2,23.9h2.4
							c2.1-6.5,4-13.8,5.1-23.9h3.6c-0.8,9.8-2.7,17.6-4.5,23.9h2.4c1.9-6.5,3.6-13.8,4.4-23.9h0.9c1.1,0,1.9,0.8,1.9,1.9v18
							c0,1-0.8,1.9-1.9,1.9h-1.8l-1.3,2.3h3.2c2.3,0,4.2-1.9,4.2-4.2v-18C113.4-0.8,111.5-2.7,109.2-2.7z"/>
					</g>
				</g>
				<g id="XMLID_65_">
					<g id="XMLID_66_">
						<path id="XMLID_67_" class="st0" d="M124.6-4h10.8c1.5,0,2.4,1,3.2,2.2l4.5,7L145,4l-4.5-7c-1.3-2-2.4-3.3-5.1-3.3h-10.8
							c-2.7,0-3.8,1.3-5.1,3.3L115,4l1.9,1.2l4.5-7C122.2-3.1,123.1-4,124.6-4z"/>
					</g>
				</g>
				<g id="XMLID_62_">
					<g id="XMLID_63_">
						<path id="XMLID_64_" class="st0" d="M120.4,20V8.8c0-1.1,0.9-1.9,1.9-1.9h16.1c0.4,0,0.7,0.3,0.7,0.7v5.2
							c0,0.4-0.3,0.7-0.7,0.7h-10.3v2.3h10.3c1.6,0,3-1.4,3-3V7.5c0-1.6-1.3-3-3-3h-16.1c-2.3,0-4.2,1.9-4.2,4.2V20
							c0,2.3,1.9,3.4,4.2,3.4h19.7l1.3-2.3h-21C121.3,21.1,120.4,21,120.4,20z"/>
					</g>
				</g>
			</g>
		</g>
	</g>
	<g id="XMLID_49_">
		<g id="XMLID_53_">
			<g id="XMLID_54_">
				<path id="XMLID_55_" class="st1" d="M54.2,21.2c-1.2,1.2-2.6,1.3-4.1,0.7c-0.6-0.2-1.1,0.1-1.6,0.5c-0.1,0.1-0.2,0.3-0.4,0.5
					c0-1.6-0.1-1.8-1.4-2.2c-1.1-0.4-2.2-0.9-2.8-2.1c-0.5,1.5-0.2,3.5,1.1,4.5c1.7,1.3,2,3.1,0.7,4.7c-0.8,1.1-2,1.8-3.4,1.7
					c-1.5-0.2-2.2-1.2-2.7-2.5c-0.3-0.9-0.4-1.8-0.4-2.7c0-7.9,0-15.9,0-23.8c0-3.2-2.4-5.6-5.6-5.6c-6.5,0-13,0-19.5,0
					c-3.4,0-5.7,2.4-5.7,5.7c0,4.7,0,9.4,0,14.1c0,4.9,0,9.8,0,14.8c0,3.1,2.5,5.7,5.6,5.7c7.4,0,14.8,0,22.2,0
					c1.6,0,3.2-0.2,4.8-0.6c3.3-0.8,5.6-2.7,6.6-6c0.2-0.7,0.4-1.3,0.7-1.9c0.4-1,1.1-1.5,2.2-1.6c0.3,0,0.5,0,0.8,0
					C52.6,24.8,54.3,22.9,54.2,21.2z M33.5,31.8C33.5,31.8,33.5,31.8,33.5,31.8c-6.6,0-13.1,0-19.7,0c-1.6,0-2.5-1.2-2.6-3
					c0-1.7,0-3.3,0-5c0-7.6,0-15.2,0-22.9c0-0.1,0-0.2,0-0.4c0-1.8,0.8-2.6,2.6-2.8c0.3,0,0.5,0,0.8,0c6,0,12.1,0,18.1,0
					c0.3,0,0.5,0,0.8,0.1c-2.1,0.3-4.1,0.5-6.2,0.8c-2.8,0.3-5.6,0.7-8.3,1c-1.2,0.1-2.3,0.3-3.5,0.4c-1,0.1-1.5,0.7-1.5,1.7
					c0,8.6,0,17.3,0,25.9c0,1.4,0.6,2.1,1.9,2.3c2.8,0.3,5.7,0.6,8.5,0.9c2.8,0.3,5.6,0.6,8.5,0.9C33.1,31.7,33.3,31.7,33.5,31.8
					C33.5,31.8,33.6,31.8,33.5,31.8z M20.5,7.5c0,1.2-0.9,2.1-2.1,2.1c-1.2,0-2.1-1-2.1-2.1c0-1.1,1-2.1,2.1-2.1
					C19.5,5.4,20.5,6.4,20.5,7.5z"/>
			</g>
		</g>
		<g id="XMLID_50_">
			<g id="XMLID_51_">
				<path id="XMLID_52_" class="st1" d="M33.5,31.8C33.5,31.8,33.5,31.8,33.5,31.8c0.2-0.1,0.3-0.1,0.6-0.1
					C33.8,31.9,33.7,31.9,33.5,31.8z"/>
			</g>
		</g>
	</g>
	<g id="XMLID_3_">
		<path id="XMLID_48_" class="st0" d="M58.2,27.8c0,0.6,0,1.3-0.1,1.9h3.8c0,0,0,0.2,0,0.2c-0.2,2.8-0.3,3.8-0.6,4.2
			c-0.2,0.2-0.3,0.2-0.6,0.2c-0.3,0-0.9,0-1.5-0.1c0-0.1-0.1-0.3-0.1-0.4c0.7,0.1,1.3,0.1,1.5,0.1c0.2,0,0.3,0,0.4-0.1
			c0.3-0.3,0.4-1.2,0.6-3.8H58c-0.2,1.7-0.9,3.4-2.6,4.3c-0.1-0.1-0.2-0.2-0.3-0.3c2.5-1.3,2.6-4.1,2.6-6.3h-2.5v-0.4h7.4v0.4H58.2z
			"/>
		<path id="XMLID_47_" class="st0" d="M74.5,30.9c-0.4,0.1-0.8,0.3-1.2,0.4v3.1H73v-3l-1.5,0.5l-0.1-0.4c0.4-0.1,1-0.3,1.6-0.5v-2.1
			h-0.9c-0.1,0.5-0.2,1-0.4,1.4c-0.1-0.1-0.2-0.1-0.3-0.2c0.3-0.7,0.5-1.8,0.6-2.9l0.4,0.1c-0.1,0.4-0.1,0.8-0.2,1.2H73v-1.8h0.4
			v1.8h1v0.4h-1v1.9l1.1-0.3L74.5,30.9z"/>
		<path id="XMLID_46_" class="st0" d="M79,28.2c0,0,0,0.2,0,0.2c-0.2,3.9-0.4,5.2-0.8,5.6c-0.2,0.2-0.3,0.2-0.6,0.3
			c-0.2,0-0.6,0-1,0c0-0.1,0-0.3-0.1-0.4c0.4,0,0.8,0,1,0c0.1,0,0.2,0,0.3-0.1c0.3-0.3,0.5-1.6,0.7-5.2h-0.6
			c-0.4,2.3-1.4,4.6-2.8,5.7c-0.1-0.1-0.2-0.2-0.4-0.3c1.4-1,2.4-3.2,2.8-5.4h-0.9c-0.4,1.5-1.2,3.1-2.2,3.9
			c-0.1-0.1-0.2-0.2-0.3-0.2c0.9-0.7,1.7-2.3,2.1-3.7h-0.9c-0.3,0.6-0.6,1.2-1,1.7c-0.1-0.1-0.2-0.2-0.3-0.2c0.7-0.8,1.2-2,1.5-3.3
			l0.4,0.1c-0.1,0.5-0.3,1-0.4,1.4H79z"/>
		<path id="XMLID_45_" class="st0" d="M92,26.9c-0.1,0.1-0.1,0.2-0.2,0.3c1,1.3,2.3,2.1,3.7,2.8c-0.1,0.1-0.2,0.2-0.3,0.3
			c-1.4-0.7-2.6-1.6-3.6-2.8c-0.9,1.2-2.3,2.3-3.6,2.9c-0.1-0.1-0.2-0.2-0.3-0.3c1.6-0.7,3.1-2,4-3.4L92,26.9z"/>
		<path id="XMLID_44_" class="st0" d="M93.3,33.7c0.6,0,0.7-0.2,0.8-1.4c0.1,0.1,0.3,0.1,0.4,0.2c-0.1,1.3-0.3,1.6-1.2,1.6h-2.7
			c-1,0-1.3-0.2-1.3-0.9v-3.5h4.4c0,0,0,0.1,0,0.2c-0.1,1.5-0.1,2-0.3,2.2c-0.1,0.1-0.3,0.2-0.5,0.2c-0.2,0-0.7,0-1.1,0
			c0-0.1,0-0.3-0.1-0.4c0.5,0.1,0.9,0.1,1.1,0.1c0.2,0,0.2,0,0.3-0.1c0.1-0.1,0.2-0.6,0.2-1.8h-3.5v3.1c0,0.4,0.2,0.5,0.9,0.5H93.3z
			"/>
		<path id="XMLID_43_" class="st0" d="M107.1,28.2c-0.3,0.7-0.7,1.4-1.1,2v4.1h-0.4v-3.6c-0.3,0.4-0.7,0.8-1.1,1.1
			c-0.1-0.1-0.2-0.3-0.2-0.3c1.1-0.8,1.9-2,2.5-3.2h-2.2v-0.4h2.4c0.2-0.4,0.3-0.7,0.4-1.1l0.4,0.1c-0.1,0.3-0.2,0.7-0.4,1h4.5v0.4
			H107.1z"/>
		<path id="XMLID_42_" class="st0" d="M111.9,32h-2.4v1.9c0,0.3-0.1,0.4-0.3,0.5c-0.2,0.1-0.7,0.1-1.4,0.1c0-0.1-0.1-0.3-0.2-0.4
			c0.6,0,1.2,0,1.3,0c0.2,0,0.2-0.1,0.2-0.2V32h-2.5v-0.4h2.5v-0.8c0.5-0.3,1.1-0.7,1.5-1.1h-3.2v-0.4h3.6l0.1,0l0.3,0.2
			c-0.5,0.5-1.2,1.1-1.8,1.4v0.6h2.4V32z"/>
		<path id="XMLID_41_" class="st0" d="M123.7,27.8c0,0.6,0,1.3-0.1,1.9h3.8c0,0,0,0.2,0,0.2c-0.2,2.8-0.3,3.8-0.6,4.2
			c-0.2,0.2-0.3,0.2-0.6,0.2c-0.3,0-0.9,0-1.5-0.1c0-0.1-0.1-0.3-0.1-0.4c0.7,0.1,1.3,0.1,1.5,0.1c0.2,0,0.3,0,0.4-0.1
			c0.3-0.3,0.4-1.2,0.6-3.8h-3.4c-0.2,1.7-0.9,3.4-2.6,4.3c-0.1-0.1-0.2-0.2-0.3-0.3c2.5-1.3,2.6-4.1,2.6-6.3h-2.5v-0.4h7.4v0.4
			H123.7z"/>
		<path id="XMLID_40_" class="st0" d="M140.1,30.9c-0.4,0.1-0.8,0.3-1.2,0.4v3.1h-0.4v-3l-1.5,0.5l-0.1-0.4c0.4-0.1,1-0.3,1.6-0.5
			v-2.1h-0.9c-0.1,0.5-0.2,1-0.4,1.4c-0.1-0.1-0.2-0.1-0.3-0.2c0.3-0.7,0.5-1.8,0.6-2.9l0.4,0.1c0,0.4-0.1,0.8-0.2,1.2h0.8v-1.8h0.4
			v1.8h1v0.4h-1v1.9l1.1-0.3L140.1,30.9z"/>
		<path id="XMLID_39_" class="st0" d="M144.5,28.2c0,0,0,0.2,0,0.2c-0.2,3.9-0.4,5.2-0.8,5.6c-0.2,0.2-0.3,0.2-0.6,0.3
			c-0.2,0-0.6,0-1,0c0-0.1,0-0.3-0.1-0.4c0.4,0,0.8,0,1,0c0.1,0,0.2,0,0.3-0.1c0.3-0.3,0.5-1.6,0.7-5.2h-0.6
			c-0.4,2.3-1.4,4.6-2.8,5.7c-0.1-0.1-0.2-0.2-0.4-0.3c1.4-1,2.4-3.2,2.8-5.4h-0.9c-0.4,1.5-1.2,3.1-2.2,3.9
			c-0.1-0.1-0.2-0.2-0.3-0.2c0.9-0.7,1.7-2.3,2.1-3.7H141c-0.3,0.6-0.6,1.2-1,1.7c-0.1-0.1-0.2-0.2-0.3-0.2c0.7-0.8,1.2-2,1.5-3.3
			l0.4,0.1c-0.1,0.5-0.3,1-0.4,1.4H144.5z"/>
	</g>
</g>
</svg>
