<?xml version="1.0" encoding="utf-8"?>
<!-- Generator: Adobe Illustrator 19.0.0, SVG Export Plug-In . SVG Version: 6.00 Build 0)  -->
<svg version="1.1" id="图层_1" xmlns="http://www.w3.org/2000/svg" xmlns:xlink="http://www.w3.org/1999/xlink" x="0px" y="0px"
	 viewBox="0 0 152 30" style="enable-background:new 0 0 152 30;" xml:space="preserve">
<style type="text/css">
	.st0{fill:#EAC926;}
</style>
<g id="XMLID_2_">
	<path id="XMLID_35_" class="st0" d="M21.1,5.1h2.5v12.3h1.3v2h-1.3v5.4h-2.5v-5.4h-5.4v-2.3L21.1,5.1z M21.1,17.4V9.1l-3.3,8.3
		H21.1z"/>
	<path id="XMLID_32_" class="st0" d="M35.6,15.2c0,3.6-0.3,6.1-1,7.7c-0.7,1.5-1.8,2.3-3.4,2.3s-2.8-0.8-3.5-2.3
		c-0.7-1.5-1-4.1-1-7.8s0.3-6.3,1-7.8c0.7-1.5,1.8-2.3,3.4-2.3c1.5,0,2.6,0.7,3.3,2C35.3,8.3,35.6,11.1,35.6,15.2z M32.9,15.2
		c0-3-0.1-5.1-0.4-6.2c-0.3-1.1-0.7-1.7-1.4-1.7c-0.7,0-1.1,0.6-1.4,1.7c-0.3,1.1-0.4,3.2-0.4,6.1c0,2.9,0.1,5,0.4,6.1
		c0.3,1.1,0.7,1.7,1.4,1.7c0.7,0,1.1-0.6,1.4-1.7C32.8,20.1,32.9,18.1,32.9,15.2z"/>
	<path id="XMLID_29_" class="st0" d="M46.5,15.2c0,3.6-0.3,6.1-1,7.7c-0.7,1.5-1.8,2.3-3.4,2.3s-2.8-0.8-3.5-2.3
		c-0.7-1.5-1-4.1-1-7.8s0.3-6.3,1-7.8c0.7-1.5,1.8-2.3,3.4-2.3c1.5,0,2.6,0.7,3.3,2C46.1,8.3,46.5,11.1,46.5,15.2z M43.8,15.2
		c0-3-0.1-5.1-0.4-6.2c-0.3-1.1-0.7-1.7-1.4-1.7c-0.7,0-1.1,0.6-1.4,1.7c-0.3,1.1-0.4,3.2-0.4,6.1c0,2.9,0.1,5,0.4,6.1
		c0.3,1.1,0.7,1.7,1.4,1.7c0.7,0,1.1-0.6,1.4-1.7C43.7,20.1,43.8,18.1,43.8,15.2z"/>
	<path id="XMLID_27_" class="st0" d="M47.5,17.1h4.7v2h-4.7V17.1z"/>
	<path id="XMLID_23_" class="st0" d="M59.5,14.2c0.9,0.3,1.5,0.8,1.8,1.6c0.3,0.7,0.5,1.9,0.5,3.4c0,2.1-0.3,3.6-1,4.5
		s-1.8,1.4-3.2,1.4c-1.5,0-2.6-0.5-3.2-1.4c-0.7-1-1-2.5-1-4.5c0-1.6,0.2-2.7,0.5-3.4c0.3-0.7,0.9-1.2,1.8-1.6
		c-0.8-0.3-1.3-0.8-1.7-1.5c-0.3-0.7-0.5-1.7-0.5-2.9c0-0.8,0.1-1.6,0.2-2.2c0.2-0.6,0.4-1.1,0.7-1.5s0.8-0.7,1.3-0.9
		c0.5-0.2,1.1-0.3,1.9-0.3c0.7,0,1.3,0.1,1.8,0.3C60,5.3,60.4,5.6,60.7,6c0.3,0.4,0.6,0.9,0.7,1.5c0.2,0.6,0.2,1.3,0.2,2.2
		c0,1.2-0.2,2.2-0.5,2.9C60.9,13.3,60.3,13.8,59.5,14.2z M59.2,19.5c0-0.7,0-1.3-0.1-1.8c-0.1-0.5-0.2-0.9-0.3-1.2s-0.3-0.5-0.5-0.7
		s-0.5-0.2-0.8-0.2c-0.6,0-1,0.3-1.2,0.9s-0.4,1.5-0.4,2.9c0,2.3,0.6,3.4,1.7,3.4C58.7,22.8,59.2,21.7,59.2,19.5z M59.1,10
		c0-1.9-0.5-2.8-1.5-2.8c-1,0-1.5,0.9-1.5,2.8c0,2.1,0.5,3.1,1.5,3.1C58.6,13,59.1,12,59.1,10z"/>
	<path id="XMLID_19_" class="st0" d="M70.4,14.2c0.9,0.3,1.5,0.8,1.8,1.6c0.3,0.7,0.5,1.9,0.5,3.4c0,2.1-0.3,3.6-1,4.5
		s-1.8,1.4-3.2,1.4c-1.5,0-2.6-0.5-3.2-1.4c-0.7-1-1-2.5-1-4.5c0-1.6,0.2-2.7,0.5-3.4c0.3-0.7,0.9-1.2,1.8-1.6
		c-0.8-0.3-1.3-0.8-1.7-1.5c-0.3-0.7-0.5-1.7-0.5-2.9c0-0.8,0.1-1.6,0.2-2.2C64.8,6.9,65,6.4,65.3,6s0.8-0.7,1.3-0.9
		c0.5-0.2,1.1-0.3,1.9-0.3c0.7,0,1.3,0.1,1.8,0.3c0.5,0.2,0.9,0.5,1.3,0.9c0.3,0.4,0.6,0.9,0.7,1.5c0.2,0.6,0.2,1.3,0.2,2.2
		c0,1.2-0.2,2.2-0.5,2.9C71.7,13.3,71.2,13.8,70.4,14.2z M70.1,19.5c0-0.7,0-1.3-0.1-1.8c-0.1-0.5-0.2-0.9-0.3-1.2s-0.3-0.5-0.5-0.7
		s-0.5-0.2-0.8-0.2c-0.6,0-1,0.3-1.2,0.9s-0.4,1.5-0.4,2.9c0,2.3,0.6,3.4,1.7,3.4C69.6,22.8,70.1,21.7,70.1,19.5z M69.9,10
		c0-1.9-0.5-2.8-1.5-2.8c-1,0-1.5,0.9-1.5,2.8c0,2.1,0.5,3.1,1.5,3.1C69.4,13,69.9,12,69.9,10z"/>
	<path id="XMLID_15_" class="st0" d="M81.3,14.2c0.9,0.3,1.5,0.8,1.8,1.6c0.3,0.7,0.5,1.9,0.5,3.4c0,2.1-0.3,3.6-1,4.5
		s-1.8,1.4-3.2,1.4c-1.5,0-2.6-0.5-3.2-1.4c-0.7-1-1-2.5-1-4.5c0-1.6,0.2-2.7,0.5-3.4c0.3-0.7,0.9-1.2,1.8-1.6
		c-0.8-0.3-1.3-0.8-1.7-1.5c-0.3-0.7-0.5-1.7-0.5-2.9c0-0.8,0.1-1.6,0.2-2.2c0.2-0.6,0.4-1.1,0.7-1.5s0.8-0.7,1.3-0.9
		C78,5,78.6,4.9,79.3,4.9c0.7,0,1.3,0.1,1.8,0.3c0.5,0.2,0.9,0.5,1.3,0.9c0.3,0.4,0.6,0.9,0.7,1.5c0.2,0.6,0.2,1.3,0.2,2.2
		c0,1.2-0.2,2.2-0.5,2.9C82.6,13.3,82.1,13.8,81.3,14.2z M81,19.5c0-0.7,0-1.3-0.1-1.8c-0.1-0.5-0.2-0.9-0.3-1.2s-0.3-0.5-0.5-0.7
		s-0.5-0.2-0.8-0.2c-0.6,0-1,0.3-1.2,0.9s-0.4,1.5-0.4,2.9c0,2.3,0.6,3.4,1.7,3.4C80.4,22.8,81,21.7,81,19.5z M80.8,10
		c0-1.9-0.5-2.8-1.5-2.8c-1,0-1.5,0.9-1.5,2.8c0,2.1,0.5,3.1,1.5,3.1C80.3,13,80.8,12,80.8,10z"/>
	<path id="XMLID_13_" class="st0" d="M84.8,17.1h4.7v2h-4.7V17.1z"/>
	<path id="XMLID_10_" class="st0" d="M95,24.9h-2.8l1.9-3.8c0.3-0.7,0.7-1.4,1-2.2c0.3-0.7,0.7-1.5,1-2.3c-0.7,0.5-1.3,0.8-2,0.8
		c-1.2,0-2-0.5-2.6-1.4s-0.8-2.4-0.8-4.4c0-2.4,0.3-4.1,1-5.1s1.7-1.6,3.2-1.6c1.5,0,2.6,0.5,3.3,1.6s1,2.8,1,5.2
		c0,1.8-0.2,3.5-0.6,5c-0.2,0.8-0.5,1.6-0.8,2.5c-0.4,0.9-0.8,2-1.4,3.1l-1,2.2L95,24.9z M96.5,11.2c0-2.6-0.6-3.9-1.7-3.9
		c-1.1,0-1.7,1.3-1.7,3.9c0,1.4,0.1,2.3,0.4,2.9c0.3,0.6,0.7,0.9,1.3,0.9s1-0.3,1.3-0.9C96.4,13.5,96.5,12.5,96.5,11.2z"/>
	<path id="XMLID_8_" class="st0" d="M101.6,5.1h4.5v19.8h-2.6V7.4h-2V5.1z"/>
	<path id="XMLID_5_" class="st0" d="M114.1,24.9h-2.8l1.9-3.8c0.3-0.7,0.7-1.4,1-2.2c0.3-0.7,0.7-1.5,1-2.3c-0.7,0.5-1.3,0.8-2,0.8
		c-1.2,0-2-0.5-2.6-1.4s-0.8-2.4-0.8-4.4c0-2.4,0.3-4.1,1-5.1s1.7-1.6,3.2-1.6c1.5,0,2.6,0.5,3.3,1.6s1,2.8,1,5.2
		c0,1.8-0.2,3.5-0.6,5c-0.2,0.8-0.5,1.6-0.8,2.5c-0.4,0.9-0.8,2-1.4,3.1l-1,2.2L114.1,24.9z M115.6,11.2c0-2.6-0.6-3.9-1.7-3.9
		c-1.1,0-1.7,1.3-1.7,3.9c0,1.4,0.1,2.3,0.4,2.9c0.3,0.6,0.7,0.9,1.3,0.9s1-0.3,1.3-0.9C115.4,13.5,115.6,12.5,115.6,11.2z"/>
	<path id="XMLID_3_" class="st0" d="M123.2,11.5h-2.6l0-0.8c0-2.2,0.3-3.7,1-4.6c0.7-0.9,1.8-1.3,3.3-1.3c2.9,0,4.4,1.6,4.4,4.8
		c0,2.2-1.1,5.3-3.3,9.4l-1.6,3c0,0,0,0.1-0.1,0.2c0,0.1-0.1,0.2-0.2,0.4h4.9v2.3h-8.7c0.1-0.3,0.4-1,0.9-1.9c0.5-1,1.1-2.3,1.9-3.9
		c0.7-1.4,1.2-2.7,1.7-3.7s0.8-1.8,1-2.5c0.5-1.3,0.7-2.4,0.7-3.3c0-1.6-0.6-2.5-1.7-2.5c-1.1,0-1.6,1-1.6,3.1l0,1.1L123.2,11.5z"/>
</g>
</svg>
